<svg id="svg" version="1.1" xmlns="http://www.w3.org/2000/svg" xmlns:xlink="http://www.w3.org/1999/xlink" width="400" height="402.3408924652524" viewBox="0, 0, 400,402.3408924652524"><g id="svgg"><path id="path0" d="M194.384 170.826 C 188.577 171.355,181.551 174.192,177.083 177.812 C 176.143 178.574,173.598 181.118,172.741 182.154 C 171.481 183.675,168.483 188.560,168.483 189.091 C 168.483 189.185,168.266 189.736,168.001 190.314 C 167.550 191.300,167.209 192.344,166.480 194.971 C 165.359 199.014,165.018 206.017,165.725 210.478 C 165.872 211.400,166.058 212.651,166.139 213.259 C 166.221 213.867,166.517 215.081,166.798 215.959 C 167.079 216.836,167.309 217.644,167.309 217.755 C 167.309 217.866,167.452 218.273,167.627 218.660 C 167.802 219.046,168.149 219.850,168.398 220.445 C 168.648 221.041,169.157 222.059,169.531 222.709 C 169.904 223.358,170.386 224.196,170.600 224.570 C 172.954 228.673,178.562 233.189,184.019 235.374 C 192.305 238.692,205.584 238.465,214.394 234.855 C 214.701 234.729,214.765 234.610,214.681 234.320 C 214.621 234.116,214.462 233.458,214.328 232.858 C 214.194 232.259,213.839 230.901,213.539 229.841 L 212.992 227.913 212.238 228.167 C 211.823 228.306,211.408 228.466,211.316 228.521 C 210.870 228.790,208.757 229.370,206.866 229.743 C 199.736 231.147,194.283 230.759,188.060 228.405 C 187.267 228.105,184.386 226.509,184.160 226.245 C 184.067 226.135,183.801 225.928,183.571 225.786 C 181.466 224.482,178.650 220.999,177.064 217.738 C 173.113 209.615,173.605 196.013,178.106 188.935 C 181.241 184.006,184.605 181.218,189.645 179.374 C 192.531 178.318,195.149 177.851,198.754 177.749 C 203.460 177.616,209.411 178.672,212.260 180.146 C 212.865 180.458,212.855 180.461,212.977 179.925 C 213.082 179.459,214.029 176.273,214.602 174.454 C 214.920 173.446,214.901 173.177,214.512 173.177 C 214.390 173.177,213.878 172.988,213.375 172.758 C 212.431 172.326,208.628 171.322,206.706 170.997 C 205.337 170.766,196.404 170.642,194.384 170.826 M286.421 171.177 C 284.105 171.328,278.552 171.945,276.949 172.229 L 275.859 172.422 275.817 204.568 L 275.774 236.714 280.049 236.714 L 284.323 236.714 284.366 222.674 L 284.409 208.634 288.852 208.582 C 297.356 208.484,300.525 209.832,303.000 214.598 C 303.794 216.128,305.281 220.467,305.281 221.255 C 305.281 221.934,307.396 230.433,308.230 233.110 C 308.547 234.124,308.805 235.021,308.803 235.103 C 308.802 235.185,308.966 235.581,309.166 235.983 L 309.531 236.714 313.944 236.714 C 317.953 236.714,318.746 236.639,318.214 236.310 C 317.972 236.160,316.010 229.869,315.491 227.578 C 315.387 227.117,315.055 225.759,314.753 224.560 C 314.451 223.361,313.958 221.324,313.657 220.034 C 311.845 212.258,308.595 207.210,304.537 205.871 C 304.208 205.763,303.940 205.613,303.940 205.540 C 303.940 205.413,304.130 205.327,305.490 204.831 C 305.790 204.722,306.298 204.458,306.619 204.244 C 306.940 204.031,307.263 203.856,307.336 203.856 C 308.105 203.856,312.305 200.047,313.346 198.406 C 315.818 194.508,316.726 188.975,315.596 184.694 C 315.455 184.160,315.339 183.607,315.339 183.466 C 315.339 182.968,314.081 180.285,313.265 179.044 C 309.211 172.879,300.310 170.271,286.421 171.177 M67.333 172.800 C 67.103 173.514,66.266 175.985,65.473 178.290 C 64.679 180.595,63.622 183.688,63.123 185.163 C 62.625 186.639,61.374 190.298,60.344 193.294 C 59.314 196.291,58.372 199.082,58.251 199.497 C 58.001 200.352,57.038 203.180,56.738 203.940 C 56.629 204.216,56.365 204.971,56.152 205.616 C 55.741 206.863,54.754 209.807,54.466 210.645 C 54.371 210.922,54.138 211.601,53.947 212.154 C 53.757 212.707,53.361 213.877,53.067 214.753 C 52.541 216.324,52.378 216.802,51.637 218.944 C 51.430 219.543,51.020 220.750,50.725 221.626 C 50.431 222.502,50.032 223.671,49.840 224.225 C 48.829 227.127,47.919 229.814,47.567 230.930 C 47.422 231.391,46.920 232.863,46.452 234.199 C 45.984 235.536,45.600 236.649,45.600 236.672 C 45.600 236.695,47.596 236.714,50.036 236.714 L 54.473 236.714 55.301 234.158 C 55.756 232.751,56.296 231.111,56.499 230.511 C 56.703 229.912,57.114 228.705,57.413 227.829 C 57.712 226.953,58.299 225.142,58.717 223.806 C 59.136 222.469,59.647 220.884,59.852 220.285 C 60.058 219.686,60.433 218.592,60.686 217.854 L 61.145 216.513 72.693 216.513 L 84.241 216.513 84.474 217.267 C 84.602 217.682,84.967 218.776,85.286 219.698 C 85.604 220.620,86.073 221.978,86.327 222.716 C 86.582 223.453,86.909 224.434,87.053 224.895 C 87.197 225.356,88.120 228.072,89.104 230.930 C 90.088 233.789,90.933 236.259,90.982 236.421 C 91.063 236.691,91.434 236.714,95.654 236.714 L 100.238 236.714 99.716 235.163 C 99.428 234.311,98.978 233.047,98.716 232.355 C 98.454 231.664,98.136 230.721,98.010 230.260 C 97.770 229.382,97.389 228.253,96.480 225.733 C 96.181 224.904,95.819 223.847,95.676 223.386 C 95.533 222.925,94.804 220.775,94.056 218.609 C 93.307 216.442,92.281 213.424,91.776 211.903 C 91.270 210.381,90.784 208.986,90.696 208.801 C 90.524 208.441,88.302 201.922,87.925 200.671 C 87.800 200.256,87.269 198.709,86.745 197.234 C 86.220 195.759,85.695 194.212,85.578 193.797 C 85.460 193.382,85.165 192.515,84.921 191.869 C 84.677 191.224,84.377 190.356,84.255 189.941 C 84.035 189.192,83.588 187.886,82.563 184.996 C 81.617 182.330,81.118 180.827,80.868 179.892 C 80.734 179.390,80.560 178.900,80.481 178.803 C 80.403 178.705,80.112 177.909,79.837 177.033 C 79.284 175.279,78.754 173.728,78.247 172.381 L 77.916 171.500 72.833 171.500 L 67.750 171.500 67.333 172.800 M220.453 175.105 L 220.453 178.709 230.344 178.709 L 240.235 178.709 240.235 207.712 L 240.235 236.714 244.509 236.714 L 248.784 236.714 248.826 207.754 L 248.868 178.793 258.801 178.750 L 268.734 178.706 268.734 175.103 L 268.734 171.500 244.593 171.500 L 220.453 171.500 220.453 175.105 M327.745 204.107 L 327.745 236.714 345.935 236.714 L 364.124 236.714 364.124 233.110 L 364.124 229.505 350.210 229.505 L 336.295 229.505 336.295 200.503 L 336.295 171.500 332.020 171.500 L 327.745 171.500 327.745 204.107 M296.248 177.950 C 300.255 178.652,302.159 179.481,304.050 181.346 C 305.680 182.954,305.892 183.227,306.393 184.361 C 310.008 192.534,304.960 200.883,295.822 201.846 C 294.985 201.934,292.056 202.007,289.313 202.009 L 284.325 202.012 284.325 190.220 L 284.325 178.428 285.482 178.221 C 288.599 177.664,293.862 177.531,296.248 177.950 M73.082 180.889 C 73.328 182.186,75.059 188.216,75.800 190.360 C 75.991 190.914,76.263 191.744,76.403 192.205 C 76.543 192.666,76.882 193.624,77.155 194.335 C 77.428 195.046,77.713 195.876,77.788 196.179 C 77.864 196.483,78.354 197.938,78.878 199.413 C 79.402 200.889,79.897 202.360,79.979 202.682 C 80.060 203.005,80.354 203.824,80.633 204.502 C 80.912 205.180,81.140 205.843,81.140 205.975 C 81.140 206.107,81.404 206.899,81.727 207.735 C 82.049 208.570,82.313 209.360,82.313 209.489 C 82.313 209.687,80.813 209.723,72.598 209.723 L 62.882 209.723 63.320 208.424 C 63.560 207.710,64.009 206.459,64.318 205.644 C 64.626 204.830,64.878 204.065,64.878 203.945 C 64.878 203.825,65.132 203.020,65.441 202.157 C 65.751 201.293,66.136 200.172,66.297 199.665 C 66.457 199.158,66.684 198.516,66.799 198.240 C 66.915 197.963,67.125 197.360,67.266 196.899 C 67.408 196.438,67.691 195.570,67.897 194.971 C 68.102 194.371,68.513 193.164,68.810 192.288 C 69.765 189.473,71.532 183.471,71.746 182.313 C 71.909 181.436,72.425 179.511,72.553 179.304 C 72.663 179.126,72.860 179.717,73.082 180.889 M107.460 213.915 L 107.460 236.714 120.201 236.714 L 132.942 236.714 132.942 234.201 L 132.942 231.688 123.177 231.644 L 113.412 231.601 113.369 211.358 L 113.326 191.115 110.393 191.115 L 107.460 191.115 107.460 213.915 M128.248 193.630 L 128.248 196.144 135.122 196.144 L 141.995 196.144 141.995 216.429 L 141.995 236.714 145.013 236.714 L 148.030 236.714 148.030 216.429 L 148.030 196.144 155.071 196.144 L 162.112 196.144 162.112 193.630 L 162.112 191.115 145.180 191.115 L 128.248 191.115 128.248 193.630 " stroke="none" fill="#fcfcfc" fill-rule="evenodd"></path><path id="path1" d="M190.444 6.043 C 189.107 6.124,186.655 6.311,184.996 6.459 C 183.336 6.606,180.997 6.793,179.799 6.874 C 178.600 6.955,176.337 7.217,174.769 7.457 C 173.202 7.697,171.278 7.964,170.495 8.049 C 169.711 8.135,167.909 8.433,166.491 8.713 C 165.073 8.992,163.742 9.220,163.534 9.220 C 163.325 9.220,162.146 9.456,160.915 9.743 C 159.683 10.031,158.264 10.328,157.762 10.404 C 157.259 10.480,155.976 10.765,154.912 11.039 C 153.847 11.312,152.485 11.656,151.886 11.803 C 151.287 11.951,150.306 12.193,149.707 12.341 C 147.747 12.827,142.074 14.493,139.983 15.198 C 139.568 15.338,138.776 15.603,138.223 15.787 C 134.413 17.055,133.803 17.269,132.272 17.879 C 131.488 18.191,130.759 18.445,130.653 18.443 C 130.546 18.442,129.942 18.675,129.312 18.960 C 128.681 19.246,127.863 19.579,127.494 19.701 C 126.596 19.997,124.882 20.700,123.588 21.302 C 123.008 21.573,122.468 21.794,122.389 21.794 C 122.252 21.794,120.425 22.612,118.273 23.637 C 117.720 23.900,116.136 24.653,114.753 25.308 C 113.370 25.964,112.012 26.624,111.735 26.773 C 111.459 26.923,110.553 27.397,109.723 27.827 C 106.819 29.332,104.858 30.406,104.462 30.709 C 104.242 30.877,103.921 31.014,103.749 31.014 C 103.577 31.014,103.437 31.076,103.437 31.151 C 103.437 31.226,103.192 31.414,102.892 31.569 C 102.592 31.724,102.196 31.944,102.012 32.058 C 101.132 32.602,99.989 33.286,99.568 33.520 C 98.474 34.130,96.630 35.285,96.426 35.488 C 96.304 35.609,96.102 35.708,95.977 35.708 C 95.851 35.708,95.638 35.820,95.502 35.956 C 95.366 36.092,94.807 36.465,94.259 36.786 C 93.712 37.107,93.168 37.486,93.049 37.628 C 92.931 37.771,92.736 37.888,92.615 37.888 C 92.495 37.888,92.291 37.993,92.163 38.121 C 92.035 38.249,91.375 38.721,90.697 39.169 C 89.213 40.149,89.086 40.236,87.427 41.408 C 86.709 41.915,85.951 42.443,85.742 42.582 C 85.534 42.720,85.148 43.009,84.886 43.224 C 84.332 43.677,81.840 45.519,81.076 46.039 C 80.788 46.234,80.410 46.555,80.234 46.751 C 80.058 46.948,79.817 47.108,79.697 47.108 C 79.578 47.108,79.420 47.208,79.346 47.330 C 79.272 47.452,78.495 48.110,77.619 48.792 C 76.744 49.475,75.928 50.168,75.808 50.331 C 75.687 50.495,75.497 50.629,75.384 50.629 C 75.272 50.629,74.987 50.836,74.752 51.090 C 74.516 51.343,73.995 51.815,73.594 52.137 C 71.423 53.883,67.600 57.333,65.189 59.723 C 64.561 60.346,64.000 60.855,63.943 60.855 C 63.832 60.855,60.868 63.858,58.122 66.751 C 57.219 67.704,56.192 68.785,55.840 69.153 C 55.489 69.522,54.129 71.069,52.818 72.590 C 51.508 74.111,50.215 75.591,49.945 75.877 C 49.676 76.163,49.455 76.480,49.455 76.581 C 49.455 76.682,49.351 76.825,49.224 76.899 C 48.973 77.044,46.307 80.297,45.996 80.837 C 45.892 81.019,45.571 81.410,45.284 81.706 C 44.996 82.003,44.759 82.317,44.756 82.405 C 44.754 82.493,44.528 82.785,44.254 83.054 C 43.979 83.323,43.755 83.637,43.755 83.752 C 43.755 83.868,43.691 83.987,43.613 84.018 C 43.536 84.049,43.181 84.489,42.825 84.996 C 42.469 85.503,42.005 86.098,41.793 86.318 C 41.581 86.538,41.408 86.812,41.408 86.926 C 41.408 87.040,41.283 87.238,41.129 87.364 C 40.975 87.491,40.606 87.972,40.309 88.433 C 40.012 88.894,39.609 89.452,39.415 89.674 C 39.220 89.895,39.061 90.169,39.061 90.282 C 39.061 90.395,38.936 90.591,38.783 90.717 C 38.504 90.947,37.174 92.879,36.730 93.698 C 36.601 93.937,36.439 94.170,36.371 94.216 C 36.304 94.262,35.979 94.759,35.651 95.321 C 35.322 95.882,34.937 96.438,34.794 96.557 C 34.651 96.675,34.535 96.890,34.535 97.034 C 34.535 97.178,34.393 97.452,34.221 97.642 C 34.048 97.833,33.701 98.365,33.450 98.826 C 33.198 99.288,32.894 99.778,32.773 99.916 C 32.652 100.054,32.306 100.620,32.004 101.174 C 31.702 101.727,31.356 102.279,31.235 102.401 C 31.113 102.523,31.014 102.705,31.014 102.805 C 31.014 102.906,30.780 103.353,30.494 103.799 C 30.004 104.562,29.805 104.914,28.794 106.790 C 28.571 107.205,28.101 108.072,27.750 108.718 C 27.400 109.363,26.979 110.155,26.816 110.478 C 26.652 110.801,26.323 111.442,26.085 111.903 C 25.846 112.364,25.304 113.458,24.881 114.334 C 24.457 115.210,23.963 116.190,23.783 116.513 C 23.603 116.836,23.339 117.364,23.197 117.687 C 23.055 118.009,22.723 118.726,22.461 119.279 C 21.700 120.883,20.620 123.324,20.620 123.441 C 20.620 123.500,20.394 124.016,20.117 124.587 C 19.841 125.158,19.614 125.700,19.614 125.791 C 19.614 125.882,19.350 126.513,19.028 127.192 C 18.705 127.872,18.441 128.505,18.441 128.599 C 18.441 128.693,18.206 129.312,17.919 129.976 C 17.632 130.639,17.338 131.408,17.266 131.685 C 17.194 131.961,16.909 132.754,16.634 133.445 C 16.358 134.137,16.041 134.966,15.930 135.289 C 14.374 139.798,13.797 141.528,13.192 143.504 C 12.867 144.564,12.368 146.190,12.084 147.117 C 11.800 148.044,11.568 148.911,11.568 149.045 C 11.569 149.178,11.311 150.193,10.996 151.299 C 10.167 154.212,8.253 162.564,8.048 164.166 C 7.974 164.742,7.716 166.182,7.474 167.365 C 7.232 168.548,6.965 170.133,6.881 170.886 C 6.798 171.639,6.499 173.764,6.218 175.608 C 5.936 177.452,5.705 179.349,5.703 179.825 C 5.701 180.300,5.589 181.658,5.453 182.842 C 4.785 188.675,4.620 192.251,4.615 201.006 C 4.610 209.549,4.707 211.924,5.300 217.854 C 5.438 219.237,5.620 221.312,5.704 222.464 C 5.788 223.617,6.052 225.767,6.290 227.242 C 6.528 228.718,6.788 230.529,6.867 231.269 C 7.036 232.828,7.851 237.275,8.587 240.654 C 8.869 241.945,9.157 243.378,9.227 243.839 C 9.338 244.568,9.716 246.164,10.638 249.790 C 11.103 251.621,11.606 253.425,12.086 254.987 C 12.355 255.863,12.575 256.681,12.574 256.804 C 12.573 257.079,13.718 260.616,15.296 265.214 C 15.994 267.248,16.112 267.573,16.704 269.076 C 17.014 269.863,17.267 270.593,17.267 270.699 C 17.267 270.804,17.488 271.367,17.757 271.950 C 18.027 272.532,18.302 273.236,18.370 273.512 C 18.437 273.789,18.745 274.537,19.054 275.174 C 19.362 275.812,19.614 276.430,19.614 276.549 C 19.614 276.667,19.797 277.108,20.021 277.528 C 20.245 277.949,20.520 278.575,20.633 278.920 C 20.746 279.265,21.054 279.972,21.316 280.490 C 21.579 281.009,21.794 281.487,21.794 281.554 C 21.794 281.620,22.049 282.215,22.362 282.874 C 22.674 283.534,23.048 284.338,23.193 284.661 C 23.337 284.983,23.618 285.549,23.816 285.918 C 24.015 286.287,24.267 286.777,24.377 287.008 C 24.487 287.238,24.751 287.766,24.963 288.181 C 25.175 288.596,25.439 289.124,25.550 289.355 C 25.660 289.585,25.925 290.113,26.136 290.528 C 26.348 290.943,26.637 291.509,26.779 291.785 C 27.059 292.334,27.945 293.983,28.671 295.306 C 28.924 295.767,29.365 296.580,29.651 297.113 C 29.937 297.646,30.361 298.362,30.593 298.703 C 30.825 299.044,31.014 299.414,31.014 299.524 C 31.014 299.634,31.119 299.829,31.247 299.957 C 31.375 300.085,31.729 300.638,32.035 301.185 C 32.340 301.732,32.639 302.217,32.699 302.263 C 32.759 302.309,33.015 302.724,33.269 303.185 C 33.522 303.646,33.911 304.264,34.132 304.557 C 34.354 304.851,34.535 305.144,34.535 305.208 C 34.535 305.273,35.007 306.051,35.584 306.938 C 36.161 307.824,36.708 308.671,36.799 308.820 C 37.367 309.739,38.604 311.481,38.813 311.654 C 38.950 311.767,39.061 311.952,39.061 312.065 C 39.061 312.178,39.220 312.452,39.413 312.673 C 39.607 312.895,40.024 313.465,40.341 313.941 C 40.658 314.416,41.028 314.897,41.163 315.009 C 41.298 315.121,41.408 315.307,41.408 315.421 C 41.408 315.535,41.580 315.809,41.789 316.029 C 41.998 316.249,42.545 316.945,43.004 317.576 C 43.463 318.207,44.047 318.972,44.300 319.275 C 44.554 319.578,44.761 319.896,44.761 319.981 C 44.761 320.066,45.025 320.391,45.348 320.704 C 45.671 321.017,45.935 321.340,45.935 321.423 C 45.935 321.505,46.119 321.773,46.343 322.018 C 46.568 322.264,47.255 323.106,47.871 323.889 C 48.486 324.673,49.094 325.375,49.222 325.448 C 49.350 325.522,49.455 325.665,49.455 325.766 C 49.455 325.866,49.680 326.183,49.955 326.470 C 50.229 326.756,51.560 328.273,52.913 329.841 C 54.265 331.408,55.832 333.174,56.395 333.764 C 60.762 338.346,62.490 340.099,64.641 342.132 C 65.648 343.083,66.848 344.220,67.309 344.659 C 68.277 345.580,72.561 349.367,73.528 350.157 C 74.234 350.733,74.763 351.177,75.943 352.186 C 76.358 352.540,77.263 353.267,77.955 353.801 C 78.646 354.334,79.272 354.876,79.346 355.005 C 79.420 355.134,79.574 355.239,79.688 355.239 C 79.803 355.239,80.167 355.484,80.498 355.784 C 80.828 356.083,81.829 356.857,82.723 357.502 C 83.616 358.148,84.639 358.902,84.995 359.179 C 85.351 359.455,86.006 359.929,86.451 360.231 C 86.895 360.534,87.590 361.024,87.995 361.321 C 88.400 361.618,88.927 361.968,89.167 362.099 C 89.407 362.230,89.707 362.441,89.833 362.567 C 89.960 362.693,90.488 363.068,91.008 363.399 C 91.528 363.730,91.993 364.063,92.042 364.138 C 92.090 364.213,92.279 364.336,92.461 364.411 C 92.643 364.486,93.470 364.996,94.300 365.544 C 95.130 366.093,96.011 366.658,96.258 366.800 C 97.348 367.426,98.375 368.060,99.022 368.505 C 99.405 368.769,99.770 368.986,99.831 368.986 C 99.893 368.986,100.341 369.250,100.827 369.573 C 101.313 369.895,101.767 370.159,101.836 370.159 C 101.904 370.159,102.160 370.300,102.405 370.473 C 102.650 370.646,103.303 371.034,103.856 371.337 C 104.409 371.639,105.277 372.115,105.784 372.394 C 107.972 373.600,109.273 374.272,112.909 376.079 C 117.193 378.209,119.642 379.378,119.827 379.383 C 119.895 379.385,120.468 379.649,121.101 379.970 C 121.735 380.291,122.338 380.553,122.443 380.553 C 122.547 380.553,123.160 380.816,123.806 381.137 C 124.451 381.458,125.071 381.722,125.184 381.724 C 125.297 381.725,125.884 381.953,126.488 382.230 C 127.092 382.506,127.666 382.733,127.764 382.733 C 127.862 382.733,128.424 382.955,129.012 383.228 C 129.600 383.500,130.384 383.804,130.754 383.904 C 131.124 384.003,131.926 384.309,132.536 384.582 C 133.145 384.856,133.771 385.080,133.927 385.080 C 134.082 385.080,134.836 385.344,135.601 385.666 C 136.366 385.989,137.124 386.253,137.285 386.253 C 137.447 386.253,138.251 386.517,139.073 386.840 C 139.895 387.163,140.692 387.427,140.843 387.427 C 140.995 387.427,141.858 387.691,142.761 388.013 C 143.664 388.336,144.532 388.600,144.689 388.600 C 144.846 388.600,145.789 388.864,146.785 389.187 C 147.780 389.510,148.713 389.774,148.856 389.774 C 149.000 389.774,149.911 389.992,150.879 390.259 C 153.920 391.098,162.056 392.924,163.621 393.120 C 164.128 393.183,165.863 393.472,167.477 393.761 C 169.091 394.050,171.014 394.364,171.752 394.457 C 172.490 394.551,174.564 394.815,176.362 395.044 C 178.160 395.272,180.725 395.545,182.062 395.650 C 183.399 395.755,185.813 395.948,187.427 396.080 C 194.781 396.679,207.355 396.554,215.496 395.799 C 217.427 395.620,219.388 395.473,219.855 395.473 C 220.322 395.473,222.251 395.244,224.141 394.964 C 226.031 394.685,228.219 394.390,229.003 394.310 C 230.618 394.144,234.805 393.391,238.894 392.530 C 240.415 392.210,241.773 391.950,241.911 391.953 C 242.136 391.958,243.689 391.582,248.114 390.449 C 248.898 390.249,249.878 390.008,250.293 389.915 C 250.708 389.821,251.879 389.487,252.894 389.172 C 253.909 388.858,254.855 388.600,254.996 388.600 C 255.136 388.600,255.928 388.362,256.754 388.071 C 257.580 387.781,258.521 387.487,258.843 387.419 C 259.460 387.289,261.579 386.575,264.132 385.637 C 264.967 385.330,265.748 385.080,265.867 385.080 C 265.987 385.080,266.323 384.973,266.613 384.842 C 267.972 384.231,268.795 383.906,268.986 383.906 C 269.101 383.906,269.775 383.642,270.483 383.319 C 271.191 382.997,271.882 382.733,272.017 382.733 C 272.153 382.733,272.713 382.506,273.261 382.230 C 273.809 381.953,274.347 381.727,274.457 381.727 C 274.567 381.727,275.213 381.463,275.893 381.140 C 276.573 380.817,277.201 380.553,277.288 380.553 C 277.375 380.553,278.032 380.278,278.748 379.941 C 279.464 379.604,280.641 379.057,281.362 378.725 C 283.817 377.597,292.947 372.996,293.218 372.751 C 293.367 372.616,293.584 372.506,293.701 372.506 C 293.817 372.506,294.113 372.365,294.358 372.192 C 294.603 372.020,295.218 371.652,295.725 371.375 C 298.201 370.023,298.697 369.735,299.178 369.375 C 299.463 369.161,299.752 368.986,299.820 368.986 C 299.888 368.986,300.341 368.722,300.827 368.399 C 301.313 368.076,301.760 367.812,301.819 367.812 C 301.879 367.812,302.295 367.548,302.744 367.225 C 303.193 366.903,303.615 366.639,303.681 366.639 C 303.747 366.639,304.115 366.429,304.499 366.172 C 304.883 365.915,305.348 365.612,305.532 365.498 C 306.862 364.678,307.415 364.308,308.023 363.832 C 308.405 363.534,308.785 363.288,308.868 363.287 C 308.951 363.287,309.341 363.022,309.734 362.699 C 310.128 362.376,310.518 362.112,310.602 362.112 C 310.685 362.112,311.051 361.867,311.415 361.567 C 311.779 361.268,312.196 360.947,312.341 360.855 C 313.462 360.146,315.004 359.022,315.004 358.914 C 315.004 358.841,315.158 358.733,315.345 358.674 C 315.533 358.614,315.816 358.435,315.974 358.275 C 316.132 358.115,316.978 357.466,317.854 356.834 C 318.730 356.202,319.507 355.584,319.581 355.461 C 319.655 355.339,319.810 355.239,319.925 355.239 C 320.041 355.239,320.391 354.975,320.704 354.652 C 321.017 354.329,321.367 354.065,321.483 354.065 C 321.599 354.065,321.754 353.970,321.827 353.853 C 321.901 353.737,322.376 353.306,322.883 352.897 C 324.084 351.927,324.200 351.831,324.895 351.234 C 325.218 350.957,325.859 350.419,326.320 350.038 C 327.817 348.803,328.399 348.291,328.942 347.737 C 329.235 347.437,329.529 347.192,329.594 347.192 C 329.659 347.192,330.044 346.871,330.449 346.479 C 330.854 346.088,332.278 344.750,333.614 343.506 C 336.788 340.552,340.316 336.996,343.566 333.476 C 345.844 331.007,349.305 327.000,349.418 326.697 C 349.479 326.536,349.599 326.404,349.685 326.404 C 349.771 326.404,350.422 325.668,351.133 324.769 C 351.843 323.870,352.529 323.075,352.658 323.001 C 352.787 322.927,352.892 322.769,352.892 322.650 C 352.892 322.530,353.052 322.289,353.249 322.113 C 353.445 321.938,353.766 321.558,353.961 321.269 C 354.482 320.502,356.769 317.489,357.118 317.110 C 357.283 316.931,357.418 316.716,357.418 316.631 C 357.418 316.546,357.565 316.315,357.744 316.118 C 358.264 315.545,359.765 313.490,359.765 313.350 C 359.765 313.281,359.899 313.077,360.062 312.898 C 360.225 312.720,360.689 312.083,361.094 311.484 C 361.498 310.884,361.874 310.356,361.929 310.310 C 361.984 310.264,362.142 310.030,362.280 309.791 C 362.590 309.254,363.883 307.270,364.072 307.041 C 364.148 306.949,364.306 306.685,364.423 306.454 C 364.540 306.224,365.011 305.469,365.470 304.778 C 365.929 304.086,366.396 303.332,366.508 303.101 C 366.620 302.871,366.875 302.456,367.075 302.179 C 367.275 301.903,367.608 301.337,367.816 300.922 C 368.023 300.507,368.250 300.130,368.319 300.084 C 368.389 300.038,368.619 299.661,368.830 299.246 C 369.041 298.831,369.427 298.176,369.687 297.790 C 369.947 297.405,370.159 296.996,370.159 296.882 C 370.159 296.767,370.265 296.554,370.395 296.409 C 370.634 296.141,371.374 294.772,373.257 291.115 C 373.826 290.008,374.374 288.952,374.474 288.768 C 375.750 286.414,380.113 276.848,380.477 275.608 C 380.544 275.377,380.815 274.741,381.079 274.195 C 381.343 273.648,381.559 273.111,381.559 273.000 C 381.559 272.890,381.756 272.356,381.997 271.815 C 382.238 271.273,382.605 270.339,382.814 269.740 C 383.023 269.141,383.550 267.670,383.987 266.471 C 384.423 265.272,384.913 263.839,385.077 263.286 C 385.241 262.733,385.567 261.714,385.803 261.023 C 386.682 258.447,388.255 253.175,388.429 252.221 C 388.496 251.852,388.780 250.721,389.059 249.707 C 389.795 247.036,390.782 242.891,390.781 242.481 C 390.780 242.287,390.960 241.382,391.181 240.469 C 391.402 239.557,391.663 238.319,391.761 237.720 C 391.859 237.121,392.131 235.574,392.366 234.283 C 392.817 231.801,392.879 231.386,393.536 226.488 C 395.952 208.487,395.591 186.642,392.596 169.656 C 392.311 168.043,392.018 166.232,391.945 165.633 C 391.872 165.034,391.606 163.676,391.355 162.615 C 391.103 161.555,390.845 160.310,390.782 159.849 C 390.430 157.283,387.315 145.678,385.809 141.324 C 385.570 140.633,385.241 139.614,385.077 139.061 C 384.913 138.508,384.423 137.075,383.987 135.876 C 383.550 134.677,383.023 133.206,382.814 132.607 C 382.605 132.008,382.238 131.074,381.997 130.532 C 381.756 129.991,381.559 129.457,381.559 129.347 C 381.559 129.236,381.343 128.699,381.079 128.152 C 380.815 127.606,380.544 126.970,380.477 126.739 C 380.216 125.851,377.952 120.716,376.485 117.687 C 376.150 116.995,375.457 115.562,374.945 114.501 C 374.432 113.441,373.572 111.744,373.032 110.729 C 372.492 109.715,371.731 108.282,371.341 107.544 C 370.951 106.806,370.525 106.084,370.395 105.938 C 370.265 105.793,370.159 105.558,370.159 105.416 C 370.159 105.274,370.020 104.978,369.849 104.759 C 369.679 104.539,369.331 103.982,369.078 103.521 C 368.568 102.596,368.010 101.674,367.184 100.392 C 366.884 99.927,366.639 99.451,366.639 99.333 C 366.639 99.215,366.526 99.025,366.388 98.911 C 366.251 98.797,365.898 98.278,365.605 97.759 C 365.311 97.240,364.896 96.602,364.681 96.341 C 364.467 96.080,364.292 95.808,364.292 95.735 C 364.292 95.663,363.896 95.020,363.412 94.306 C 362.927 93.593,362.418 92.809,362.280 92.565 C 362.142 92.321,361.990 92.083,361.944 92.037 C 361.694 91.790,360.938 90.699,360.936 90.581 C 360.934 90.506,360.670 90.143,360.349 89.776 C 360.028 89.408,359.765 89.021,359.765 88.916 C 359.765 88.811,359.655 88.633,359.520 88.521 C 359.385 88.409,359.015 87.928,358.698 87.453 C 358.381 86.977,357.964 86.407,357.770 86.186 C 357.577 85.964,357.418 85.723,357.418 85.649 C 357.418 85.576,357.222 85.305,356.982 85.046 C 356.742 84.788,356.147 84.011,355.659 83.319 C 355.171 82.628,354.613 81.918,354.419 81.743 C 354.224 81.567,354.065 81.337,354.065 81.231 C 354.065 81.125,353.801 80.782,353.479 80.469 C 353.156 80.157,352.892 79.806,352.892 79.690 C 352.892 79.575,352.788 79.420,352.661 79.346 C 352.535 79.272,351.960 78.609,351.383 77.871 C 350.807 77.133,350.159 76.341,349.943 76.111 C 349.592 75.737,349.174 75.246,347.558 73.308 C 347.311 73.011,346.863 72.527,346.563 72.233 C 346.264 71.939,346.018 71.645,346.018 71.579 C 346.018 71.514,345.698 71.128,345.306 70.722 C 344.914 70.316,343.614 68.930,342.418 67.641 C 339.716 64.731,336.048 61.064,333.196 58.424 C 332.001 57.318,330.729 56.130,330.370 55.784 C 330.011 55.438,329.654 55.155,329.577 55.155 C 329.499 55.155,329.225 54.891,328.968 54.568 C 328.710 54.246,328.419 53.982,328.321 53.982 C 328.223 53.982,327.907 53.736,327.620 53.437 C 327.332 53.137,326.816 52.666,326.473 52.389 C 326.130 52.112,325.532 51.603,325.144 51.257 C 324.756 50.912,324.353 50.629,324.248 50.629 C 324.143 50.629,324.057 50.562,324.057 50.481 C 324.057 50.400,323.634 50.014,323.117 49.624 C 322.600 49.234,322.055 48.772,321.906 48.598 C 321.757 48.424,321.554 48.282,321.454 48.282 C 321.354 48.282,321.017 48.018,320.704 47.695 C 320.391 47.372,320.056 47.107,319.959 47.105 C 319.862 47.104,319.610 46.920,319.399 46.698 C 319.188 46.476,318.358 45.825,317.555 45.253 C 316.751 44.680,316.034 44.109,315.960 43.984 C 315.886 43.858,315.752 43.755,315.662 43.755 C 315.571 43.755,315.128 43.472,314.677 43.127 C 314.226 42.781,313.470 42.234,312.997 41.911 C 312.524 41.588,311.820 41.080,311.433 40.781 C 311.046 40.482,310.641 40.237,310.534 40.236 C 310.426 40.235,310.313 40.178,310.282 40.109 C 310.207 39.940,309.023 39.061,308.870 39.061 C 308.804 39.061,308.496 38.868,308.186 38.631 C 307.309 37.963,305.418 36.714,305.282 36.714 C 305.214 36.714,304.874 36.488,304.526 36.211 C 304.178 35.935,303.832 35.708,303.757 35.708 C 303.682 35.708,303.259 35.464,302.816 35.164 C 302.374 34.865,301.810 34.507,301.563 34.368 C 300.628 33.843,299.472 33.132,298.799 32.668 C 298.415 32.404,298.036 32.188,297.957 32.188 C 297.878 32.188,297.412 31.924,296.922 31.601 C 296.432 31.278,295.949 31.014,295.849 31.014 C 295.749 31.014,295.549 30.911,295.403 30.785 C 294.693 30.170,286.685 26.081,281.308 23.587 C 280.616 23.266,279.476 22.732,278.775 22.399 C 278.074 22.066,277.412 21.794,277.304 21.794 C 277.196 21.794,276.584 21.530,275.943 21.207 C 275.302 20.884,274.694 20.620,274.591 20.620 C 274.489 20.620,273.916 20.394,273.318 20.117 C 272.720 19.841,272.127 19.614,271.999 19.614 C 271.871 19.614,271.292 19.392,270.712 19.119 C 270.131 18.847,269.241 18.479,268.734 18.301 C 268.227 18.122,266.718 17.585,265.381 17.106 C 264.044 16.627,262.724 16.173,262.448 16.098 C 262.171 16.023,261.266 15.731,260.436 15.449 C 257.014 14.289,255.294 13.747,255.030 13.747 C 254.877 13.747,253.918 13.487,252.899 13.169 C 251.257 12.656,250.082 12.346,245.935 11.333 C 242.295 10.444,236.650 9.221,236.182 9.220 C 235.968 9.219,234.623 8.986,233.194 8.702 C 231.764 8.417,230.029 8.128,229.338 8.059 C 228.646 7.990,226.345 7.697,224.225 7.408 C 222.104 7.119,219.275 6.798,217.938 6.695 C 216.601 6.593,214.225 6.398,212.657 6.263 C 209.258 5.970,194.118 5.820,190.444 6.043 M103.163 90.061 C 103.111 90.145,102.888 89.968,102.666 89.668 C 102.126 88.936,102.158 88.856,102.760 89.433 C 103.034 89.695,103.215 89.977,103.163 90.061 M104.611 91.911 C 104.858 92.248,104.898 92.365,104.717 92.218 C 104.442 91.995,104.026 91.366,104.154 91.366 C 104.186 91.366,104.391 91.611,104.611 91.911 M110.480 98.993 C 110.882 99.477,110.883 99.483,110.504 99.162 C 110.288 98.980,110.034 98.679,109.939 98.493 C 109.756 98.137,109.813 98.189,110.480 98.993 M116.094 100.843 C 116.911 101.605,116.904 101.603,115.842 100.740 C 114.536 99.678,114.062 99.231,114.753 99.711 C 115.029 99.903,115.633 100.412,116.094 100.843 M120.369 104.526 C 120.682 104.849,120.900 105.113,120.854 105.113 C 120.808 105.113,120.514 104.849,120.201 104.526 C 119.888 104.204,119.670 103.940,119.716 103.940 C 119.762 103.940,120.056 104.204,120.369 104.526 M262.474 108.040 C 262.419 108.182,262.294 108.298,262.196 108.298 C 262.072 108.298,262.074 108.191,262.204 107.949 C 262.412 107.560,262.630 107.633,262.474 108.040 M119.698 109.556 C 120.011 109.878,120.229 110.142,120.183 110.142 C 120.137 110.142,119.843 109.878,119.531 109.556 C 119.218 109.233,119.000 108.969,119.046 108.969 C 119.092 108.969,119.385 109.233,119.698 109.556 M242.246 120.369 C 242.246 120.579,242.069 120.579,241.744 120.369 C 241.540 120.237,241.564 120.206,241.869 120.204 C 242.077 120.202,242.246 120.277,242.246 120.369 M123.840 121.333 C 124.247 122.024,124.471 122.716,124.288 122.716 C 124.220 122.716,123.219 120.758,123.219 120.625 C 123.219 120.386,123.415 120.609,123.840 121.333 M135.624 126.320 C 137.144 127.842,138.349 129.086,138.303 129.086 C 138.257 129.086,136.976 127.842,135.457 126.320 C 133.938 124.799,132.732 123.554,132.778 123.554 C 132.824 123.554,134.105 124.799,135.624 126.320 M126.404 125.231 C 126.601 125.507,126.724 125.733,126.678 125.733 C 126.632 125.733,126.433 125.507,126.236 125.231 C 126.039 124.954,125.916 124.728,125.962 124.728 C 126.008 124.728,126.207 124.954,126.404 125.231 M158.173 137.804 C 158.533 138.173,158.790 138.474,158.744 138.474 C 158.698 138.474,158.365 138.173,158.005 137.804 C 157.645 137.435,157.388 137.133,157.434 137.133 C 157.480 137.133,157.813 137.435,158.173 137.804 M150.136 140.193 L 150.629 140.738 150.084 140.245 C 149.784 139.974,149.539 139.729,149.539 139.700 C 149.539 139.571,149.677 139.685,150.136 140.193 M137.127 141.744 C 137.128 141.923,136.896 141.620,136.613 141.073 C 136.498 140.850,136.555 140.878,136.783 141.157 C 136.972 141.387,137.126 141.651,137.127 141.744 M163.213 142.540 L 163.705 143.085 163.160 142.592 C 162.860 142.321,162.615 142.076,162.615 142.047 C 162.615 141.918,162.754 142.032,163.213 142.540 M277.987 143.797 C 278.410 144.290,278.543 144.581,278.274 144.426 C 277.876 144.198,277.452 143.795,277.452 143.645 C 277.452 143.410,277.720 143.486,277.987 143.797 M139.306 145.096 C 139.308 145.276,139.075 144.973,138.793 144.426 C 138.678 144.203,138.735 144.231,138.962 144.510 C 139.151 144.740,139.306 145.004,139.306 145.096 M169.273 150.503 C 169.235 150.756,169.204 150.549,169.204 150.042 C 169.204 149.535,169.235 149.327,169.273 149.581 C 169.312 149.834,169.312 150.249,169.273 150.503 M146.773 156.580 C 147.133 156.949,147.390 157.251,147.344 157.251 C 147.298 157.251,146.965 156.949,146.605 156.580 C 146.245 156.211,145.988 155.909,146.034 155.909 C 146.080 155.909,146.413 156.211,146.773 156.580 M139.261 157.712 C 139.218 157.873,139.184 157.741,139.184 157.418 C 139.184 157.096,139.218 156.964,139.261 157.125 C 139.303 157.286,139.303 157.550,139.261 157.712 M151.177 158.376 C 150.925 158.415,150.472 158.415,150.171 158.378 C 149.869 158.341,150.075 158.309,150.629 158.308 C 151.182 158.308,151.428 158.338,151.177 158.376 M166.136 159.814 C 166.136 159.840,165.740 160.236,165.256 160.694 L 164.376 161.526 165.207 160.645 C 165.980 159.828,166.136 159.688,166.136 159.814 M136.526 162.406 C 135.391 163.756,135.365 163.784,135.558 163.422 C 135.742 163.080,137.288 161.274,137.399 161.274 C 137.442 161.274,137.049 161.783,136.526 162.406 M172.842 168.898 C 172.842 168.941,172.615 169.094,172.339 169.237 C 171.708 169.563,171.670 169.422,172.297 169.082 C 172.824 168.796,172.842 168.790,172.842 168.898 M178.625 169.841 C 179.527 170.087,180.386 170.498,180.386 170.685 C 180.386 170.769,180.202 170.717,179.977 170.570 C 177.753 169.113,173.646 169.952,172.138 172.171 C 171.981 172.402,171.849 172.498,171.845 172.386 C 171.778 170.837,176.194 169.179,178.625 169.841 M206.622 170.980 C 207.636 171.168,208.667 171.325,208.914 171.328 C 209.385 171.333,212.544 172.296,214.040 172.889 C 215.114 173.315,215.122 173.386,214.363 175.633 C 214.057 176.541,213.714 177.661,213.602 178.122 C 213.014 180.543,212.902 180.629,211.292 179.884 C 210.696 179.608,209.779 179.275,209.253 179.144 C 208.728 179.012,207.695 178.746,206.957 178.551 C 204.989 178.031,201.919 177.818,198.072 177.934 C 194.305 178.047,193.758 178.144,189.774 179.408 C 188.580 179.786,186.153 181.023,185.749 181.458 C 185.519 181.706,185.180 181.985,184.996 182.080 C 184.772 182.195,184.799 182.139,185.080 181.909 C 185.310 181.721,185.423 181.567,185.331 181.567 C 185.239 181.568,184.934 181.774,184.654 182.025 C 184.374 182.276,184.256 182.406,184.393 182.313 C 184.576 182.190,184.608 182.200,184.516 182.355 C 184.328 182.666,183.662 183.003,183.817 182.707 C 183.882 182.583,183.771 182.670,183.571 182.900 C 183.370 183.131,183.267 183.206,183.340 183.068 C 183.555 182.664,181.492 184.519,180.767 185.382 C 176.088 190.949,174.323 196.891,174.583 206.203 C 174.761 212.623,176.801 218.722,179.937 222.212 C 180.905 223.290,183.170 225.483,183.319 225.487 C 183.411 225.489,183.707 225.716,183.976 225.990 C 184.245 226.264,184.533 226.488,184.616 226.488 C 184.700 226.488,185.085 226.706,185.472 226.973 C 185.860 227.239,186.439 227.568,186.760 227.704 C 187.080 227.839,187.682 228.108,188.097 228.302 C 194.098 231.104,205.730 231.010,212.106 228.107 C 212.632 227.868,213.094 227.726,213.133 227.792 C 213.171 227.859,213.332 228.479,213.491 229.170 C 213.649 229.862,214.036 231.343,214.350 232.463 C 214.664 233.582,214.920 234.545,214.920 234.602 C 214.920 234.931,210.445 236.467,208.780 236.709 C 208.239 236.788,207.439 236.935,207.004 237.035 C 202.418 238.088,194.858 238.158,190.277 237.190 C 189.401 237.005,188.318 236.787,187.871 236.707 C 187.424 236.627,186.732 236.437,186.333 236.285 C 185.934 236.132,185.515 236.065,185.402 236.135 C 185.272 236.216,185.238 236.194,185.311 236.076 C 185.385 235.956,185.081 235.788,184.459 235.607 C 183.927 235.453,183.226 235.191,182.902 235.025 C 182.578 234.860,181.899 234.530,181.391 234.294 C 178.972 233.163,175.908 230.905,173.838 228.726 C 172.606 227.430,171.333 225.887,171.333 225.691 C 171.333 225.605,171.187 225.402,171.010 225.242 C 170.468 224.751,167.812 219.866,167.812 219.360 C 167.812 219.285,167.596 218.652,167.332 217.952 C 165.175 212.233,164.658 201.846,166.231 195.776 C 166.477 194.826,166.731 193.785,166.796 193.462 C 166.922 192.836,167.458 191.309,167.650 191.031 C 167.714 190.939,167.815 190.659,167.874 190.409 C 168.047 189.686,169.240 187.247,170.124 185.811 C 171.507 183.565,171.781 183.162,172.149 182.832 C 172.346 182.657,172.506 182.427,172.506 182.321 C 172.506 182.216,173.635 181.030,175.014 179.687 L 177.523 177.245 176.481 177.157 C 173.771 176.928,171.650 175.344,171.691 173.580 L 171.714 172.590 171.834 173.649 C 172.175 176.655,176.477 177.952,179.509 175.962 C 180.406 175.373,181.289 174.863,181.471 174.829 C 181.927 174.743,182.250 174.056,182.188 173.303 C 182.160 172.957,182.205 172.674,182.288 172.674 C 182.372 172.674,182.404 173.052,182.359 173.514 L 182.278 174.355 182.850 174.017 C 183.165 173.832,183.488 173.680,183.569 173.680 C 183.649 173.680,184.192 173.459,184.775 173.190 C 185.357 172.921,186.060 172.646,186.337 172.580 C 186.614 172.514,187.481 172.249,188.265 171.990 C 189.438 171.604,191.733 171.156,195.390 170.601 C 196.855 170.378,204.831 170.648,206.622 170.980 M181.714 171.621 C 182.490 172.564,182.335 172.563,181.391 171.620 C 180.930 171.159,180.553 170.752,180.553 170.716 C 180.553 170.522,181.266 171.078,181.714 171.621 M297.322 171.243 C 299.387 171.411,300.863 171.628,302.012 171.932 C 302.934 172.176,303.966 172.443,304.306 172.524 C 304.841 172.651,305.471 172.911,307.460 173.828 C 309.458 174.748,313.663 178.536,313.663 179.416 C 313.663 179.485,313.885 179.903,314.156 180.344 C 316.256 183.757,316.792 193.324,314.989 195.214 C 314.905 195.301,314.837 195.502,314.837 195.659 C 314.837 195.816,314.573 196.411,314.250 196.982 C 313.927 197.553,313.663 198.055,313.663 198.097 C 313.663 198.651,308.955 203.353,308.400 203.353 C 308.313 203.353,308.122 203.455,307.976 203.579 C 307.646 203.862,306.714 204.353,305.212 205.037 C 304.121 205.533,303.945 205.856,304.759 205.865 C 306.695 205.886,312.490 213.032,312.490 215.399 C 312.490 215.502,312.713 216.259,312.986 217.081 C 313.259 217.903,313.557 219.017,313.647 219.556 C 313.737 220.095,313.969 221.102,314.161 221.794 C 314.354 222.485,314.596 223.466,314.700 223.973 C 314.804 224.480,315.142 225.798,315.450 226.902 C 315.758 228.005,316.012 229.061,316.014 229.249 C 316.016 229.436,316.280 230.381,316.601 231.350 C 316.921 232.318,317.185 233.223,317.186 233.361 C 317.188 233.500,317.452 234.250,317.773 235.030 C 318.094 235.809,318.357 236.507,318.357 236.581 C 318.357 236.654,316.337 236.714,313.867 236.714 L 309.377 236.714 308.754 235.115 C 308.411 234.236,308.131 233.387,308.131 233.230 C 308.131 233.072,307.943 232.377,307.713 231.685 C 307.483 230.994,307.154 229.786,306.981 229.003 C 306.809 228.219,306.473 226.785,306.235 225.817 C 305.997 224.849,305.523 222.850,305.181 221.375 C 304.574 218.746,303.430 215.251,303.015 214.753 C 302.899 214.614,302.635 214.162,302.428 213.747 C 301.827 212.544,299.876 210.749,298.365 210.008 C 296.206 208.948,294.553 208.718,289.097 208.718 L 284.493 208.718 284.493 222.716 L 284.493 236.714 280.134 236.714 L 275.774 236.714 275.817 204.572 L 275.859 172.430 276.781 172.223 C 281.315 171.204,291.104 170.737,297.322 171.243 M78.064 171.626 C 78.118 171.788,78.354 172.410,78.589 173.009 C 78.824 173.609,79.148 174.552,79.309 175.105 C 79.471 175.658,79.993 177.205,80.470 178.541 C 80.946 179.878,81.403 181.242,81.484 181.572 C 81.565 181.901,81.851 182.769,82.119 183.499 C 82.811 185.388,83.567 187.590,85.508 193.378 C 86.065 195.038,86.619 196.622,86.738 196.899 C 86.858 197.175,87.280 198.420,87.676 199.665 C 88.072 200.909,88.608 202.461,88.868 203.114 C 89.127 203.766,89.412 204.596,89.501 204.958 C 89.589 205.320,90.053 206.710,90.531 208.047 C 91.010 209.384,91.517 210.855,91.658 211.316 C 91.799 211.777,92.155 212.833,92.448 213.663 C 93.533 216.733,93.752 217.370,94.002 218.189 C 94.143 218.650,94.478 219.607,94.747 220.316 C 95.016 221.024,95.336 221.967,95.460 222.411 C 95.687 223.226,96.001 224.152,96.986 226.907 C 97.283 227.737,97.641 228.793,97.781 229.254 C 97.922 229.715,98.429 231.186,98.907 232.523 C 99.385 233.860,99.834 235.180,99.904 235.457 C 99.975 235.733,100.087 236.130,100.153 236.337 L 100.274 236.714 95.569 236.714 C 91.077 236.714,90.863 236.700,90.863 236.399 C 90.863 236.097,90.601 235.360,90.107 234.276 C 89.979 233.996,89.803 233.468,89.715 233.103 C 89.564 232.476,89.024 230.857,88.014 227.997 C 86.993 225.110,86.623 224.012,86.403 223.219 C 86.275 222.758,85.956 221.815,85.694 221.123 C 85.433 220.432,85.048 219.338,84.839 218.692 C 84.630 218.047,84.358 217.274,84.233 216.974 L 84.007 216.429 72.624 216.429 L 61.241 216.429 60.542 218.483 C 60.158 219.612,59.733 220.930,59.598 221.411 C 59.463 221.892,59.163 222.754,58.931 223.326 C 58.698 223.898,58.508 224.502,58.508 224.669 C 58.508 224.835,58.255 225.671,57.945 226.526 C 57.635 227.381,57.001 229.250,56.535 230.679 C 56.069 232.108,55.574 233.617,55.434 234.032 C 55.294 234.447,55.057 235.220,54.907 235.750 L 54.635 236.714 50.117 236.714 C 47.123 236.714,45.599 236.656,45.599 236.541 C 45.599 236.446,45.712 236.097,45.851 235.766 C 45.989 235.435,46.102 235.051,46.102 234.912 C 46.102 234.774,46.355 234.010,46.663 233.214 C 46.972 232.419,47.607 230.599,48.076 229.170 C 48.544 227.741,49.731 224.233,50.714 221.375 C 51.696 218.516,52.619 215.801,52.764 215.339 C 52.909 214.878,53.283 213.767,53.596 212.869 C 53.908 211.972,54.416 210.501,54.724 209.600 C 55.032 208.700,55.454 207.473,55.661 206.873 C 55.868 206.274,56.141 205.407,56.268 204.946 C 56.395 204.484,56.603 203.881,56.732 203.604 C 56.860 203.328,57.097 202.687,57.258 202.179 C 57.678 200.858,58.819 197.476,59.520 195.474 C 59.730 194.874,60.142 193.667,60.436 192.791 C 60.730 191.915,61.142 190.708,61.352 190.109 C 61.803 188.821,62.063 188.057,62.782 185.918 C 63.076 185.042,63.473 183.873,63.665 183.319 C 64.335 181.378,65.307 178.502,65.978 176.473 C 66.247 175.658,66.525 174.956,66.595 174.912 C 66.665 174.869,66.723 174.691,66.723 174.517 C 66.723 174.343,66.956 173.555,67.241 172.767 L 67.760 171.333 72.863 171.333 C 77.573 171.333,77.973 171.355,78.064 171.626 M268.818 175.105 L 268.818 178.793 258.885 178.836 L 248.952 178.879 248.952 207.797 L 248.952 236.714 244.593 236.714 L 240.235 236.714 240.235 207.795 L 240.235 178.877 230.344 178.877 L 220.453 178.877 220.453 175.104 L 220.453 171.332 244.635 171.374 L 268.818 171.417 268.818 175.105 M336.421 200.461 L 336.464 229.505 350.378 229.505 L 364.292 229.505 364.292 233.110 L 364.292 236.714 345.935 236.714 L 327.578 236.714 327.578 204.135 C 327.578 186.217,327.629 171.505,327.692 171.442 C 327.755 171.379,329.735 171.347,332.093 171.372 L 336.379 171.417 336.421 200.461 M185.006 172.213 L 185.499 172.758 184.954 172.265 C 184.446 171.806,184.332 171.668,184.462 171.668 C 184.490 171.668,184.736 171.913,185.006 172.213 M287.343 178.040 C 286.467 178.105,285.467 178.215,285.122 178.285 L 284.493 178.411 284.493 190.227 L 284.493 202.042 290.151 201.962 C 297.113 201.862,299.294 201.441,301.994 199.673 C 302.353 199.438,302.770 199.170,302.921 199.078 C 303.172 198.924,304.354 197.746,305.216 196.789 C 306.697 195.144,307.767 190.758,307.315 188.181 C 307.218 187.628,307.064 186.760,306.973 186.253 C 305.848 180.002,299.081 177.171,287.343 178.040 M72.438 179.831 C 72.430 180.125,72.158 181.237,71.836 182.302 C 71.513 183.367,71.249 184.362,71.249 184.515 C 71.249 184.889,70.249 188.205,69.056 191.785 C 68.519 193.399,68.004 194.946,67.912 195.222 C 67.820 195.499,67.546 196.291,67.303 196.982 C 67.061 197.674,66.759 198.579,66.633 198.994 C 66.354 199.915,63.654 207.777,63.391 208.435 C 62.903 209.654,62.085 209.556,72.749 209.556 L 82.296 209.556 82.033 208.927 C 81.889 208.581,81.676 207.959,81.561 207.544 C 81.317 206.667,80.611 204.636,79.936 202.871 C 79.676 202.191,79.464 201.522,79.464 201.383 C 79.464 201.245,79.215 200.481,78.911 199.685 C 77.326 195.537,73.808 184.579,73.523 182.900 C 73.321 181.712,72.455 179.261,72.438 179.831 M113.455 201.392 C 113.489 209.588,113.541 211.729,113.706 211.636 C 113.870 211.543,113.870 211.566,113.705 211.744 C 113.543 211.919,113.496 214.030,113.496 221.115 C 113.497 230.181,113.499 230.255,113.816 229.736 C 115.003 227.789,119.391 228.604,120.828 231.038 L 121.112 231.517 127.111 231.517 L 133.110 231.517 133.110 234.116 L 133.110 236.714 126.997 236.714 C 121.055 236.714,120.879 236.724,120.704 237.049 C 120.605 237.234,120.440 237.385,120.337 237.385 C 120.234 237.385,120.285 237.235,120.451 237.052 C 120.751 236.720,120.725 236.719,114.080 236.718 C 110.410 236.718,107.383 236.693,107.353 236.663 C 107.296 236.606,107.284 230.801,107.289 205.990 L 107.293 190.940 110.352 190.985 L 113.412 191.031 113.455 201.392 M162.112 193.630 L 162.112 196.312 155.155 196.312 L 148.198 196.312 148.198 215.201 C 148.198 232.946,148.216 234.110,148.491 234.435 C 148.771 234.764,148.771 234.770,148.491 234.553 C 148.218 234.342,148.198 234.408,148.198 235.520 L 148.198 236.714 145.096 236.714 L 141.995 236.714 141.993 232.984 C 141.992 230.933,141.993 221.842,141.995 212.783 L 141.998 196.312 135.039 196.312 L 128.080 196.312 128.080 193.630 L 128.080 190.947 145.096 190.947 L 162.112 190.947 162.112 193.630 M126.572 193.127 C 126.384 193.495,126.192 193.797,126.146 193.797 C 126.100 193.797,126.216 193.495,126.404 193.127 C 126.592 192.758,126.784 192.456,126.830 192.456 C 126.876 192.456,126.760 192.758,126.572 193.127 M233.194 193.868 L 233.780 194.521 233.152 194.033 C 232.806 193.765,232.523 193.439,232.523 193.308 C 232.523 193.178,232.542 193.103,232.565 193.142 C 232.588 193.182,232.871 193.508,233.194 193.868 M234.550 195.502 C 234.804 195.977,234.639 195.866,234.199 195.264 C 233.952 194.927,233.912 194.810,234.093 194.957 C 234.254 195.088,234.459 195.333,234.550 195.502 M134.702 200.168 C 134.559 200.444,134.405 200.671,134.359 200.671 C 134.312 200.671,134.392 200.444,134.535 200.168 C 134.678 199.891,134.833 199.665,134.879 199.665 C 134.925 199.665,134.845 199.891,134.702 200.168 M234.825 205.319 C 234.788 205.667,234.758 205.423,234.757 204.778 C 234.757 204.132,234.786 203.848,234.823 204.145 C 234.860 204.443,234.861 204.971,234.825 205.319 M238.683 210.427 C 238.653 211.285,238.628 210.629,238.628 208.969 C 238.627 207.309,238.652 206.608,238.683 207.410 C 238.714 208.212,238.714 209.570,238.683 210.427 M236.798 218.609 C 236.655 218.885,236.500 219.111,236.454 219.111 C 236.408 219.111,236.487 218.885,236.630 218.609 C 236.773 218.332,236.928 218.106,236.974 218.106 C 237.020 218.106,236.941 218.332,236.798 218.609 M226.725 221.642 C 226.551 221.835,226.256 222.069,226.071 222.163 C 225.885 222.257,225.997 222.102,226.320 221.819 C 227.005 221.219,227.176 221.144,226.725 221.642 M223.303 223.885 C 223.303 223.929,223.076 224.082,222.800 224.225 C 222.169 224.551,222.131 224.409,222.758 224.069 C 223.285 223.783,223.303 223.777,223.303 223.885 M233.194 223.853 C 233.194 223.879,232.760 224.313,232.230 224.817 L 231.266 225.733 232.182 224.769 C 233.033 223.874,233.194 223.729,233.194 223.853 M137.060 225.524 L 137.552 226.069 137.008 225.576 C 136.708 225.306,136.463 225.060,136.463 225.032 C 136.463 224.902,136.601 225.016,137.060 225.524 M114.837 229.202 C 114.422 229.415,113.996 229.778,113.890 230.008 C 113.583 230.678,113.446 231.517,113.644 231.517 C 113.741 231.517,113.775 231.385,113.719 231.224 C 113.624 230.949,113.632 230.949,113.850 231.227 C 114.062 231.497,114.397 231.520,117.500 231.479 L 120.916 231.433 120.349 230.679 C 119.150 229.083,116.466 228.364,114.837 229.202 M104.896 230.553 C 104.856 230.761,104.824 230.591,104.824 230.176 C 104.824 229.761,104.856 229.591,104.896 229.799 C 104.936 230.006,104.936 230.346,104.896 230.553 M104.893 236.169 C 104.851 236.331,104.817 236.199,104.817 235.876 C 104.817 235.553,104.851 235.421,104.893 235.583 C 104.936 235.744,104.936 236.008,104.893 236.169 M180.721 236.890 C 180.139 237.285,179.808 237.400,180.218 237.064 C 180.448 236.876,180.712 236.721,180.805 236.720 C 180.897 236.720,180.859 236.796,180.721 236.890 M115.681 238.424 C 116.992 239.069,118.385 238.896,119.698 237.927 L 120.285 237.494 119.880 237.941 C 118.391 239.583,114.334 239.040,114.334 237.198 C 114.334 237.089,114.506 237.256,114.717 237.570 C 114.928 237.883,115.361 238.268,115.681 238.424 M151.666 245.390 C 151.624 245.551,151.590 245.419,151.590 245.096 C 151.590 244.774,151.624 244.642,151.666 244.803 C 151.708 244.964,151.708 245.228,151.666 245.390 M185.207 245.044 C 185.047 245.086,184.745 245.087,184.537 245.047 C 184.328 245.007,184.459 244.973,184.828 244.971 C 185.197 244.969,185.368 245.002,185.207 245.044 M191.410 245.044 C 191.250 245.086,190.948 245.087,190.740 245.047 C 190.531 245.007,190.662 244.973,191.031 244.971 C 191.400 244.969,191.570 245.002,191.410 245.044 M205.197 248.542 C 205.197 248.588,204.971 248.509,204.694 248.365 C 204.417 248.222,204.191 248.068,204.191 248.022 C 204.191 247.975,204.417 248.055,204.694 248.198 C 204.971 248.341,205.197 248.496,205.197 248.542 M165.968 250.205 C 165.968 250.249,165.742 250.402,165.465 250.545 C 164.835 250.871,164.797 250.729,165.423 250.389 C 165.950 250.103,165.968 250.097,165.968 250.205 M212.238 253.395 C 212.739 253.902,213.111 254.317,213.065 254.317 C 213.019 254.317,212.571 253.902,212.070 253.395 C 211.570 252.888,211.198 252.473,211.244 252.473 C 211.290 252.473,211.737 252.888,212.238 253.395 M147.192 253.697 C 147.192 253.725,146.909 254.008,146.563 254.326 L 145.935 254.904 146.512 254.275 C 147.050 253.690,147.192 253.569,147.192 253.697 M142.666 257.334 C 142.435 257.515,142.171 257.663,142.079 257.665 C 141.987 257.666,142.137 257.518,142.414 257.334 C 143.058 256.908,143.211 256.908,142.666 257.334 M138.474 259.761 C 138.474 259.805,138.248 259.958,137.972 260.101 C 137.341 260.427,137.303 260.285,137.930 259.945 C 138.456 259.659,138.474 259.653,138.474 259.761 M192.168 259.804 C 191.779 259.839,191.100 259.840,190.659 259.805 C 190.218 259.770,190.536 259.741,191.366 259.741 C 192.196 259.740,192.557 259.769,192.168 259.804 M198.921 266.597 L 199.413 267.142 198.868 266.649 C 198.361 266.190,198.246 266.052,198.376 266.052 C 198.405 266.052,198.650 266.297,198.921 266.597 M179.669 270.620 C 179.631 270.920,179.601 270.675,179.601 270.075 C 179.601 269.476,179.631 269.231,179.669 269.531 C 179.706 269.830,179.706 270.321,179.669 270.620 M185.536 270.617 C 185.499 270.919,185.468 270.712,185.467 270.159 C 185.466 269.606,185.496 269.360,185.535 269.611 C 185.573 269.863,185.574 270.316,185.536 270.617 M201.296 273.889 C 201.259 274.235,201.230 273.952,201.230 273.261 C 201.230 272.569,201.259 272.286,201.296 272.632 C 201.332 272.978,201.332 273.544,201.296 273.889 M188.446 274.066 C 188.179 274.156,187.762 273.976,187.762 273.772 C 187.762 273.666,187.925 273.678,188.200 273.803 C 188.441 273.913,188.552 274.031,188.446 274.066 M210.645 274.769 C 210.788 275.046,210.868 275.272,210.822 275.272 C 210.776 275.272,210.621 275.046,210.478 274.769 C 210.335 274.493,210.255 274.267,210.302 274.267 C 210.348 274.267,210.502 274.493,210.645 274.769 M197.589 275.886 C 197.447 276.148,197.328 276.309,197.324 276.244 C 197.313 276.045,197.703 275.267,197.777 275.341 C 197.815 275.379,197.731 275.625,197.589 275.886 M196.376 277.672 C 196.018 278.070,195.692 278.370,195.652 278.339 C 195.577 278.282,196.826 276.949,196.954 276.949 C 196.994 276.949,196.733 277.274,196.376 277.672 M184.241 278.137 C 184.520 278.365,184.548 278.422,184.325 278.307 C 183.778 278.024,183.475 277.792,183.655 277.793 C 183.747 277.794,184.011 277.949,184.241 278.137 M200.251 278.290 C 200.108 278.567,199.954 278.793,199.908 278.793 C 199.861 278.793,199.941 278.567,200.084 278.290 C 200.227 278.013,200.382 277.787,200.428 277.787 C 200.474 277.787,200.395 278.013,200.251 278.290 M190.824 280.252 C 190.618 280.292,190.240 280.293,189.986 280.254 C 189.731 280.216,189.899 280.183,190.360 280.182 C 190.821 280.181,191.030 280.212,190.824 280.252 M213.831 281.811 C 213.974 282.087,214.053 282.313,214.007 282.313 C 213.961 282.313,213.806 282.087,213.663 281.811 C 213.520 281.534,213.441 281.308,213.487 281.308 C 213.533 281.308,213.688 281.534,213.831 281.811 M237.008 294.339 C 236.570 294.374,235.853 294.374,235.415 294.339 C 234.977 294.305,235.335 294.277,236.211 294.277 C 237.087 294.277,237.446 294.305,237.008 294.339 M233.828 297.692 C 233.393 297.727,232.639 297.727,232.151 297.693 C 231.664 297.659,232.020 297.631,232.942 297.630 C 233.864 297.630,234.263 297.658,233.828 297.692 " stroke="none" fill="#040404" fill-rule="evenodd"></path><path id="path2" d="M196.144 170.588 C 196.282 170.618,198.357 170.667,200.754 170.698 C 203.152 170.729,204.661 170.704,204.107 170.643 C 203.118 170.533,195.653 170.482,196.144 170.588 M194.761 170.781 C 194.969 170.820,195.308 170.820,195.516 170.781 C 195.723 170.741,195.553 170.708,195.138 170.708 C 194.723 170.708,194.554 170.741,194.761 170.781 M189.355 171.668 C 189.143 171.759,189.112 171.812,189.271 171.812 C 189.409 171.812,189.673 171.747,189.858 171.668 C 190.069 171.577,190.100 171.524,189.941 171.524 C 189.803 171.524,189.539 171.589,189.355 171.668 M209.807 171.642 C 210.326 171.864,211.195 172.036,210.897 171.857 C 210.759 171.774,210.381 171.660,210.059 171.603 C 209.663 171.533,209.581 171.545,209.807 171.642 M279.547 171.749 C 277.988 172.027,278.828 172.033,280.637 171.757 C 281.471 171.629,281.784 171.539,281.391 171.540 C 281.023 171.540,280.193 171.634,279.547 171.749 M336.377 200.503 C 336.377 216.500,336.397 223.045,336.421 215.046 C 336.445 207.047,336.445 193.959,336.421 185.960 C 336.397 177.961,336.377 184.505,336.377 200.503 M300.601 171.730 C 300.639 171.764,300.972 171.837,301.341 171.893 C 301.809 171.965,301.910 171.949,301.676 171.844 C 301.355 171.698,300.457 171.603,300.601 171.730 M67.077 173.193 C 66.974 173.488,66.896 173.813,66.902 173.914 C 66.909 174.016,67.022 173.804,67.154 173.443 C 67.286 173.082,67.365 172.758,67.329 172.722 C 67.294 172.686,67.180 172.898,67.077 173.193 M213.747 172.925 C 213.977 173.057,214.279 173.165,214.417 173.164 C 214.556 173.164,214.415 173.054,214.105 172.919 C 213.391 172.609,213.199 172.612,213.747 172.925 M214.451 174.803 C 214.346 175.144,214.288 175.451,214.322 175.485 C 214.356 175.519,214.474 175.272,214.585 174.937 C 214.696 174.602,214.754 174.295,214.714 174.255 C 214.674 174.216,214.556 174.462,214.451 174.803 M179.086 176.214 C 178.515 176.580,178.330 176.825,178.835 176.548 C 179.220 176.337,179.822 175.871,179.715 175.867 C 179.669 175.866,179.386 176.022,179.086 176.214 M195.977 177.858 C 195.562 177.915,196.806 177.937,198.743 177.906 C 200.679 177.876,202.376 177.826,202.515 177.797 C 202.986 177.695,196.734 177.753,195.977 177.858 M290.402 177.828 C 291.301 177.858,292.772 177.858,293.671 177.828 C 294.570 177.798,293.835 177.773,292.037 177.773 C 290.239 177.773,289.503 177.798,290.402 177.828 M203.145 177.989 C 203.354 178.030,203.656 178.028,203.816 177.986 C 203.976 177.944,203.806 177.911,203.437 177.913 C 203.068 177.915,202.937 177.949,203.145 177.989 M287.555 177.991 C 287.810 178.030,288.187 178.029,288.393 177.989 C 288.599 177.949,288.391 177.918,287.930 177.919 C 287.469 177.920,287.300 177.953,287.555 177.991 M295.599 177.986 C 295.761 178.029,296.025 178.029,296.186 177.986 C 296.347 177.944,296.215 177.910,295.893 177.910 C 295.570 177.910,295.438 177.944,295.599 177.986 M213.340 178.470 C 213.278 178.715,213.260 178.949,213.299 178.988 C 213.339 179.028,213.422 178.859,213.483 178.613 C 213.545 178.368,213.563 178.134,213.524 178.095 C 213.484 178.055,213.401 178.224,213.340 178.470 M284.405 190.193 C 284.405 196.739,284.425 199.442,284.451 196.198 C 284.476 192.955,284.476 187.599,284.451 184.296 C 284.425 180.993,284.405 183.646,284.405 190.193 M225.356 178.835 C 228.099 178.861,232.588 178.861,235.331 178.835 C 238.074 178.809,235.830 178.788,230.344 178.788 C 224.858 178.788,222.613 178.809,225.356 178.835 M248.862 178.919 C 248.818 179.034,248.802 192.104,248.826 207.963 L 248.869 236.798 248.911 207.839 L 248.952 178.879 258.885 178.835 L 268.818 178.790 258.880 178.750 C 251.054 178.718,248.925 178.754,248.862 178.919 M64.730 180.067 C 64.627 180.362,64.548 180.686,64.555 180.788 C 64.561 180.889,64.675 180.677,64.807 180.316 C 64.939 179.956,65.018 179.631,64.982 179.595 C 64.947 179.560,64.833 179.772,64.730 180.067 M211.545 179.973 C 211.855 180.108,212.157 180.215,212.215 180.212 C 212.434 180.200,211.474 179.727,211.232 179.728 C 211.094 179.728,211.235 179.838,211.545 179.973 M72.786 180.050 C 72.795 180.486,73.059 181.201,73.065 180.805 C 73.067 180.620,73.005 180.319,72.925 180.134 C 72.837 179.929,72.783 179.896,72.786 180.050 M71.836 181.727 C 71.772 182.017,71.755 182.289,71.798 182.331 C 71.840 182.374,71.923 182.168,71.982 181.873 C 72.122 181.175,71.987 181.039,71.836 181.727 M183.822 182.496 L 183.319 182.928 183.864 182.567 C 184.164 182.369,184.409 182.174,184.409 182.134 C 184.409 182.009,184.338 182.053,183.822 182.496 M81.999 183.403 C 81.996 183.541,82.097 183.881,82.224 184.158 C 82.520 184.805,82.524 184.504,82.230 183.738 C 82.105 183.416,82.001 183.265,81.999 183.403 M315.368 183.655 C 315.365 183.839,315.428 184.141,315.507 184.325 C 315.691 184.752,315.691 184.312,315.507 183.738 C 315.399 183.402,315.372 183.385,315.368 183.655 M305.963 183.655 C 305.963 183.747,306.071 184.011,306.203 184.241 C 306.335 184.472,306.442 184.585,306.442 184.493 C 306.442 184.401,306.335 184.137,306.203 183.906 C 306.071 183.676,305.963 183.562,305.963 183.655 M73.787 183.906 C 73.787 184.044,73.852 184.308,73.931 184.493 C 74.022 184.704,74.075 184.735,74.075 184.577 C 74.075 184.438,74.011 184.174,73.931 183.990 C 73.840 183.779,73.787 183.748,73.787 183.906 M170.584 185.010 C 170.428 185.249,170.329 185.473,170.364 185.508 C 170.400 185.543,170.561 185.348,170.722 185.074 C 171.084 184.463,170.976 184.413,170.584 185.010 M180.367 185.708 C 179.833 186.299,179.487 186.756,179.575 186.756 C 179.613 186.756,179.928 186.417,180.275 186.002 C 180.967 185.173,181.029 184.976,180.367 185.708 M70.662 186.085 C 70.599 186.375,70.581 186.647,70.624 186.690 C 70.667 186.733,70.750 186.527,70.809 186.232 C 70.949 185.533,70.813 185.398,70.662 186.085 M83.172 186.756 C 83.169 186.894,83.270 187.234,83.397 187.510 C 83.694 188.158,83.698 187.857,83.403 187.091 C 83.279 186.769,83.175 186.618,83.172 186.756 M307.259 187.594 C 307.324 188.101,307.376 189.044,307.376 189.690 C 307.376 190.335,307.324 191.278,307.259 191.785 C 307.163 192.548,307.173 192.620,307.321 192.205 C 307.420 191.928,307.500 190.796,307.500 189.690 C 307.500 188.583,307.420 187.452,307.321 187.175 C 307.173 186.759,307.163 186.832,307.259 187.594 M75.041 188.349 C 75.101 188.625,75.216 188.965,75.297 189.103 C 75.392 189.264,75.406 189.173,75.336 188.852 C 75.276 188.575,75.161 188.236,75.080 188.097 C 74.986 187.936,74.972 188.027,75.041 188.349 M69.606 189.723 C 69.358 190.532,69.478 190.652,69.740 189.858 C 69.851 189.522,69.909 189.216,69.869 189.176 C 69.829 189.136,69.711 189.382,69.606 189.723 M168.175 189.529 C 168.068 189.765,167.983 190.048,167.986 190.159 C 167.990 190.270,168.104 190.104,168.240 189.790 C 168.527 189.130,168.466 188.889,168.175 189.529 M84.338 190.277 C 84.337 190.518,84.810 191.478,84.822 191.260 C 84.825 191.201,84.718 190.899,84.583 190.589 C 84.449 190.279,84.338 190.138,84.338 190.277 M107.374 213.915 C 107.374 226.500,107.394 231.649,107.418 225.356 C 107.443 219.063,107.443 208.766,107.418 202.473 C 107.394 196.180,107.374 201.329,107.374 213.915 M113.411 211.316 L 113.412 231.601 123.173 231.644 L 132.933 231.688 132.986 234.201 L 133.040 236.715 133.033 234.158 L 133.026 231.601 123.261 231.558 L 113.497 231.514 113.453 211.273 L 113.410 191.031 113.411 211.316 M128.158 193.671 L 128.164 196.228 135.038 196.231 L 141.911 196.234 135.084 196.187 L 128.257 196.140 128.204 193.627 L 128.151 191.114 128.158 193.671 M76.131 191.618 C 76.128 191.756,76.229 192.096,76.356 192.372 C 76.653 193.020,76.657 192.718,76.362 191.953 C 76.238 191.630,76.134 191.479,76.131 191.618 M176.548 191.972 C 176.445 192.268,176.390 192.540,176.426 192.576 C 176.462 192.611,176.575 192.398,176.679 192.102 C 176.782 191.806,176.837 191.534,176.801 191.498 C 176.766 191.462,176.652 191.675,176.548 191.972 M315.533 193.152 C 315.423 193.627,315.364 194.045,315.402 194.083 C 315.439 194.120,315.562 193.765,315.675 193.294 C 315.788 192.823,315.847 192.405,315.806 192.364 C 315.765 192.323,315.642 192.678,315.533 193.152 M68.433 193.244 C 68.184 194.052,68.305 194.172,68.567 193.378 C 68.677 193.043,68.735 192.736,68.695 192.696 C 68.655 192.657,68.537 192.903,68.433 193.244 M85.519 193.630 C 85.516 193.768,85.617 194.107,85.744 194.384 C 86.041 195.031,86.045 194.730,85.750 193.965 C 85.626 193.642,85.522 193.491,85.519 193.630 M175.370 195.571 C 175.262 196.001,175.205 196.384,175.243 196.422 C 175.282 196.461,175.402 196.141,175.510 195.711 C 175.618 195.281,175.675 194.898,175.637 194.860 C 175.598 194.822,175.478 195.142,175.370 195.571 M306.068 195.392 C 305.915 195.713,305.824 195.977,305.866 195.977 C 305.981 195.977,306.490 194.950,306.413 194.873 C 306.377 194.837,306.221 195.070,306.068 195.392 M77.380 195.306 C 77.442 195.536,77.562 195.838,77.648 195.977 C 77.756 196.151,77.769 196.100,77.691 195.809 C 77.629 195.578,77.509 195.277,77.424 195.138 C 77.316 194.964,77.302 195.015,77.380 195.306 M67.259 196.764 C 67.011 197.573,67.131 197.693,67.393 196.899 C 67.504 196.564,67.562 196.257,67.522 196.217 C 67.482 196.177,67.364 196.423,67.259 196.764 M151.509 196.270 C 153.468 196.297,156.674 196.297,158.634 196.270 C 160.593 196.243,158.990 196.221,155.071 196.221 C 151.153 196.221,149.549 196.243,151.509 196.270 M86.699 197.066 C 86.698 197.158,86.799 197.498,86.924 197.821 C 87.048 198.143,87.152 198.294,87.155 198.156 C 87.158 198.018,87.056 197.678,86.930 197.402 C 86.803 197.125,86.699 196.974,86.699 197.066 M311.239 200.812 L 309.905 202.263 311.125 201.090 C 312.119 200.134,312.863 199.266,312.621 199.345 C 312.595 199.354,311.973 200.014,311.239 200.812 M66.148 199.928 C 66.086 200.174,66.068 200.407,66.107 200.447 C 66.147 200.486,66.230 200.318,66.291 200.072 C 66.353 199.826,66.371 199.593,66.332 199.553 C 66.292 199.514,66.209 199.682,66.148 199.928 M87.942 200.838 C 88.004 201.069,88.124 201.370,88.209 201.509 C 88.317 201.684,88.331 201.632,88.253 201.341 C 88.191 201.111,88.071 200.809,87.985 200.671 C 87.877 200.496,87.864 200.547,87.942 200.838 M174.420 204.443 C 174.420 206.194,174.445 206.888,174.475 205.985 C 174.506 205.081,174.506 203.647,174.475 202.799 C 174.445 201.951,174.420 202.691,174.420 204.443 M297.234 201.509 C 296.902 201.615,296.885 201.643,297.150 201.643 C 297.334 201.643,297.674 201.583,297.904 201.509 C 298.236 201.403,298.254 201.375,297.988 201.375 C 297.804 201.375,297.464 201.435,297.234 201.509 M64.974 203.449 C 64.913 203.694,64.894 203.928,64.934 203.967 C 64.974 204.007,65.056 203.838,65.118 203.592 C 65.180 203.347,65.198 203.113,65.158 203.074 C 65.119 203.034,65.036 203.203,64.974 203.449 M304.317 205.234 C 304.109 205.334,303.940 205.489,303.940 205.578 C 303.940 205.674,304.030 205.666,304.158 205.560 C 304.278 205.460,304.561 205.304,304.787 205.214 C 305.012 205.124,305.084 205.051,304.946 205.051 C 304.807 205.052,304.524 205.134,304.317 205.234 M284.402 208.759 C 284.358 208.875,284.342 215.231,284.367 222.883 L 284.411 236.798 284.452 222.743 L 284.493 208.689 289.801 208.745 C 292.721 208.776,294.815 208.749,294.454 208.685 C 293.201 208.464,284.491 208.528,284.402 208.759 M67.687 209.681 C 70.383 209.707,74.797 209.707,77.494 209.681 C 80.191 209.655,77.984 209.634,72.590 209.634 C 67.196 209.634,64.990 209.655,67.687 209.681 M309.717 210.184 C 309.976 210.576,310.219 210.897,310.258 210.897 C 310.379 210.897,309.737 209.877,309.485 209.669 C 309.354 209.560,309.459 209.793,309.717 210.184 M299.581 210.614 C 299.581 210.656,299.858 210.901,300.196 211.159 C 300.535 211.417,300.759 211.543,300.694 211.438 C 300.562 211.223,299.581 210.498,299.581 210.614 M165.830 211.819 C 165.824 212.003,165.882 212.456,165.959 212.825 C 166.075 213.389,166.097 213.415,166.097 212.992 C 166.096 212.405,165.846 211.303,165.830 211.819 M175.217 212.490 C 175.214 212.674,175.277 212.976,175.356 213.160 C 175.540 213.587,175.540 213.147,175.356 212.573 C 175.248 212.236,175.221 212.220,175.217 212.490 M53.330 213.598 C 53.226 213.894,53.171 214.166,53.207 214.202 C 53.243 214.238,53.357 214.025,53.460 213.728 C 53.563 213.432,53.618 213.160,53.583 213.124 C 53.547 213.089,53.433 213.302,53.330 213.598 M312.013 214.334 C 312.012 214.426,312.114 214.765,312.238 215.088 C 312.362 215.411,312.466 215.562,312.469 215.423 C 312.472 215.285,312.371 214.946,312.244 214.669 C 312.117 214.392,312.013 214.241,312.013 214.334 M166.832 216.429 C 166.832 216.567,166.934 216.945,167.058 217.267 C 167.182 217.590,167.284 217.741,167.284 217.603 C 167.284 217.464,167.182 217.087,167.058 216.764 C 166.934 216.442,166.832 216.291,166.832 216.429 M52.171 217.049 C 51.923 217.858,52.043 217.978,52.305 217.184 C 52.416 216.848,52.474 216.542,52.434 216.502 C 52.394 216.462,52.276 216.708,52.171 217.049 M84.184 216.681 C 84.183 216.773,84.285 217.112,84.409 217.435 C 84.533 217.758,84.637 217.909,84.640 217.770 C 84.643 217.632,84.542 217.293,84.415 217.016 C 84.288 216.739,84.184 216.588,84.184 216.681 M313.194 218.022 C 313.194 218.206,313.254 218.546,313.328 218.776 C 313.434 219.108,313.462 219.126,313.462 218.860 C 313.462 218.676,313.402 218.336,313.328 218.106 C 313.221 217.774,313.194 217.756,313.194 218.022 M60.386 218.558 C 60.138 219.367,60.258 219.487,60.520 218.692 C 60.630 218.357,60.688 218.051,60.648 218.011 C 60.608 217.971,60.490 218.217,60.386 218.558 M50.983 220.469 C 50.880 220.764,50.802 221.089,50.808 221.190 C 50.815 221.292,50.928 221.080,51.060 220.719 C 51.192 220.358,51.271 220.034,51.235 219.998 C 51.200 219.962,51.086 220.174,50.983 220.469 M85.427 220.453 C 85.489 220.683,85.609 220.985,85.695 221.123 C 85.803 221.298,85.816 221.247,85.738 220.956 C 85.676 220.725,85.556 220.423,85.470 220.285 C 85.362 220.110,85.349 220.161,85.427 220.453 M305.056 220.704 C 305.112 221.073,305.185 221.406,305.219 221.445 C 305.346 221.589,305.251 220.691,305.105 220.369 C 304.999 220.135,304.984 220.237,305.056 220.704 M59.212 222.079 C 58.964 222.887,59.084 223.007,59.346 222.213 C 59.457 221.878,59.515 221.571,59.475 221.531 C 59.435 221.491,59.317 221.738,59.212 222.079 M314.190 222.464 C 314.190 222.603,314.254 222.867,314.334 223.051 C 314.424 223.262,314.478 223.293,314.478 223.135 C 314.478 222.997,314.413 222.733,314.334 222.548 C 314.243 222.337,314.190 222.306,314.190 222.464 M49.809 223.992 C 49.706 224.288,49.651 224.560,49.686 224.596 C 49.722 224.632,49.836 224.418,49.939 224.122 C 50.043 223.826,50.098 223.554,50.062 223.518 C 50.026 223.482,49.912 223.696,49.809 223.992 M170.411 224.476 C 170.554 224.753,170.709 224.979,170.755 224.979 C 170.801 224.979,170.721 224.753,170.578 224.476 C 170.435 224.199,170.281 223.973,170.234 223.973 C 170.188 223.973,170.268 224.199,170.411 224.476 M305.980 224.811 C 305.988 225.247,306.252 225.962,306.258 225.566 C 306.261 225.381,306.198 225.080,306.119 224.895 C 306.031 224.690,305.977 224.657,305.980 224.811 M48.636 227.343 C 48.533 227.638,48.455 227.962,48.461 228.064 C 48.468 228.165,48.581 227.953,48.713 227.592 C 48.845 227.231,48.924 226.907,48.888 226.871 C 48.853 226.835,48.739 227.047,48.636 227.343 M172.807 227.578 C 173.486 228.415,175.232 230.143,176.031 230.767 C 176.263 230.949,175.948 230.625,175.330 230.047 C 174.711 229.469,173.738 228.488,173.167 227.867 C 172.503 227.147,172.373 227.042,172.807 227.578 M315.368 227.075 C 315.365 227.259,315.428 227.561,315.507 227.745 C 315.691 228.172,315.691 227.732,315.507 227.158 C 315.399 226.822,315.372 226.805,315.368 227.075 M187.259 228.080 C 187.490 228.212,187.754 228.320,187.846 228.320 C 187.938 228.320,187.825 228.212,187.594 228.080 C 187.364 227.949,187.100 227.841,187.008 227.841 C 186.915 227.841,187.028 227.949,187.259 228.080 M212.280 228.002 C 211.719 228.228,211.824 228.342,212.406 228.139 C 212.682 228.043,212.909 227.934,212.909 227.896 C 212.909 227.797,212.705 227.831,212.280 228.002 M213.181 228.500 C 213.240 228.822,213.353 229.237,213.434 229.422 C 213.535 229.652,213.548 229.573,213.474 229.170 C 213.416 228.847,213.302 228.433,213.221 228.248 C 213.121 228.018,213.108 228.097,213.181 228.500 M208.634 229.260 C 207.973 229.489,207.971 229.491,208.550 229.393 C 209.234 229.278,209.933 229.023,209.556 229.026 C 209.417 229.027,209.003 229.133,208.634 229.260 M307.153 229.589 C 307.151 229.774,307.213 230.075,307.293 230.260 C 307.476 230.687,307.476 230.246,307.293 229.673 C 307.185 229.336,307.157 229.320,307.153 229.589 M195.180 230.292 C 195.342 230.334,195.606 230.334,195.767 230.292 C 195.928 230.249,195.796 230.215,195.474 230.215 C 195.151 230.215,195.019 230.249,195.180 230.292 M199.329 230.344 L 196.060 230.438 199.162 230.458 C 200.868 230.469,202.678 230.421,203.185 230.351 C 204.289 230.198,204.346 230.198,199.329 230.344 M47.463 230.863 C 47.360 231.158,47.281 231.483,47.288 231.584 C 47.294 231.686,47.408 231.473,47.540 231.113 C 47.672 230.752,47.751 230.427,47.715 230.392 C 47.679 230.356,47.566 230.568,47.463 230.863 M98.092 230.511 C 98.090 230.650,98.191 230.989,98.317 231.266 C 98.614 231.913,98.618 231.612,98.324 230.847 C 98.199 230.524,98.095 230.373,98.092 230.511 M316.539 231.601 C 316.539 231.693,316.640 232.033,316.764 232.355 C 316.889 232.678,316.993 232.829,316.996 232.691 C 316.998 232.552,316.897 232.213,316.771 231.936 C 316.644 231.660,316.540 231.509,316.539 231.601 M55.859 232.305 C 55.611 233.113,55.731 233.233,55.993 232.439 C 56.104 232.104,56.162 231.797,56.122 231.758 C 56.082 231.718,55.964 231.964,55.859 232.305 M178.709 232.766 C 178.709 232.812,178.935 232.967,179.212 233.110 C 179.489 233.253,179.715 233.332,179.715 233.286 C 179.715 233.240,179.489 233.085,179.212 232.942 C 178.935 232.799,178.709 232.720,178.709 232.766 M214.356 233.110 C 214.532 233.907,214.773 234.387,214.650 233.697 C 214.593 233.374,214.479 232.997,214.396 232.858 C 214.297 232.694,214.284 232.781,214.356 233.110 M99.266 233.864 C 99.263 234.003,99.364 234.342,99.491 234.619 C 99.787 235.266,99.792 234.965,99.497 234.199 C 99.373 233.877,99.269 233.726,99.266 233.864 M317.783 235.373 C 317.844 235.604,317.965 235.905,318.050 236.044 C 318.158 236.218,318.171 236.167,318.093 235.876 C 318.032 235.645,317.911 235.344,317.826 235.205 C 317.718 235.031,317.705 235.082,317.783 235.373 M210.310 236.211 C 210.099 236.302,210.068 236.355,210.226 236.355 C 210.365 236.355,210.629 236.290,210.813 236.211 C 211.024 236.120,211.055 236.067,210.897 236.067 C 210.759 236.067,210.495 236.132,210.310 236.211 M191.282 237.394 C 191.605 237.473,192.435 237.576,193.127 237.624 C 194.376 237.711,194.374 237.710,192.791 237.474 C 191.024 237.210,190.386 237.176,191.282 237.394 M204.736 237.333 C 204.897 237.375,205.161 237.375,205.323 237.333 C 205.484 237.290,205.352 237.256,205.029 237.256 C 204.707 237.256,204.575 237.290,204.736 237.333 M202.096 237.552 L 201.090 237.664 201.928 237.677 C 202.389 237.685,203.143 237.632,203.604 237.560 C 204.714 237.387,203.638 237.382,202.096 237.552 " stroke="none" fill="#3c343c" fill-rule="evenodd"></path><path id="path3" d="M104.260 91.673 C 104.350 91.842,104.556 92.088,104.717 92.218 C 104.898 92.365,104.858 92.248,104.611 91.911 C 104.170 91.310,104.005 91.198,104.260 91.673 M109.939 98.493 C 110.034 98.679,110.288 98.980,110.504 99.162 C 110.883 99.483,110.882 99.477,110.480 98.993 C 109.813 98.189,109.756 98.137,109.939 98.493 M114.501 99.608 C 114.640 99.743,115.243 100.253,115.842 100.740 C 116.904 101.603,116.911 101.605,116.094 100.843 C 115.330 100.130,113.913 99.030,114.501 99.608 M120.201 104.526 C 120.514 104.849,120.808 105.113,120.854 105.113 C 120.900 105.113,120.682 104.849,120.369 104.526 C 120.056 104.204,119.762 103.940,119.716 103.940 C 119.670 103.940,119.888 104.204,120.201 104.526 M119.531 109.556 C 119.843 109.878,120.137 110.142,120.183 110.142 C 120.229 110.142,120.011 109.878,119.698 109.556 C 119.385 109.233,119.092 108.969,119.046 108.969 C 119.000 108.969,119.218 109.233,119.531 109.556 M123.227 120.620 C 123.223 120.869,123.522 121.295,123.627 121.190 C 123.677 121.140,123.608 120.953,123.474 120.776 C 123.339 120.598,123.228 120.528,123.227 120.620 M135.457 126.320 C 136.976 127.842,138.257 129.086,138.303 129.086 C 138.349 129.086,137.144 127.842,135.624 126.320 C 134.105 124.799,132.824 123.554,132.778 123.554 C 132.732 123.554,133.938 124.799,135.457 126.320 M126.236 125.231 C 126.433 125.507,126.632 125.733,126.678 125.733 C 126.724 125.733,126.601 125.507,126.404 125.231 C 126.207 124.954,126.008 124.728,125.962 124.728 C 125.916 124.728,126.039 124.954,126.236 125.231 M158.005 137.804 C 158.365 138.173,158.698 138.474,158.744 138.474 C 158.790 138.474,158.533 138.173,158.173 137.804 C 157.813 137.435,157.480 137.133,157.434 137.133 C 157.388 137.133,157.645 137.435,158.005 137.804 M149.539 139.700 C 149.539 139.729,149.784 139.974,150.084 140.245 L 150.629 140.738 150.136 140.193 C 149.677 139.685,149.539 139.571,149.539 139.700 M136.613 141.073 C 136.896 141.620,137.128 141.923,137.127 141.744 C 137.126 141.651,136.972 141.387,136.783 141.157 C 136.555 140.878,136.498 140.850,136.613 141.073 M162.615 142.047 C 162.615 142.076,162.860 142.321,163.160 142.592 L 163.705 143.085 163.213 142.540 C 162.754 142.032,162.615 141.918,162.615 142.047 M277.606 143.890 C 278.010 144.405,278.528 144.619,278.289 144.173 C 278.182 143.973,278.052 143.854,277.998 143.907 C 277.945 143.960,277.782 143.910,277.635 143.796 C 277.397 143.610,277.394 143.620,277.606 143.890 M138.793 144.426 C 139.075 144.973,139.308 145.276,139.306 145.096 C 139.306 145.004,139.151 144.740,138.962 144.510 C 138.735 144.231,138.678 144.203,138.793 144.426 M169.204 150.042 C 169.204 150.549,169.235 150.756,169.273 150.503 C 169.312 150.249,169.312 149.834,169.273 149.581 C 169.235 149.327,169.204 149.535,169.204 150.042 M146.605 156.580 C 146.965 156.949,147.298 157.251,147.344 157.251 C 147.390 157.251,147.133 156.949,146.773 156.580 C 146.413 156.211,146.080 155.909,146.034 155.909 C 145.988 155.909,146.245 156.211,146.605 156.580 M139.184 157.418 C 139.184 157.741,139.218 157.873,139.261 157.712 C 139.303 157.550,139.303 157.286,139.261 157.125 C 139.218 156.964,139.184 157.096,139.184 157.418 M150.171 158.378 C 150.472 158.415,150.925 158.415,151.177 158.376 C 151.428 158.338,151.182 158.308,150.629 158.308 C 150.075 158.309,149.869 158.341,150.171 158.378 M165.207 160.645 L 164.376 161.526 165.256 160.694 C 165.740 160.236,166.136 159.840,166.136 159.814 C 166.136 159.688,165.980 159.828,165.207 160.645 M136.515 162.207 C 135.875 162.949,135.119 163.993,135.491 163.621 C 135.822 163.291,137.461 161.274,137.399 161.274 C 137.356 161.274,136.958 161.694,136.515 162.207 M172.297 169.082 C 171.670 169.422,171.708 169.563,172.339 169.237 C 172.615 169.094,172.842 168.941,172.842 168.898 C 172.842 168.790,172.824 168.796,172.297 169.082 M175.566 169.775 C 175.358 169.815,175.189 169.916,175.189 169.999 C 175.189 170.087,175.370 170.082,175.619 169.987 C 175.855 169.898,176.491 169.824,177.033 169.824 C 177.574 169.824,178.210 169.898,178.447 169.987 C 178.683 170.077,178.877 170.087,178.877 170.008 C 178.877 169.710,176.700 169.556,175.566 169.775 M173.889 170.364 C 173.682 170.464,173.512 170.612,173.512 170.694 C 173.512 170.834,173.791 170.715,174.350 170.335 C 174.679 170.112,174.372 170.131,173.889 170.364 M179.880 170.487 C 180.109 170.663,180.330 170.774,180.371 170.733 C 180.466 170.638,179.853 170.170,179.631 170.168 C 179.539 170.167,179.651 170.311,179.880 170.487 M172.758 171.197 L 172.422 171.544 172.790 171.354 C 173.178 171.153,173.460 170.823,173.229 170.840 C 173.154 170.845,172.942 171.006,172.758 171.197 M69.489 171.451 C 74.131 171.570,78.084 171.573,78.013 171.459 C 77.970 171.389,75.620 171.349,72.790 171.369 C 69.960 171.388,68.474 171.426,69.489 171.451 M244.590 171.458 L 268.728 171.502 268.778 175.147 L 268.828 178.793 268.823 175.105 L 268.818 171.417 244.635 171.416 L 220.453 171.415 244.590 171.458 M282.358 171.453 C 282.613 171.492,282.990 171.491,283.196 171.451 C 283.402 171.411,283.194 171.379,282.733 171.381 C 282.272 171.382,282.103 171.415,282.358 171.453 M327.655 171.542 C 327.611 171.658,327.595 186.387,327.619 204.275 L 327.662 236.798 327.704 204.152 L 327.745 171.506 332.062 171.458 L 336.379 171.411 332.057 171.372 C 328.724 171.342,327.716 171.381,327.655 171.542 M172.099 171.932 C 171.859 172.172,171.743 172.506,171.900 172.506 C 171.936 172.506,172.088 172.318,172.239 172.087 C 172.551 171.611,172.489 171.542,172.099 171.932 M184.409 171.721 C 184.409 171.749,184.654 171.995,184.954 172.265 L 185.499 172.758 185.006 172.213 C 184.547 171.705,184.409 171.591,184.409 171.721 M171.688 173.554 C 171.677 174.084,171.727 174.518,171.798 174.518 C 171.870 174.518,171.904 174.197,171.873 173.806 C 171.782 172.631,171.708 172.531,171.688 173.554 M182.145 173.498 C 182.145 173.951,182.200 174.233,182.268 174.126 C 182.431 173.870,182.434 172.674,182.272 172.674 C 182.202 172.675,182.145 173.045,182.145 173.498 M172.841 175.650 C 173.060 175.949,173.266 176.194,173.298 176.194 C 173.425 176.194,173.010 175.566,172.735 175.342 C 172.554 175.195,172.594 175.312,172.841 175.650 M174.156 176.545 C 174.556 176.735,174.925 176.849,174.975 176.799 C 175.071 176.703,174.568 176.482,173.847 176.303 C 173.617 176.245,173.756 176.354,174.156 176.545 M185.289 181.547 C 185.312 181.633,185.180 181.830,184.996 181.985 C 184.674 182.255,184.676 182.257,185.070 182.024 C 185.513 181.762,185.723 181.391,185.429 181.391 C 185.329 181.391,185.266 181.462,185.289 181.547 M126.404 193.127 C 126.216 193.495,126.100 193.797,126.146 193.797 C 126.192 193.797,126.384 193.495,126.572 193.127 C 126.760 192.758,126.876 192.456,126.830 192.456 C 126.784 192.456,126.592 192.758,126.404 193.127 M232.523 193.308 C 232.523 193.439,232.806 193.765,233.152 194.033 L 233.780 194.521 233.194 193.868 C 232.871 193.508,232.588 193.182,232.565 193.142 C 232.542 193.103,232.523 193.178,232.523 193.308 M234.199 195.264 C 234.418 195.564,234.624 195.809,234.656 195.809 C 234.783 195.809,234.368 195.180,234.093 194.957 C 233.912 194.810,233.952 194.927,234.199 195.264 M134.535 200.168 C 134.392 200.444,134.312 200.671,134.359 200.671 C 134.405 200.671,134.559 200.444,134.702 200.168 C 134.845 199.891,134.925 199.665,134.879 199.665 C 134.833 199.665,134.678 199.891,134.535 200.168 M174.564 200.671 C 174.564 201.085,174.596 201.255,174.636 201.048 C 174.676 200.840,174.676 200.501,174.636 200.293 C 174.596 200.086,174.564 200.256,174.564 200.671 M234.757 204.778 C 234.758 205.423,234.788 205.667,234.825 205.319 C 234.861 204.971,234.860 204.443,234.823 204.145 C 234.786 203.848,234.757 204.132,234.757 204.778 M238.628 208.969 C 238.628 210.629,238.653 211.285,238.683 210.427 C 238.714 209.570,238.714 208.212,238.683 207.410 C 238.652 206.608,238.627 207.309,238.628 208.969 M174.564 208.215 C 174.564 208.630,174.596 208.799,174.636 208.592 C 174.676 208.384,174.676 208.045,174.636 207.837 C 174.596 207.630,174.564 207.800,174.564 208.215 M236.630 218.609 C 236.487 218.885,236.408 219.111,236.454 219.111 C 236.500 219.111,236.655 218.885,236.798 218.609 C 236.941 218.332,237.020 218.106,236.974 218.106 C 236.928 218.106,236.773 218.332,236.630 218.609 M226.320 221.819 C 225.997 222.102,225.885 222.257,226.071 222.163 C 226.377 222.008,227.136 221.281,226.975 221.298 C 226.938 221.301,226.643 221.536,226.320 221.819 M222.758 224.069 C 222.131 224.409,222.169 224.551,222.800 224.225 C 223.076 224.082,223.303 223.929,223.303 223.885 C 223.303 223.777,223.285 223.783,222.758 224.069 M232.182 224.769 L 231.266 225.733 232.230 224.817 C 232.760 224.313,233.194 223.879,233.194 223.853 C 233.194 223.729,233.033 223.874,232.182 224.769 M136.463 225.032 C 136.463 225.060,136.708 225.306,137.008 225.576 L 137.552 226.069 137.060 225.524 C 136.601 225.016,136.463 224.902,136.463 225.032 M117.184 228.777 C 118.221 229.122,119.333 229.602,119.614 229.826 C 119.943 230.087,119.944 230.085,119.649 229.735 C 119.337 229.366,117.699 228.657,117.211 228.680 C 116.984 228.691,116.979 228.709,117.184 228.777 M114.563 229.076 C 114.275 229.202,113.991 229.381,113.934 229.474 C 113.846 229.616,115.112 229.092,115.326 228.898 C 115.475 228.763,115.063 228.859,114.563 229.076 M104.824 230.176 C 104.824 230.591,104.856 230.761,104.896 230.553 C 104.936 230.346,104.936 230.006,104.896 229.799 C 104.856 229.591,104.824 229.761,104.824 230.176 M113.495 230.595 C 113.495 230.826,113.524 231.014,113.560 231.014 C 113.595 231.014,113.660 230.826,113.704 230.595 C 113.748 230.365,113.719 230.176,113.640 230.176 C 113.560 230.176,113.495 230.365,113.495 230.595 M104.817 235.876 C 104.817 236.199,104.851 236.331,104.893 236.169 C 104.936 236.008,104.936 235.744,104.893 235.583 C 104.851 235.421,104.817 235.553,104.817 235.876 M180.218 237.064 C 179.940 237.292,179.911 237.349,180.134 237.234 C 180.681 236.951,180.984 236.719,180.805 236.720 C 180.712 236.721,180.448 236.876,180.218 237.064 M114.341 237.181 C 114.325 237.639,114.942 238.287,115.752 238.664 C 116.579 239.050,117.854 239.203,117.854 238.917 C 117.854 238.837,117.665 238.809,117.433 238.853 C 116.648 239.003,115.028 238.252,114.668 237.571 C 114.492 237.238,114.345 237.063,114.341 237.181 M119.800 237.868 C 119.643 238.042,119.174 238.314,118.758 238.473 C 118.342 238.631,118.037 238.797,118.081 238.841 C 118.220 238.980,119.600 238.288,119.934 237.912 C 120.109 237.714,120.215 237.552,120.169 237.552 C 120.123 237.552,119.957 237.694,119.800 237.868 M196.028 237.845 C 197.024 237.875,198.608 237.875,199.548 237.845 C 200.488 237.815,199.673 237.791,197.737 237.791 C 195.801 237.791,195.031 237.816,196.028 237.845 M151.590 245.096 C 151.590 245.419,151.624 245.551,151.666 245.390 C 151.708 245.228,151.708 244.964,151.666 244.803 C 151.624 244.642,151.590 244.774,151.590 245.096 M184.537 245.047 C 184.745 245.087,185.047 245.086,185.207 245.044 C 185.368 245.002,185.197 244.969,184.828 244.971 C 184.459 244.973,184.328 245.007,184.537 245.047 M190.740 245.047 C 190.948 245.087,191.250 245.086,191.410 245.044 C 191.570 245.002,191.400 244.969,191.031 244.971 C 190.662 244.973,190.531 245.007,190.740 245.047 M204.191 248.022 C 204.191 248.068,204.417 248.222,204.694 248.365 C 204.971 248.509,205.197 248.588,205.197 248.542 C 205.197 248.496,204.971 248.341,204.694 248.198 C 204.417 248.055,204.191 247.975,204.191 248.022 M165.423 250.389 C 164.797 250.729,164.835 250.871,165.465 250.545 C 165.742 250.402,165.968 250.249,165.968 250.205 C 165.968 250.097,165.950 250.103,165.423 250.389 M212.070 253.395 C 212.571 253.902,213.019 254.317,213.065 254.317 C 213.111 254.317,212.739 253.902,212.238 253.395 C 211.737 252.888,211.290 252.473,211.244 252.473 C 211.198 252.473,211.570 252.888,212.070 253.395 M146.512 254.275 L 145.935 254.904 146.563 254.326 C 147.148 253.788,147.269 253.646,147.141 253.646 C 147.113 253.646,146.830 253.929,146.512 254.275 M142.414 257.334 C 142.137 257.518,141.987 257.666,142.079 257.665 C 142.247 257.662,143.158 257.009,143.001 257.004 C 142.955 257.003,142.691 257.151,142.414 257.334 M137.930 259.945 C 137.303 260.285,137.341 260.427,137.972 260.101 C 138.248 259.958,138.474 259.805,138.474 259.761 C 138.474 259.653,138.456 259.659,137.930 259.945 M190.659 259.805 C 191.100 259.840,191.779 259.839,192.168 259.804 C 192.557 259.769,192.196 259.740,191.366 259.741 C 190.536 259.741,190.218 259.770,190.659 259.805 M198.324 266.104 C 198.324 266.133,198.569 266.378,198.868 266.649 L 199.413 267.142 198.921 266.597 C 198.462 266.089,198.324 265.975,198.324 266.104 M179.601 270.075 C 179.601 270.675,179.631 270.920,179.669 270.620 C 179.706 270.321,179.706 269.830,179.669 269.531 C 179.631 269.231,179.601 269.476,179.601 270.075 M185.467 270.159 C 185.468 270.712,185.499 270.919,185.536 270.617 C 185.574 270.316,185.573 269.863,185.535 269.611 C 185.496 269.360,185.466 269.606,185.467 270.159 M201.230 273.261 C 201.230 273.952,201.259 274.235,201.296 273.889 C 201.332 273.544,201.332 272.978,201.296 272.632 C 201.259 272.286,201.230 272.569,201.230 273.261 M210.478 274.769 C 210.621 275.046,210.776 275.272,210.822 275.272 C 210.868 275.272,210.788 275.046,210.645 274.769 C 210.502 274.493,210.348 274.267,210.302 274.267 C 210.255 274.267,210.335 274.493,210.478 274.769 M197.513 275.699 C 197.232 276.315,197.285 276.447,197.589 275.886 C 197.731 275.625,197.815 275.379,197.777 275.341 C 197.739 275.302,197.620 275.463,197.513 275.699 M196.231 277.616 C 195.873 277.983,195.612 278.309,195.652 278.339 C 195.692 278.370,196.018 278.070,196.376 277.672 C 197.192 276.764,197.099 276.728,196.231 277.616 M183.738 277.963 C 184.320 278.358,184.651 278.472,184.241 278.137 C 184.011 277.949,183.747 277.794,183.655 277.793 C 183.562 277.793,183.600 277.869,183.738 277.963 M200.084 278.290 C 199.941 278.567,199.861 278.793,199.908 278.793 C 199.954 278.793,200.108 278.567,200.251 278.290 C 200.395 278.013,200.474 277.787,200.428 277.787 C 200.382 277.787,200.227 278.013,200.084 278.290 M189.986 280.254 C 190.240 280.293,190.618 280.292,190.824 280.252 C 191.030 280.212,190.821 280.181,190.360 280.182 C 189.899 280.183,189.731 280.216,189.986 280.254 M213.663 281.811 C 213.806 282.087,213.961 282.313,214.007 282.313 C 214.053 282.313,213.974 282.087,213.831 281.811 C 213.688 281.534,213.533 281.308,213.487 281.308 C 213.441 281.308,213.520 281.534,213.663 281.811 M235.415 294.339 C 235.853 294.374,236.570 294.374,237.008 294.339 C 237.446 294.305,237.087 294.277,236.211 294.277 C 235.335 294.277,234.977 294.305,235.415 294.339 M232.151 297.693 C 232.639 297.727,233.393 297.727,233.828 297.692 C 234.263 297.658,233.864 297.630,232.942 297.630 C 232.020 297.631,231.664 297.659,232.151 297.693 " stroke="none" fill="#1c1c1c" fill-rule="evenodd"></path><path id="path4" d="M181.224 171.333 C 181.322 171.517,181.488 171.668,181.591 171.668 C 181.694 171.668,181.642 171.517,181.475 171.333 C 181.308 171.148,181.143 170.997,181.108 170.997 C 181.073 170.997,181.125 171.148,181.224 171.333 M172.003 174.906 C 172.003 174.935,172.249 175.180,172.548 175.451 L 173.093 175.943 172.601 175.398 C 172.142 174.890,172.003 174.776,172.003 174.906 M176.657 177.151 C 176.866 177.191,177.168 177.190,177.328 177.148 C 177.488 177.106,177.318 177.073,176.949 177.075 C 176.580 177.077,176.449 177.111,176.657 177.151 M108.835 191.072 C 109.637 191.103,110.995 191.103,111.852 191.072 C 112.710 191.042,112.054 191.017,110.394 191.016 C 108.734 191.016,108.033 191.041,108.835 191.072 M130.721 191.073 C 132.127 191.101,134.428 191.101,135.834 191.073 C 137.240 191.045,136.090 191.022,133.277 191.022 C 130.465 191.022,129.315 191.045,130.721 191.073 M144.468 191.073 C 147.718 191.098,153.036 191.098,156.287 191.073 C 159.537 191.047,156.878 191.027,150.377 191.027 C 143.877 191.027,141.218 191.047,144.468 191.073 M148.111 215.172 C 148.111 225.591,148.131 229.829,148.156 224.589 C 148.180 219.349,148.180 210.825,148.156 205.645 C 148.131 200.466,148.111 204.753,148.111 215.172 M165.672 211.065 C 165.672 211.387,165.706 211.519,165.748 211.358 C 165.791 211.197,165.791 210.933,165.748 210.771 C 165.706 210.610,165.672 210.742,165.672 211.065 M364.195 233.194 C 364.195 235.176,364.220 235.987,364.249 234.996 C 364.279 234.005,364.279 232.383,364.249 231.391 C 364.220 230.400,364.195 231.211,364.195 233.194 M148.088 235.457 C 148.088 236.194,148.118 236.475,148.153 236.081 C 148.189 235.687,148.188 235.083,148.152 234.740 C 148.116 234.397,148.087 234.719,148.088 235.457 " stroke="none" fill="#2c242c" fill-rule="evenodd"></path></g></svg>