<svg id="svg" version="1.1" xmlns="http://www.w3.org/2000/svg" xmlns:xlink="http://www.w3.org/1999/xlink" width="400" height="402.3408924652524" viewBox="0, 0, 400,402.3408924652524"><g id="svgg"><path id="path0" d="M245.656 60.318 C 245.118 60.867,242.565 63.344,239.984 65.822 C 237.402 68.300,232.686 72.892,229.503 76.027 C 226.319 79.162,220.887 84.478,217.432 87.841 C 213.976 91.204,208.771 96.296,205.865 99.157 C 202.959 102.018,195.340 109.462,188.933 115.699 C 182.526 121.935,174.557 129.706,171.224 132.966 C 164.371 139.670,146.301 157.332,143.264 160.295 L 141.260 162.250 141.450 163.229 C 141.809 165.071,142.991 170.688,143.843 174.602 C 144.024 175.432,144.393 177.167,144.664 178.458 C 144.934 179.749,145.382 181.861,145.658 183.152 C 146.226 185.801,147.158 190.271,147.301 191.031 C 147.425 191.688,147.918 192.483,148.376 192.763 C 148.722 192.975,149.018 192.704,154.211 187.412 C 161.833 179.644,170.781 171.196,174.619 168.142 C 174.905 167.915,175.922 167.093,176.879 166.316 C 177.835 165.539,179.148 164.475,179.795 163.952 C 183.009 161.355,188.117 157.767,192.791 154.822 C 194.220 153.922,195.541 153.055,195.725 152.896 C 196.314 152.388,196.594 152.387,197.292 152.893 C 197.660 153.159,198.929 153.973,200.112 154.702 C 213.128 162.715,217.345 165.391,226.991 171.760 C 230.268 173.923,235.330 177.591,238.055 179.776 C 239.208 180.700,240.489 181.724,240.903 182.052 C 241.316 182.380,243.225 184.063,245.146 185.792 C 247.066 187.521,248.695 188.935,248.765 188.935 C 248.835 188.935,249.792 188.196,250.892 187.292 C 251.992 186.389,255.042 183.887,257.670 181.733 C 263.735 176.762,263.357 177.132,264.759 174.769 C 265.416 173.663,266.606 171.664,267.404 170.327 C 269.852 166.227,269.809 166.406,269.059 163.453 C 268.977 163.131,268.754 162.112,268.564 161.190 C 268.373 160.268,268.066 158.835,267.882 158.005 C 267.698 157.175,267.473 156.157,267.382 155.742 C 267.291 155.327,267.025 154.120,266.792 153.060 C 266.558 151.999,266.300 150.754,266.217 150.293 C 266.135 149.832,265.794 148.210,265.461 146.689 C 264.819 143.762,264.161 140.690,263.378 136.966 C 263.117 135.721,262.706 133.797,262.466 132.691 C 262.226 131.584,261.950 130.302,261.852 129.841 C 261.755 129.380,261.448 127.946,261.172 126.655 C 260.528 123.652,259.877 120.599,259.028 116.597 C 257.584 109.797,257.464 109.238,256.327 104.023 C 256.066 102.825,255.811 101.580,255.760 101.257 C 255.710 100.935,255.512 99.992,255.322 99.162 C 254.957 97.571,253.108 89.030,252.727 87.175 C 252.604 86.576,252.267 84.992,251.978 83.655 C 251.689 82.318,251.265 80.319,251.035 79.212 C 250.805 78.106,250.399 76.220,250.132 75.021 C 249.866 73.822,249.413 71.710,249.127 70.327 C 248.841 68.944,248.496 67.322,248.360 66.723 C 248.224 66.123,247.923 64.728,247.690 63.621 C 246.648 58.672,246.888 59.061,245.656 60.318 M51.054 109.137 C 51.133 109.275,51.767 110.152,52.464 111.086 C 53.160 112.020,54.894 114.359,56.317 116.283 C 57.740 118.208,60.198 121.517,61.780 123.638 C 64.725 127.588,69.350 133.814,73.506 139.423 C 74.793 141.160,77.588 144.920,79.718 147.779 C 84.652 154.403,88.576 159.675,90.948 162.867 C 91.976 164.250,94.588 167.758,96.752 170.662 C 98.917 173.567,101.360 176.848,102.181 177.955 C 103.002 179.061,105.754 182.758,108.296 186.169 C 110.838 189.581,114.123 193.993,115.596 195.974 C 117.068 197.956,119.744 201.551,121.542 203.964 C 123.340 206.377,126.387 210.471,128.313 213.061 C 130.239 215.651,131.905 217.770,132.015 217.770 C 132.125 217.770,132.634 217.110,133.145 216.303 C 133.657 215.497,134.889 213.554,135.883 211.987 C 143.108 200.598,142.787 201.174,141.921 201.174 C 140.655 201.174,140.712 201.103,144.976 197.429 C 146.564 196.061,147.863 194.848,147.863 194.733 C 147.863 194.522,146.293 193.084,141.068 188.506 C 137.802 185.645,131.610 180.177,128.674 177.562 C 127.571 176.579,125.378 174.644,123.801 173.261 C 122.225 171.878,119.317 169.306,117.341 167.547 C 115.364 165.787,113.057 163.750,112.215 163.020 C 111.372 162.290,109.330 160.486,107.677 159.011 C 103.557 155.335,95.430 148.164,93.797 146.765 C 93.060 146.133,91.928 145.121,91.282 144.517 C 90.637 143.913,88.936 142.400,87.502 141.156 C 86.068 139.912,83.239 137.417,81.215 135.612 C 79.191 133.807,76.880 131.770,76.080 131.085 C 75.279 130.401,73.235 128.596,71.539 127.075 C 69.842 125.553,67.925 123.856,67.279 123.303 C 66.632 122.749,64.752 121.090,63.100 119.614 C 61.449 118.139,59.571 116.479,58.928 115.926 C 58.284 115.373,56.399 113.719,54.738 112.250 C 50.849 108.810,50.884 108.840,51.054 109.137 M331.769 133.451 C 330.368 133.796,324.612 134.951,319.533 135.908 C 318.252 136.149,321.165 136.456,326.768 136.670 L 328.054 136.719 329.199 137.795 C 330.231 138.765,334.415 142.883,346.452 154.778 C 350.682 158.958,351.173 159.371,350.034 157.795 C 349.651 157.265,347.492 154.078,345.236 150.712 C 335.274 135.851,333.370 133.086,333.126 133.126 C 333.071 133.135,332.460 133.281,331.769 133.451 M312.304 138.768 C 309.916 140.754,306.474 143.587,304.105 145.516 C 303.028 146.391,301.244 147.863,300.139 148.785 C 299.034 149.707,296.744 151.593,295.050 152.976 C 293.355 154.359,291.066 156.245,289.963 157.167 C 288.860 158.089,287.260 159.409,286.408 160.101 C 285.557 160.792,283.035 162.867,280.804 164.711 C 278.574 166.555,276.009 168.667,275.104 169.405 C 271.926 171.996,255.426 185.550,253.562 187.101 C 252.917 187.638,251.442 188.855,250.285 189.806 C 245.337 193.872,244.761 194.359,244.761 194.482 C 244.761 194.605,247.648 197.161,248.689 197.959 C 249.148 198.311,249.285 198.328,250.822 198.222 C 252.306 198.119,252.476 198.138,252.580 198.408 C 252.774 198.913,252.211 199.173,251.186 199.053 C 250.058 198.920,249.975 199.251,250.962 199.947 C 252.259 200.863,252.087 201.265,250.429 201.198 L 249.240 201.149 249.345 201.706 C 249.403 202.013,249.558 202.640,249.688 203.101 C 249.920 203.917,250.762 206.981,251.831 210.897 C 252.121 211.957,252.599 213.692,252.894 214.753 C 253.189 215.813,253.837 218.208,254.334 220.074 C 254.850 222.008,255.322 223.468,255.433 223.469 C 255.600 223.470,256.494 222.435,259.431 218.841 C 263.201 214.229,269.428 206.624,269.916 206.035 C 270.260 205.620,274.701 200.189,279.785 193.965 C 284.869 187.741,289.611 181.941,290.323 181.075 C 291.904 179.153,292.768 178.097,295.893 174.267 C 297.230 172.628,298.927 170.559,299.665 169.668 C 300.402 168.778,303.458 165.043,306.454 161.369 C 311.647 155.001,315.039 150.854,317.160 148.282 C 317.693 147.636,319.292 145.682,320.715 143.938 C 325.712 137.816,325.419 138.305,324.089 138.310 C 323.337 138.312,321.071 138.083,316.513 137.542 C 315.360 137.405,314.339 137.295,314.243 137.297 C 314.146 137.299,313.274 137.961,312.304 138.768 M325.505 140.503 C 324.595 141.616,323.916 142.587,323.996 142.662 C 324.170 142.824,328.330 145.554,337.182 151.316 C 340.797 153.669,344.472 156.074,345.347 156.661 C 346.223 157.247,346.963 157.703,346.992 157.674 C 347.038 157.629,338.459 149.100,330.337 141.117 C 328.858 139.664,327.538 138.476,327.404 138.477 C 327.269 138.478,326.414 139.390,325.505 140.503 M321.505 145.488 C 320.834 146.302,319.332 148.132,318.167 149.553 C 317.002 150.975,314.927 153.504,313.556 155.174 C 312.186 156.845,310.122 159.364,308.969 160.773 C 307.816 162.183,305.942 164.475,304.803 165.867 C 303.664 167.260,302.276 168.965,301.719 169.656 C 301.163 170.348,300.394 171.291,300.011 171.752 C 297.857 174.346,295.383 177.368,278.876 197.569 C 268.931 209.740,260.295 220.302,259.685 221.039 C 255.799 225.736,255.995 225.461,256.023 226.177 C 256.048 226.810,255.964 226.931,254.411 228.490 C 253.510 229.394,252.837 230.169,252.916 230.211 C 253.092 230.305,262.750 230.041,263.467 229.922 C 263.869 229.855,264.162 229.587,264.795 228.707 C 265.242 228.086,268.335 223.730,271.668 219.028 C 275.000 214.325,278.960 208.743,280.467 206.622 C 283.000 203.056,285.377 199.694,286.905 197.515 C 287.249 197.024,288.292 195.553,289.223 194.246 C 293.481 188.267,294.717 186.525,297.985 181.894 C 299.905 179.174,302.016 176.194,302.677 175.272 C 303.839 173.652,305.876 170.781,312.909 160.855 C 318.036 153.617,318.841 152.480,320.618 149.958 C 321.528 148.667,322.674 147.055,323.165 146.375 C 324.190 144.954,324.241 144.691,323.570 144.294 C 322.850 143.869,322.828 143.882,321.505 145.488 M77.388 147.569 C 77.456 147.684,79.324 150.381,81.540 153.562 C 87.429 162.018,85.221 158.834,104.727 187.008 C 112.196 197.795,119.907 208.923,121.863 211.735 C 123.819 214.547,126.225 218.034,127.211 219.482 C 128.196 220.931,129.090 222.119,129.197 222.123 C 129.424 222.130,130.930 219.836,130.930 219.483 C 130.930 219.212,130.445 218.540,124.307 210.310 C 121.900 207.083,118.722 202.821,117.245 200.838 C 114.736 197.470,111.911 193.682,102.118 180.553 C 90.781 165.354,89.101 163.096,84.913 157.418 C 79.754 150.424,77.453 147.360,77.359 147.360 C 77.307 147.360,77.320 147.454,77.388 147.569 M195.713 155.034 C 194.730 155.934,191.976 158.354,187.091 162.612 C 184.740 164.661,180.855 168.054,178.458 170.152 C 176.060 172.250,172.816 175.086,171.249 176.455 C 169.681 177.824,167.793 179.476,167.052 180.126 C 165.084 181.853,162.740 183.905,157.837 188.190 C 155.440 190.286,152.837 192.578,152.054 193.284 C 151.270 193.990,149.926 195.167,149.067 195.901 C 148.209 196.634,147.052 197.622,146.496 198.097 C 145.941 198.571,145.493 199.024,145.501 199.103 C 145.533 199.424,247.946 199.872,247.946 199.551 C 247.946 199.465,247.135 198.673,246.144 197.790 C 244.471 196.301,228.947 182.704,227.421 181.392 C 227.046 181.070,224.627 178.954,222.045 176.691 C 219.464 174.428,216.745 172.051,216.005 171.409 C 215.265 170.768,212.556 168.395,209.987 166.136 C 207.417 163.877,204.960 161.727,204.527 161.358 C 204.094 160.989,202.111 159.273,200.120 157.544 C 198.130 155.815,196.478 154.403,196.449 154.405 C 196.420 154.407,196.089 154.690,195.713 155.034 M205.525 160.234 C 206.590 161.153,209.650 163.836,214.242 167.876 C 216.035 169.455,218.757 171.840,220.291 173.177 C 221.824 174.514,224.769 177.092,226.837 178.905 C 238.542 189.175,243.285 193.294,243.406 193.294 C 244.004 193.294,247.474 190.093,247.242 189.756 C 245.757 187.597,232.551 177.140,225.558 172.584 C 224.179 171.686,222.221 170.408,221.207 169.745 C 213.427 164.657,205.087 159.424,204.781 159.437 C 204.687 159.441,205.022 159.800,205.525 160.234 M185.727 161.389 C 179.283 165.819,165.799 177.586,157.931 185.646 C 156.263 187.354,157.178 186.801,159.619 184.624 C 162.124 182.391,170.873 174.705,172.076 173.680 C 172.455 173.357,174.265 171.773,176.098 170.159 C 177.930 168.546,179.785 166.924,180.219 166.555 C 181.690 165.305,185.999 161.556,186.417 161.162 C 187.019 160.595,186.756 160.682,185.727 161.389 M143.393 202.826 C 142.703 203.900,141.306 206.098,140.288 207.712 C 138.272 210.907,137.282 212.470,135.086 215.926 C 129.817 224.221,130.233 223.493,130.344 224.225 C 130.399 224.593,130.553 226.215,130.684 227.829 C 131.108 233.041,131.437 236.624,131.514 236.882 C 131.556 237.020,131.669 238.340,131.766 239.816 C 131.863 241.291,132.054 243.630,132.190 245.013 C 132.327 246.396,132.547 248.810,132.681 250.377 C 133.053 254.751,133.260 257.028,133.525 259.681 C 133.659 261.018,133.889 263.583,134.036 265.381 C 134.184 267.179,134.410 269.744,134.539 271.081 C 134.668 272.418,134.893 274.946,135.040 276.697 C 135.186 278.449,135.381 280.562,135.471 281.391 C 135.562 282.221,135.743 284.220,135.874 285.834 C 136.004 287.448,136.230 290.050,136.376 291.618 C 136.523 293.185,136.752 295.788,136.885 297.402 C 137.237 301.641,137.601 305.597,137.712 306.370 C 137.765 306.739,137.881 308.060,137.972 309.304 C 138.062 310.549,138.250 312.775,138.390 314.250 C 138.530 315.725,138.722 317.875,138.817 319.028 C 139.042 321.770,139.419 326.012,139.727 329.254 C 139.863 330.683,140.055 332.795,140.153 333.948 C 140.322 335.924,140.674 339.683,140.925 342.205 C 141.065 343.609,141.003 343.618,142.592 341.953 C 143.317 341.192,146.180 338.231,148.954 335.373 C 151.727 332.515,154.782 329.346,155.743 328.332 C 156.704 327.318,160.021 323.885,163.114 320.704 C 170.640 312.965,177.772 305.601,183.662 299.488 C 186.332 296.716,193.010 289.813,198.503 284.148 C 203.996 278.483,210.446 271.813,212.837 269.327 C 215.228 266.841,219.447 262.477,222.213 259.629 C 228.457 253.200,232.431 249.093,240.895 240.319 C 244.541 236.538,249.053 231.883,250.921 229.974 C 254.726 226.085,254.543 226.426,253.967 224.308 C 253.779 223.617,253.471 222.485,253.283 221.794 C 253.094 221.102,252.839 220.159,252.715 219.698 C 252.591 219.237,252.261 218.030,251.982 217.016 C 251.703 216.002,251.220 214.229,250.909 213.076 C 250.023 209.798,249.339 207.285,248.788 205.281 C 248.509 204.267,248.192 203.073,248.082 202.630 C 247.973 202.186,247.766 201.762,247.622 201.688 C 247.478 201.615,238.646 201.506,227.997 201.447 C 217.347 201.388,200.637 201.266,190.863 201.177 C 181.090 201.087,166.693 200.983,158.870 200.945 L 144.647 200.875 143.393 202.826 " stroke="none" fill="#fafafa" fill-rule="evenodd"></path><path id="path1" d="M190.612 5.634 C 183.896 5.826,171.752 7.248,163.453 8.813 C 151.156 11.133,137.916 14.989,127.242 19.357 C 126.182 19.791,125.018 20.257,124.656 20.393 C 122.739 21.110,113.916 25.163,111.567 26.404 C 110.922 26.745,109.979 27.233,109.472 27.489 C 108.541 27.959,103.439 30.771,101.425 31.924 C 92.595 36.978,79.264 46.453,72.684 52.352 C 72.044 52.926,70.800 54.026,69.918 54.798 C 64.537 59.510,59.026 65.019,53.558 71.151 C 43.916 81.967,35.738 93.497,28.521 106.454 C 27.321 108.610,26.784 109.649,24.312 114.605 C 22.835 117.567,21.626 120.078,21.626 120.185 C 21.626 120.293,21.518 120.548,21.386 120.752 C 21.164 121.097,19.614 124.634,19.614 124.798 C 19.614 124.839,19.395 125.349,19.126 125.931 C 18.600 127.073,17.934 128.751,16.640 132.188 C 1.737 171.791,0.132 215.828,12.104 256.580 C 14.367 264.282,19.354 277.759,21.378 281.643 C 21.498 281.873,21.849 282.624,22.156 283.311 C 23.192 285.621,27.323 293.773,28.575 295.977 C 28.837 296.438,29.392 297.418,29.807 298.156 C 32.559 303.046,37.385 310.544,41.158 315.793 C 53.144 332.465,70.034 349.199,86.656 360.871 C 89.563 362.913,91.133 363.993,91.702 364.345 C 92.024 364.544,93.094 365.236,94.079 365.882 C 95.064 366.529,96.083 367.182,96.342 367.333 C 96.602 367.485,97.758 368.189,98.910 368.899 C 100.063 369.608,101.345 370.371,101.760 370.594 C 102.175 370.818,102.628 371.076,102.766 371.169 C 104.555 372.370,115.419 377.899,119.698 379.786 C 121.127 380.416,122.712 381.119,123.219 381.350 C 123.726 381.580,124.329 381.828,124.560 381.903 C 124.790 381.977,125.922 382.427,127.075 382.904 C 128.227 383.380,129.661 383.947,130.260 384.164 C 130.859 384.381,132.293 384.905,133.445 385.328 C 146.309 390.050,164.549 394.373,176.278 395.481 C 177.293 395.577,179.065 395.763,180.218 395.896 C 186.597 396.629,188.395 396.704,199.665 396.711 C 211.329 396.717,211.890 396.692,220.536 395.793 C 238.835 393.889,256.778 389.398,273.596 382.513 C 279.519 380.088,281.819 379.043,287.650 376.125 C 299.398 370.246,315.466 359.942,322.347 353.875 C 322.596 353.655,324.048 352.446,325.574 351.187 C 327.100 349.929,329.062 348.240,329.933 347.433 C 335.740 342.059,338.673 339.211,341.454 336.242 C 346.894 330.434,347.267 330.022,349.383 327.469 C 350.519 326.099,351.948 324.376,352.559 323.638 C 354.089 321.793,357.283 317.608,358.381 316.010 C 358.539 315.780,359.054 315.063,359.524 314.417 C 360.613 312.921,364.292 307.487,364.292 307.374 C 364.292 307.297,365.200 305.889,365.985 304.749 C 366.854 303.488,370.469 297.266,371.715 294.887 C 372.174 294.011,372.607 293.219,372.678 293.127 C 373.400 292.192,379.301 279.681,380.941 275.608 C 381.257 274.824,381.747 273.611,382.030 272.912 C 383.901 268.291,387.813 256.589,388.443 253.730 C 388.525 253.361,388.711 252.645,388.857 252.137 C 392.133 240.782,394.892 223.164,395.317 210.897 C 395.643 201.462,395.420 189.558,394.809 183.738 C 394.620 181.940,394.424 179.904,394.373 179.212 C 393.440 166.509,387.749 143.560,382.030 129.435 C 381.747 128.736,381.257 127.523,380.941 126.739 C 380.208 124.919,379.847 124.090,378.311 120.704 C 375.584 114.692,374.162 111.870,370.372 104.946 C 370.041 104.341,367.504 100.099,365.728 97.179 C 362.859 92.462,355.611 82.307,352.366 78.458 C 352.016 78.043,350.927 76.723,349.947 75.524 C 343.914 68.151,333.510 57.723,325.835 51.357 C 324.442 50.202,322.970 48.980,322.563 48.643 C 316.621 43.715,305.351 35.958,298.156 31.844 C 290.702 27.582,285.249 24.844,276.865 21.154 C 267.389 16.983,253.640 12.548,242.666 10.122 C 237.854 9.059,227.830 7.305,224.644 6.970 C 224.137 6.916,222.326 6.721,220.620 6.536 C 213.515 5.766,211.886 5.686,202.096 5.632 C 196.840 5.603,191.672 5.604,190.612 5.634 M247.171 59.388 C 247.238 59.757,247.344 60.259,248.192 64.208 C 248.808 67.072,249.604 70.830,249.899 72.255 C 250.042 72.946,250.257 73.965,250.377 74.518 C 250.497 75.071,250.713 76.090,250.858 76.781 C 251.173 78.285,251.503 79.826,251.973 81.978 C 252.164 82.854,252.504 84.438,252.728 85.499 C 252.951 86.559,253.291 88.143,253.482 89.019 C 253.673 89.895,253.870 90.838,253.921 91.115 C 253.971 91.391,254.202 92.485,254.434 93.546 C 255.074 96.472,255.856 100.132,257.085 105.951 C 257.231 106.643,257.538 108.076,257.769 109.137 C 258.498 112.493,259.675 117.988,261.038 124.392 C 261.225 125.268,261.444 126.287,261.526 126.655 C 261.607 127.024,261.835 128.080,262.032 129.003 C 262.228 129.925,262.493 131.132,262.621 131.685 C 262.748 132.238,263.005 133.445,263.191 134.367 C 263.377 135.289,263.686 136.760,263.878 137.636 C 264.069 138.512,264.291 139.606,264.371 140.067 C 264.451 140.528,264.560 141.018,264.614 141.157 C 264.667 141.295,264.930 142.464,265.198 143.755 C 266.498 150.019,267.855 156.403,268.226 158.005 C 268.398 158.743,268.778 160.516,269.071 161.945 C 269.365 163.374,269.714 164.945,269.849 165.436 C 270.128 166.458,270.351 165.931,267.812 170.243 C 267.052 171.534,265.836 173.602,265.110 174.838 L 263.789 177.087 261.442 179.037 C 260.151 180.110,257.586 182.226,255.742 183.739 C 253.898 185.252,251.635 187.115,250.712 187.879 C 248.679 189.565,248.738 189.562,247.134 188.055 C 244.470 185.553,241.273 182.735,239.732 181.531 C 238.856 180.847,237.582 179.837,236.901 179.288 C 231.528 174.959,219.663 167.120,202.515 156.570 C 200.901 155.578,198.925 154.344,198.124 153.829 C 196.355 152.691,196.630 152.687,194.850 153.873 C 194.041 154.412,192.435 155.442,191.282 156.162 C 188.477 157.913,182.740 162.000,180.212 164.049 C 179.524 164.606,177.800 165.997,176.380 167.139 C 174.961 168.281,173.377 169.601,172.860 170.072 C 172.343 170.544,170.675 172.018,169.153 173.348 C 167.632 174.677,162.437 179.709,157.609 184.530 C 152.781 189.350,148.741 193.294,148.632 193.294 C 147.722 193.294,147.157 192.063,146.424 188.481 C 146.032 186.564,145.486 183.940,145.209 182.649 C 144.932 181.358,144.511 179.359,144.273 178.206 C 144.035 177.054,143.759 175.771,143.661 175.356 C 143.503 174.692,142.990 172.284,142.072 167.896 C 141.407 164.719,140.958 162.700,140.891 162.593 C 140.717 162.311,141.377 161.624,147.497 155.715 C 151.063 152.272,156.470 147.001,159.513 144.002 C 167.315 136.313,186.669 117.398,193.043 111.233 C 195.993 108.379,200.482 104.002,203.018 101.506 C 208.732 95.881,214.872 89.869,218.944 85.911 C 220.650 84.253,225.893 79.122,230.595 74.509 C 246.516 58.889,246.999 58.448,247.171 59.388 M52.095 109.425 C 56.378 113.295,57.180 114.009,58.927 115.512 C 59.941 116.384,62.123 118.305,63.776 119.781 C 65.428 121.257,67.385 122.979,68.124 123.607 C 68.863 124.235,70.830 125.975,72.496 127.472 C 74.161 128.970,76.316 130.883,77.284 131.725 C 78.252 132.567,79.919 134.034,80.989 134.985 C 82.058 135.936,84.510 138.101,86.437 139.796 C 88.365 141.491,90.847 143.691,91.953 144.684 C 93.060 145.678,95.370 147.724,97.087 149.231 C 104.682 155.893,108.499 159.265,110.059 160.690 C 110.981 161.531,112.306 162.705,113.005 163.298 C 113.703 163.891,115.966 165.884,118.035 167.728 C 120.103 169.573,122.582 171.760,123.543 172.590 C 124.504 173.420,126.165 174.891,127.233 175.859 C 128.301 176.827,131.318 179.505,133.938 181.811 C 136.558 184.116,139.730 186.907,140.986 188.013 C 143.386 190.126,147.113 193.391,147.915 194.082 C 148.626 194.696,148.525 194.829,145.096 197.774 C 141.831 200.578,141.457 200.968,142.205 200.780 C 143.401 200.480,143.130 201.235,140.682 205.029 C 140.176 205.813,138.933 207.775,137.920 209.388 C 132.734 217.646,132.310 218.273,131.909 218.273 C 131.837 218.273,130.894 217.085,129.813 215.633 C 128.732 214.181,126.557 211.257,124.978 209.137 C 123.400 207.016,121.014 203.810,119.676 202.012 C 118.338 200.214,115.446 196.329,113.248 193.378 C 111.051 190.427,107.850 186.128,106.135 183.824 C 104.421 181.520,101.547 177.661,99.749 175.248 C 95.077 168.980,90.325 162.592,87.230 158.424 C 85.758 156.442,82.671 152.293,80.369 149.204 C 78.068 146.115,75.376 142.494,74.388 141.157 C 70.511 135.911,68.303 132.936,66.750 130.866 C 65.859 129.677,64.907 128.395,64.634 128.016 C 64.361 127.636,62.172 124.686,59.768 121.459 C 57.365 118.231,54.701 114.648,53.849 113.495 C 52.996 112.343,51.735 110.661,51.045 109.758 C 49.068 107.171,49.462 107.046,52.095 109.425 M124.389 122.255 C 124.395 122.473,124.186 122.392,123.955 122.087 C 123.833 121.926,123.732 121.681,123.731 121.542 C 123.729 121.288,124.381 121.994,124.389 122.255 M333.447 132.943 C 333.621 133.036,334.383 134.036,335.141 135.165 C 336.436 137.093,337.618 138.841,341.743 144.929 C 342.680 146.312,344.870 149.556,346.609 152.137 C 348.348 154.719,350.246 157.491,350.828 158.297 C 351.840 159.698,352.094 160.268,351.709 160.268 C 351.611 160.268,348.840 157.609,345.550 154.359 C 335.327 144.260,330.048 139.074,329.003 138.104 L 327.997 137.171 325.901 137.062 C 320.762 136.795,318.602 136.596,318.220 136.352 C 317.635 135.980,318.011 135.687,319.240 135.556 C 319.815 135.494,320.775 135.337,321.375 135.206 C 321.974 135.075,323.143 134.845,323.973 134.696 C 324.803 134.546,325.897 134.326,326.404 134.207 C 326.911 134.089,328.080 133.855,329.003 133.688 C 329.925 133.522,331.207 133.252,331.852 133.089 C 332.498 132.926,333.050 132.789,333.079 132.784 C 333.108 132.779,333.274 132.850,333.447 132.943 M70.630 137.565 C 71.990 139.323,75.653 144.234,77.874 147.276 C 81.230 151.872,87.951 160.939,96.142 171.920 C 98.549 175.147,101.835 179.556,103.445 181.717 C 105.054 183.879,108.181 188.077,110.394 191.048 C 112.607 194.018,116.681 199.486,119.447 203.199 C 122.213 206.912,126.001 211.993,127.865 214.489 C 131.723 219.654,131.588 219.298,130.405 221.228 C 129.322 222.994,129.214 222.995,128.036 221.249 C 127.523 220.488,126.657 219.225,126.112 218.441 C 124.814 216.575,122.635 213.431,119.836 209.388 C 118.591 207.590,116.417 204.459,115.005 202.431 C 113.592 200.402,112.021 198.139,111.513 197.402 C 110.346 195.709,103.417 185.697,102.405 184.241 C 101.723 183.261,96.261 175.383,86.248 160.939 C 84.299 158.127,81.511 154.128,80.052 152.054 C 75.830 146.048,73.314 142.417,71.806 140.157 C 71.035 139.001,70.346 137.980,70.276 137.888 C 69.874 137.362,69.573 136.873,69.573 136.747 C 69.573 136.432,70.024 136.781,70.630 137.565 M316.959 137.203 C 318.050 137.334,320.226 137.566,321.794 137.718 C 325.372 138.066,325.398 138.072,325.398 138.468 C 325.398 138.645,324.620 139.718,323.670 140.853 C 322.719 141.988,320.591 144.577,318.940 146.605 C 317.289 148.634,314.765 151.727,313.330 153.479 C 311.895 155.231,310.535 156.900,310.306 157.188 C 310.078 157.476,306.534 161.806,302.431 166.810 C 294.919 175.971,291.923 179.633,289.539 182.565 C 286.843 185.881,269.137 207.519,268.071 208.801 C 267.458 209.539,265.607 211.802,263.957 213.831 C 262.308 215.859,260.460 218.122,259.849 218.860 C 259.239 219.598,258.038 221.050,257.180 222.087 C 255.649 223.940,255.109 224.321,254.926 223.680 C 254.880 223.518,254.567 222.330,254.229 221.039 C 253.892 219.749,253.517 218.353,253.397 217.938 C 252.974 216.481,250.250 206.583,249.959 205.448 C 249.888 205.172,249.656 204.342,249.444 203.604 C 249.231 202.867,249.053 201.961,249.047 201.593 L 249.036 200.922 250.084 200.872 C 250.660 200.845,251.132 200.778,251.132 200.725 C 251.132 200.568,249.274 198.808,248.426 198.162 C 245.564 195.980,243.708 193.965,244.561 193.965 C 244.717 193.965,245.970 192.945,254.484 185.896 C 256.755 184.016,257.980 183.010,260.273 181.140 C 260.951 180.587,262.056 179.681,262.729 179.128 C 265.937 176.489,273.481 170.312,274.602 169.406 C 275.293 168.847,276.994 167.449,278.382 166.299 C 279.769 165.149,282.326 163.039,284.064 161.609 C 285.802 160.180,288.326 158.102,289.672 156.990 C 291.019 155.879,293.446 153.879,295.067 152.547 C 296.687 151.216,299.435 148.956,301.173 147.527 C 302.911 146.098,305.471 143.984,306.861 142.829 C 308.251 141.675,309.916 140.303,310.562 139.780 C 311.207 139.258,312.249 138.411,312.878 137.898 C 314.175 136.840,314.071 136.858,316.959 137.203 M332.088 142.370 C 342.070 152.216,345.992 156.067,347.083 157.093 C 349.335 159.212,348.645 159.379,345.810 157.401 C 344.152 156.245,329.770 146.811,325.650 144.177 C 324.543 143.470,323.614 142.769,323.585 142.618 C 323.504 142.197,327.035 137.972,327.468 137.972 C 327.557 137.972,329.636 139.951,332.088 142.370 M323.934 144.097 C 324.806 144.689,324.839 144.609,322.079 148.485 C 319.299 152.390,315.219 158.151,313.439 160.687 C 312.792 161.609,311.986 162.741,311.648 163.202 C 311.310 163.663,308.897 167.058,306.286 170.746 C 300.048 179.557,300.213 179.325,295.949 185.331 C 293.920 188.189,291.140 192.112,289.772 194.049 C 288.403 195.985,286.480 198.701,285.497 200.084 C 280.919 206.528,279.008 209.221,276.754 212.406 C 273.457 217.064,268.025 224.731,266.065 227.493 C 263.872 230.583,264.348 230.290,261.335 230.404 C 250.864 230.802,251.433 230.955,253.982 228.416 C 255.557 226.846,255.658 226.705,255.658 226.063 C 255.658 225.436,255.836 225.162,257.846 222.707 C 259.050 221.237,260.954 218.906,262.079 217.528 C 264.086 215.070,264.664 214.364,267.257 211.208 C 270.444 207.329,290.699 182.573,291.450 181.640 C 291.911 181.066,293.571 179.030,295.138 177.114 C 296.706 175.198,298.894 172.521,300.000 171.165 C 301.106 169.809,305.708 164.191,310.226 158.681 C 314.744 153.171,319.346 147.540,320.452 146.167 C 322.683 143.397,322.801 143.327,323.934 144.097 M199.381 156.454 C 200.883 157.768,203.461 160.013,205.109 161.442 C 206.757 162.871,209.129 164.940,210.381 166.039 C 211.633 167.138,213.412 168.696,214.334 169.501 C 217.244 172.041,227.308 180.847,229.841 183.068 C 232.342 185.262,243.622 195.115,246.414 197.545 C 248.661 199.500,248.621 199.458,248.503 199.766 C 248.394 200.051,165.281 199.988,150.463 199.691 C 144.073 199.564,144.143 199.586,145.813 198.213 C 147.364 196.938,151.325 193.525,152.892 192.112 C 154.632 190.544,164.459 181.920,167.497 179.295 C 167.924 178.927,170.639 176.549,173.533 174.011 C 179.931 168.397,188.548 160.874,191.618 158.221 C 192.863 157.145,194.409 155.773,195.054 155.173 C 196.550 153.781,196.208 153.680,199.381 156.454 M205.448 159.287 C 206.463 159.946,208.726 161.369,210.478 162.450 C 225.802 171.910,236.885 179.832,244.747 186.947 C 247.867 189.770,248.063 190.040,247.402 190.597 C 243.264 194.082,243.479 194.000,242.027 192.666 C 241.023 191.743,233.562 185.200,230.510 182.565 C 229.709 181.873,227.590 180.023,225.801 178.452 C 224.012 176.881,221.303 174.509,219.782 173.181 C 218.261 171.852,216.450 170.261,215.759 169.645 C 213.627 167.744,206.367 161.426,204.836 160.139 C 202.056 157.801,202.407 157.314,205.448 159.287 M189.602 158.767 C 189.501 158.956,188.202 160.144,186.716 161.407 C 185.230 162.671,181.564 165.855,178.570 168.483 C 175.576 171.111,172.815 173.525,172.435 173.847 C 170.639 175.371,160.854 183.983,158.105 186.459 C 155.222 189.056,153.730 190.193,153.730 189.793 C 153.730 188.988,165.298 177.785,173.764 170.391 C 177.084 167.491,185.182 161.165,188.265 159.062 C 189.324 158.340,189.898 158.213,189.602 158.767 M197.988 200.848 C 207.808 200.937,222.997 201.059,231.742 201.119 C 245.917 201.217,247.674 201.258,247.939 201.495 C 248.124 201.660,248.601 203.116,249.209 205.365 C 249.744 207.347,250.276 209.308,250.390 209.723 C 250.504 210.138,250.876 211.534,251.217 212.825 C 251.558 214.116,251.929 215.511,252.042 215.926 C 252.156 216.341,252.645 218.152,253.130 219.950 C 253.614 221.748,254.152 223.709,254.325 224.308 C 254.988 226.610,255.931 225.297,247.104 234.367 C 244.099 237.456,239.833 241.867,237.626 244.168 C 235.419 246.470,230.893 251.147,227.568 254.562 C 224.244 257.977,218.510 263.901,214.827 267.726 C 211.144 271.552,204.728 278.190,200.570 282.479 C 190.782 292.574,187.585 295.881,182.489 301.181 C 178.275 305.564,170.646 313.435,164.292 319.954 C 162.402 321.894,159.197 325.213,157.172 327.331 C 148.934 335.943,141.242 343.755,141.000 343.755 C 140.642 343.755,140.397 341.723,139.728 333.203 C 139.599 331.548,139.452 330.001,139.402 329.766 C 139.352 329.530,139.237 328.357,139.147 327.158 C 138.836 323.022,137.712 310.245,137.392 307.209 C 137.257 305.918,137.028 303.391,136.884 301.593 C 136.740 299.795,136.515 297.230,136.384 295.893 C 136.253 294.556,136.026 291.915,135.879 290.025 C 135.732 288.135,135.501 285.608,135.364 284.409 C 135.228 283.210,135.045 281.324,134.959 280.218 C 134.596 275.582,134.438 273.710,134.198 271.249 C 133.758 266.728,133.622 265.173,133.521 263.537 C 133.467 262.661,133.351 261.379,133.264 260.687 C 133.177 259.996,133.037 258.562,132.954 257.502 C 132.765 255.104,132.503 252.139,132.191 248.868 C 132.060 247.485,131.834 244.958,131.690 243.252 C 131.545 241.547,131.316 238.944,131.181 237.469 C 131.045 235.993,130.819 233.466,130.680 231.852 C 130.540 230.239,130.305 227.694,130.156 226.198 L 129.886 223.478 130.773 222.091 C 131.261 221.328,132.183 219.874,132.823 218.860 C 133.463 217.846,134.347 216.450,134.788 215.759 C 135.228 215.067,137.380 211.672,139.570 208.215 C 141.760 204.757,143.772 201.607,144.040 201.215 L 144.527 200.501 162.330 200.594 C 172.122 200.645,188.168 200.759,197.988 200.848 " stroke="none" fill="#040404" fill-rule="evenodd"></path><path id="path2" d="M242.833 62.574 C 240.805 64.525,235.298 69.895,230.595 74.509 C 225.893 79.122,220.650 84.253,218.944 85.911 C 214.872 89.869,208.732 95.881,203.018 101.506 C 200.482 104.002,195.993 108.379,193.043 111.233 C 186.669 117.398,167.315 136.313,159.513 144.002 C 156.470 147.001,151.063 152.272,147.497 155.715 C 140.586 162.388,140.758 162.198,140.985 162.904 C 141.067 163.160,141.264 163.993,141.422 164.756 C 141.580 165.518,141.741 166.110,141.780 166.072 C 141.818 166.033,141.688 165.245,141.490 164.321 C 141.292 163.396,141.155 162.491,141.185 162.308 C 141.216 162.126,144.194 159.121,147.804 155.632 C 151.414 152.142,158.015 145.706,162.473 141.328 C 180.045 124.072,187.389 116.885,192.372 112.067 C 195.231 109.303,201.303 103.384,205.868 98.914 C 210.432 94.443,215.373 89.611,216.848 88.175 C 218.324 86.738,223.453 81.717,228.248 77.016 C 241.771 63.757,246.454 59.262,246.749 59.262 C 246.942 59.262,247.053 59.481,247.135 60.017 C 247.304 61.125,247.748 62.837,247.766 62.448 C 247.775 62.263,247.668 61.622,247.530 61.023 C 247.391 60.423,247.239 59.725,247.190 59.472 C 247.032 58.646,246.591 58.960,242.833 62.574 M247.779 62.969 C 247.779 63.116,248.736 67.662,249.390 70.621 C 249.549 71.336,249.712 71.886,249.754 71.844 C 249.796 71.802,249.711 71.255,249.564 70.628 C 249.418 70.001,248.986 68.018,248.606 66.220 C 247.985 63.290,247.779 62.478,247.779 62.969 M249.817 72.422 C 249.810 72.653,249.944 73.407,250.115 74.099 C 250.629 76.178,250.521 75.128,249.959 72.590 C 249.859 72.137,249.826 72.099,249.817 72.422 M250.461 75.550 C 250.461 75.641,250.615 76.427,250.804 77.296 C 250.992 78.165,251.215 79.216,251.300 79.631 C 251.384 80.046,251.645 81.272,251.879 82.355 C 252.113 83.439,252.496 85.212,252.729 86.295 C 253.524 89.996,253.695 90.780,253.833 91.366 L 253.970 91.953 253.904 91.282 C 253.868 90.914,253.680 89.895,253.486 89.019 C 253.293 88.143,252.951 86.559,252.726 85.499 C 252.295 83.464,252.031 82.232,251.465 79.631 C 251.274 78.755,251.010 77.481,250.877 76.799 C 250.662 75.694,250.461 75.091,250.461 75.550 M253.982 92.143 C 253.982 92.337,254.634 95.269,254.835 95.977 L 254.978 96.479 254.922 95.977 C 254.795 94.855,253.982 91.536,253.982 92.143 M254.999 96.913 C 255.006 97.135,255.079 97.469,255.163 97.653 C 255.269 97.887,255.284 97.785,255.213 97.318 C 255.094 96.539,254.982 96.327,254.999 96.913 M255.354 98.324 C 255.349 98.731,255.950 101.110,255.967 100.754 C 255.974 100.616,255.840 99.937,255.669 99.246 C 255.498 98.554,255.356 98.139,255.354 98.324 M256.013 101.425 C 256.007 101.879,256.623 104.522,256.638 104.107 C 256.643 103.969,256.506 103.215,256.333 102.431 C 256.160 101.647,256.016 101.194,256.013 101.425 M256.664 104.534 C 256.664 104.864,257.723 109.749,257.862 110.059 C 258.038 110.451,258.058 110.560,257.315 106.999 C 256.857 104.802,256.664 104.070,256.664 104.534 M49.790 107.956 C 49.790 108.044,50.355 108.855,51.045 109.758 C 51.735 110.661,52.996 112.343,53.849 113.495 C 54.701 114.648,57.365 118.231,59.768 121.459 C 62.172 124.686,64.361 127.636,64.634 128.016 C 64.907 128.395,65.859 129.677,66.750 130.866 C 68.303 132.936,70.511 135.911,74.388 141.157 C 75.376 142.494,78.068 146.115,80.369 149.204 C 82.671 152.293,85.758 156.442,87.230 158.424 C 90.325 162.592,95.077 168.980,99.749 175.248 C 101.547 177.661,104.421 181.520,106.135 183.824 C 107.850 186.128,111.051 190.427,113.248 193.378 C 115.446 196.329,118.338 200.214,119.676 202.012 C 121.014 203.810,123.400 207.016,124.978 209.137 C 126.557 211.257,128.732 214.181,129.813 215.633 C 130.894 217.085,131.837 218.273,131.909 218.273 C 132.310 218.273,132.734 217.646,137.920 209.388 C 138.933 207.775,140.176 205.813,140.682 205.029 C 143.130 201.235,143.401 200.480,142.205 200.780 C 141.457 200.968,141.831 200.578,145.096 197.774 C 148.525 194.829,148.626 194.696,147.915 194.082 C 147.113 193.391,143.386 190.126,140.986 188.013 C 139.730 186.907,136.558 184.116,133.938 181.811 C 131.318 179.505,128.301 176.827,127.233 175.859 C 126.165 174.891,124.504 173.420,123.543 172.590 C 122.582 171.760,120.103 169.573,118.035 167.728 C 115.966 165.884,113.703 163.891,113.005 163.298 C 112.306 162.705,110.981 161.531,110.059 160.690 C 108.499 159.265,104.682 155.893,97.087 149.231 C 95.370 147.724,93.060 145.678,91.953 144.684 C 90.847 143.691,88.365 141.491,86.437 139.796 C 84.510 138.101,82.058 135.936,80.989 134.985 C 79.919 134.034,78.252 132.567,77.284 131.725 C 76.316 130.883,74.161 128.970,72.496 127.472 C 70.830 125.975,68.863 124.235,68.124 123.607 C 67.385 122.979,65.428 121.257,63.776 119.781 C 62.123 118.305,59.941 116.384,58.927 115.512 C 57.180 114.009,56.378 113.295,52.095 109.425 C 50.453 107.941,49.790 107.519,49.790 107.956 M51.691 109.269 C 52.820 110.329,56.516 113.620,58.508 115.339 C 60.216 116.813,63.374 119.597,65.640 121.626 C 66.670 122.548,68.295 123.982,69.251 124.811 C 70.207 125.641,72.085 127.303,73.424 128.505 C 74.764 129.706,76.430 131.177,77.128 131.774 C 77.827 132.370,79.746 134.065,81.394 135.541 C 83.041 137.016,85.299 139.011,86.411 139.975 C 87.523 140.938,89.489 142.680,90.780 143.845 C 92.070 145.009,94.077 146.786,95.238 147.793 C 97.378 149.648,102.435 154.113,107.448 158.573 C 108.962 159.920,110.924 161.656,111.807 162.430 C 112.689 163.203,114.992 165.240,116.923 166.956 C 118.854 168.672,121.683 171.162,123.209 172.489 C 124.736 173.817,126.819 175.665,127.838 176.597 C 128.857 177.528,130.435 178.931,131.345 179.715 C 132.255 180.499,134.099 182.121,135.444 183.321 C 137.743 185.372,142.321 189.401,146.102 192.702 C 148.023 194.378,148.232 194.610,148.067 194.881 C 147.885 195.177,142.965 199.491,142.037 200.168 C 141.316 200.695,141.331 201.006,142.079 201.006 C 143.067 201.006,143.127 200.875,139.647 206.370 C 134.148 215.054,132.405 217.758,132.191 217.935 C 131.880 218.193,131.927 218.247,128.959 214.245 C 122.213 205.150,120.098 202.303,116.388 197.324 C 103.466 179.985,99.441 174.580,89.795 161.609 C 86.368 157.001,83.358 152.956,78.440 146.354 C 76.277 143.449,73.645 139.904,72.591 138.474 C 71.536 137.045,68.931 133.537,66.802 130.679 C 64.672 127.821,62.035 124.275,60.943 122.800 C 58.058 118.905,55.552 115.535,52.756 111.790 C 51.401 109.977,50.293 108.449,50.293 108.396 C 50.293 108.106,50.770 108.404,51.691 109.269 M258.036 110.813 C 258.028 111.044,258.276 112.326,258.586 113.663 C 258.897 115.000,259.157 115.970,259.165 115.818 C 259.172 115.667,258.959 114.573,258.691 113.388 C 258.423 112.202,258.169 111.044,258.127 110.813 L 258.051 110.394 258.036 110.813 M259.189 116.345 C 259.168 116.696,260.057 120.552,260.141 120.468 C 260.201 120.408,259.429 116.688,259.268 116.262 C 259.233 116.169,259.198 116.207,259.189 116.345 M260.206 121.039 C 260.201 121.270,260.342 122.024,260.517 122.716 C 260.741 123.598,260.810 123.748,260.748 123.219 C 260.627 122.180,260.215 120.525,260.206 121.039 M123.731 121.542 C 123.732 121.812,124.108 122.381,124.285 122.381 C 124.475 122.381,124.393 122.139,124.057 121.710 C 123.841 121.434,123.730 121.377,123.731 121.542 M260.855 124.071 C 260.855 124.154,261.298 126.380,261.619 127.913 C 261.745 128.512,261.926 129.229,262.021 129.505 L 262.195 130.008 262.111 129.505 C 262.065 129.229,261.922 128.512,261.793 127.913 C 261.664 127.313,261.439 126.227,261.294 125.499 C 261.080 124.430,260.855 123.697,260.855 124.071 M262.216 130.427 C 262.206 130.658,262.271 131.111,262.360 131.433 C 262.449 131.756,262.752 133.114,263.033 134.451 C 263.639 137.332,264.037 139.177,264.227 139.983 L 264.364 140.570 264.297 139.899 C 264.260 139.531,264.105 138.663,263.954 137.972 C 263.802 137.280,263.412 135.469,263.086 133.948 C 262.188 129.749,262.237 129.949,262.216 130.427 M331.852 133.110 C 331.207 133.284,330.453 133.440,330.176 133.458 C 329.770 133.484,329.746 133.505,330.051 133.564 C 330.259 133.604,331.041 133.481,331.790 133.292 C 332.538 133.103,333.250 133.004,333.373 133.073 C 333.662 133.235,335.814 136.373,344.089 148.701 C 346.286 151.974,348.835 155.731,349.753 157.049 C 350.671 158.368,351.379 159.490,351.326 159.543 C 351.228 159.641,348.088 156.602,335.338 144.068 L 328.153 137.004 325.979 136.896 C 322.182 136.707,319.135 136.442,318.820 136.274 C 318.364 136.030,318.606 135.825,319.493 135.702 C 320.255 135.596,326.370 134.386,327.578 134.102 L 328.164 133.963 327.578 134.014 C 327.026 134.062,323.809 134.681,321.375 135.208 C 320.775 135.338,319.815 135.494,319.240 135.556 C 318.011 135.687,317.635 135.980,318.220 136.352 C 318.602 136.596,320.762 136.795,325.901 137.062 L 327.997 137.171 329.003 138.104 C 330.048 139.074,335.327 144.260,345.550 154.359 C 348.840 157.609,351.611 160.268,351.709 160.268 C 352.094 160.268,351.840 159.698,350.828 158.297 C 350.246 157.491,348.348 154.719,346.609 152.137 C 344.870 149.556,342.680 146.312,341.743 144.929 C 337.618 138.841,336.436 137.093,335.141 135.165 C 333.982 133.438,333.369 132.731,333.079 132.784 C 333.050 132.789,332.498 132.936,331.852 133.110 M328.583 133.780 C 328.252 133.887,328.234 133.915,328.500 133.915 C 328.684 133.915,329.023 133.854,329.254 133.780 C 329.586 133.674,329.603 133.646,329.338 133.646 C 329.153 133.646,328.814 133.707,328.583 133.780 M69.573 136.747 C 69.573 136.873,69.874 137.362,70.276 137.888 C 70.346 137.980,71.035 139.001,71.806 140.157 C 73.314 142.417,75.830 146.048,80.052 152.054 C 81.511 154.128,84.299 158.127,86.248 160.939 C 96.261 175.383,101.723 183.261,102.405 184.241 C 103.417 185.697,110.346 195.709,111.513 197.402 C 112.021 198.139,113.592 200.402,115.005 202.431 C 116.417 204.459,118.591 207.590,119.836 209.388 C 122.635 213.431,124.814 216.575,126.112 218.441 C 126.657 219.225,127.523 220.488,128.036 221.249 C 129.214 222.995,129.322 222.994,130.405 221.228 C 131.588 219.298,131.723 219.654,127.865 214.489 C 126.001 211.993,122.213 206.912,119.447 203.199 C 116.681 199.486,112.607 194.018,110.394 191.048 C 108.181 188.077,105.054 183.879,103.445 181.717 C 101.835 179.556,98.549 175.147,96.142 171.920 C 87.951 160.939,81.230 151.872,77.874 147.276 C 75.653 144.234,71.990 139.323,70.630 137.565 C 70.024 136.781,69.573 136.432,69.573 136.747 M312.878 137.898 C 312.249 138.411,311.207 139.258,310.562 139.780 C 309.916 140.303,308.251 141.675,306.861 142.829 C 305.471 143.984,302.911 146.098,301.173 147.527 C 299.435 148.956,296.687 151.216,295.067 152.547 C 293.446 153.879,291.019 155.879,289.672 156.990 C 288.326 158.102,285.802 160.180,284.064 161.609 C 282.326 163.039,279.769 165.149,278.382 166.299 C 276.994 167.449,275.293 168.847,274.602 169.406 C 273.481 170.312,265.937 176.489,262.729 179.128 C 262.056 179.681,260.951 180.587,260.273 181.140 C 257.980 183.010,256.755 184.016,254.484 185.896 C 245.970 192.945,244.717 193.965,244.561 193.965 C 243.708 193.965,245.564 195.980,248.426 198.162 C 249.274 198.808,251.132 200.568,251.132 200.725 C 251.132 200.778,250.660 200.845,250.084 200.872 L 249.036 200.922 249.047 201.593 C 249.053 201.961,249.231 202.867,249.444 203.604 C 249.656 204.342,249.888 205.172,249.959 205.448 C 250.128 206.110,251.807 212.237,252.577 215.004 C 252.910 216.203,253.262 217.467,253.358 217.813 C 253.454 218.160,253.560 218.416,253.593 218.382 C 253.667 218.309,253.681 218.362,251.205 209.388 C 250.124 205.469,249.205 201.980,249.162 201.635 L 249.085 201.006 250.276 201.006 C 250.984 201.006,251.467 200.936,251.467 200.832 C 251.467 200.645,249.486 198.735,248.862 198.322 C 247.900 197.685,244.600 194.691,244.597 194.453 C 244.595 194.306,245.027 193.845,245.557 193.429 C 246.618 192.595,248.862 190.766,250.802 189.152 C 252.547 187.702,257.133 183.918,259.091 182.313 C 259.991 181.576,261.274 180.520,261.943 179.966 C 262.611 179.413,264.502 177.867,266.144 176.530 C 267.786 175.193,270.304 173.131,271.740 171.949 C 282.076 163.435,286.666 159.656,290.037 156.885 C 291.460 155.716,294.057 153.580,295.809 152.138 C 297.561 150.696,300.157 148.560,301.578 147.390 C 304.914 144.645,309.902 140.534,312.206 138.630 C 314.247 136.943,313.970 137.017,316.932 137.377 C 320.343 137.792,323.775 138.141,324.439 138.140 C 325.463 138.139,325.384 138.477,323.947 140.246 C 323.224 141.135,322.101 142.515,321.453 143.312 C 319.963 145.142,311.348 155.667,309.151 158.340 C 307.619 160.204,298.264 171.635,292.563 178.609 C 291.213 180.260,289.581 182.263,288.935 183.062 C 288.290 183.860,280.972 192.804,272.674 202.937 C 264.376 213.070,257.221 221.816,256.775 222.373 C 255.475 223.997,255.102 224.121,254.904 222.996 C 254.762 222.186,253.672 218.463,253.658 218.737 C 253.651 218.854,253.868 219.759,254.139 220.749 C 254.409 221.738,254.714 222.869,254.816 223.261 C 255.104 224.372,255.422 224.214,257.180 222.087 C 258.038 221.050,259.239 219.598,259.849 218.860 C 260.460 218.122,262.308 215.859,263.957 213.831 C 265.607 211.802,267.458 209.539,268.071 208.801 C 269.137 207.519,286.843 185.881,289.539 182.565 C 291.923 179.633,294.919 175.971,302.431 166.810 C 306.534 161.806,310.078 157.476,310.306 157.188 C 310.535 156.900,311.895 155.231,313.330 153.479 C 314.765 151.727,317.289 148.634,318.940 146.605 C 320.591 144.577,322.719 141.988,323.670 140.853 C 324.620 139.718,325.398 138.645,325.398 138.468 C 325.398 138.072,325.372 138.066,321.794 137.718 C 320.226 137.566,318.050 137.334,316.959 137.203 C 314.071 136.858,314.175 136.840,312.878 137.898 M327.049 138.181 C 326.399 138.709,323.538 142.375,323.585 142.618 C 323.614 142.769,324.543 143.470,325.650 144.177 C 329.770 146.811,344.152 156.245,345.810 157.401 C 348.645 159.379,349.335 159.212,347.083 157.093 C 345.992 156.067,342.070 152.216,332.088 142.370 C 327.499 137.843,327.482 137.828,327.049 138.181 M334.183 144.642 C 337.696 148.126,342.079 152.438,343.923 154.224 C 349.363 159.492,349.352 159.535,343.555 155.712 C 341.694 154.483,338.317 152.272,336.053 150.796 C 327.056 144.936,323.866 142.801,323.784 142.585 C 323.654 142.247,327.035 138.307,327.455 138.307 C 327.678 138.307,329.995 140.488,334.183 144.642 M264.439 140.989 C 264.734 142.731,266.349 149.872,266.371 149.530 C 266.380 149.388,266.236 148.595,266.050 147.770 C 265.865 146.945,265.482 145.148,265.199 143.776 C 264.753 141.615,264.205 139.603,264.439 140.989 M77.009 146.402 C 78.774 148.779,80.821 151.547,81.559 152.552 C 84.443 156.482,89.164 162.847,94.305 169.740 C 97.262 173.705,100.777 178.420,102.117 180.218 C 103.456 182.016,106.464 186.052,108.802 189.187 C 111.139 192.322,114.033 196.207,115.233 197.821 C 116.432 199.434,119.159 203.093,121.293 205.951 C 132.585 221.077,131.502 219.233,130.243 221.175 C 129.340 222.569,129.193 222.633,128.667 221.865 C 128.203 221.186,124.904 216.429,123.212 213.998 C 121.799 211.968,119.041 207.989,115.952 203.521 C 115.027 202.184,112.387 198.374,110.084 195.054 C 107.781 191.735,101.168 182.192,95.389 173.847 C 84.370 157.937,83.228 156.293,79.744 151.339 C 77.099 147.578,73.962 142.979,73.428 142.079 L 73.031 141.408 73.416 141.744 C 73.628 141.928,75.245 144.024,77.009 146.402 M320.452 146.167 C 319.346 147.540,314.744 153.171,310.226 158.681 C 305.708 164.191,301.106 169.809,300.000 171.165 C 298.894 172.521,296.706 175.198,295.138 177.114 C 293.571 179.030,291.911 181.066,291.450 181.640 C 290.699 182.573,270.444 207.329,267.257 211.208 C 264.664 214.364,264.086 215.070,262.079 217.528 C 260.954 218.906,259.050 221.237,257.846 222.707 C 255.836 225.162,255.658 225.436,255.658 226.063 C 255.658 226.705,255.557 226.846,253.982 228.416 C 251.433 230.955,250.864 230.802,261.335 230.404 C 264.348 230.290,263.872 230.583,266.065 227.493 C 268.025 224.731,273.457 217.064,276.754 212.406 C 279.008 209.221,280.919 206.528,285.497 200.084 C 286.480 198.701,288.403 195.985,289.772 194.049 C 291.140 192.112,293.920 188.189,295.949 185.331 C 300.213 179.325,300.048 179.557,306.286 170.746 C 308.897 167.058,311.310 163.663,311.648 163.202 C 311.986 162.741,312.792 161.609,313.439 160.687 C 315.219 158.151,319.299 152.390,322.079 148.485 C 324.839 144.609,324.806 144.689,323.934 144.097 C 322.801 143.327,322.683 143.397,320.452 146.167 M323.896 144.325 L 324.476 144.812 323.960 145.541 C 323.676 145.942,322.351 147.816,321.015 149.707 C 319.679 151.597,316.713 155.784,314.423 159.011 C 312.132 162.238,309.994 165.256,309.671 165.717 C 309.347 166.178,307.449 168.856,305.452 171.668 C 303.455 174.480,301.266 177.573,300.587 178.541 C 299.909 179.510,298.626 181.320,297.737 182.565 C 296.847 183.810,294.622 186.940,292.792 189.522 C 290.962 192.104,288.181 196.027,286.612 198.240 C 285.044 200.453,282.770 203.659,281.559 205.365 C 280.349 207.070,278.237 210.050,276.866 211.987 C 267.811 224.782,264.245 229.769,264.018 229.958 C 263.871 230.080,262.489 230.184,260.184 230.248 C 258.202 230.303,255.694 230.389,254.610 230.440 C 252.145 230.555,252.145 230.555,254.233 228.394 C 255.650 226.927,255.826 226.679,255.826 226.137 C 255.826 225.427,255.570 225.782,259.844 220.555 C 261.645 218.353,263.305 216.316,263.532 216.029 C 263.980 215.464,270.190 207.868,271.771 205.951 C 272.886 204.600,276.238 200.499,278.623 197.569 C 279.523 196.463,281.744 193.747,283.557 191.534 C 286.846 187.520,289.928 183.757,293.304 179.631 C 294.285 178.433,296.193 176.102,297.544 174.453 C 298.895 172.804,300.377 170.986,300.838 170.413 C 301.299 169.840,302.318 168.593,303.101 167.642 C 303.885 166.691,305.281 164.989,306.203 163.860 C 307.125 162.731,308.332 161.255,308.885 160.580 C 309.967 159.260,316.402 151.399,319.436 147.691 C 320.456 146.444,321.579 145.068,321.931 144.632 C 322.687 143.694,323.071 143.635,323.896 144.325 M266.402 150.040 C 266.380 150.406,267.280 154.490,267.341 154.304 C 267.370 154.218,267.174 153.167,266.906 151.969 C 266.637 150.771,266.411 149.903,266.402 150.040 M194.008 154.201 C 192.787 155.002,190.788 156.309,189.566 157.105 C 187.008 158.769,181.394 162.841,179.547 164.372 C 178.856 164.945,177.347 166.171,176.194 167.097 C 170.563 171.619,161.376 180.214,153.733 188.110 C 151.106 190.823,148.842 193.065,148.701 193.091 C 147.997 193.224,147.344 192.071,146.855 189.832 C 146.596 188.647,146.380 187.829,146.375 188.013 C 146.322 189.967,147.745 193.294,148.632 193.294 C 148.741 193.294,152.781 189.350,157.609 184.530 C 162.437 179.709,167.632 174.677,169.153 173.348 C 170.675 172.018,172.343 170.544,172.860 170.072 C 173.377 169.601,174.961 168.281,176.380 167.139 C 177.800 165.997,179.524 164.606,180.212 164.049 C 182.740 162.000,188.477 157.913,191.282 156.162 C 192.435 155.442,194.041 154.412,194.850 153.873 C 196.630 152.687,196.355 152.691,198.124 153.829 C 198.925 154.344,200.901 155.578,202.515 156.570 C 219.663 167.120,231.528 174.959,236.901 179.288 C 237.582 179.837,238.856 180.847,239.732 181.531 C 241.273 182.735,244.470 185.553,247.134 188.055 C 248.738 189.562,248.679 189.565,250.712 187.879 C 251.635 187.115,253.898 185.252,255.742 183.739 C 257.586 182.226,260.151 180.110,261.442 179.037 L 263.789 177.087 265.110 174.838 C 265.836 173.602,267.052 171.534,267.812 170.243 C 270.351 165.932,270.127 166.458,269.849 165.436 C 269.715 164.945,269.512 164.070,269.397 163.491 C 269.283 162.913,269.157 162.472,269.117 162.512 C 269.040 162.589,269.718 165.960,269.856 166.186 C 269.901 166.260,269.241 167.505,268.389 168.952 C 267.536 170.400,266.316 172.490,265.677 173.596 C 263.708 177.004,263.686 177.027,258.420 181.343 C 255.744 183.536,253.066 185.734,252.469 186.227 C 249.746 188.475,248.894 189.116,248.693 189.069 C 248.489 189.022,246.170 187.000,243.179 184.260 C 239.367 180.768,231.304 174.765,224.295 170.199 C 222.043 168.732,218.843 166.641,217.184 165.552 C 215.524 164.464,212.242 162.388,209.891 160.940 C 200.534 155.178,197.899 153.534,197.380 153.138 C 196.602 152.545,196.465 152.589,194.008 154.201 M195.054 155.173 C 194.409 155.773,192.863 157.145,191.618 158.221 C 188.548 160.874,179.931 168.397,173.533 174.011 C 170.639 176.549,167.924 178.927,167.497 179.295 C 164.459 181.920,154.632 190.544,152.892 192.112 C 151.325 193.525,147.364 196.938,145.813 198.213 C 144.143 199.586,144.073 199.564,150.463 199.691 C 165.281 199.988,248.394 200.051,248.503 199.766 C 248.621 199.458,248.661 199.500,246.414 197.545 C 243.622 195.115,232.342 185.262,229.841 183.068 C 227.308 180.847,217.244 172.041,214.334 169.501 C 213.412 168.696,211.633 167.138,210.381 166.039 C 209.129 164.940,206.757 162.871,205.109 161.442 C 203.461 160.013,200.883 157.768,199.381 156.454 C 196.208 153.680,196.550 153.781,195.054 155.173 M197.624 155.113 C 198.159 155.597,199.384 156.676,200.346 157.511 C 201.308 158.346,204.810 161.401,208.127 164.301 C 211.445 167.200,214.770 170.101,215.516 170.746 C 216.733 171.798,218.662 173.485,229.422 182.904 C 231.081 184.357,234.061 186.964,236.044 188.699 C 238.026 190.433,240.595 192.686,241.753 193.705 C 242.910 194.724,244.853 196.423,246.070 197.481 C 247.286 198.539,248.282 199.511,248.282 199.641 C 248.282 199.886,168.220 199.788,151.970 199.523 C 144.536 199.401,144.545 199.403,145.869 198.374 C 146.494 197.889,150.791 194.173,153.910 191.421 C 154.885 190.561,158.091 187.749,161.035 185.172 C 163.979 182.595,167.028 179.921,167.812 179.229 C 170.202 177.120,190.454 159.434,191.618 158.440 C 192.217 157.927,193.516 156.771,194.505 155.871 C 196.614 153.949,196.395 154.002,197.624 155.113 M267.407 154.744 C 267.394 154.991,267.913 157.522,268.231 158.759 C 268.314 159.082,268.511 160.007,268.668 160.815 C 268.826 161.622,268.988 162.250,269.029 162.209 C 269.131 162.106,268.719 160.091,267.654 155.490 C 267.526 154.937,267.415 154.601,267.407 154.744 M203.114 158.504 C 203.264 158.732,204.039 159.468,204.836 160.139 C 206.367 161.426,213.627 167.744,215.759 169.645 C 216.450 170.261,218.261 171.852,219.782 173.181 C 221.303 174.509,224.012 176.881,225.801 178.452 C 227.590 180.023,229.709 181.873,230.510 182.565 C 233.562 185.200,241.023 191.743,242.027 192.666 C 243.479 194.000,243.264 194.082,247.402 190.597 C 248.063 190.040,247.867 189.770,244.747 186.947 C 236.885 179.832,225.802 171.910,210.478 162.450 C 208.726 161.369,206.463 159.946,205.448 159.287 C 203.496 158.020,202.600 157.720,203.114 158.504 M188.265 159.062 C 185.182 161.165,177.084 167.491,173.764 170.391 C 165.298 177.785,153.730 188.988,153.730 189.793 C 153.730 190.193,155.222 189.056,158.105 186.459 C 160.854 183.983,170.639 175.371,172.435 173.847 C 172.815 173.525,175.576 171.111,178.570 168.483 C 181.564 165.855,185.230 162.671,186.716 161.407 C 189.454 159.080,190.068 158.420,189.486 158.429 C 189.322 158.431,188.772 158.716,188.265 159.062 M208.211 161.231 C 226.166 172.400,236.390 179.597,243.755 186.249 C 247.063 189.237,247.631 189.801,247.577 190.044 C 247.495 190.416,243.700 193.478,243.384 193.425 C 243.227 193.399,240.518 191.115,237.366 188.349 C 234.213 185.583,230.975 182.754,230.169 182.062 C 228.746 180.840,221.309 174.323,217.457 170.921 C 216.409 169.995,214.856 168.634,214.006 167.896 C 213.156 167.158,210.920 165.207,209.038 163.560 C 207.156 161.913,205.182 160.193,204.652 159.737 C 203.705 158.922,203.406 158.448,203.978 158.667 C 204.137 158.728,206.042 159.882,208.211 161.231 M187.835 160.118 C 187.564 160.405,186.324 161.515,185.080 162.586 C 183.835 163.658,181.647 165.557,180.218 166.808 C 178.789 168.059,175.469 170.962,172.842 173.259 C 165.349 179.809,162.922 181.942,159.681 184.828 C 155.495 188.555,154.914 189.004,155.388 188.139 C 155.733 187.509,166.524 177.005,169.725 174.183 C 170.823 173.215,172.430 171.796,173.296 171.029 C 176.525 168.172,184.805 161.648,187.427 159.895 C 188.138 159.420,188.374 159.549,187.835 160.118 M141.840 166.575 C 141.833 166.771,142.050 167.940,142.322 169.174 C 143.511 174.568,143.713 175.505,143.924 176.614 C 144.046 177.259,144.266 178.315,144.411 178.961 C 144.556 179.606,144.841 180.956,145.045 181.960 C 145.249 182.965,145.444 183.702,145.478 183.599 C 145.512 183.497,145.416 182.826,145.263 182.109 C 145.111 181.391,144.764 179.749,144.493 178.458 C 144.221 177.167,143.921 175.771,143.824 175.356 C 143.728 174.941,143.386 173.357,143.064 171.836 C 142.079 167.179,141.853 166.205,141.840 166.575 M145.534 184.074 C 145.532 184.212,145.635 184.702,145.763 185.163 C 145.891 185.624,146.000 185.851,146.005 185.666 C 146.009 185.482,145.906 184.992,145.776 184.577 C 145.645 184.162,145.536 183.935,145.534 184.074 M146.055 186.421 C 146.053 186.651,146.112 187.028,146.186 187.259 C 146.367 187.822,146.367 187.214,146.186 186.505 C 146.071 186.053,146.058 186.044,146.055 186.421 M144.047 201.204 C 143.775 201.602,141.760 204.757,139.570 208.215 C 137.380 211.672,135.228 215.067,134.788 215.759 C 134.347 216.450,133.463 217.846,132.823 218.860 C 132.183 219.874,131.262 221.326,130.776 222.086 L 129.893 223.467 130.113 225.606 C 130.234 226.783,130.362 227.599,130.398 227.421 C 130.434 227.242,130.375 226.285,130.265 225.294 L 130.066 223.492 131.652 221.009 C 133.043 218.830,135.915 214.295,141.239 205.868 C 143.756 201.884,144.275 201.100,144.542 200.880 C 144.793 200.673,160.041 200.726,211.400 201.111 C 219.376 201.171,225.863 201.182,225.817 201.135 C 225.742 201.060,200.452 200.848,159.236 200.577 L 144.541 200.481 144.047 201.204 M237.265 201.339 C 246.002 201.410,247.816 201.465,247.935 201.658 C 248.014 201.786,248.248 202.541,248.455 203.334 C 248.661 204.128,248.926 205.117,249.044 205.532 C 249.297 206.430,249.563 207.396,250.357 210.310 C 251.248 213.577,251.979 216.063,251.909 215.591 C 251.857 215.232,251.082 212.241,250.390 209.723 C 250.276 209.308,249.744 207.347,249.209 205.365 C 248.535 202.872,248.133 201.670,247.904 201.467 C 247.596 201.193,246.873 201.176,237.157 201.213 L 226.739 201.252 237.265 201.339 M252.006 216.345 C 252.615 218.738,253.905 223.280,253.943 223.166 C 254.003 222.987,252.162 216.226,252.020 216.099 C 251.965 216.050,251.959 216.161,252.006 216.345 M253.994 223.638 C 253.990 223.776,254.136 224.368,254.319 224.952 C 254.502 225.537,254.652 226.090,254.652 226.182 C 254.652 226.274,252.444 228.625,249.745 231.406 C 247.047 234.187,241.936 239.480,238.389 243.168 C 234.841 246.857,229.072 252.818,225.567 256.417 C 222.063 260.015,217.422 264.805,215.256 267.061 C 213.089 269.318,208.977 273.579,206.119 276.531 C 196.669 286.291,185.869 297.453,183.818 299.581 C 182.706 300.733,177.122 306.492,171.410 312.378 C 165.697 318.265,159.934 324.224,158.604 325.622 C 157.274 327.020,152.974 331.481,149.048 335.534 C 145.123 339.588,141.736 343.086,141.521 343.309 C 140.880 343.972,140.835 343.737,140.135 336.127 C 139.905 333.630,139.823 333.195,139.896 334.870 C 139.962 336.368,140.436 341.622,140.622 342.917 C 140.706 343.506,140.819 343.755,141.000 343.755 C 141.242 343.755,148.934 335.943,157.172 327.331 C 159.197 325.213,162.402 321.894,164.292 319.954 C 170.646 313.435,178.275 305.564,182.489 301.181 C 187.585 295.881,190.782 292.574,200.570 282.479 C 204.728 278.190,211.144 271.552,214.827 267.726 C 218.510 263.901,224.244 257.977,227.568 254.562 C 230.893 251.147,235.419 246.470,237.626 244.168 C 239.833 241.867,244.099 237.456,247.104 234.367 C 255.114 226.136,254.867 226.415,254.726 225.769 C 254.542 224.927,254.004 223.358,253.994 223.638 M130.484 229.003 C 130.484 229.694,130.513 229.977,130.550 229.631 C 130.586 229.285,130.586 228.720,130.550 228.374 C 130.513 228.028,130.484 228.311,130.484 229.003 M130.636 231.014 C 130.632 231.429,130.686 232.184,130.756 232.691 C 130.865 233.482,130.884 233.518,130.889 232.942 C 130.892 232.573,130.838 231.819,130.769 231.266 C 130.655 230.347,130.644 230.325,130.636 231.014 M130.952 234.367 C 130.938 234.782,131.038 236.215,131.173 237.552 C 131.309 238.889,131.539 241.417,131.684 243.168 C 131.830 244.920,132.055 247.448,132.185 248.785 C 132.316 250.122,132.508 252.272,132.614 253.562 C 132.719 254.853,132.836 255.941,132.874 255.979 C 133.019 256.128,132.972 255.470,132.356 248.785 C 132.224 247.355,131.998 244.828,131.855 243.168 C 131.050 233.889,130.987 233.273,130.952 234.367 M132.970 257.006 C 132.955 257.516,133.055 258.836,133.192 259.939 C 133.330 261.042,133.456 262.360,133.472 262.867 C 133.498 263.673,133.510 263.704,133.573 263.118 C 133.613 262.749,133.523 261.316,133.375 259.933 C 133.227 258.550,133.082 257.117,133.052 256.748 C 133.010 256.224,132.992 256.281,132.970 257.006 M133.633 264.663 C 133.622 265.051,133.688 266.108,133.780 267.010 C 134.307 272.199,134.454 273.748,134.474 274.350 C 134.489 274.806,134.521 274.889,134.574 274.608 C 134.645 274.231,134.458 271.977,133.871 266.136 C 133.751 264.937,133.644 264.274,133.633 264.663 M134.700 276.530 C 134.830 279.073,135.137 282.489,135.375 284.033 C 135.639 285.755,135.612 284.950,135.297 281.727 C 134.835 277.004,134.635 275.263,134.700 276.530 M135.656 286.672 C 135.639 287.272,135.733 288.894,135.865 290.277 C 135.996 291.660,136.198 293.806,136.314 295.046 C 136.429 296.287,136.558 297.200,136.599 297.075 C 136.641 296.951,136.590 295.974,136.486 294.904 C 136.113 291.065,135.787 287.410,135.737 286.505 C 135.687 285.583,135.686 285.583,135.656 286.672 M136.715 299.078 C 136.798 301.137,137.274 306.463,137.471 307.544 C 137.700 308.801,137.373 304.623,136.794 298.910 L 136.650 297.485 136.715 299.078 M137.666 309.245 C 137.641 309.979,137.899 313.033,138.644 320.788 L 138.789 322.297 138.725 320.704 C 138.690 319.828,138.470 317.075,138.236 314.585 C 138.002 312.096,137.785 309.681,137.754 309.220 L 137.697 308.382 137.666 309.245 M138.849 323.135 C 138.844 323.596,138.898 324.350,138.970 324.811 C 139.153 325.988,139.165 324.759,138.984 323.303 L 138.859 322.297 138.849 323.135 M139.173 326.662 C 139.158 327.219,139.258 328.577,139.395 329.679 C 139.533 330.782,139.659 332.062,139.675 332.523 C 139.703 333.322,139.708 333.330,139.775 332.691 C 139.813 332.322,139.724 330.889,139.575 329.505 C 139.427 328.122,139.282 326.689,139.254 326.320 C 139.218 325.866,139.192 325.977,139.173 326.662 " stroke="none" fill="#565656" fill-rule="evenodd"></path><path id="path3" d="M241.744 63.828 C 239.116 66.381,233.043 72.316,228.248 77.016 C 223.453 81.717,218.324 86.738,216.848 88.175 C 215.373 89.611,210.432 94.443,205.868 98.914 C 201.303 103.384,195.231 109.303,192.372 112.067 C 187.389 116.885,180.045 124.072,162.473 141.328 C 158.015 145.706,151.414 152.143,147.804 155.632 C 143.770 159.532,141.222 162.116,141.193 162.338 C 141.167 162.537,141.446 164.132,141.813 165.884 C 142.998 171.542,143.645 174.585,143.827 175.356 C 143.925 175.771,144.162 176.865,144.354 177.787 C 144.546 178.709,144.965 180.708,145.284 182.230 C 145.603 183.751,146.189 186.564,146.586 188.481 C 147.341 192.130,147.855 193.251,148.701 193.091 C 148.842 193.065,151.106 190.823,153.733 188.110 C 161.376 180.214,170.563 171.619,176.194 167.097 C 177.347 166.171,178.856 164.945,179.547 164.373 C 182.482 161.944,187.420 158.474,194.039 154.191 C 196.547 152.568,196.607 152.549,197.380 153.138 C 197.899 153.534,200.534 155.178,209.891 160.940 C 212.242 162.388,215.524 164.464,217.184 165.552 C 218.843 166.641,222.043 168.732,224.295 170.199 C 231.304 174.765,239.367 180.768,243.179 184.260 C 246.170 187.000,248.489 189.022,248.693 189.069 C 248.894 189.116,249.746 188.475,252.469 186.227 C 253.066 185.734,255.744 183.536,258.420 181.343 C 263.686 177.027,263.708 177.004,265.677 173.596 C 266.316 172.490,267.527 170.415,268.367 168.986 L 269.895 166.387 269.656 165.381 C 269.524 164.828,269.188 163.282,268.908 161.945 C 268.627 160.608,268.284 159.023,268.145 158.424 C 268.006 157.825,267.701 156.429,267.468 155.323 C 267.234 154.216,266.700 151.689,266.281 149.707 C 265.862 147.724,265.337 145.235,265.115 144.174 C 264.893 143.114,264.593 141.718,264.447 141.073 C 264.302 140.427,264.080 139.409,263.954 138.810 C 263.828 138.210,263.611 137.192,263.472 136.547 C 263.332 135.901,262.989 134.279,262.709 132.942 C 262.429 131.605,262.043 129.795,261.851 128.919 C 261.659 128.043,261.437 127.024,261.356 126.655 C 261.276 126.287,260.978 124.891,260.695 123.554 C 260.412 122.217,259.959 120.105,259.689 118.860 C 259.419 117.615,258.931 115.314,258.604 113.747 C 258.276 112.179,257.927 110.557,257.828 110.142 C 257.669 109.479,257.170 107.136,256.238 102.682 C 256.083 101.945,255.767 100.474,255.535 99.413 C 255.302 98.353,255.017 97.033,254.901 96.479 C 254.785 95.926,254.414 94.191,254.078 92.624 C 253.741 91.056,253.396 89.434,253.311 89.019 C 253.227 88.604,252.966 87.378,252.731 86.295 C 252.497 85.212,252.113 83.439,251.879 82.355 C 251.645 81.272,251.384 80.046,251.299 79.631 C 251.215 79.216,250.959 78.009,250.730 76.949 C 250.501 75.889,250.190 74.417,250.039 73.680 C 249.887 72.942,249.621 71.697,249.446 70.914 C 248.674 67.446,247.213 60.544,247.123 59.935 C 246.959 58.823,246.709 59.004,241.744 63.828 M247.032 60.546 C 247.161 61.131,247.457 62.515,247.690 63.621 C 247.923 64.728,248.224 66.123,248.360 66.723 C 248.496 67.322,248.841 68.944,249.127 70.327 C 249.413 71.710,249.866 73.822,250.132 75.021 C 250.399 76.220,250.805 78.106,251.035 79.212 C 251.265 80.319,251.689 82.318,251.978 83.655 C 252.267 84.992,252.604 86.576,252.727 87.175 C 253.108 89.030,254.957 97.571,255.322 99.162 C 255.512 99.992,255.710 100.935,255.760 101.257 C 255.811 101.580,256.066 102.825,256.327 104.023 C 257.464 109.238,257.584 109.797,259.028 116.597 C 259.877 120.599,260.528 123.652,261.172 126.655 C 261.448 127.946,261.755 129.380,261.852 129.841 C 261.950 130.302,262.226 131.584,262.466 132.691 C 262.706 133.797,263.117 135.721,263.378 136.966 C 264.161 140.690,264.819 143.762,265.461 146.689 C 265.794 148.210,266.135 149.832,266.217 150.293 C 266.300 150.754,266.558 151.999,266.792 153.060 C 267.025 154.120,267.291 155.327,267.382 155.742 C 267.473 156.157,267.698 157.175,267.882 158.005 C 268.066 158.835,268.373 160.268,268.564 161.190 C 268.754 162.112,268.977 163.131,269.059 163.453 C 269.809 166.406,269.852 166.227,267.404 170.327 C 266.606 171.664,265.416 173.663,264.759 174.769 C 263.357 177.132,263.735 176.762,257.670 181.733 C 255.042 183.887,251.992 186.389,250.892 187.292 C 249.792 188.196,248.835 188.935,248.765 188.935 C 248.695 188.935,247.066 187.521,245.146 185.792 C 243.225 184.063,241.316 182.380,240.903 182.052 C 240.489 181.724,239.208 180.700,238.055 179.776 C 235.330 177.591,230.268 173.923,226.991 171.760 C 217.345 165.391,213.128 162.715,200.112 154.702 C 198.929 153.973,197.660 153.159,197.292 152.893 C 196.594 152.387,196.314 152.388,195.725 152.896 C 195.541 153.055,194.220 153.922,192.791 154.822 C 188.117 157.767,183.009 161.355,179.795 163.952 C 179.148 164.475,177.835 165.539,176.879 166.316 C 175.922 167.093,174.905 167.915,174.619 168.142 C 170.781 171.196,161.833 179.644,154.211 187.412 C 149.018 192.704,148.722 192.975,148.376 192.763 C 147.918 192.483,147.425 191.688,147.301 191.031 C 147.158 190.271,146.226 185.801,145.658 183.152 C 145.382 181.861,144.934 179.749,144.664 178.458 C 144.393 177.167,144.024 175.432,143.843 174.602 C 142.991 170.688,141.809 165.071,141.450 163.229 L 141.260 162.250 143.264 160.295 C 146.301 157.332,164.371 139.670,171.224 132.966 C 174.557 129.706,182.526 121.935,188.933 115.699 C 195.340 109.462,202.959 102.018,205.865 99.157 C 208.771 96.296,213.976 91.204,217.432 87.841 C 220.887 84.478,226.319 79.162,229.503 76.027 C 232.686 72.892,237.402 68.300,239.984 65.822 C 242.565 63.344,245.118 60.867,245.656 60.318 C 246.784 59.167,246.726 59.157,247.032 60.546 M50.293 108.396 C 50.293 108.449,51.401 109.977,52.756 111.790 C 55.552 115.535,58.058 118.905,60.943 122.800 C 62.035 124.275,64.672 127.821,66.802 130.679 C 68.931 133.537,71.536 137.045,72.591 138.474 C 73.645 139.904,76.277 143.449,78.440 146.354 C 83.358 152.956,86.368 157.001,89.795 161.609 C 94.692 168.193,96.927 171.198,101.146 176.865 C 105.178 182.282,107.660 185.613,116.388 197.324 C 120.098 202.303,122.213 205.150,128.959 214.245 C 131.927 218.247,131.880 218.193,132.191 217.935 C 132.405 217.758,134.148 215.054,139.647 206.370 C 143.127 200.875,143.067 201.006,142.079 201.006 C 141.331 201.006,141.316 200.695,142.037 200.168 C 142.965 199.491,147.885 195.177,148.067 194.881 C 148.232 194.610,148.023 194.378,146.102 192.702 C 142.321 189.401,137.743 185.372,135.444 183.321 C 134.099 182.121,132.255 180.499,131.345 179.715 C 130.435 178.931,128.857 177.528,127.838 176.597 C 126.819 175.665,124.736 173.817,123.209 172.489 C 121.683 171.162,118.854 168.672,116.923 166.956 C 114.992 165.240,112.689 163.203,111.807 162.430 C 110.924 161.656,108.962 159.920,107.448 158.573 C 102.435 154.113,97.378 149.648,95.238 147.793 C 94.077 146.786,92.070 145.009,90.780 143.845 C 89.489 142.680,87.523 140.938,86.411 139.975 C 85.299 139.011,83.041 137.016,81.394 135.541 C 79.746 134.065,77.827 132.370,77.128 131.774 C 76.430 131.177,74.764 129.706,73.424 128.505 C 72.085 127.303,70.207 125.641,69.251 124.811 C 68.295 123.982,66.670 122.548,65.640 121.626 C 63.374 119.597,60.216 116.813,58.508 115.339 C 56.516 113.620,52.820 110.329,51.691 109.269 C 50.770 108.404,50.293 108.106,50.293 108.396 M54.738 112.250 C 56.399 113.719,58.284 115.373,58.928 115.926 C 59.571 116.479,61.449 118.139,63.100 119.614 C 64.752 121.090,66.632 122.749,67.279 123.303 C 67.925 123.856,69.842 125.553,71.539 127.075 C 73.235 128.596,75.279 130.401,76.080 131.085 C 76.880 131.770,79.191 133.807,81.215 135.612 C 83.239 137.417,86.068 139.912,87.502 141.156 C 88.936 142.400,90.637 143.913,91.282 144.517 C 91.928 145.121,93.060 146.133,93.797 146.765 C 95.430 148.164,103.557 155.335,107.677 159.011 C 109.330 160.486,111.372 162.290,112.215 163.020 C 113.057 163.750,115.364 165.787,117.341 167.547 C 119.317 169.306,122.225 171.878,123.801 173.261 C 125.378 174.644,127.571 176.579,128.674 177.562 C 131.610 180.177,137.802 185.645,141.068 188.506 C 146.293 193.084,147.863 194.522,147.863 194.733 C 147.863 194.848,146.564 196.061,144.976 197.429 C 140.712 201.103,140.655 201.174,141.921 201.174 C 142.787 201.174,143.108 200.598,135.883 211.987 C 134.889 213.554,133.657 215.497,133.145 216.303 C 132.634 217.110,132.125 217.770,132.015 217.770 C 131.905 217.770,130.239 215.651,128.313 213.061 C 126.387 210.471,123.340 206.377,121.542 203.964 C 119.744 201.551,117.068 197.956,115.596 195.974 C 114.123 193.993,110.838 189.581,108.296 186.169 C 105.754 182.758,103.002 179.061,102.181 177.955 C 101.360 176.848,98.917 173.567,96.752 170.662 C 94.588 167.758,91.976 164.250,90.948 162.867 C 88.576 159.675,84.652 154.403,79.718 147.779 C 77.588 144.920,74.793 141.160,73.506 139.423 C 69.350 133.814,64.725 127.588,61.780 123.638 C 60.198 121.517,57.740 118.208,56.317 116.283 C 54.894 114.359,53.160 112.020,52.464 111.086 C 51.767 110.152,51.133 109.275,51.054 109.137 C 50.884 108.840,50.849 108.810,54.738 112.250 M331.769 133.269 C 331.077 133.437,329.681 133.734,328.667 133.928 C 327.653 134.122,325.352 134.576,323.554 134.937 C 321.756 135.297,319.928 135.642,319.493 135.702 C 318.606 135.825,318.364 136.030,318.820 136.274 C 319.135 136.442,322.182 136.707,325.979 136.896 L 328.153 137.004 335.338 144.068 C 348.088 156.602,351.228 159.641,351.326 159.543 C 351.379 159.490,350.671 158.368,349.753 157.049 C 348.835 155.731,346.210 151.861,343.920 148.449 C 339.968 142.563,339.097 141.270,335.324 135.708 C 333.852 133.539,333.363 132.926,333.120 132.952 C 333.068 132.957,332.460 133.100,331.769 133.269 M333.508 133.422 C 333.815 133.761,338.753 141.041,345.236 150.712 C 347.492 154.078,349.651 157.265,350.034 157.795 C 351.173 159.371,350.682 158.958,346.452 154.778 C 334.415 142.883,330.231 138.765,329.199 137.795 L 328.054 136.719 326.768 136.670 C 321.165 136.456,318.252 136.149,319.533 135.908 C 324.612 134.951,330.368 133.796,331.769 133.451 C 332.460 133.281,333.071 133.135,333.126 133.126 C 333.181 133.117,333.353 133.250,333.508 133.422 M312.206 138.630 C 309.902 140.534,304.914 144.645,301.578 147.390 C 300.157 148.560,297.561 150.696,295.809 152.138 C 294.057 153.580,291.460 155.716,290.037 156.885 C 286.666 159.656,282.076 163.435,271.740 171.949 C 270.304 173.131,267.786 175.193,266.144 176.530 C 264.502 177.867,262.611 179.413,261.943 179.966 C 261.274 180.520,259.991 181.576,259.091 182.313 C 257.133 183.918,252.547 187.702,250.802 189.152 C 248.862 190.766,246.618 192.595,245.557 193.429 C 245.027 193.845,244.595 194.306,244.597 194.453 C 244.600 194.691,247.900 197.685,248.862 198.322 C 249.486 198.735,251.467 200.645,251.467 200.832 C 251.467 200.936,250.984 201.006,250.276 201.006 L 249.085 201.006 249.162 201.635 C 249.205 201.980,250.124 205.469,251.205 209.388 C 252.286 213.307,253.319 217.079,253.501 217.770 C 253.684 218.462,254.048 219.782,254.312 220.704 C 254.575 221.626,254.843 222.658,254.906 222.998 C 255.114 224.118,255.475 223.998,256.775 222.373 C 257.221 221.816,264.376 213.070,272.674 202.937 C 280.972 192.804,288.290 183.860,288.935 183.062 C 289.581 182.263,291.213 180.260,292.563 178.609 C 298.264 171.635,307.619 160.204,309.151 158.340 C 311.348 155.667,319.963 145.142,321.453 143.312 C 322.101 142.515,323.224 141.135,323.947 140.246 C 325.384 138.477,325.463 138.139,324.439 138.140 C 323.775 138.141,320.343 137.792,316.932 137.377 C 313.970 137.017,314.247 136.943,312.206 138.630 M316.513 137.542 C 321.071 138.083,323.337 138.312,324.089 138.310 C 325.419 138.305,325.712 137.816,320.715 143.938 C 319.292 145.682,317.693 147.636,317.160 148.282 C 315.039 150.854,311.647 155.001,306.454 161.369 C 303.458 165.043,300.402 168.778,299.665 169.668 C 298.927 170.559,297.230 172.628,295.893 174.267 C 292.768 178.097,291.904 179.153,290.323 181.075 C 289.611 181.941,284.869 187.741,279.785 193.965 C 274.701 200.189,270.260 205.620,269.916 206.035 C 269.428 206.624,263.201 214.229,259.431 218.841 C 256.494 222.435,255.600 223.470,255.433 223.469 C 255.322 223.468,254.850 222.008,254.334 220.074 C 253.837 218.208,253.189 215.813,252.894 214.753 C 252.599 213.692,252.121 211.957,251.831 210.897 C 250.762 206.981,249.920 203.917,249.688 203.101 C 249.558 202.640,249.403 202.013,249.345 201.706 L 249.240 201.149 250.429 201.198 C 252.087 201.265,252.259 200.863,250.962 199.947 C 249.975 199.251,250.058 198.920,251.186 199.053 C 252.211 199.173,252.774 198.913,252.580 198.408 C 252.476 198.138,252.306 198.119,250.822 198.222 C 249.285 198.328,249.148 198.311,248.689 197.959 C 247.648 197.161,244.761 194.605,244.761 194.482 C 244.761 194.359,245.337 193.872,250.285 189.806 C 251.442 188.855,252.917 187.638,253.562 187.101 C 255.426 185.550,271.926 171.996,275.104 169.405 C 276.009 168.667,278.574 166.555,280.804 164.711 C 283.035 162.867,285.557 160.792,286.408 160.101 C 287.260 159.409,288.860 158.089,289.963 157.167 C 291.066 156.245,293.355 154.359,295.050 152.976 C 296.744 151.593,299.034 149.707,300.139 148.785 C 301.244 147.863,303.028 146.391,304.105 145.516 C 306.474 143.587,309.916 140.754,312.304 138.768 C 313.274 137.961,314.146 137.299,314.243 137.297 C 314.339 137.295,315.360 137.405,316.513 137.542 M325.406 140.333 C 324.448 141.470,323.735 142.459,323.784 142.585 C 323.866 142.801,327.056 144.936,336.053 150.796 C 338.317 152.272,341.694 154.483,343.555 155.712 C 349.352 159.535,349.363 159.492,343.923 154.224 C 342.079 152.438,337.696 148.126,334.183 144.642 C 329.995 140.488,327.678 138.307,327.455 138.307 C 327.227 138.307,326.555 138.971,325.406 140.333 M330.337 141.117 C 338.459 149.100,347.038 157.629,346.992 157.674 C 346.963 157.703,346.223 157.247,345.347 156.661 C 344.472 156.074,340.797 153.669,337.182 151.316 C 328.330 145.554,324.170 142.824,323.996 142.662 C 323.811 142.489,327.076 138.480,327.404 138.477 C 327.538 138.476,328.858 139.664,330.337 141.117 M73.428 142.079 C 73.962 142.979,77.099 147.578,79.744 151.339 C 83.228 156.293,84.370 157.937,95.389 173.847 C 101.168 182.192,107.781 191.735,110.084 195.054 C 112.387 198.374,115.027 202.184,115.952 203.521 C 119.041 207.989,121.799 211.968,123.212 213.998 C 124.904 216.429,128.203 221.186,128.667 221.865 C 129.193 222.633,129.340 222.569,130.243 221.175 C 131.502 219.233,132.585 221.077,121.293 205.951 C 119.159 203.093,116.432 199.434,115.233 197.821 C 114.033 196.207,111.139 192.322,108.802 189.187 C 106.464 186.052,103.456 182.016,102.117 180.218 C 100.777 178.420,97.262 173.705,94.305 169.740 C 89.164 162.847,84.443 156.482,81.559 152.552 C 77.220 146.640,73.751 142.035,73.416 141.744 L 73.031 141.408 73.428 142.079 M321.931 144.632 C 321.579 145.068,320.456 146.444,319.436 147.691 C 316.402 151.399,309.967 159.260,308.885 160.580 C 308.332 161.255,307.125 162.731,306.203 163.860 C 305.281 164.989,303.885 166.691,303.101 167.642 C 302.318 168.593,301.299 169.840,300.838 170.413 C 300.377 170.986,298.895 172.804,297.544 174.453 C 296.193 176.102,294.285 178.433,293.304 179.631 C 289.928 183.757,286.846 187.520,283.557 191.534 C 281.744 193.747,279.523 196.463,278.623 197.569 C 276.238 200.499,272.886 204.600,271.771 205.951 C 270.190 207.868,263.980 215.464,263.532 216.029 C 263.305 216.316,261.645 218.353,259.844 220.555 C 255.570 225.782,255.826 225.427,255.826 226.137 C 255.826 226.679,255.650 226.927,254.233 228.394 C 252.145 230.555,252.145 230.555,254.610 230.440 C 255.694 230.389,258.202 230.303,260.184 230.248 C 262.489 230.184,263.871 230.080,264.018 229.958 C 264.245 229.769,267.811 224.782,276.866 211.987 C 278.237 210.050,280.349 207.070,281.559 205.365 C 282.770 203.659,285.044 200.453,286.612 198.240 C 288.181 196.027,290.962 192.104,292.792 189.522 C 294.622 186.940,296.847 183.810,297.737 182.565 C 298.626 181.320,299.909 179.510,300.587 178.541 C 301.266 177.573,303.455 174.480,305.452 171.668 C 307.449 168.856,309.347 166.178,309.671 165.717 C 309.994 165.256,312.132 162.238,314.423 159.011 C 316.713 155.784,319.679 151.597,321.015 149.707 C 322.351 147.816,323.676 145.942,323.960 145.541 L 324.476 144.812 323.896 144.325 C 323.071 143.635,322.687 143.694,321.931 144.632 M323.570 144.294 C 324.241 144.691,324.190 144.954,323.165 146.375 C 322.674 147.055,321.528 148.667,320.618 149.958 C 318.841 152.480,318.036 153.617,312.909 160.855 C 305.876 170.781,303.839 173.652,302.677 175.272 C 302.016 176.194,299.905 179.174,297.985 181.894 C 294.717 186.525,293.481 188.267,289.223 194.246 C 288.292 195.553,287.249 197.024,286.905 197.515 C 285.377 199.694,283.000 203.056,280.467 206.622 C 278.960 208.743,275.000 214.325,271.668 219.028 C 268.335 223.730,265.242 228.086,264.795 228.707 C 264.162 229.587,263.869 229.855,263.467 229.922 C 262.750 230.041,253.092 230.305,252.916 230.211 C 252.837 230.169,253.510 229.394,254.411 228.490 C 255.964 226.931,256.048 226.810,256.023 226.177 C 255.995 225.461,255.799 225.736,259.685 221.039 C 260.295 220.302,268.931 209.740,278.876 197.569 C 295.383 177.368,297.857 174.346,300.011 171.752 C 300.394 171.291,301.163 170.348,301.719 169.656 C 302.276 168.965,303.664 167.260,304.803 165.867 C 305.942 164.475,307.816 162.183,308.969 160.773 C 310.122 159.364,312.186 156.845,313.556 155.174 C 314.927 153.504,317.002 150.975,318.167 149.553 C 323.348 143.232,322.753 143.812,323.570 144.294 M79.854 150.587 C 81.174 152.362,83.451 155.436,84.913 157.418 C 89.101 163.096,90.781 165.354,102.118 180.553 C 111.911 193.682,114.736 197.470,117.245 200.838 C 118.722 202.821,121.900 207.083,124.307 210.310 C 130.445 218.540,130.930 219.212,130.930 219.483 C 130.930 219.836,129.424 222.130,129.197 222.123 C 129.090 222.119,128.196 220.931,127.211 219.482 C 126.225 218.034,123.819 214.547,121.863 211.735 C 119.907 208.923,112.196 197.795,104.727 187.008 C 85.221 158.834,87.429 162.018,81.540 153.562 C 77.189 147.316,77.219 147.360,77.359 147.360 C 77.411 147.360,78.534 148.812,79.854 150.587 M194.505 155.871 C 193.516 156.771,192.217 157.927,191.618 158.440 C 190.454 159.434,170.202 177.120,167.812 179.229 C 167.028 179.921,163.979 182.595,161.035 185.172 C 158.091 187.749,154.885 190.561,153.910 191.421 C 150.791 194.173,146.494 197.889,145.869 198.374 C 144.545 199.403,144.536 199.401,151.970 199.523 C 168.220 199.788,248.282 199.886,248.282 199.641 C 248.282 199.511,247.286 198.539,246.070 197.481 C 244.853 196.423,242.910 194.724,241.753 193.705 C 240.595 192.686,238.026 190.433,236.044 188.699 C 234.061 186.964,231.081 184.357,229.422 182.904 C 218.662 173.485,216.733 171.798,215.516 170.746 C 214.770 170.101,211.445 167.200,208.127 164.301 C 204.810 161.401,201.308 158.346,200.346 157.511 C 199.384 156.676,198.159 155.597,197.624 155.113 C 196.395 154.002,196.614 153.949,194.505 155.871 M200.120 157.544 C 202.111 159.273,204.094 160.989,204.527 161.358 C 204.960 161.727,207.417 163.877,209.987 166.136 C 212.556 168.395,215.265 170.768,216.005 171.409 C 216.745 172.051,219.464 174.428,222.045 176.691 C 224.627 178.954,227.046 181.070,227.421 181.392 C 228.947 182.704,244.471 196.301,246.144 197.790 C 247.135 198.673,247.946 199.465,247.946 199.551 C 247.946 199.872,145.533 199.424,145.501 199.103 C 145.493 199.024,145.941 198.571,146.496 198.097 C 147.052 197.622,148.209 196.634,149.067 195.901 C 149.926 195.167,151.270 193.990,152.054 193.284 C 152.837 192.578,155.440 190.286,157.837 188.190 C 162.740 183.905,165.084 181.853,167.052 180.126 C 167.793 179.476,169.681 177.824,171.249 176.455 C 172.816 175.086,176.060 172.250,178.458 170.152 C 180.855 168.054,184.740 164.661,187.091 162.612 C 191.976 158.354,194.730 155.934,195.713 155.034 C 196.089 154.690,196.420 154.407,196.449 154.405 C 196.478 154.403,198.130 155.815,200.120 157.544 M203.688 158.732 C 203.688 158.828,204.122 159.280,204.652 159.737 C 205.182 160.193,207.156 161.913,209.038 163.560 C 210.920 165.207,213.156 167.158,214.006 167.896 C 214.856 168.634,216.409 169.995,217.457 170.921 C 221.309 174.323,228.746 180.840,230.169 182.062 C 230.975 182.754,234.213 185.583,237.366 188.349 C 240.518 191.115,243.227 193.399,243.384 193.425 C 243.700 193.478,247.495 190.416,247.577 190.044 C 247.720 189.395,238.611 181.656,232.119 176.911 C 225.396 171.997,203.688 158.116,203.688 158.732 M208.301 161.508 C 213.018 164.433,215.774 166.192,221.207 169.745 C 222.221 170.408,224.179 171.686,225.558 172.584 C 232.551 177.140,245.757 187.597,247.242 189.756 C 247.474 190.093,244.004 193.294,243.406 193.294 C 243.285 193.294,238.542 189.175,226.837 178.905 C 224.769 177.092,221.824 174.514,220.291 173.177 C 218.757 171.840,216.035 169.455,214.242 167.876 C 209.650 163.836,206.590 161.153,205.525 160.234 C 204.086 158.992,204.699 159.274,208.301 161.508 M187.427 159.895 C 184.805 161.648,176.525 168.172,173.296 171.029 C 172.430 171.796,170.823 173.215,169.725 174.183 C 166.524 177.005,155.733 187.509,155.388 188.139 C 154.914 189.004,155.495 188.555,159.681 184.828 C 162.922 181.942,165.349 179.809,172.842 173.259 C 175.469 170.962,178.789 168.059,180.218 166.808 C 181.647 165.557,183.835 163.658,185.080 162.586 C 188.112 159.977,189.241 158.683,187.427 159.895 M186.417 161.162 C 185.999 161.556,181.690 165.305,180.219 166.555 C 179.785 166.924,177.930 168.546,176.098 170.159 C 174.265 171.773,172.455 173.357,172.076 173.680 C 170.873 174.705,162.124 182.391,159.619 184.624 C 157.178 186.801,156.263 187.354,157.931 185.646 C 162.940 180.515,173.157 171.226,178.854 166.624 C 183.312 163.023,188.154 159.526,186.417 161.162 M144.398 201.044 C 144.208 201.254,143.527 202.255,142.883 203.269 C 138.814 209.681,135.137 215.493,133.867 217.519 C 133.058 218.810,131.874 220.678,131.236 221.671 L 130.076 223.476 130.330 226.197 C 130.469 227.694,130.699 230.239,130.841 231.852 C 130.983 233.466,131.211 235.993,131.347 237.469 C 131.484 238.944,131.713 241.509,131.856 243.168 C 131.999 244.828,132.224 247.355,132.356 248.785 C 132.488 250.214,132.713 252.741,132.856 254.401 C 132.999 256.060,133.227 258.588,133.363 260.017 C 133.500 261.446,133.728 264.011,133.871 265.717 C 134.013 267.422,134.235 269.950,134.364 271.333 C 134.493 272.716,134.719 275.281,134.867 277.033 C 135.142 280.306,135.404 282.977,135.622 284.744 L 135.746 285.750 135.768 284.828 C 135.780 284.321,135.719 283.453,135.632 282.900 C 135.546 282.347,135.391 280.876,135.287 279.631 C 134.753 273.231,133.796 262.388,133.525 259.681 C 133.260 257.029,133.054 254.754,132.681 250.377 C 132.547 248.810,132.327 246.396,132.190 245.013 C 132.054 243.630,131.863 241.291,131.766 239.816 C 131.669 238.340,131.556 237.020,131.514 236.882 C 131.437 236.624,131.108 233.041,130.684 227.829 C 130.553 226.215,130.399 224.593,130.344 224.225 C 130.233 223.493,129.817 224.221,135.086 215.926 C 137.282 212.470,138.272 210.907,140.288 207.712 C 141.306 206.098,142.703 203.900,143.393 202.826 L 144.647 200.875 158.870 200.945 C 166.693 200.983,181.090 201.087,190.863 201.177 C 200.637 201.266,217.347 201.388,227.997 201.447 C 238.646 201.506,247.478 201.615,247.622 201.688 C 247.766 201.762,247.973 202.186,248.082 202.630 C 248.192 203.073,248.509 204.267,248.788 205.281 C 249.339 207.285,250.023 209.798,250.909 213.076 C 251.220 214.229,251.703 216.002,251.982 217.016 C 252.261 218.030,252.591 219.237,252.715 219.698 C 252.839 220.159,253.094 221.102,253.283 221.794 C 254.667 226.870,254.964 225.842,250.921 229.974 C 249.053 231.883,244.541 236.538,240.895 240.319 C 232.431 249.093,228.457 253.200,222.213 259.629 C 219.447 262.477,215.228 266.841,212.837 269.327 C 210.446 271.813,203.996 278.483,198.503 284.148 C 193.010 289.813,186.332 296.716,183.662 299.488 C 177.772 305.601,170.640 312.965,163.114 320.704 C 160.021 323.885,156.704 327.318,155.743 328.332 C 154.782 329.346,151.727 332.515,148.954 335.373 C 146.180 338.231,143.317 341.192,142.592 341.953 C 141.003 343.618,141.065 343.609,140.925 342.205 C 140.674 339.683,140.322 335.924,140.153 333.948 C 140.055 332.795,139.863 330.683,139.727 329.254 C 139.419 326.012,139.042 321.770,138.817 319.028 C 138.722 317.875,138.530 315.725,138.390 314.250 C 138.250 312.775,138.062 310.549,137.972 309.304 C 137.881 308.060,137.765 306.739,137.712 306.370 C 137.601 305.598,137.237 301.648,136.885 297.402 C 136.751 295.788,136.518 293.148,136.367 291.534 C 136.215 289.920,136.035 287.959,135.967 287.175 L 135.842 285.750 135.818 286.840 C 135.805 287.439,135.867 288.571,135.954 289.355 C 136.042 290.138,136.192 291.685,136.287 292.791 C 136.382 293.898,136.537 295.671,136.631 296.731 C 136.726 297.791,136.916 299.979,137.056 301.593 C 137.195 303.206,137.418 305.658,137.552 307.041 C 137.687 308.424,137.912 310.914,138.054 312.573 C 138.195 314.233,138.420 316.798,138.554 318.273 C 138.688 319.749,138.916 322.351,139.061 324.057 C 139.206 325.763,139.432 328.215,139.563 329.505 C 139.693 330.796,139.843 332.531,139.894 333.361 C 139.946 334.191,140.060 335.549,140.147 336.379 C 140.234 337.209,140.430 339.132,140.582 340.654 C 140.886 343.705,140.954 343.896,141.521 343.309 C 141.736 343.086,145.123 339.588,149.048 335.534 C 152.974 331.481,157.274 327.020,158.604 325.622 C 159.934 324.224,165.697 318.265,171.410 312.378 C 177.122 306.492,182.706 300.733,183.818 299.581 C 185.869 297.453,196.669 286.291,206.119 276.531 C 208.977 273.579,213.089 269.318,215.256 267.061 C 217.422 264.805,222.063 260.015,225.567 256.417 C 229.072 252.818,234.841 246.857,238.389 243.168 C 241.936 239.480,247.047 234.187,249.745 231.406 C 252.444 228.625,254.652 226.286,254.653 226.209 C 254.653 226.132,254.503 225.541,254.320 224.895 C 253.961 223.634,250.077 209.382,249.693 207.920 C 249.566 207.436,249.344 206.606,249.199 206.076 C 249.055 205.547,248.862 204.811,248.769 204.443 C 248.209 202.208,247.930 201.511,247.563 201.437 C 247.359 201.396,239.686 201.318,230.511 201.266 C 221.337 201.213,205.683 201.098,195.725 201.010 C 185.767 200.923,170.222 200.809,161.181 200.758 L 144.742 200.664 144.398 201.044 " stroke="none" fill="#848484" fill-rule="evenodd"></path></g></svg>