<svg id="svg" version="1.1" xmlns="http://www.w3.org/2000/svg" xmlns:xlink="http://www.w3.org/1999/xlink" width="400" height="402.3408924652524" viewBox="0, 0, 400,402.3408924652524"><g id="svgg"><path id="path0" d="M188.265 46.280 C 187.481 46.359,186.010 46.507,184.996 46.608 C 158.157 49.290,132.836 58.792,111.070 74.348 C 99.146 82.871,89.633 91.882,80.452 103.353 C 77.535 106.998,76.955 107.764,74.809 110.813 C 72.762 113.721,70.106 117.832,68.324 120.850 C 64.058 128.075,62.145 131.932,57.753 142.163 C 54.868 148.884,50.978 162.136,49.462 170.411 C 49.175 171.978,48.834 173.826,48.706 174.518 C 48.386 176.241,48.141 177.925,47.957 179.670 C 47.872 180.479,47.689 182.158,47.550 183.403 C 46.897 189.279,46.857 190.200,46.857 199.246 C 46.857 208.454,46.880 208.970,47.623 215.926 C 48.357 222.810,49.452 228.976,51.151 235.792 C 53.372 244.706,57.301 256.221,60.018 261.777 C 60.198 262.146,61.134 264.070,62.097 266.052 C 67.704 277.592,69.987 280.576,75.225 283.212 C 79.711 285.469,81.714 285.560,95.977 284.153 C 105.141 283.249,107.958 281.657,109.877 276.298 L 110.394 274.853 110.478 232.020 C 110.571 184.471,110.458 189.073,111.601 186.346 C 112.971 183.077,116.096 180.372,119.870 179.186 L 121.123 178.793 134.116 178.793 L 147.108 178.793 148.449 179.181 C 152.741 180.423,156.084 183.614,157.552 187.874 L 158.005 189.187 158.049 231.259 C 158.075 256.037,158.155 273.394,158.244 273.483 C 158.335 273.573,159.299 273.390,160.631 273.029 C 161.861 272.696,164.036 272.160,165.465 271.838 C 170.660 270.667,173.515 268.391,174.979 264.255 L 175.440 262.951 175.524 210.142 L 175.608 157.334 175.984 155.993 C 177.417 150.884,181.522 147.164,186.718 146.268 C 189.147 145.848,211.847 145.979,213.412 146.422 C 218.892 147.971,222.704 152.239,223.460 157.672 C 223.582 158.550,223.638 173.763,223.638 206.131 C 223.638 236.182,223.696 253.311,223.799 253.311 C 224.068 253.311,234.567 248.789,235.343 248.339 C 237.220 247.249,239.171 244.940,240.036 242.782 L 240.486 241.660 240.575 183.236 C 240.673 118.480,240.565 124.145,241.750 121.375 C 243.375 117.573,246.279 114.947,250.210 113.724 C 251.725 113.253,276.913 113.241,278.625 113.710 C 283.511 115.050,287.297 119.403,288.005 124.494 C 288.124 125.351,288.181 140.758,288.181 172.351 C 288.181 197.977,288.228 218.944,288.286 218.944 C 288.586 218.944,298.014 211.819,301.174 209.204 C 301.819 208.669,303.479 207.309,304.862 206.181 C 307.838 203.753,312.705 199.589,313.721 198.603 C 314.116 198.219,315.679 196.764,317.194 195.371 C 320.689 192.157,325.460 187.418,328.570 184.074 C 329.898 182.645,331.567 180.856,332.278 180.099 C 338.844 173.109,343.659 166.304,344.827 162.364 C 346.722 155.973,345.787 150.947,340.351 138.307 C 339.180 135.583,335.541 128.049,335.129 127.494 C 335.060 127.402,334.512 126.383,333.910 125.231 C 332.983 123.456,331.101 120.259,329.171 117.180 C 308.459 84.131,273.915 59.360,235.792 50.220 C 235.147 50.065,234.015 49.794,233.277 49.618 C 228.644 48.511,221.785 47.399,214.501 46.574 C 211.026 46.181,191.425 45.961,188.265 46.280 M350.964 190.661 C 333.891 215.600,309.781 239.614,283.988 257.370 C 283.758 257.528,283.080 257.999,282.481 258.418 C 281.156 259.343,274.817 263.570,272.506 265.070 C 257.355 274.904,233.068 287.494,216.632 294.034 C 216.198 294.207,214.522 294.892,212.909 295.557 C 211.295 296.222,209.296 297.019,208.466 297.327 C 207.636 297.635,206.052 298.236,204.946 298.662 C 197.201 301.647,185.437 305.663,177.536 308.019 C 172.231 309.601,170.850 310.006,168.986 310.531 C 167.833 310.855,166.174 311.313,165.298 311.547 C 164.422 311.782,162.837 312.210,161.777 312.500 C 159.571 313.103,159.525 313.114,153.562 314.564 C 147.131 316.127,144.311 316.785,142.414 317.166 C 141.492 317.351,139.644 317.738,138.307 318.027 C 136.970 318.315,134.895 318.739,133.697 318.967 C 132.498 319.196,130.763 319.528,129.841 319.705 C 125.870 320.470,115.904 322.146,112.406 322.638 C 111.299 322.794,110.364 322.949,110.328 322.982 C 109.994 323.291,118.045 328.664,123.806 331.976 C 139.549 341.026,158.015 347.644,174.686 350.210 C 175.930 350.401,177.666 350.669,178.541 350.805 C 190.393 352.640,209.239 352.669,220.788 350.870 C 227.392 349.842,227.657 349.795,231.685 348.939 C 252.123 344.600,270.633 336.528,288.097 324.339 C 301.142 315.235,315.446 301.045,324.152 288.571 C 331.013 278.741,337.319 267.531,340.461 259.579 C 340.639 259.128,341.008 258.269,341.280 257.670 C 342.170 255.709,344.233 250.100,345.662 245.756 C 347.858 239.084,350.129 229.477,351.208 222.297 C 351.409 220.960,351.639 219.489,351.720 219.028 C 351.890 218.061,352.098 216.039,352.513 211.316 C 352.840 207.597,352.920 192.233,352.625 189.744 L 352.473 188.457 350.964 190.661 " stroke="none" fill="#fbfbfb" fill-rule="evenodd"></path><path id="path1" d="M190.612 5.634 C 183.896 5.826,171.752 7.248,163.453 8.813 C 151.156 11.133,137.916 14.989,127.242 19.357 C 126.182 19.791,125.018 20.257,124.656 20.393 C 122.739 21.110,113.916 25.163,111.567 26.404 C 110.922 26.745,109.979 27.233,109.472 27.489 C 108.541 27.959,103.439 30.771,101.425 31.924 C 92.595 36.978,79.264 46.453,72.684 52.352 C 72.044 52.926,70.800 54.026,69.918 54.798 C 64.537 59.510,59.026 65.019,53.558 71.151 C 43.916 81.967,35.738 93.497,28.521 106.454 C 27.321 108.610,26.784 109.649,24.312 114.605 C 22.835 117.567,21.626 120.078,21.626 120.185 C 21.626 120.293,21.518 120.548,21.386 120.752 C 21.164 121.097,19.614 124.634,19.614 124.798 C 19.614 124.839,19.395 125.349,19.126 125.931 C 18.600 127.073,17.934 128.751,16.640 132.188 C 1.737 171.791,0.132 215.828,12.104 256.580 C 14.367 264.282,19.354 277.759,21.378 281.643 C 21.498 281.873,21.849 282.624,22.156 283.311 C 23.192 285.621,27.323 293.773,28.575 295.977 C 28.837 296.438,29.392 297.418,29.807 298.156 C 32.559 303.046,37.385 310.544,41.158 315.793 C 53.144 332.465,70.034 349.199,86.656 360.871 C 89.563 362.913,91.133 363.993,91.702 364.345 C 92.024 364.544,93.094 365.236,94.079 365.882 C 95.064 366.529,96.083 367.182,96.342 367.333 C 96.602 367.485,97.758 368.189,98.910 368.899 C 100.063 369.608,101.345 370.371,101.760 370.594 C 102.175 370.818,102.628 371.076,102.766 371.169 C 104.555 372.370,115.419 377.899,119.698 379.786 C 121.127 380.416,122.712 381.119,123.219 381.350 C 123.726 381.580,124.329 381.828,124.560 381.903 C 124.790 381.977,125.922 382.427,127.075 382.904 C 128.227 383.380,129.661 383.947,130.260 384.164 C 130.859 384.381,132.293 384.905,133.445 385.328 C 146.309 390.050,164.549 394.373,176.278 395.481 C 177.293 395.577,179.065 395.763,180.218 395.896 C 186.597 396.629,188.395 396.704,199.665 396.711 C 211.329 396.717,211.890 396.692,220.536 395.793 C 238.835 393.889,256.778 389.398,273.596 382.513 C 279.519 380.088,281.819 379.043,287.650 376.125 C 299.398 370.246,315.466 359.942,322.347 353.875 C 322.596 353.655,324.048 352.446,325.574 351.187 C 327.100 349.929,329.062 348.240,329.933 347.433 C 335.740 342.059,338.673 339.211,341.454 336.242 C 346.894 330.434,347.267 330.022,349.383 327.469 C 350.519 326.099,351.948 324.376,352.559 323.638 C 354.089 321.793,357.283 317.608,358.381 316.010 C 358.539 315.780,359.054 315.063,359.524 314.417 C 360.613 312.921,364.292 307.487,364.292 307.374 C 364.292 307.297,365.200 305.889,365.985 304.749 C 366.854 303.488,370.469 297.266,371.715 294.887 C 372.174 294.011,372.607 293.219,372.678 293.127 C 373.400 292.192,379.301 279.681,380.941 275.608 C 381.257 274.824,381.747 273.611,382.030 272.912 C 383.901 268.291,387.813 256.589,388.443 253.730 C 388.525 253.361,388.711 252.645,388.857 252.137 C 392.133 240.782,394.892 223.164,395.317 210.897 C 395.643 201.462,395.420 189.558,394.809 183.738 C 394.620 181.940,394.424 179.904,394.373 179.212 C 393.440 166.509,387.749 143.560,382.030 129.435 C 381.747 128.736,381.257 127.523,380.941 126.739 C 380.208 124.919,379.847 124.090,378.311 120.704 C 375.584 114.692,374.162 111.870,370.372 104.946 C 370.041 104.341,367.504 100.099,365.728 97.179 C 362.859 92.462,355.611 82.307,352.366 78.458 C 352.016 78.043,350.927 76.723,349.947 75.524 C 343.914 68.151,333.510 57.723,325.835 51.357 C 324.442 50.202,322.970 48.980,322.563 48.643 C 316.621 43.715,305.351 35.958,298.156 31.844 C 290.702 27.582,285.249 24.844,276.865 21.154 C 267.389 16.983,253.640 12.548,242.666 10.122 C 237.854 9.059,227.830 7.305,224.644 6.970 C 224.137 6.916,222.326 6.721,220.620 6.536 C 213.515 5.766,211.886 5.686,202.096 5.632 C 196.840 5.603,191.672 5.604,190.612 5.634 M213.579 46.177 C 219.497 46.765,226.782 47.901,231.852 49.025 C 232.452 49.158,233.621 49.416,234.451 49.599 C 235.281 49.782,236.563 50.093,237.301 50.290 C 238.039 50.487,239.359 50.837,240.235 51.067 C 271.088 59.175,300.903 79.120,321.095 105.160 C 324.090 109.023,328.315 115.119,330.447 118.654 C 330.851 119.325,331.512 120.419,331.915 121.085 C 332.318 121.752,332.913 122.787,333.237 123.386 C 333.560 123.986,334.314 125.368,334.911 126.458 C 336.102 128.633,339.399 135.339,340.146 137.107 C 346.497 152.139,347.234 156.201,344.868 163.145 C 342.000 171.562,322.167 192.796,302.515 208.488 C 297.337 212.623,296.552 213.233,292.469 216.299 C 289.247 218.718,288.237 219.395,288.067 219.254 C 287.885 219.103,287.845 210.810,287.841 172.276 C 287.837 144.273,287.773 124.998,287.679 124.276 C 287.105 119.859,283.933 116.019,279.423 114.281 L 278.039 113.747 264.878 113.696 C 250.114 113.639,250.803 113.590,248.198 114.875 C 244.710 116.596,242.281 119.698,241.272 123.722 C 241.022 124.715,240.990 129.963,240.910 183.152 L 240.821 241.492 240.292 242.864 C 239.124 245.894,237.051 248.002,233.909 249.354 C 225.544 252.953,223.882 253.646,223.614 253.646 C 223.311 253.646,223.303 252.317,223.303 206.215 C 223.303 173.355,223.247 158.386,223.123 157.490 C 222.399 152.284,218.664 148.190,213.328 146.754 C 211.527 146.269,187.471 146.266,185.684 146.751 C 180.387 148.188,176.717 152.317,176.029 157.616 C 175.931 158.368,175.868 178.860,175.864 210.493 C 175.859 261.340,175.854 262.163,175.529 263.435 C 174.444 267.675,171.135 270.781,166.555 271.857 C 165.541 272.095,163.258 272.659,161.483 273.111 C 159.708 273.562,158.181 273.931,158.090 273.931 C 157.982 273.931,157.910 259.360,157.881 231.894 C 157.841 193.122,157.816 189.786,157.556 188.933 C 156.109 184.170,153.372 181.179,149.113 179.706 L 147.443 179.128 134.874 179.079 C 121.399 179.027,120.872 179.053,118.877 179.864 C 115.175 181.371,112.586 184.060,111.354 187.678 L 110.897 189.019 110.812 231.852 L 110.728 274.686 110.356 275.841 C 109.017 280.006,105.805 282.984,101.844 283.731 C 100.633 283.960,91.676 284.896,86.588 285.325 C 76.809 286.151,70.774 282.735,65.576 273.430 C 55.668 255.694,49.246 235.122,47.128 214.334 C 47.024 213.319,46.846 211.584,46.731 210.478 C 46.439 207.675,46.444 191.195,46.738 188.013 C 49.101 162.387,55.749 141.541,68.364 120.201 C 71.694 114.568,77.982 105.615,81.373 101.679 C 81.771 101.216,82.872 99.933,83.819 98.826 C 93.465 87.561,105.734 76.977,118.022 69.323 C 119.174 68.605,120.570 67.733,121.123 67.386 C 125.174 64.843,133.670 60.475,138.810 58.293 C 153.933 51.872,167.789 48.230,184.241 46.350 C 189.780 45.717,207.882 45.610,213.579 46.177 M352.926 189.440 C 353.778 198.478,352.858 215.980,351.048 225.147 C 350.875 226.023,350.536 227.795,350.294 229.086 C 348.846 236.811,345.965 246.523,342.362 255.826 C 334.647 275.745,320.814 296.117,304.903 310.991 C 296.051 319.266,286.814 326.137,276.697 331.974 C 266.295 337.976,255.826 342.505,244.007 346.119 C 241.813 346.789,241.172 346.961,236.547 348.113 C 232.009 349.244,230.116 349.636,225.247 350.453 C 219.772 351.372,219.484 351.407,210.394 352.228 C 202.669 352.926,186.469 352.366,178.522 351.125 C 176.040 350.738,170.046 349.715,169.153 349.526 C 154.365 346.397,139.219 340.851,126.823 334.023 C 120.200 330.375,109.807 323.630,109.807 322.979 C 109.807 322.837,110.260 322.691,111.106 322.559 C 111.821 322.447,113.801 322.134,115.507 321.863 C 117.213 321.592,119.363 321.251,120.285 321.106 C 122.038 320.830,131.941 319.029,134.116 318.591 C 143.896 316.620,155.714 313.862,163.705 311.684 C 167.712 310.592,170.122 309.920,171.668 309.463 C 172.636 309.177,174.220 308.721,175.189 308.449 C 176.157 308.177,177.100 307.884,177.284 307.797 C 177.469 307.711,178.261 307.455,179.044 307.228 C 183.369 305.977,193.766 302.489,199.581 300.339 C 200.503 299.998,201.559 299.620,201.928 299.499 C 202.297 299.379,203.504 298.926,204.610 298.494 C 205.717 298.062,208.055 297.153,209.807 296.475 C 212.806 295.315,215.674 294.131,220.956 291.872 C 242.925 282.475,264.380 270.672,282.631 257.943 C 284.236 256.825,285.971 255.614,286.487 255.253 C 290.236 252.633,297.987 246.652,302.357 243.007 C 307.550 238.676,310.270 236.293,314.818 232.088 C 316.545 230.492,326.496 220.502,328.431 218.422 C 332.397 214.159,337.442 208.237,341.412 203.185 C 344.943 198.693,349.681 192.161,351.844 188.806 C 352.517 187.761,352.783 187.917,352.926 189.440 " stroke="none" fill="#040404" fill-rule="evenodd"></path><path id="path2" d="M195.935 45.893 C 198.078 45.919,201.586 45.919,203.730 45.893 C 205.874 45.866,204.120 45.844,199.832 45.844 C 195.545 45.844,193.791 45.866,195.935 45.893 M188.307 46.055 C 188.560 46.093,188.975 46.093,189.229 46.055 C 189.482 46.016,189.275 45.985,188.768 45.985 C 188.261 45.985,188.053 46.016,188.307 46.055 M210.268 46.055 C 210.522 46.093,210.937 46.093,211.190 46.055 C 211.444 46.016,211.236 45.985,210.729 45.985 C 210.222 45.985,210.015 46.016,210.268 46.055 M186.211 46.224 C 186.511 46.261,187.001 46.261,187.301 46.224 C 187.601 46.186,187.355 46.156,186.756 46.156 C 186.157 46.156,185.912 46.186,186.211 46.224 M212.280 46.222 C 212.534 46.261,212.948 46.261,213.202 46.222 C 213.456 46.184,213.248 46.153,212.741 46.153 C 212.234 46.153,212.026 46.184,212.280 46.222 M183.487 46.438 C 182.687 46.547,182.679 46.553,183.319 46.564 C 183.688 46.571,184.367 46.517,184.828 46.445 C 185.959 46.269,184.765 46.262,183.487 46.438 M214.126 46.390 C 214.381 46.429,214.758 46.428,214.965 46.388 C 215.171 46.348,214.962 46.317,214.501 46.318 C 214.040 46.319,213.872 46.352,214.126 46.390 M215.717 46.556 C 215.924 46.596,216.264 46.596,216.471 46.556 C 216.679 46.516,216.509 46.483,216.094 46.483 C 215.679 46.483,215.509 46.516,215.717 46.556 M180.805 46.773 C 180.240 46.874,180.214 46.895,180.637 46.904 C 180.914 46.911,181.479 46.855,181.894 46.781 C 182.571 46.661,182.588 46.647,182.062 46.650 C 181.739 46.652,181.174 46.707,180.805 46.773 M217.227 46.724 C 217.436 46.764,217.738 46.762,217.898 46.720 C 218.058 46.678,217.888 46.646,217.519 46.647 C 217.150 46.649,217.019 46.684,217.227 46.724 M218.483 46.888 C 218.644 46.931,218.908 46.931,219.070 46.888 C 219.231 46.846,219.099 46.812,218.776 46.812 C 218.453 46.812,218.321 46.846,218.483 46.888 M178.458 47.108 C 177.887 47.210,177.862 47.230,178.290 47.242 C 178.567 47.250,179.095 47.194,179.464 47.118 C 180.341 46.936,179.464 46.928,178.458 47.108 M219.656 47.056 C 219.818 47.098,220.082 47.098,220.243 47.056 C 220.404 47.014,220.272 46.979,219.950 46.979 C 219.627 46.979,219.495 47.014,219.656 47.056 M220.830 47.224 C 220.991 47.266,221.255 47.266,221.417 47.224 C 221.578 47.182,221.446 47.147,221.123 47.147 C 220.801 47.147,220.668 47.182,220.830 47.224 M171.668 48.198 C 171.161 48.315,170.935 48.413,171.165 48.414 C 171.396 48.416,171.961 48.320,172.422 48.202 C 173.511 47.922,172.872 47.919,171.668 48.198 M228.835 48.527 C 230.128 48.832,231.114 48.998,231.010 48.894 C 230.899 48.781,228.500 48.277,228.164 48.296 C 228.026 48.303,228.328 48.407,228.835 48.527 M235.052 49.850 C 235.090 49.883,235.386 49.958,235.708 50.018 C 236.121 50.093,236.221 50.076,236.044 49.960 C 235.816 49.811,234.885 49.708,235.052 49.850 M161.861 50.382 C 161.492 50.503,161.303 50.608,161.442 50.613 C 161.580 50.619,162.033 50.517,162.448 50.386 C 162.863 50.255,163.051 50.151,162.867 50.155 C 162.682 50.158,162.230 50.260,161.861 50.382 M237.972 50.629 C 238.156 50.708,238.458 50.771,238.642 50.768 C 238.912 50.764,238.895 50.737,238.558 50.629 C 237.985 50.445,237.544 50.445,237.972 50.629 M160.017 50.886 C 159.356 51.115,159.354 51.117,159.933 51.019 C 160.617 50.904,161.316 50.649,160.939 50.652 C 160.801 50.653,160.386 50.759,160.017 50.886 M239.313 50.964 C 239.497 51.043,239.761 51.108,239.899 51.108 C 240.058 51.108,240.027 51.055,239.816 50.964 C 239.631 50.885,239.367 50.820,239.229 50.820 C 239.070 50.820,239.101 50.873,239.313 50.964 M240.570 51.299 C 241.143 51.483,241.584 51.483,241.157 51.299 C 240.972 51.220,240.671 51.157,240.486 51.160 C 240.217 51.164,240.233 51.191,240.570 51.299 M157.837 51.467 C 157.626 51.558,157.595 51.611,157.754 51.611 C 157.892 51.611,158.156 51.546,158.340 51.467 C 158.552 51.376,158.583 51.323,158.424 51.323 C 158.286 51.323,158.022 51.388,157.837 51.467 M241.590 51.537 C 241.714 51.660,245.665 52.799,245.733 52.730 C 245.769 52.694,245.245 52.504,244.568 52.308 C 243.890 52.112,243.002 51.842,242.594 51.709 C 241.862 51.470,241.453 51.400,241.590 51.537 M247.765 53.490 C 248.265 53.668,248.703 53.784,248.738 53.748 C 248.817 53.670,247.290 53.138,247.036 53.156 C 246.938 53.162,247.266 53.313,247.765 53.490 M149.707 54.065 C 149.384 54.190,149.233 54.294,149.371 54.297 C 149.510 54.299,149.849 54.198,150.126 54.071 C 150.773 53.775,150.472 53.771,149.707 54.065 M251.635 54.791 C 251.773 54.877,252.075 54.997,252.305 55.059 C 252.596 55.137,252.648 55.124,252.473 55.016 C 252.334 54.930,252.033 54.810,251.802 54.748 C 251.511 54.670,251.460 54.684,251.635 54.791 M252.814 55.204 C 252.947 55.356,256.031 56.514,256.105 56.440 C 256.141 56.405,255.507 56.128,254.698 55.825 C 252.800 55.113,252.707 55.082,252.814 55.204 M145.096 55.748 C 144.677 55.950,144.663 55.973,145.013 55.888 C 145.488 55.771,146.022 55.499,145.767 55.503 C 145.675 55.504,145.373 55.614,145.096 55.748 M141.118 57.299 C 140.129 57.722,139.347 58.095,139.381 58.129 C 139.415 58.163,140.338 57.813,141.431 57.351 C 142.525 56.889,143.307 56.516,143.168 56.521 C 143.030 56.527,142.108 56.877,141.118 57.299 M258.676 57.586 C 258.906 57.718,259.170 57.826,259.262 57.826 C 259.355 57.826,259.241 57.718,259.011 57.586 C 258.780 57.454,258.516 57.346,258.424 57.346 C 258.332 57.346,258.445 57.454,258.676 57.586 M259.528 57.897 C 259.705 58.049,263.098 59.506,263.151 59.453 C 263.217 59.387,259.805 57.837,259.592 57.837 C 259.518 57.837,259.489 57.864,259.528 57.897 M138.307 58.508 C 137.984 58.685,137.795 58.829,137.888 58.829 C 137.980 58.829,138.319 58.685,138.642 58.508 C 138.965 58.331,139.153 58.187,139.061 58.187 C 138.969 58.187,138.630 58.331,138.307 58.508 M136.505 59.273 C 136.021 59.494,135.624 59.713,135.624 59.760 C 135.624 59.845,137.467 59.069,137.614 58.921 C 137.785 58.750,137.341 58.891,136.505 59.273 M266.806 61.256 C 269.812 62.729,272.981 64.406,276.111 66.182 C 276.526 66.417,276.790 66.528,276.697 66.427 C 276.198 65.883,263.922 59.493,263.432 59.523 C 263.352 59.527,264.870 60.308,266.806 61.256 M134.451 60.268 C 134.036 60.490,133.772 60.672,133.864 60.672 C 133.956 60.672,134.371 60.490,134.786 60.268 C 135.201 60.046,135.465 59.864,135.373 59.864 C 135.281 59.864,134.866 60.046,134.451 60.268 M131.727 61.537 C 131.381 61.720,131.098 61.906,131.098 61.952 C 131.098 62.027,132.422 61.408,132.593 61.253 C 132.786 61.079,132.282 61.244,131.727 61.537 M129.547 62.627 C 128.897 62.980,128.971 63.102,129.631 62.766 C 130.263 62.444,130.375 62.361,130.162 62.371 C 130.078 62.374,129.801 62.490,129.547 62.627 M127.703 63.632 C 127.081 63.951,126.572 64.250,126.572 64.296 C 126.572 64.342,127.100 64.114,127.745 63.789 C 128.391 63.464,128.919 63.161,128.919 63.116 C 128.919 63.004,128.966 62.984,127.703 63.632 M123.889 65.777 C 121.215 67.317,119.543 68.326,119.383 68.498 C 119.203 68.691,120.423 68.037,121.123 67.565 C 121.492 67.317,122.831 66.526,124.099 65.809 C 126.077 64.690,126.578 64.373,126.362 64.376 C 126.339 64.377,125.226 65.007,123.889 65.777 M278.374 67.480 C 278.558 67.630,278.860 67.827,279.044 67.918 L 279.380 68.082 279.044 67.809 C 278.860 67.659,278.558 67.462,278.374 67.372 L 278.039 67.207 278.374 67.480 M279.465 68.112 C 279.512 68.164,280.845 69.032,282.427 70.041 C 286.628 72.720,292.061 76.615,295.935 79.723 C 296.465 80.148,296.899 80.459,296.899 80.414 C 296.899 80.209,291.457 76.050,287.930 73.560 C 284.741 71.309,279.031 67.634,279.465 68.112 M117.561 69.592 C 116.989 69.958,116.804 70.203,117.309 69.926 C 117.694 69.715,118.297 69.249,118.189 69.245 C 118.143 69.244,117.860 69.400,117.561 69.592 M116.220 70.430 C 115.648 70.796,115.463 71.042,115.968 70.764 C 116.353 70.553,116.955 70.087,116.848 70.084 C 116.802 70.082,116.519 70.238,116.220 70.430 M114.305 71.716 C 113.227 72.478,112.629 72.974,113.160 72.665 C 113.668 72.371,115.507 71.053,115.507 70.985 C 115.507 70.870,115.474 70.890,114.305 71.716 M111.316 73.781 C 110.000 74.742,109.862 74.958,111.115 74.095 C 112.014 73.476,112.492 73.071,112.290 73.101 C 112.261 73.105,111.823 73.411,111.316 73.781 M109.220 75.286 C 108.226 76.038,108.092 76.250,109.025 75.596 C 109.729 75.102,110.113 74.759,109.943 74.774 C 109.914 74.777,109.589 75.007,109.220 75.286 M105.431 78.168 C 100.770 81.820,93.428 88.388,90.193 91.800 C 89.686 92.335,90.591 91.501,92.205 89.946 C 96.849 85.472,101.865 81.098,106.329 77.630 C 107.908 76.402,108.260 76.100,108.089 76.114 C 108.066 76.116,106.870 77.040,105.431 78.168 M297.497 80.912 C 298.737 82.067,303.604 86.341,303.604 86.274 C 303.604 86.155,299.266 82.257,298.072 81.303 C 297.473 80.824,297.214 80.648,297.497 80.912 M306.550 89.127 C 308.123 90.681,310.462 93.048,311.747 94.386 C 313.031 95.725,313.811 96.517,313.479 96.147 C 311.610 94.062,308.082 90.444,306.035 88.514 C 303.892 86.494,303.937 86.547,306.550 89.127 M88.093 94.091 L 86.924 95.306 88.139 94.137 C 89.268 93.051,89.431 92.875,89.308 92.875 C 89.283 92.875,88.736 93.422,88.093 94.091 M86.147 96.186 C 85.727 96.624,84.643 97.850,83.738 98.910 C 82.834 99.971,81.771 101.215,81.377 101.676 C 80.326 102.907,79.256 104.275,79.345 104.275 C 79.387 104.275,80.314 103.200,81.404 101.886 C 83.776 99.027,85.298 97.263,86.322 96.186 C 86.738 95.748,87.041 95.390,86.995 95.390 C 86.949 95.390,86.567 95.748,86.147 96.186 M315.347 98.385 C 317.274 100.547,319.157 102.854,321.566 106.005 C 323.751 108.862,324.242 109.468,323.968 108.969 C 323.308 107.769,315.957 98.690,314.737 97.569 C 314.386 97.246,314.660 97.613,315.347 98.385 M76.989 107.334 C 74.046 111.295,71.948 114.334,72.158 114.334 C 72.202 114.334,72.581 113.804,73.000 113.157 C 73.637 112.172,77.253 107.157,78.467 105.574 C 78.662 105.321,78.780 105.113,78.731 105.113 C 78.681 105.113,77.897 106.113,76.989 107.334 M325.413 111.190 C 325.713 111.628,325.986 111.987,326.019 111.987 C 326.133 111.987,325.753 111.403,325.309 110.897 C 324.976 110.516,325.001 110.588,325.413 111.190 M326.186 112.366 C 326.971 113.602,328.277 115.507,328.340 115.507 C 328.384 115.507,328.220 115.187,327.975 114.795 C 327.336 113.772,326.200 112.154,326.120 112.154 C 326.083 112.154,326.112 112.249,326.186 112.366 M258.035 113.621 C 261.508 113.646,267.242 113.646,270.776 113.621 C 274.309 113.596,271.467 113.575,264.459 113.575 C 257.452 113.575,254.561 113.596,258.035 113.621 M279.290 114.250 C 279.886 114.472,280.400 114.626,280.433 114.593 C 280.512 114.515,278.670 113.828,278.409 113.839 C 278.298 113.844,278.694 114.029,279.290 114.250 M248.617 114.501 C 248.294 114.678,248.106 114.822,248.198 114.822 C 248.290 114.822,248.630 114.678,248.952 114.501 C 249.275 114.325,249.464 114.180,249.371 114.180 C 249.279 114.180,248.940 114.325,248.617 114.501 M70.871 116.136 C 69.633 118.015,68.833 119.363,68.954 119.363 C 69.000 119.363,69.247 119.005,69.502 118.567 C 69.757 118.129,70.387 117.132,70.901 116.351 C 72.103 114.526,72.118 114.501,72.025 114.501 C 71.982 114.501,71.463 115.237,70.871 116.136 M247.402 115.100 C 246.775 115.440,246.813 115.582,247.443 115.256 C 247.720 115.113,247.946 114.960,247.946 114.916 C 247.946 114.808,247.928 114.814,247.402 115.100 M281.308 115.052 C 281.308 115.090,281.699 115.365,282.176 115.662 C 282.654 115.959,282.960 116.100,282.857 115.975 C 282.659 115.736,281.308 114.932,281.308 115.052 M245.729 116.303 C 244.416 117.400,242.414 119.822,242.414 120.313 C 242.414 120.388,242.747 119.960,243.153 119.361 C 243.979 118.146,244.974 117.057,246.102 116.132 C 246.517 115.792,246.818 115.512,246.770 115.510 C 246.722 115.509,246.254 115.865,245.729 116.303 M284.074 117.184 C 284.621 117.737,285.107 118.189,285.153 118.189 C 285.199 118.189,284.789 117.737,284.241 117.184 C 283.694 116.630,283.208 116.178,283.162 116.178 C 283.116 116.178,283.526 116.630,284.074 117.184 M330.365 118.818 C 330.616 119.256,330.892 119.709,330.980 119.824 C 331.068 119.939,331.619 120.845,332.205 121.836 C 332.792 122.827,333.269 123.562,333.267 123.470 C 333.264 123.378,332.779 122.510,332.189 121.542 C 331.599 120.574,330.885 119.386,330.603 118.902 C 330.320 118.418,330.049 118.022,330.000 118.022 C 329.951 118.022,330.115 118.380,330.365 118.818 M285.576 118.986 C 285.835 119.378,286.078 119.698,286.117 119.698 C 286.238 119.698,285.596 118.678,285.345 118.470 C 285.214 118.362,285.318 118.594,285.576 118.986 M68.439 120.075 C 67.736 121.260,67.378 121.956,67.677 121.555 C 68.078 121.017,68.929 119.531,68.835 119.531 C 68.795 119.531,68.616 119.776,68.439 120.075 M286.454 120.451 C 286.607 120.772,286.762 121.005,286.798 120.969 C 286.875 120.892,286.366 119.866,286.252 119.866 C 286.209 119.866,286.300 120.129,286.454 120.451 M67.041 122.422 C 66.933 122.630,66.653 123.139,66.420 123.554 C 66.187 123.969,66.076 124.233,66.174 124.141 C 66.417 123.910,67.447 122.045,67.331 122.045 C 67.280 122.045,67.149 122.215,67.041 122.422 M241.338 122.889 C 241.195 123.372,241.040 124.266,240.994 124.876 C 240.913 125.949,240.918 125.938,241.147 124.560 C 241.277 123.776,241.467 122.917,241.568 122.651 C 241.670 122.384,241.718 122.132,241.676 122.089 C 241.633 122.047,241.481 122.407,241.338 122.889 M287.720 124.476 C 287.722 124.845,287.757 124.976,287.797 124.768 C 287.837 124.559,287.835 124.257,287.793 124.097 C 287.751 123.937,287.719 124.107,287.720 124.476 M64.399 127.200 C 62.936 129.912,60.510 134.856,60.528 135.091 C 60.533 135.154,61.320 133.621,62.277 131.685 C 63.233 129.749,64.480 127.316,65.046 126.278 C 65.612 125.241,66.039 124.392,65.995 124.392 C 65.950 124.392,65.232 125.656,64.399 127.200 M287.887 172.109 C 287.842 223.454,287.774 219.958,288.793 219.019 L 289.271 218.578 288.725 218.940 C 288.308 219.217,288.160 219.251,288.096 219.081 C 288.050 218.960,287.993 197.775,287.970 172.003 L 287.929 125.147 287.887 172.109 M240.820 183.487 C 240.820 215.113,240.840 228.076,240.863 212.294 C 240.887 196.511,240.887 170.635,240.863 154.791 C 240.840 138.948,240.820 151.861,240.820 183.487 M335.373 127.578 C 335.516 127.854,335.671 128.080,335.717 128.080 C 335.763 128.080,335.684 127.854,335.541 127.578 C 335.398 127.301,335.243 127.075,335.197 127.075 C 335.151 127.075,335.230 127.301,335.373 127.578 M337.133 130.991 C 337.133 131.173,338.134 133.110,338.228 133.110 C 338.274 133.110,338.075 132.638,337.786 132.062 C 337.239 130.970,337.133 130.797,337.133 130.991 M59.534 137.237 C 59.059 138.315,58.698 139.223,58.731 139.256 C 58.763 139.289,59.178 138.433,59.652 137.355 C 60.126 136.277,60.487 135.368,60.455 135.336 C 60.422 135.304,60.008 136.159,59.534 137.237 M339.327 135.541 C 339.327 135.633,339.471 135.972,339.648 136.295 C 339.825 136.618,339.969 136.806,339.969 136.714 C 339.969 136.622,339.825 136.282,339.648 135.960 C 339.471 135.637,339.327 135.448,339.327 135.541 M340.498 138.223 C 340.498 138.315,340.606 138.579,340.738 138.810 C 340.869 139.040,340.977 139.153,340.977 139.061 C 340.977 138.969,340.869 138.705,340.738 138.474 C 340.606 138.244,340.498 138.131,340.498 138.223 M341.001 139.396 C 341.001 139.489,341.109 139.753,341.241 139.983 C 341.372 140.214,341.480 140.327,341.480 140.235 C 341.480 140.142,341.372 139.878,341.241 139.648 C 341.109 139.417,341.001 139.304,341.001 139.396 M58.368 139.907 C 58.087 140.523,58.140 140.655,58.444 140.094 C 58.586 139.832,58.670 139.587,58.632 139.549 C 58.594 139.510,58.475 139.671,58.368 139.907 M341.827 141.379 C 341.827 141.589,342.707 143.685,342.770 143.623 C 342.804 143.588,342.637 143.076,342.397 142.484 C 341.973 141.436,341.827 141.154,341.827 141.379 M56.599 144.278 C 56.451 144.713,56.359 145.098,56.394 145.134 C 56.430 145.169,56.580 144.842,56.728 144.406 C 56.877 143.971,56.969 143.586,56.934 143.550 C 56.898 143.515,56.748 143.842,56.599 144.278 M55.672 146.787 C 55.382 147.588,55.174 148.272,55.209 148.307 C 55.244 148.342,55.509 147.715,55.798 146.913 C 56.087 146.110,56.295 145.426,56.261 145.392 C 56.227 145.358,55.962 145.986,55.672 146.787 M187.091 146.334 C 186.541 146.431,206.067 146.406,209.891 146.304 C 210.859 146.278,206.257 146.251,199.665 146.244 C 193.072 146.236,187.414 146.277,187.091 146.334 M213.719 146.860 C 217.930 148.103,220.981 150.903,222.480 154.904 C 222.739 155.595,222.955 156.069,222.959 155.958 C 223.087 152.774,216.269 146.373,212.923 146.534 C 212.777 146.541,213.135 146.688,213.719 146.860 M343.945 146.857 C 344.002 147.087,344.151 147.502,344.277 147.779 C 344.461 148.183,344.486 148.199,344.403 147.863 C 344.347 147.632,344.197 147.217,344.072 146.940 C 343.888 146.537,343.863 146.520,343.945 146.857 M182.522 147.848 C 181.852 148.278,181.728 148.452,182.313 148.141 C 183.016 147.769,183.349 147.531,183.152 147.542 C 183.060 147.547,182.776 147.685,182.522 147.848 M180.778 149.011 C 179.472 150.049,177.368 152.505,177.368 152.990 C 177.368 153.057,177.735 152.591,178.184 151.954 C 178.972 150.836,180.264 149.508,181.308 148.744 C 181.584 148.542,181.761 148.374,181.700 148.371 C 181.639 148.368,181.224 148.656,180.778 149.011 M53.893 151.948 C 53.372 153.569,52.984 154.991,53.031 155.109 C 53.089 155.253,53.121 155.235,53.130 155.056 C 53.137 154.909,53.554 153.515,54.056 151.959 C 54.559 150.403,54.941 149.101,54.905 149.066 C 54.870 149.030,54.414 150.327,53.893 151.948 M345.036 150.042 C 345.036 150.180,345.101 150.444,345.180 150.629 C 345.271 150.840,345.324 150.871,345.324 150.712 C 345.324 150.574,345.259 150.310,345.180 150.126 C 345.089 149.914,345.036 149.883,345.036 150.042 M345.375 151.299 C 345.372 151.484,345.470 152.125,345.593 152.724 C 345.717 153.324,345.822 153.625,345.827 153.395 C 345.832 153.164,345.734 152.523,345.609 151.970 C 345.484 151.417,345.379 151.115,345.375 151.299 M176.941 153.746 C 176.793 154.031,176.702 154.294,176.739 154.330 C 176.775 154.367,176.930 154.133,177.084 153.812 C 177.429 153.089,177.309 153.034,176.941 153.746 M345.917 156.161 C 345.917 157.452,345.944 157.958,345.975 157.285 C 346.007 156.613,346.007 155.557,345.975 154.938 C 345.943 154.320,345.917 154.870,345.917 156.161 M176.377 155.254 C 176.264 155.633,176.202 155.973,176.240 156.011 C 176.278 156.048,176.401 155.770,176.515 155.391 C 176.628 155.013,176.690 154.672,176.652 154.635 C 176.614 154.597,176.491 154.876,176.377 155.254 M52.476 156.606 C 52.280 157.283,52.048 158.056,51.961 158.323 C 51.874 158.591,51.807 158.930,51.814 159.078 C 51.820 159.225,52.079 158.480,52.390 157.422 C 52.701 156.363,52.927 155.470,52.893 155.436 C 52.859 155.402,52.672 155.929,52.476 156.606 M175.905 157.754 C 175.905 158.168,175.938 158.338,175.977 158.131 C 176.017 157.923,176.017 157.584,175.977 157.376 C 175.938 157.169,175.905 157.339,175.905 157.754 M223.177 157.670 C 223.179 158.039,223.213 158.170,223.254 157.961 C 223.294 157.753,223.292 157.451,223.250 157.291 C 223.208 157.130,223.175 157.301,223.177 157.670 M223.344 205.993 L 223.303 253.646 223.680 253.644 C 223.887 253.642,224.170 253.567,224.308 253.476 C 224.487 253.359,224.403 253.342,224.015 253.416 L 223.471 253.520 223.428 205.930 L 223.386 158.340 223.344 205.993 M175.774 210.478 C 175.774 239.061,175.794 250.729,175.817 236.407 C 175.841 222.085,175.841 198.699,175.817 184.437 C 175.794 170.176,175.774 181.894,175.774 210.478 M345.619 159.533 C 345.557 160.056,345.540 160.517,345.581 160.558 C 345.622 160.598,345.709 160.207,345.773 159.688 C 345.838 159.169,345.855 158.708,345.811 158.664 C 345.767 158.619,345.680 159.011,345.619 159.533 M345.285 161.295 C 345.145 161.994,345.281 162.129,345.432 161.442 C 345.495 161.152,345.512 160.880,345.470 160.837 C 345.427 160.794,345.344 161.001,345.285 161.295 M50.733 163.055 C 50.481 164.124,50.306 165.030,50.343 165.068 C 50.381 165.106,50.619 164.262,50.871 163.193 C 51.124 162.124,51.299 161.218,51.261 161.180 C 51.222 161.141,50.985 161.985,50.733 163.055 M344.121 164.719 C 343.727 165.544,343.782 165.685,344.194 164.905 C 344.381 164.550,344.504 164.230,344.468 164.194 C 344.432 164.158,344.275 164.394,344.121 164.719 M342.936 167.035 C 342.301 168.171,340.225 170.947,338.156 173.428 C 332.044 180.757,330.805 182.143,325.559 187.510 C 322.184 190.964,317.604 195.357,314.376 198.237 C 313.062 199.409,311.987 200.408,311.987 200.456 C 311.987 200.626,316.916 196.137,321.092 192.166 C 329.687 183.991,345.184 165.968,343.618 165.968 C 343.571 165.968,343.264 166.448,342.936 167.035 M49.213 170.085 C 49.150 170.421,49.132 170.730,49.173 170.771 C 49.214 170.812,49.299 170.570,49.362 170.234 C 49.425 169.897,49.443 169.589,49.402 169.548 C 49.361 169.507,49.276 169.748,49.213 170.085 M48.626 173.102 C 48.513 173.804,48.454 174.411,48.495 174.452 C 48.536 174.493,48.662 173.953,48.775 173.251 C 48.888 172.550,48.947 171.943,48.906 171.902 C 48.865 171.861,48.739 172.401,48.626 173.102 M123.554 178.995 C 127.641 179.104,147.525 179.118,146.925 179.012 C 146.565 178.948,140.763 178.908,134.032 178.922 C 127.301 178.936,122.586 178.969,123.554 178.995 M120.914 179.160 C 121.075 179.202,121.339 179.202,121.500 179.160 C 121.662 179.118,121.530 179.083,121.207 179.083 C 120.884 179.083,120.752 179.118,120.914 179.160 M47.657 180.050 C 47.657 180.465,47.689 180.635,47.729 180.427 C 47.769 180.220,47.769 179.881,47.729 179.673 C 47.689 179.466,47.657 179.635,47.657 180.050 M118.666 179.778 C 117.651 180.195,116.472 180.855,115.926 181.311 C 115.742 181.465,115.855 181.428,116.178 181.228 C 116.708 180.900,118.455 180.042,119.531 179.582 C 119.761 179.483,119.874 179.399,119.782 179.395 C 119.690 179.391,119.188 179.563,118.666 179.778 M148.868 179.631 C 149.634 179.926,149.935 179.922,149.288 179.625 C 149.011 179.498,148.671 179.397,148.533 179.400 C 148.395 179.403,148.546 179.507,148.868 179.631 M47.388 181.626 C 47.326 182.076,47.286 182.716,47.298 183.049 C 47.309 183.382,47.385 183.089,47.465 182.397 C 47.628 180.992,47.563 180.346,47.388 181.626 M151.970 181.001 C 152.343 181.363,154.401 182.923,154.401 182.845 C 154.401 182.749,152.433 181.181,152.054 180.976 C 151.890 180.887,151.861 180.896,151.970 181.001 M114.329 182.691 L 113.244 183.822 114.376 182.737 C 115.427 181.730,115.584 181.559,115.460 181.559 C 115.435 181.559,114.925 182.068,114.329 182.691 M154.844 183.561 C 156.000 184.938,156.966 186.859,157.505 188.852 C 157.629 189.313,157.736 189.526,157.743 189.325 C 157.776 188.215,156.214 184.955,155.071 183.750 C 154.749 183.410,154.646 183.325,154.844 183.561 M47.053 184.697 C 46.904 186.140,46.762 188.877,46.846 188.684 C 46.952 188.442,47.301 183.876,47.220 183.795 C 47.183 183.758,47.108 184.164,47.053 184.697 M351.991 188.637 L 351.683 189.187 352.105 188.684 C 352.671 188.009,352.669 188.003,352.850 190.780 C 352.948 192.275,353.010 192.727,353.012 191.953 C 353.022 188.517,352.680 187.408,351.991 188.637 M46.547 191.223 C 46.487 192.484,46.451 196.464,46.468 200.068 L 46.498 206.622 46.608 197.821 C 46.669 192.980,46.705 189.000,46.688 188.976 C 46.671 188.951,46.608 189.963,46.547 191.223 M351.354 189.564 C 350.943 190.049,348.972 193.063,349.244 192.791 C 349.512 192.523,351.737 189.271,351.653 189.271 C 351.625 189.271,351.491 189.403,351.354 189.564 M110.728 232.104 C 110.728 255.247,110.747 264.690,110.771 253.088 C 110.795 241.486,110.795 222.550,110.771 211.009 C 110.747 199.468,110.728 208.961,110.728 232.104 M348.533 193.630 C 348.336 193.906,348.213 194.132,348.259 194.132 C 348.305 194.132,348.504 193.906,348.701 193.630 C 348.898 193.353,349.021 193.127,348.975 193.127 C 348.929 193.127,348.730 193.353,348.533 193.630 M353.136 199.832 C 353.136 203.474,353.158 204.964,353.185 203.143 C 353.212 201.322,353.212 198.342,353.185 196.521 C 353.158 194.700,353.136 196.190,353.136 199.832 M346.085 197.019 C 345.172 198.238,344.212 199.520,343.950 199.869 C 343.689 200.218,343.509 200.503,343.550 200.503 C 343.627 200.503,346.087 197.303,347.256 195.683 C 348.538 193.907,347.694 194.869,346.085 197.019 M307.170 204.416 C 302.141 208.693,301.531 209.221,301.917 208.958 C 302.821 208.344,311.819 200.731,311.819 200.580 C 311.819 200.459,311.967 200.337,307.170 204.416 M341.176 203.479 C 340.250 204.654,338.882 206.352,338.136 207.251 C 337.391 208.150,336.814 208.885,336.854 208.885 C 336.958 208.885,339.842 205.422,341.321 203.521 C 342.002 202.645,342.671 201.796,342.806 201.635 C 342.942 201.473,343.010 201.341,342.957 201.341 C 342.904 201.341,342.103 202.303,341.176 203.479 M352.850 208.466 C 352.585 212.728,352.580 213.088,352.816 210.897 C 352.950 209.652,353.041 208.143,353.018 207.544 C 352.985 206.690,352.949 206.889,352.850 208.466 M46.623 208.061 C 46.633 208.837,46.699 209.925,46.770 210.478 C 46.848 211.094,46.864 210.573,46.812 209.137 C 46.718 206.545,46.595 205.843,46.623 208.061 M334.850 211.188 C 332.267 214.212,330.483 216.224,328.434 218.421 C 325.842 221.200,316.243 230.815,315.214 231.662 C 314.731 232.060,314.170 232.624,313.969 232.915 C 313.443 233.677,321.011 226.415,323.621 223.655 C 324.091 223.157,325.155 222.063,325.985 221.223 C 327.815 219.372,331.288 215.528,334.103 212.238 C 335.248 210.901,336.335 209.637,336.520 209.430 C 336.705 209.223,336.815 209.053,336.765 209.053 C 336.715 209.053,335.853 210.014,334.850 211.188 M298.491 211.508 C 297.385 212.389,295.329 213.980,293.923 215.045 C 292.517 216.109,291.366 217.016,291.366 217.060 C 291.366 217.104,291.611 216.956,291.911 216.731 C 297.339 212.661,300.913 209.833,300.545 209.898 C 300.522 209.903,299.598 210.627,298.491 211.508 M46.953 212.420 C 46.960 212.919,47.028 213.667,47.104 214.082 C 47.199 214.599,47.215 214.336,47.153 213.244 C 47.053 211.489,46.933 210.994,46.953 212.420 M352.437 213.998 C 352.438 214.459,352.471 214.628,352.509 214.373 C 352.548 214.118,352.547 213.741,352.507 213.535 C 352.467 213.329,352.436 213.537,352.437 213.998 M47.326 215.759 C 47.326 216.266,47.357 216.473,47.396 216.220 C 47.434 215.966,47.434 215.551,47.396 215.298 C 47.357 215.044,47.326 215.251,47.326 215.759 M47.482 217.267 C 47.482 217.590,47.517 217.722,47.559 217.561 C 47.601 217.399,47.601 217.135,47.559 216.974 C 47.517 216.813,47.482 216.945,47.482 217.267 M290.360 217.707 C 289.285 218.548,289.130 218.761,290.075 218.098 C 290.779 217.604,291.360 217.083,291.177 217.108 C 291.143 217.113,290.775 217.383,290.360 217.707 M352.096 217.687 C 352.098 218.055,352.132 218.186,352.172 217.978 C 352.212 217.769,352.211 217.468,352.169 217.307 C 352.127 217.147,352.094 217.318,352.096 217.687 M47.653 218.525 C 47.655 218.894,47.690 219.025,47.730 218.816 C 47.770 218.608,47.768 218.306,47.726 218.146 C 47.684 217.985,47.651 218.156,47.653 218.525 M351.761 220.034 C 351.762 220.402,351.797 220.533,351.837 220.325 C 351.877 220.116,351.876 219.815,351.834 219.654 C 351.792 219.494,351.759 219.665,351.761 220.034 M351.302 222.719 C 351.141 223.787,351.043 224.695,351.084 224.736 C 351.125 224.777,351.291 223.937,351.451 222.868 C 351.612 221.799,351.710 220.892,351.670 220.851 C 351.629 220.810,351.464 221.651,351.302 222.719 M48.724 225.785 C 48.776 226.274,48.884 226.878,48.963 227.126 C 49.149 227.707,48.995 226.335,48.778 225.479 C 48.658 225.007,48.648 225.065,48.724 225.785 M349.718 231.193 C 349.607 231.758,349.548 232.253,349.588 232.293 C 349.628 232.333,349.752 231.903,349.863 231.338 C 349.974 230.773,350.033 230.278,349.993 230.238 C 349.953 230.198,349.829 230.628,349.718 231.193 M312.238 234.476 C 311.593 235.081,309.518 236.900,307.628 238.519 C 305.738 240.137,304.003 241.655,303.772 241.891 L 303.353 242.321 303.772 241.977 C 306.921 239.397,313.728 233.377,313.495 233.377 C 313.449 233.377,312.883 233.872,312.238 234.476 M50.657 235.038 C 50.666 235.473,50.930 236.189,50.935 235.792 C 50.938 235.608,50.876 235.306,50.796 235.122 C 50.708 234.916,50.654 234.884,50.657 235.038 M51.155 237.049 C 51.155 237.188,51.220 237.452,51.299 237.636 C 51.390 237.848,51.443 237.879,51.443 237.720 C 51.443 237.582,51.378 237.318,51.299 237.133 C 51.208 236.922,51.155 236.891,51.155 237.049 M348.126 237.816 C 348.064 238.062,348.046 238.295,348.086 238.334 C 348.125 238.374,348.208 238.205,348.270 237.960 C 348.331 237.714,348.349 237.480,348.310 237.441 C 348.270 237.401,348.188 237.570,348.126 237.816 M347.723 239.341 C 347.609 239.765,347.546 240.142,347.583 240.178 C 347.619 240.215,347.745 239.901,347.863 239.480 C 347.980 239.060,348.043 238.683,348.003 238.643 C 347.962 238.602,347.836 238.916,347.723 239.341 M240.507 241.597 C 240.448 241.891,240.431 242.163,240.469 242.201 C 240.507 242.239,240.590 242.033,240.654 241.744 C 240.717 241.454,240.735 241.182,240.692 241.139 C 240.649 241.096,240.566 241.302,240.507 241.597 M52.664 242.414 C 52.664 242.552,52.729 242.816,52.808 243.001 C 52.899 243.212,52.952 243.243,52.952 243.085 C 52.952 242.946,52.887 242.682,52.808 242.498 C 52.717 242.287,52.664 242.256,52.664 242.414 M301.676 243.551 C 300.847 244.266,299.130 245.669,297.863 246.670 C 296.595 247.670,295.557 248.524,295.557 248.567 C 295.557 248.659,296.169 248.186,299.329 245.651 C 301.693 243.755,303.424 242.263,303.269 242.255 C 303.223 242.253,302.506 242.836,301.676 243.551 M239.145 244.874 C 238.523 245.878,237.313 247.162,236.123 248.079 C 235.849 248.291,235.964 248.243,236.379 247.974 C 237.578 247.194,240.180 244.130,239.879 243.851 C 239.844 243.819,239.514 244.279,239.145 244.874 M345.793 245.784 C 345.640 246.257,345.521 246.729,345.527 246.834 C 345.534 246.939,345.689 246.582,345.872 246.041 C 346.055 245.501,346.174 245.028,346.137 244.992 C 346.101 244.955,345.946 245.312,345.793 245.784 M234.870 248.785 C 234.547 248.961,234.344 249.109,234.417 249.113 C 234.595 249.122,235.541 248.630,235.541 248.529 C 235.541 248.419,235.531 248.423,234.870 248.785 M294.552 249.226 C 294.137 249.560,292.741 250.626,291.450 251.596 C 289.130 253.339,288.513 253.836,289.019 253.557 C 289.314 253.394,294.234 249.669,294.971 249.051 C 295.748 248.399,295.401 248.544,294.552 249.226 M54.826 249.226 C 54.823 249.331,54.930 249.671,55.065 249.981 C 55.199 250.291,55.313 250.459,55.316 250.355 C 55.320 250.250,55.213 249.910,55.078 249.600 C 54.943 249.290,54.830 249.122,54.826 249.226 M232.020 250.042 C 231.790 250.174,231.676 250.281,231.769 250.281 C 231.861 250.281,232.125 250.174,232.355 250.042 C 232.586 249.910,232.699 249.802,232.607 249.802 C 232.515 249.802,232.251 249.910,232.020 250.042 M228.708 251.422 C 227.302 252.030,226.178 252.554,226.211 252.588 C 226.271 252.647,231.354 250.513,231.499 250.367 C 231.702 250.164,231.046 250.412,228.708 251.422 M343.682 251.896 C 343.485 252.422,343.354 252.881,343.389 252.917 C 343.425 252.953,343.613 252.550,343.808 252.022 C 344.002 251.494,344.134 251.035,344.100 251.002 C 344.067 250.968,343.879 251.371,343.682 251.896 M225.147 252.976 C 224.824 253.152,224.635 253.297,224.728 253.297 C 224.820 253.297,225.159 253.152,225.482 252.976 C 225.805 252.799,225.993 252.654,225.901 252.654 C 225.809 252.654,225.469 252.799,225.147 252.976 M342.777 254.345 C 342.626 254.731,342.529 255.074,342.563 255.108 C 342.596 255.142,342.749 254.855,342.903 254.471 C 343.057 254.086,343.153 253.743,343.118 253.707 C 343.082 253.672,342.929 253.959,342.777 254.345 M287.259 254.674 C 286.268 255.417,286.136 255.618,287.041 255.010 C 287.474 254.719,287.875 254.406,287.931 254.315 C 288.078 254.076,288.006 254.115,287.259 254.674 M56.832 254.872 C 56.832 255.065,58.187 258.390,58.446 258.833 C 58.776 259.398,58.683 259.130,57.749 256.832 C 57.004 254.995,56.832 254.628,56.832 254.872 M285.554 255.881 C 284.746 256.547,279.904 259.855,275.692 262.619 C 272.179 264.924,270.707 265.942,271.584 265.460 C 273.033 264.664,285.902 255.955,286.098 255.637 C 286.256 255.382,286.043 255.477,285.554 255.881 M341.939 256.524 C 341.787 256.910,341.691 257.254,341.724 257.287 C 341.758 257.321,341.911 257.034,342.065 256.650 C 342.219 256.266,342.315 255.922,342.280 255.887 C 342.244 255.851,342.091 256.138,341.939 256.524 M340.924 258.862 C 340.678 259.430,340.504 259.922,340.537 259.956 C 340.571 259.990,340.799 259.552,341.045 258.983 C 341.290 258.414,341.464 257.922,341.432 257.889 C 341.399 257.856,341.170 258.294,340.924 258.862 M340.178 260.611 C 339.897 261.227,339.951 261.359,340.255 260.798 C 340.396 260.537,340.481 260.291,340.443 260.253 C 340.404 260.214,340.285 260.375,340.178 260.611 M339.008 263.232 C 338.530 264.261,338.165 265.128,338.197 265.160 C 338.229 265.192,338.646 264.377,339.125 263.349 C 339.603 262.322,339.968 261.454,339.936 261.422 C 339.903 261.390,339.486 262.204,339.008 263.232 M174.444 265.853 C 173.589 267.537,171.421 269.739,169.792 270.580 C 169.176 270.898,168.699 271.186,168.733 271.220 C 168.968 271.455,171.109 269.969,172.433 268.652 C 173.783 267.309,175.422 264.888,175.159 264.625 C 175.125 264.592,174.804 265.144,174.444 265.853 M61.190 264.936 C 61.190 265.119,63.698 270.075,63.791 270.075 C 63.866 270.075,61.414 265.063,61.255 264.892 C 61.219 264.854,61.190 264.874,61.190 264.936 M336.842 267.778 C 336.181 269.088,335.177 271.027,334.609 272.087 C 334.042 273.148,333.653 273.940,333.745 273.847 C 334.119 273.473,338.219 265.573,338.101 265.455 C 338.069 265.423,337.502 266.468,336.842 267.778 M269.405 266.656 C 268.437 267.262,267.569 267.841,267.477 267.942 C 267.385 268.043,267.498 268.009,267.728 267.867 C 270.860 265.940,271.461 265.539,271.207 265.551 C 271.184 265.552,270.373 266.049,269.405 266.656 M263.393 270.324 C 259.968 272.378,258.756 273.152,259.849 272.586 C 260.660 272.167,267.225 268.205,267.225 268.135 C 267.225 268.022,267.324 267.966,263.393 270.324 M64.543 271.584 C 64.731 271.953,64.923 272.255,64.969 272.255 C 65.015 272.255,64.899 271.953,64.711 271.584 C 64.523 271.215,64.331 270.914,64.285 270.914 C 64.239 270.914,64.355 271.215,64.543 271.584 M163.571 272.375 C 163.037 272.515,162.629 272.660,162.665 272.696 C 162.702 272.733,163.328 272.616,164.056 272.437 C 164.785 272.258,165.193 272.113,164.962 272.116 C 164.732 272.118,164.106 272.235,163.571 272.375 M65.465 273.261 C 65.608 273.537,65.763 273.764,65.809 273.764 C 65.855 273.764,65.776 273.537,65.633 273.261 C 65.490 272.984,65.335 272.758,65.289 272.758 C 65.243 272.758,65.322 272.984,65.465 273.261 M256.038 274.574 C 255.094 275.109,254.264 275.610,254.194 275.688 C 254.034 275.863,254.029 275.866,256.119 274.693 C 257.577 273.874,258.019 273.586,257.795 273.598 C 257.772 273.600,256.981 274.038,256.038 274.574 M333.110 274.769 C 332.922 275.138,332.805 275.440,332.852 275.440 C 332.898 275.440,333.089 275.138,333.277 274.769 C 333.466 274.401,333.582 274.099,333.536 274.099 C 333.490 274.099,333.298 274.401,333.110 274.769 M66.909 275.775 C 67.150 276.297,68.645 278.342,69.003 278.639 C 69.148 278.760,68.789 278.215,68.205 277.429 C 67.620 276.642,67.046 275.854,66.929 275.678 C 66.748 275.405,66.745 275.419,66.909 275.775 M250.629 277.554 C 249.015 278.436,246.959 279.529,246.060 279.982 C 245.161 280.436,244.426 280.846,244.426 280.892 C 244.426 281.015,246.384 280.017,250.251 277.924 C 253.116 276.373,253.888 275.918,253.604 275.947 C 253.581 275.950,252.242 276.673,250.629 277.554 M332.233 276.320 C 331.866 276.886,331.537 277.559,331.721 277.368 C 331.956 277.124,332.648 275.943,332.556 275.943 C 332.513 275.943,332.368 276.113,332.233 276.320 M109.771 277.025 C 109.615 277.444,109.521 277.787,109.562 277.787 C 109.678 277.787,110.156 276.569,110.102 276.408 C 110.075 276.328,109.926 276.605,109.771 277.025 M108.549 279.224 C 107.137 281.274,104.808 282.864,102.324 283.474 C 101.599 283.652,101.146 283.803,101.317 283.810 C 103.452 283.893,107.740 281.123,109.020 278.832 C 109.484 278.003,109.264 278.185,108.549 279.224 M69.908 279.696 C 71.294 281.171,75.473 284.011,76.220 283.985 C 76.298 283.982,75.757 283.662,75.016 283.273 C 73.356 282.399,71.741 281.256,70.273 279.915 C 69.355 279.077,69.289 279.037,69.908 279.696 M330.323 279.505 C 330.255 279.621,329.835 280.300,329.390 281.014 C 328.945 281.729,328.617 282.313,328.661 282.313 C 328.736 282.313,329.348 281.386,330.239 279.925 C 330.450 279.579,330.583 279.296,330.535 279.296 C 330.487 279.296,330.391 279.390,330.323 279.505 M243.504 281.318 C 243.227 281.494,240.307 282.938,237.015 284.526 C 233.722 286.114,231.055 287.439,231.087 287.471 C 231.163 287.548,243.069 281.793,243.790 281.331 C 244.094 281.137,244.267 280.982,244.174 280.987 C 244.082 280.993,243.780 281.141,243.504 281.318 M327.641 283.697 C 327.064 284.676,327.027 284.759,327.321 284.409 C 327.661 284.003,327.955 283.487,327.845 283.487 C 327.801 283.487,327.709 283.581,327.641 283.697 M99.874 283.941 C 100.082 283.981,100.421 283.981,100.629 283.941 C 100.836 283.901,100.666 283.868,100.251 283.868 C 99.837 283.868,99.667 283.901,99.874 283.941 M98.617 284.106 C 98.778 284.148,99.042 284.148,99.204 284.106 C 99.365 284.063,99.233 284.029,98.910 284.029 C 98.588 284.029,98.456 284.063,98.617 284.106 M97.026 284.276 C 97.235 284.316,97.537 284.315,97.697 284.273 C 97.857 284.231,97.687 284.198,97.318 284.200 C 96.949 284.202,96.818 284.236,97.026 284.276 M93.336 284.611 C 93.544 284.651,93.883 284.651,94.091 284.611 C 94.298 284.571,94.128 284.539,93.713 284.539 C 93.298 284.539,93.129 284.571,93.336 284.611 M90.360 284.828 C 89.450 284.940,89.448 284.941,90.193 284.950 C 90.608 284.955,91.400 284.903,91.953 284.835 L 92.959 284.710 92.121 284.712 C 91.660 284.714,90.868 284.766,90.360 284.828 M88.055 285.116 C 88.309 285.154,88.724 285.154,88.977 285.116 C 89.231 285.077,89.023 285.046,88.516 285.046 C 88.009 285.046,87.802 285.077,88.055 285.116 M81.224 285.350 C 81.863 285.473,85.597 285.534,85.247 285.415 C 85.155 285.384,84.061 285.327,82.816 285.289 C 81.491 285.249,80.831 285.274,81.224 285.350 M85.960 285.285 C 86.259 285.322,86.750 285.322,87.049 285.285 C 87.349 285.248,87.104 285.217,86.505 285.217 C 85.905 285.217,85.660 285.248,85.960 285.285 M326.116 286.044 C 325.588 286.730,324.379 288.558,324.591 288.349 C 324.922 288.022,326.457 285.834,326.355 285.834 C 326.313 285.834,326.205 285.928,326.116 286.044 M229.673 288.013 C 229.166 288.281,228.826 288.501,228.919 288.501 C 229.011 288.501,229.501 288.281,230.008 288.013 C 230.516 287.745,230.855 287.526,230.763 287.526 C 230.671 287.526,230.180 287.745,229.673 288.013 M227.997 288.768 C 227.766 288.900,227.653 289.007,227.745 289.007 C 227.837 289.007,228.101 288.900,228.332 288.768 C 228.562 288.636,228.676 288.528,228.583 288.528 C 228.491 288.528,228.227 288.636,227.997 288.768 M226.655 289.355 C 226.333 289.531,226.144 289.676,226.236 289.676 C 226.329 289.676,226.668 289.531,226.991 289.355 C 227.313 289.178,227.502 289.033,227.410 289.033 C 227.318 289.033,226.978 289.178,226.655 289.355 M322.708 290.818 C 317.403 297.991,310.785 305.332,303.185 312.476 C 301.416 314.138,301.406 314.152,302.934 312.807 C 309.076 307.397,321.372 293.692,323.787 289.564 C 324.123 288.989,323.681 289.503,322.708 290.818 M224.392 290.356 C 223.655 290.711,223.100 291.008,223.159 291.016 C 223.218 291.024,223.897 290.735,224.668 290.373 C 225.438 290.011,225.993 289.714,225.901 289.713 C 225.809 289.711,225.130 290.000,224.392 290.356 M218.240 293.009 C 217.253 293.437,216.474 293.814,216.508 293.848 C 216.569 293.909,219.608 292.655,220.117 292.360 C 220.734 292.003,219.888 292.296,218.240 293.009 M215.004 294.384 C 214.451 294.646,214.074 294.863,214.166 294.866 C 214.258 294.868,214.786 294.654,215.339 294.390 C 215.893 294.126,216.270 293.909,216.178 293.908 C 216.085 293.907,215.557 294.121,215.004 294.384 M208.757 296.859 C 207.903 297.186,207.232 297.481,207.267 297.515 C 207.337 297.585,209.949 296.645,210.374 296.397 C 210.880 296.101,210.316 296.262,208.757 296.859 M206.119 297.917 C 205.750 298.094,205.637 298.192,205.868 298.135 C 206.342 298.016,207.214 297.580,206.957 297.588 C 206.865 297.591,206.488 297.739,206.119 297.917 M201.257 299.739 C 200.374 300.157,200.543 300.166,201.593 299.756 C 202.054 299.576,202.318 299.427,202.179 299.425 C 202.041 299.424,201.626 299.565,201.257 299.739 M198.949 300.540 C 198.324 300.777,197.842 301.000,197.877 301.034 C 197.912 301.069,198.536 300.874,199.264 300.600 C 199.991 300.327,200.474 300.105,200.335 300.106 C 200.197 300.108,199.573 300.304,198.949 300.540 M196.060 301.600 C 195.599 301.772,194.520 302.151,193.661 302.441 C 192.802 302.731,192.131 303.000,192.169 303.038 C 192.234 303.103,197.148 301.458,197.304 301.319 C 197.475 301.167,196.827 301.313,196.060 301.600 M188.600 304.191 C 187.448 304.592,186.584 304.925,186.680 304.932 C 186.887 304.948,190.789 303.650,190.916 303.524 C 191.088 303.352,190.664 303.474,188.600 304.191 M183.152 305.951 C 182.414 306.214,181.889 306.434,181.986 306.441 C 182.082 306.448,182.799 306.234,183.578 305.964 C 184.358 305.694,184.883 305.474,184.744 305.474 C 184.606 305.474,183.889 305.689,183.152 305.951 M180.805 306.700 C 180.157 306.996,180.458 307.001,181.224 306.706 C 181.547 306.582,181.697 306.477,181.559 306.475 C 181.421 306.472,181.081 306.573,180.805 306.700 M178.345 307.432 C 177.822 307.586,177.340 307.766,177.275 307.832 C 177.209 307.898,177.666 307.806,178.290 307.628 C 178.914 307.449,179.465 307.263,179.514 307.214 C 179.651 307.077,179.380 307.127,178.345 307.432 M168.734 310.310 C 168.523 310.401,168.492 310.454,168.650 310.454 C 168.789 310.454,169.053 310.389,169.237 310.310 C 169.449 310.219,169.480 310.166,169.321 310.166 C 169.183 310.166,168.919 310.231,168.734 310.310 M166.002 311.014 C 165.329 311.202,164.810 311.387,164.848 311.425 C 164.918 311.495,167.500 310.832,167.631 310.710 C 167.779 310.573,167.177 310.685,166.002 311.014 M159.545 312.751 C 158.419 313.059,158.222 313.167,159.011 313.046 C 159.723 312.936,161.028 312.507,160.604 312.522 C 160.465 312.527,159.989 312.630,159.545 312.751 M157.334 313.328 C 156.907 313.511,157.348 313.511,157.921 313.328 C 158.258 313.220,158.275 313.193,158.005 313.189 C 157.821 313.186,157.519 313.249,157.334 313.328 M300.084 315.197 L 298.994 316.216 300.043 315.341 C 300.968 314.570,301.388 314.154,301.225 314.172 C 301.197 314.175,300.683 314.636,300.084 315.197 M151.299 314.837 C 150.872 315.020,151.313 315.020,151.886 314.837 C 152.223 314.729,152.239 314.701,151.970 314.697 C 151.785 314.695,151.484 314.757,151.299 314.837 M144.383 316.391 C 143.160 316.672,142.193 316.934,142.233 316.974 C 142.307 317.048,147.051 316.024,147.178 315.907 C 147.336 315.760,146.483 315.908,144.383 316.391 M296.815 317.885 C 294.465 319.849,291.137 322.388,288.181 324.472 C 286.192 325.875,285.424 326.465,286.002 326.147 C 288.011 325.043,299.728 315.982,298.878 316.190 C 298.850 316.197,297.921 316.960,296.815 317.885 M135.289 318.357 C 134.957 318.463,134.940 318.491,135.205 318.491 C 135.390 318.491,135.729 318.431,135.960 318.357 C 136.292 318.251,136.309 318.223,136.044 318.223 C 135.859 318.223,135.520 318.283,135.289 318.357 M130.847 319.195 C 130.395 319.310,130.386 319.324,130.763 319.326 C 130.993 319.328,131.370 319.269,131.601 319.195 C 132.164 319.015,131.556 319.015,130.847 319.195 M126.404 320.029 C 125.620 320.193,125.086 320.337,125.217 320.348 C 125.504 320.373,128.303 319.861,128.402 319.765 C 128.535 319.638,127.823 319.731,126.404 320.029 M120.243 321.155 C 120.404 321.197,120.668 321.197,120.830 321.155 C 120.991 321.113,120.859 321.078,120.536 321.078 C 120.214 321.078,120.082 321.113,120.243 321.155 M118.231 321.490 C 118.393 321.532,118.657 321.532,118.818 321.490 C 118.979 321.448,118.847 321.414,118.525 321.414 C 118.202 321.414,118.070 321.448,118.231 321.490 M115.423 321.878 C 114.726 322.055,115.412 322.063,116.262 321.887 C 116.825 321.771,116.852 321.749,116.429 321.749 C 116.153 321.749,115.700 321.807,115.423 321.878 M114.040 322.161 C 114.202 322.203,114.466 322.203,114.627 322.161 C 114.788 322.119,114.656 322.084,114.334 322.084 C 114.011 322.084,113.879 322.119,114.040 322.161 M109.807 322.947 C 109.807 323.074,109.939 323.281,110.101 323.408 C 110.365 323.615,110.372 323.609,110.170 323.352 C 110.047 323.195,109.995 322.987,110.054 322.891 C 110.114 322.795,110.082 322.716,109.985 322.716 C 109.887 322.716,109.807 322.820,109.807 322.947 M110.518 323.652 C 110.573 323.740,110.977 324.070,111.415 324.385 C 111.854 324.700,112.168 324.886,112.114 324.797 C 112.059 324.709,111.655 324.379,111.217 324.064 C 110.778 323.749,110.464 323.563,110.518 323.652 M112.322 324.948 C 112.322 324.988,112.888 325.412,113.579 325.890 C 114.271 326.368,114.837 326.723,114.837 326.678 C 114.837 326.634,114.365 326.268,113.789 325.866 C 112.513 324.975,112.322 324.855,112.322 324.948 M115.591 327.196 C 115.683 327.290,116.513 327.852,117.435 328.444 C 119.555 329.806,119.531 329.792,119.531 329.700 C 119.531 329.657,118.720 329.101,117.728 328.463 C 115.673 327.141,115.347 326.948,115.591 327.196 M280.158 329.759 C 278.425 330.845,277.907 331.257,279.212 330.511 C 280.426 329.817,281.811 328.921,281.811 328.830 C 281.811 328.719,281.886 328.677,280.158 329.759 M121.459 330.887 C 121.909 331.372,132.783 337.306,133.208 337.298 C 133.292 337.297,132.041 336.608,130.427 335.769 C 127.947 334.478,125.649 333.208,121.961 331.092 C 121.593 330.880,121.366 330.788,121.459 330.887 M275.440 332.542 C 272.922 333.988,266.747 337.149,263.832 338.484 C 262.566 339.065,261.556 339.567,261.589 339.599 C 261.852 339.862,277.452 331.895,277.452 331.498 C 277.452 331.389,277.422 331.404,275.440 332.542 M135.604 338.398 C 136.837 339.001,137.874 339.466,137.909 339.431 C 137.971 339.369,133.903 337.422,133.547 337.344 C 133.445 337.321,134.370 337.796,135.604 338.398 M138.143 339.528 C 138.280 339.684,142.203 341.340,142.272 341.271 C 142.306 341.237,141.484 340.848,140.446 340.407 C 138.276 339.486,138.022 339.389,138.143 339.528 M260.687 339.899 C 260.457 340.031,260.344 340.139,260.436 340.139 C 260.528 340.139,260.792 340.031,261.023 339.899 C 261.253 339.768,261.366 339.660,261.274 339.660 C 261.182 339.660,260.918 339.768,260.687 339.899 M255.574 341.995 C 254.929 342.262,254.482 342.484,254.581 342.489 C 254.760 342.498,256.850 341.689,256.985 341.559 C 257.159 341.392,256.656 341.548,255.574 341.995 M152.125 344.940 C 152.763 345.163,153.314 345.317,153.349 345.281 C 153.427 345.204,151.392 344.504,151.141 344.522 C 151.044 344.529,151.486 344.717,152.125 344.940 M153.814 345.516 C 153.998 345.595,154.262 345.660,154.401 345.660 C 154.559 345.660,154.528 345.606,154.317 345.516 C 154.132 345.436,153.868 345.371,153.730 345.371 C 153.572 345.371,153.603 345.425,153.814 345.516 M241.241 346.773 C 240.826 346.893,240.637 346.993,240.821 346.995 C 241.006 346.997,241.459 346.899,241.827 346.778 C 242.695 346.491,242.225 346.488,241.241 346.773 M238.810 347.450 C 238.146 347.679,238.145 347.681,238.726 347.585 C 239.049 347.532,239.426 347.424,239.564 347.345 C 239.933 347.135,239.577 347.184,238.810 347.450 M161.023 347.616 C 161.391 347.737,161.844 347.836,162.028 347.835 C 162.213 347.833,161.987 347.728,161.526 347.599 C 160.477 347.307,160.122 347.319,161.023 347.616 M237.133 347.863 C 236.706 348.046,237.147 348.046,237.720 347.863 C 238.057 347.755,238.073 347.727,237.804 347.723 C 237.619 347.721,237.318 347.783,237.133 347.863 M232.272 348.964 C 230.210 349.448,229.899 349.546,230.763 349.437 C 231.648 349.325,234.715 348.570,234.283 348.570 C 234.099 348.570,233.194 348.747,232.272 348.964 M166.639 348.930 C 166.639 349.027,170.173 349.748,170.254 349.668 C 170.293 349.628,169.545 349.432,168.591 349.232 C 166.773 348.851,166.639 348.830,166.639 348.930 M174.560 350.493 C 174.721 350.535,174.985 350.535,175.147 350.493 C 175.308 350.451,175.176 350.416,174.853 350.416 C 174.531 350.416,174.399 350.451,174.560 350.493 M223.303 350.629 C 222.703 350.744,222.402 350.844,222.632 350.849 C 222.863 350.855,223.579 350.759,224.225 350.637 C 224.870 350.515,225.172 350.416,224.895 350.416 C 224.619 350.417,223.902 350.513,223.303 350.629 M175.943 350.712 C 176.220 350.783,176.672 350.841,176.949 350.841 C 177.372 350.841,177.345 350.819,176.781 350.703 C 175.932 350.527,175.246 350.535,175.943 350.712 M220.704 351.048 L 220.034 351.168 220.620 351.172 C 220.943 351.174,221.433 351.118,221.710 351.048 C 222.392 350.874,221.674 350.874,220.704 351.048 M179.212 351.224 C 180.224 351.404,181.017 351.388,180.134 351.206 C 179.765 351.130,179.237 351.072,178.961 351.078 C 178.583 351.087,178.646 351.123,179.212 351.224 M219.153 351.331 C 219.315 351.373,219.579 351.373,219.740 351.331 C 219.902 351.289,219.769 351.254,219.447 351.254 C 219.124 351.254,218.992 351.289,219.153 351.331 M181.182 351.501 C 181.389 351.541,181.729 351.541,181.936 351.501 C 182.144 351.461,181.974 351.429,181.559 351.429 C 181.144 351.429,180.974 351.461,181.182 351.501 M217.728 351.501 C 217.936 351.541,218.275 351.541,218.483 351.501 C 218.690 351.461,218.521 351.429,218.106 351.429 C 217.691 351.429,217.521 351.461,217.728 351.501 M185.038 351.837 C 185.245 351.877,185.585 351.877,185.792 351.837 C 186.000 351.797,185.830 351.764,185.415 351.764 C 185.000 351.764,184.830 351.797,185.038 351.837 M214.042 351.837 C 214.251 351.877,214.552 351.876,214.713 351.834 C 214.873 351.792,214.702 351.759,214.334 351.761 C 213.965 351.762,213.834 351.797,214.042 351.837 M186.798 352.006 C 187.052 352.044,187.466 352.044,187.720 352.006 C 187.974 351.968,187.766 351.936,187.259 351.936 C 186.752 351.936,186.544 351.968,186.798 352.006 M211.861 352.007 C 212.161 352.044,212.651 352.044,212.951 352.007 C 213.250 351.970,213.005 351.940,212.406 351.940 C 211.806 351.940,211.561 351.970,211.861 352.007 M189.522 352.224 C 190.756 352.354,194.238 352.432,194.118 352.328 C 194.080 352.295,192.766 352.230,191.199 352.184 C 189.559 352.136,188.847 352.153,189.522 352.224 M207.376 352.221 L 205.448 352.322 207.209 352.335 C 208.177 352.342,209.497 352.293,210.142 352.227 L 211.316 352.106 210.310 352.113 C 209.757 352.117,208.437 352.166,207.376 352.221 M197.024 352.514 C 198.569 352.542,201.096 352.542,202.640 352.514 C 204.185 352.487,202.921 352.464,199.832 352.464 C 196.744 352.464,195.480 352.487,197.024 352.514 " stroke="none" fill="#545454" fill-rule="evenodd"></path><path id="path3" d="M188.181 46.119 C 183.941 46.511,179.000 47.119,179.116 47.235 C 179.158 47.278,180.121 47.193,181.256 47.047 C 188.217 46.150,190.131 46.064,201.174 46.142 C 210.110 46.206,211.685 46.257,214.417 46.570 C 218.587 47.048,219.919 47.154,217.975 46.854 C 212.507 46.009,194.248 45.559,188.181 46.119 M220.201 47.285 C 220.570 47.362,221.098 47.419,221.375 47.413 C 221.752 47.404,221.689 47.368,221.123 47.267 C 220.112 47.087,219.319 47.103,220.201 47.285 M177.999 47.394 C 178.207 47.434,178.509 47.433,178.669 47.391 C 178.829 47.349,178.659 47.316,178.290 47.318 C 177.921 47.320,177.790 47.354,177.999 47.394 M175.356 47.646 C 170.371 48.526,162.207 50.297,162.573 50.419 C 162.668 50.451,163.527 50.278,164.482 50.035 C 166.467 49.531,171.850 48.439,175.189 47.863 C 176.433 47.648,177.188 47.475,176.865 47.478 C 176.542 47.481,175.863 47.557,175.356 47.646 M223.470 47.713 C 224.254 47.843,226.278 48.219,227.968 48.549 C 229.658 48.879,231.077 49.113,231.121 49.069 C 231.165 49.025,230.801 48.914,230.311 48.822 C 229.822 48.731,227.966 48.383,226.187 48.050 C 224.407 47.716,222.748 47.451,222.498 47.460 C 222.249 47.470,222.687 47.584,223.470 47.713 M233.026 49.533 C 233.690 49.729,236.731 50.468,237.888 50.716 L 238.307 50.806 237.912 50.632 C 237.694 50.537,236.676 50.264,235.648 50.027 C 234.621 49.790,233.562 49.526,233.294 49.442 C 233.027 49.357,232.688 49.293,232.540 49.299 C 232.392 49.306,232.611 49.411,233.026 49.533 M160.855 50.796 C 160.428 50.980,160.869 50.980,161.442 50.796 C 161.779 50.688,161.795 50.661,161.526 50.657 C 161.341 50.654,161.039 50.717,160.855 50.796 M239.480 51.155 C 256.393 55.942,270.209 62.173,283.990 71.227 C 301.963 83.036,317.987 99.334,329.171 117.180 C 331.101 120.259,332.983 123.456,333.910 125.231 C 334.512 126.383,335.060 127.402,335.129 127.494 C 335.541 128.049,339.180 135.583,340.351 138.307 C 345.787 150.947,346.722 155.973,344.827 162.364 C 343.659 166.304,338.844 173.109,332.278 180.099 C 331.567 180.856,329.898 182.645,328.570 184.074 C 325.460 187.418,320.689 192.157,317.194 195.371 C 315.679 196.764,314.116 198.219,313.721 198.603 C 312.705 199.589,307.838 203.753,304.862 206.181 C 303.479 207.309,301.819 208.669,301.174 209.204 C 298.014 211.819,288.586 218.944,288.286 218.944 C 288.228 218.944,288.181 197.977,288.181 172.351 C 288.181 140.758,288.124 125.351,288.005 124.494 C 287.297 119.403,283.511 115.050,278.625 113.710 C 276.913 113.241,251.725 113.253,250.210 113.724 C 246.279 114.947,243.375 117.573,241.750 121.375 C 240.578 124.116,240.670 120.820,240.617 162.028 C 240.591 182.498,240.551 208.801,240.528 220.481 C 240.505 232.160,240.524 241.678,240.570 241.632 C 240.616 241.586,240.694 215.282,240.742 183.180 C 240.840 118.466,240.733 124.084,241.927 121.372 C 243.515 117.764,246.288 115.224,250.042 113.936 C 251.274 113.513,275.231 113.280,277.536 113.668 C 282.806 114.555,287.078 119.035,287.833 124.462 C 287.958 125.361,288.013 140.068,288.013 172.425 C 288.013 198.336,288.078 219.131,288.158 219.181 C 288.237 219.230,290.180 217.856,292.475 216.128 C 310.292 202.710,324.818 189.382,335.352 176.785 C 338.806 172.655,339.468 171.845,340.780 170.143 C 345.141 164.482,346.690 158.688,345.528 152.379 C 344.414 146.331,337.540 130.661,331.963 121.459 C 331.404 120.536,330.665 119.292,330.321 118.694 C 329.977 118.095,328.531 115.870,327.109 113.748 C 307.407 84.363,278.070 62.675,244.007 52.315 C 240.807 51.342,238.799 50.791,238.514 50.810 C 238.400 50.817,238.835 50.972,239.480 51.155 M156.949 51.873 C 155.262 52.366,153.828 52.825,153.764 52.893 C 153.699 52.961,153.835 52.959,154.065 52.888 C 154.296 52.817,155.767 52.391,157.334 51.941 C 160.520 51.026,160.622 50.993,160.268 50.984 C 160.130 50.981,158.636 51.381,156.949 51.873 M151.666 53.509 C 150.853 53.788,150.218 54.045,150.253 54.081 C 150.289 54.116,151.066 53.888,151.982 53.573 C 152.897 53.259,153.533 53.001,153.395 53.002 C 153.256 53.002,152.479 53.230,151.666 53.509 M148.030 54.755 C 140.353 57.677,136.162 59.499,130.511 62.370 C 94.375 80.735,67.114 112.530,54.296 151.262 C 53.662 153.178,53.148 154.838,53.154 154.950 C 53.159 155.063,53.678 153.609,54.306 151.718 C 55.520 148.063,57.100 143.684,57.753 142.163 C 61.301 133.899,62.666 130.994,65.091 126.550 C 68.195 120.861,71.475 115.551,74.809 110.813 C 76.955 107.764,77.535 106.998,80.452 103.353 C 92.167 88.716,104.981 77.526,121.411 67.582 C 129.582 62.637,137.804 58.737,148.282 54.835 C 149.019 54.561,149.510 54.337,149.371 54.338 C 149.233 54.339,148.630 54.527,148.030 54.755 M200.000 146.185 C 211.266 146.274,212.415 146.308,213.412 146.590 C 217.708 147.803,221.050 150.748,222.562 154.652 C 222.776 155.205,222.955 155.566,222.959 155.455 C 223.046 153.307,219.071 148.819,215.732 147.292 C 213.045 146.064,213.713 146.115,200.000 146.101 L 187.678 146.088 200.000 146.185 M185.460 146.522 C 180.930 147.709,177.286 151.351,175.984 155.993 L 175.608 157.334 175.524 210.142 L 175.440 262.951 175.084 263.956 C 174.888 264.510,174.675 265.113,174.611 265.298 C 174.533 265.523,174.580 265.495,174.755 265.214 C 175.672 263.736,175.600 267.933,175.692 210.226 L 175.775 157.334 176.155 155.993 C 177.582 150.951,181.355 147.496,186.588 146.438 C 187.201 146.314,187.458 146.215,187.175 146.211 C 186.899 146.207,186.127 146.348,185.460 146.522 M52.181 158.214 C 51.216 161.590,49.911 166.916,49.990 167.152 C 50.018 167.238,50.369 165.932,50.768 164.250 C 51.167 162.567,51.870 159.881,52.329 158.281 C 52.788 156.681,53.134 155.341,53.097 155.305 C 53.061 155.268,52.648 156.577,52.181 158.214 M223.045 156.096 C 223.092 156.337,223.205 157.054,223.297 157.689 C 223.404 158.433,223.465 175.661,223.467 206.161 C 223.470 248.104,223.499 253.479,223.722 253.479 C 224.017 253.479,230.368 250.765,230.280 250.677 C 230.247 250.644,228.815 251.223,227.099 251.964 C 225.383 252.705,223.902 253.311,223.808 253.311 C 223.693 253.311,223.638 237.954,223.638 206.131 C 223.638 159.763,223.611 157.127,223.120 156.020 C 222.975 155.693,222.968 155.700,223.045 156.096 M49.287 170.257 C 49.286 170.342,49.066 171.618,48.797 173.093 C 48.211 176.305,47.995 177.715,47.789 179.670 C 47.704 180.479,47.521 182.158,47.383 183.403 C 46.727 189.303,46.689 190.178,46.694 199.413 C 46.698 208.767,46.720 209.235,47.445 215.842 C 47.537 216.672,47.691 218.106,47.789 219.028 C 48.047 221.476,49.467 229.555,49.579 229.219 C 49.609 229.127,49.338 227.438,48.975 225.465 C 48.277 221.661,48.132 220.637,47.616 215.842 C 46.884 209.046,46.857 208.442,46.857 199.246 C 46.857 190.200,46.897 189.279,47.550 183.403 C 47.689 182.158,47.870 180.491,47.954 179.698 C 48.136 177.969,48.448 175.937,49.030 172.691 C 49.268 171.364,49.423 170.239,49.375 170.191 C 49.327 170.143,49.287 170.173,49.287 170.257 M121.167 178.879 C 117.102 179.579,113.141 182.671,111.601 186.346 C 110.458 189.073,110.571 184.471,110.478 232.020 L 110.394 274.853 109.877 276.298 C 108.254 280.832,105.304 282.992,99.749 283.717 C 96.120 284.190,87.814 284.958,84.074 285.167 L 81.559 285.307 84.158 285.246 C 87.124 285.177,95.023 284.491,99.734 283.893 C 105.267 283.190,108.479 280.822,110.066 276.274 L 110.562 274.853 110.645 232.020 L 110.729 189.187 111.126 188.013 C 112.600 183.649,115.428 180.821,119.782 179.359 L 120.956 178.965 133.527 178.914 C 147.467 178.857,147.528 178.861,150.043 179.941 C 153.203 181.298,155.767 183.849,157.012 186.878 C 157.231 187.410,157.412 187.718,157.414 187.561 C 157.416 187.405,157.120 186.702,156.757 185.998 C 155.066 182.731,152.104 180.277,148.533 179.186 L 147.276 178.802 134.619 178.772 C 127.657 178.756,121.604 178.804,121.167 178.879 M351.602 189.437 C 343.429 201.328,333.635 213.481,325.985 221.223 C 325.155 222.063,324.092 223.157,323.623 223.655 C 318.207 229.397,306.508 239.989,299.048 245.904 C 283.961 257.869,269.261 267.542,250.964 277.546 C 246.496 279.989,237.852 284.355,232.903 286.668 C 230.853 287.626,229.202 288.437,229.234 288.469 C 229.342 288.576,236.565 285.130,242.163 282.301 C 252.815 276.917,264.316 270.386,272.506 265.070 C 274.817 263.570,281.156 259.343,282.481 258.418 C 283.080 257.999,283.758 257.528,283.988 257.370 C 309.780 239.614,333.911 215.579,350.964 190.660 L 352.473 188.455 352.570 189.408 L 352.668 190.360 352.696 189.313 C 352.732 187.982,352.592 187.998,351.602 189.437 M157.963 231.732 C 157.926 268.326,157.952 273.618,158.166 273.700 C 158.415 273.796,163.170 272.586,163.044 272.460 C 163.006 272.422,161.945 272.671,160.685 273.013 C 159.303 273.388,158.335 273.574,158.243 273.482 C 158.151 273.390,158.072 256.497,158.047 231.593 L 158.004 189.858 157.963 231.732 M352.808 199.078 C 352.808 207.940,352.660 211.063,351.959 217.016 C 351.718 219.061,351.673 219.374,351.066 223.219 C 350.501 226.794,350.518 226.660,350.706 226.069 C 350.845 225.632,351.042 224.480,351.723 220.117 C 351.956 218.627,352.364 214.900,352.660 211.567 C 352.972 208.042,353.156 195.430,352.940 192.288 C 352.853 191.012,352.808 193.305,352.808 199.078 M350.140 228.374 C 349.907 229.840,348.506 235.889,347.782 238.548 C 347.370 240.064,347.061 241.334,347.097 241.369 C 347.177 241.449,347.177 241.448,348.103 237.972 C 349.242 233.696,350.549 227.661,350.336 227.661 C 350.290 227.661,350.202 227.982,350.140 228.374 M49.810 230.458 C 49.748 231.086,52.217 241.008,52.785 242.414 C 53.083 243.152,52.988 242.628,52.549 241.117 C 52.121 239.645,50.539 233.396,50.076 231.350 C 49.941 230.750,49.821 230.349,49.810 230.458 M346.703 242.344 C 346.595 242.774,346.538 243.157,346.576 243.195 C 346.615 243.234,346.735 242.914,346.843 242.484 C 346.951 242.054,347.008 241.671,346.970 241.633 C 346.931 241.594,346.811 241.915,346.703 242.344 M240.006 242.788 C 238.887 245.976,236.578 247.977,231.641 250.040 C 231.018 250.300,230.537 250.542,230.573 250.578 C 230.699 250.705,235.278 248.622,236.033 248.094 C 238.102 246.649,240.694 243.038,240.367 242.058 C 240.339 241.973,240.176 242.301,240.006 242.788 M52.980 243.070 C 52.973 243.444,55.782 251.811,56.778 254.385 C 60.344 263.601,65.675 274.221,68.662 278.056 C 71.543 281.756,76.522 284.680,80.586 285.061 C 81.494 285.146,81.475 285.136,80.306 284.911 C 72.220 283.358,68.769 279.784,62.097 266.052 C 61.134 264.070,60.198 262.146,60.018 261.777 C 58.666 259.012,56.589 253.607,54.638 247.779 C 53.728 245.059,52.982 242.940,52.980 243.070 M345.698 245.646 C 345.300 246.865,344.678 248.683,344.315 249.685 C 343.953 250.687,343.687 251.538,343.725 251.576 C 343.808 251.660,343.957 251.281,344.819 248.785 C 345.933 245.561,346.561 243.571,346.489 243.499 C 346.451 243.461,346.095 244.428,345.698 245.646 M342.586 254.443 C 342.141 255.619,341.554 257.070,341.281 257.670 C 341.008 258.269,340.639 259.128,340.461 259.579 C 337.319 267.531,331.013 278.741,324.152 288.571 C 311.004 307.409,291.153 324.432,269.153 335.734 C 267.125 336.777,265.534 337.631,265.618 337.633 C 265.893 337.639,273.114 333.871,276.125 332.149 C 306.298 314.898,329.797 287.596,342.518 255.011 C 343.071 253.595,343.494 252.407,343.459 252.372 C 343.423 252.336,343.030 253.268,342.586 254.443 M173.786 266.708 C 172.311 269.098,169.575 270.908,166.303 271.660 C 165.335 271.882,164.703 272.069,164.899 272.075 C 167.723 272.168,172.692 269.137,174.155 266.429 C 174.715 265.392,174.496 265.557,173.786 266.708 M226.907 289.380 C 224.369 290.533,217.703 293.446,216.681 293.848 C 216.220 294.030,214.361 294.784,212.551 295.523 C 210.741 296.263,208.742 297.060,208.109 297.294 C 207.475 297.527,206.052 298.068,204.946 298.494 C 201.793 299.710,196.083 301.778,191.914 303.214 C 189.818 303.936,188.161 304.546,188.233 304.571 C 188.472 304.652,199.737 300.670,204.946 298.662 C 206.052 298.236,207.636 297.635,208.466 297.327 C 209.296 297.019,211.295 296.222,212.909 295.557 C 214.522 294.892,216.198 294.207,216.632 294.034 C 218.897 293.133,228.811 288.764,228.984 288.590 C 229.186 288.389,228.586 288.617,226.907 289.380 M184.912 305.526 C 183.391 306.022,181.127 306.744,179.883 307.130 C 176.652 308.133,175.747 308.440,175.979 308.454 C 176.091 308.461,176.506 308.360,176.901 308.231 C 177.296 308.102,178.525 307.717,179.631 307.375 C 183.091 306.307,187.826 304.770,187.907 304.688 C 188.077 304.519,187.573 304.660,184.912 305.526 M174.267 308.808 C 173.713 308.987,172.297 309.409,171.120 309.746 C 169.942 310.083,169.011 310.391,169.050 310.430 C 169.090 310.470,170.166 310.196,171.443 309.822 C 174.595 308.899,175.824 308.498,175.524 308.490 C 175.386 308.487,174.820 308.630,174.267 308.808 M166.847 310.940 C 165.993 311.176,165.326 311.401,165.365 311.439 C 165.441 311.515,168.666 310.686,168.795 310.557 C 168.948 310.404,168.383 310.515,166.847 310.940 M164.040 311.740 C 163.671 311.861,163.521 311.961,163.705 311.961 C 163.889 311.961,164.304 311.859,164.627 311.735 C 165.379 311.445,164.922 311.449,164.040 311.740 M161.358 312.422 C 160.620 312.642,159.308 312.989,158.442 313.192 C 157.575 313.396,156.946 313.589,157.042 313.622 C 157.139 313.654,157.848 313.524,158.617 313.334 C 160.756 312.804,163.411 312.013,163.034 312.017 C 162.850 312.019,162.096 312.201,161.358 312.422 M153.939 314.293 C 152.624 314.622,151.581 314.923,151.620 314.961 C 151.695 315.036,156.609 313.857,156.732 313.735 C 156.879 313.588,156.268 313.710,153.939 314.293 M149.288 315.430 C 144.813 316.454,141.938 317.160,142.196 317.171 C 142.352 317.178,143.635 316.913,145.046 316.582 C 146.457 316.252,148.432 315.802,149.435 315.582 C 150.438 315.363,151.300 315.143,151.349 315.094 C 151.490 314.953,151.086 315.019,149.288 315.430 M138.223 317.867 C 135.841 318.393,131.059 319.325,126.153 320.217 C 125.138 320.402,124.233 320.587,124.141 320.628 C 123.845 320.762,125.601 320.517,127.242 320.197 C 128.118 320.026,129.891 319.690,131.182 319.451 C 135.780 318.600,141.392 317.386,140.738 317.385 C 140.553 317.385,139.422 317.602,138.223 317.867 M122.087 320.987 C 122.249 321.029,122.513 321.029,122.674 320.987 C 122.835 320.945,122.703 320.911,122.381 320.911 C 122.058 320.911,121.926 320.945,122.087 320.987 M118.692 321.487 C 117.355 321.715,114.866 322.104,113.160 322.351 C 110.955 322.670,110.059 322.863,110.059 323.018 C 110.059 323.421,117.875 328.753,121.291 330.680 C 122.900 331.588,121.773 330.796,119.028 329.090 C 114.361 326.189,110.097 323.196,110.328 322.982 C 110.364 322.949,111.299 322.794,112.406 322.638 C 115.369 322.221,121.610 321.195,121.694 321.112 C 121.822 320.983,121.167 321.065,118.692 321.487 M122.213 331.168 C 122.213 331.276,127.008 333.980,129.757 335.421 C 135.449 338.406,145.926 342.877,150.639 344.333 C 152.355 344.863,152.110 344.629,150.339 344.047 C 142.623 341.508,131.330 336.400,124.392 332.308 C 122.847 331.397,122.213 331.065,122.213 331.168 M264.459 338.005 C 258.862 340.962,245.541 345.663,236.752 347.783 C 236.081 347.945,235.564 348.109,235.602 348.147 C 235.850 348.396,246.175 345.427,250.796 343.778 C 256.517 341.737,266.106 337.690,265.298 337.658 C 265.205 337.654,264.828 337.810,264.459 338.005 M153.075 345.084 C 153.407 345.416,163.777 348.286,164.170 348.154 C 164.267 348.122,163.900 347.997,163.355 347.875 C 161.834 347.537,156.530 346.065,154.829 345.509 C 153.389 345.038,152.914 344.923,153.075 345.084 M164.483 348.277 C 164.609 348.403,171.325 349.838,172.255 349.937 L 173.093 350.027 172.255 349.849 C 171.794 349.751,169.883 349.339,168.009 348.934 C 164.460 348.167,164.353 348.147,164.483 348.277 M232.607 348.732 C 232.238 348.823,230.729 349.155,229.254 349.469 C 227.779 349.784,226.949 349.999,227.410 349.946 C 228.189 349.858,233.405 348.777,233.780 348.627 C 234.111 348.494,233.264 348.570,232.607 348.732 M174.937 350.392 C 179.325 351.131,183.787 351.726,184.744 351.699 C 185.067 351.690,184.464 351.581,183.403 351.456 C 181.041 351.179,179.533 350.964,176.284 350.444 C 174.904 350.223,173.622 350.051,173.434 350.061 C 173.247 350.072,173.923 350.221,174.937 350.392 M224.476 350.261 C 223.877 350.358,223.500 350.461,223.638 350.490 C 223.776 350.519,224.493 350.440,225.231 350.313 C 225.968 350.186,226.345 350.083,226.069 350.084 C 225.792 350.084,225.075 350.164,224.476 350.261 M221.123 350.803 C 220.432 350.922,218.998 351.117,217.938 351.236 C 216.878 351.356,216.147 351.482,216.315 351.517 C 216.662 351.589,220.260 351.151,222.137 350.809 C 222.824 350.684,223.160 350.582,222.883 350.584 C 222.607 350.586,221.815 350.684,221.123 350.803 M214.797 351.671 C 215.052 351.710,215.429 351.709,215.635 351.669 C 215.841 351.629,215.633 351.597,215.172 351.599 C 214.711 351.600,214.542 351.632,214.797 351.671 M189.606 352.093 C 191.683 352.313,208.020 352.315,209.975 352.095 C 211.244 351.952,211.018 351.942,208.550 352.031 C 204.765 352.168,194.908 352.168,191.031 352.030 C 188.483 351.940,188.261 351.950,189.606 352.093 " stroke="none" fill="#7c7c7c" fill-rule="evenodd"></path></g></svg>