<svg id="svg" version="1.1" xmlns="http://www.w3.org/2000/svg" xmlns:xlink="http://www.w3.org/1999/xlink" width="400" height="400" viewBox="0, 0, 400,400"><g id="svgg"><path id="path0" d="M193.750 46.356 C 182.031 47.191,176.704 47.837,169.727 49.271 C 62.443 71.313,11.681 193.959,72.095 285.156 C 79.089 295.713,91.320 309.708,99.066 316.016 C 100.253 316.982,101.520 318.042,101.882 318.371 C 128.827 342.866,176.025 357.203,215.682 352.939 C 221.264 352.338,221.897 352.335,222.987 352.899 C 225.178 354.032,227.263 353.632,229.183 351.712 C 229.691 351.204,230.583 350.687,231.166 350.562 C 324.263 330.604,376.777 234.883,343.716 145.412 C 338.506 131.313,326.713 111.058,318.371 101.882 C 318.042 101.520,316.982 100.255,316.016 99.069 C 288.986 65.929,236.516 43.308,193.750 46.356 M211.615 55.650 C 215.103 55.959,218.619 56.317,219.428 56.445 C 227.820 57.769,230.289 58.259,235.969 59.724 C 309.046 78.584,355.095 149.514,342.762 224.219 C 333.482 280.435,290.831 326.566,235.284 340.466 C 227.024 342.533,226.806 342.267,226.786 330.078 C 226.749 307.816,239.324 284.261,268.388 252.148 C 269.165 251.289,271.701 248.477,274.022 245.898 C 276.343 243.320,279.766 239.541,281.630 237.500 C 283.493 235.459,286.938 231.592,289.286 228.906 C 291.633 226.221,293.876 223.672,294.271 223.242 C 302.141 214.684,310.720 200.875,312.714 193.557 C 316.148 180.961,309.647 165.909,297.125 157.458 C 289.836 152.540,282.390 149.650,261.914 143.791 C 255.868 142.061,247.730 139.323,246.049 138.453 C 245.262 138.046,244.725 137.237,244.093 135.501 C 237.954 118.664,212.670 111.104,194.977 120.814 C 192.979 121.910,192.708 121.957,189.697 121.722 C 166.253 119.893,144.373 123.184,132.511 130.322 C 117.510 139.349,108.358 157.240,102.764 188.477 C 101.644 194.731,100.763 199.850,100.042 204.297 C 96.076 228.728,94.084 239.963,92.593 246.289 C 88.132 265.224,83.135 280.851,81.318 281.548 C 80.487 281.867,79.154 280.153,75.678 274.298 C 66.304 258.507,59.909 240.982,57.048 223.242 C 56.806 221.738,56.521 219.980,56.416 219.336 C 54.845 209.703,54.845 190.297,56.416 180.664 C 56.521 180.020,56.806 178.262,57.048 176.758 C 62.971 140.037,83.187 106.620,113.086 84.127 C 141.083 63.065,177.274 52.605,211.615 55.650 M205.273 68.688 C 203.477 69.787,202.995 70.590,202.995 72.485 C 202.995 75.806,204.552 76.673,211.719 77.343 C 271.316 82.910,316.998 129.286,323.008 190.324 C 323.530 195.620,324.599 197.266,327.521 197.266 C 330.728 197.266,332.217 194.863,331.850 190.277 C 326.706 126.035,277.820 75.652,213.736 68.547 C 207.124 67.814,206.691 67.821,205.273 68.688 M223.057 127.371 C 226.499 128.698,228.931 130.569,227.489 130.780 C 226.694 130.896,217.422 127.915,215.681 126.983 C 212.472 125.266,218.407 125.578,223.057 127.371 M193.164 131.187 C 204.924 132.991,216.933 136.559,232.813 142.969 C 241.746 146.574,251.535 150.030,258.305 151.967 C 291.066 161.341,299.252 166.556,303.961 181.055 C 306.031 187.430,304.111 194.723,297.947 203.897 C 295.570 207.435,295.366 207.555,284.027 212.065 C 265.957 219.252,255.504 222.814,248.047 224.326 C 247.510 224.435,245.672 224.806,243.963 225.149 C 229.387 228.081,218.446 226.223,207.679 218.989 C 202.361 215.416,199.579 215.568,198.402 219.496 C 197.576 222.253,199.336 224.364,205.664 228.202 C 222.491 238.409,240.336 237.765,273.475 225.753 C 283.134 222.252,283.085 222.656,272.424 234.375 C 271.545 235.342,268.387 238.857,265.408 242.188 C 262.428 245.518,259.892 248.330,259.771 248.438 C 256.728 251.141,241.026 271.068,236.070 278.516 C 221.578 300.294,215.419 321.327,218.359 338.997 C 219.187 343.967,219.399 343.846,208.594 344.554 C 167.704 347.236,126.844 331.646,97.461 302.153 C 90.130 294.795,87.705 291.814,88.003 290.529 C 88.116 290.045,89.027 287.715,90.028 285.352 C 96.879 269.173,102.262 247.202,107.401 214.453 C 107.856 211.553,108.496 207.598,108.824 205.664 C 109.152 203.730,109.754 200.127,110.161 197.656 C 111.189 191.417,111.562 189.342,112.298 185.742 C 119.195 152.049,129.537 137.418,149.414 133.234 C 157.125 131.611,159.678 131.176,165.625 130.476 C 170.734 129.874,187.414 130.304,193.164 131.187 M175.781 138.923 C 157.193 141.351,146.424 162.423,155.347 178.906 C 167.153 200.716,199.316 197.113,205.895 173.242 C 211.030 154.613,195.054 136.406,175.781 138.923 M186.025 148.806 C 198.332 153.494,201.891 169.314,192.787 178.859 C 183.945 188.128,168.272 185.646,162.879 174.121 C 155.838 159.074,170.599 142.930,186.025 148.806 M176.367 153.073 C 166.354 155.707,162.785 168.201,169.990 175.394 C 177.818 183.209,191.284 178.698,192.740 167.773 C 193.926 158.875,184.950 150.815,176.367 153.073 M181.607 162.287 C 183.052 163.035,184.130 165.311,183.821 166.962 C 183.205 170.243,178.965 171.638,176.573 169.346 C 172.827 165.757,177.000 159.905,181.607 162.287 " stroke="none" fill="#f9f9f9" fill-rule="evenodd"></path><path id="path1" d="M168.359 0.279 C 167.178 0.365,166.044 0.601,165.840 0.804 C 165.636 1.006,164.547 1.172,163.421 1.172 C 162.295 1.172,161.266 1.348,161.133 1.563 C 161.000 1.777,160.121 1.953,159.180 1.953 C 158.238 1.953,157.359 2.129,157.227 2.344 C 157.094 2.559,156.391 2.734,155.664 2.734 C 154.937 2.734,154.234 2.910,154.102 3.125 C 153.969 3.340,153.266 3.516,152.539 3.516 C 151.812 3.516,151.109 3.691,150.977 3.906 C 150.844 4.121,150.141 4.297,149.414 4.297 C 148.687 4.297,147.984 4.473,147.852 4.688 C 147.719 4.902,147.016 5.078,146.289 5.078 C 145.562 5.078,144.859 5.254,144.727 5.469 C 144.594 5.684,144.066 5.859,143.555 5.859 C 143.043 5.859,142.516 6.035,142.383 6.250 C 142.250 6.465,141.723 6.641,141.211 6.641 C 140.699 6.641,140.172 6.816,140.039 7.031 C 139.906 7.246,139.291 7.422,138.672 7.422 C 138.053 7.422,137.437 7.598,137.305 7.813 C 137.172 8.027,136.645 8.203,136.133 8.203 C 135.621 8.203,135.094 8.379,134.961 8.594 C 134.828 8.809,134.376 8.984,133.956 8.984 C 133.536 8.984,132.843 9.160,132.417 9.375 C 131.990 9.590,131.291 9.941,130.865 10.156 C 130.438 10.371,129.820 10.547,129.492 10.547 C 129.164 10.547,128.590 10.702,128.217 10.892 C 127.291 11.363,124.345 12.587,122.461 13.284 C 122.031 13.443,120.845 13.947,119.824 14.404 C 118.804 14.861,117.222 15.565,116.309 15.969 C 113.732 17.110,104.516 21.633,104.297 21.864 C 104.189 21.977,103.398 22.439,102.539 22.889 C 100.049 24.194,97.933 25.424,96.815 26.218 C 96.244 26.622,95.661 26.953,95.518 26.953 C 95.375 26.953,94.491 27.480,93.555 28.125 C 92.618 28.770,91.691 29.297,91.494 29.297 C 91.298 29.297,90.819 29.648,90.430 30.078 C 90.041 30.508,89.530 30.860,89.295 30.861 C 89.060 30.862,87.941 31.565,86.808 32.424 C 85.676 33.282,84.667 33.984,84.567 33.984 C 84.466 33.984,84.074 34.237,83.696 34.545 C 81.728 36.147,79.248 37.891,78.935 37.891 C 78.740 37.891,78.522 38.037,78.451 38.216 C 78.379 38.394,77.002 39.546,75.391 40.776 C 73.779 42.005,71.422 43.924,70.151 45.041 C 68.881 46.157,67.475 47.319,67.026 47.622 C 65.725 48.502,48.174 66.089,47.510 67.178 C 47.179 67.720,46.329 68.779,45.621 69.531 C 44.913 70.283,43.853 71.542,43.267 72.329 C 42.680 73.117,41.977 74.000,41.705 74.292 C 41.433 74.585,40.602 75.611,39.858 76.572 C 39.114 77.534,38.367 78.379,38.198 78.451 C 38.029 78.522,37.891 78.740,37.891 78.935 C 37.891 79.248,36.147 81.728,34.545 83.696 C 34.237 84.074,33.984 84.466,33.984 84.567 C 33.984 84.667,33.282 85.676,32.424 86.808 C 31.565 87.941,30.862 89.060,30.861 89.295 C 30.860 89.530,30.508 90.041,30.078 90.430 C 29.648 90.819,29.297 91.298,29.297 91.494 C 29.297 91.691,28.770 92.618,28.125 93.555 C 27.480 94.491,26.953 95.413,26.953 95.602 C 26.953 95.792,26.640 96.287,26.257 96.704 C 25.874 97.120,25.257 98.076,24.886 98.828 C 24.515 99.580,23.692 101.074,23.057 102.148 C 21.909 104.092,17.381 113.142,15.973 116.309 C 15.567 117.222,14.861 118.804,14.404 119.824 C 13.947 120.845,13.443 122.031,13.284 122.461 C 13.125 122.891,12.796 123.726,12.552 124.316 C 12.309 124.907,11.913 125.874,11.673 126.465 C 11.433 127.056,11.082 127.844,10.892 128.217 C 10.702 128.590,10.547 129.164,10.547 129.492 C 10.547 129.820,10.344 130.482,10.095 130.962 C 9.125 132.838,8.984 133.219,8.984 133.956 C 8.984 134.376,8.809 134.828,8.594 134.961 C 8.379 135.094,8.203 135.621,8.203 136.133 C 8.203 136.645,8.027 137.172,7.812 137.305 C 7.598 137.437,7.422 137.965,7.422 138.477 C 7.422 138.988,7.246 139.516,7.031 139.648 C 6.816 139.781,6.641 140.396,6.641 141.016 C 6.641 141.635,6.465 142.250,6.250 142.383 C 6.035 142.516,5.859 143.043,5.859 143.555 C 5.859 144.066,5.684 144.594,5.469 144.727 C 5.254 144.859,5.078 145.562,5.078 146.289 C 5.078 147.016,4.902 147.719,4.688 147.852 C 4.473 147.984,4.297 148.687,4.297 149.414 C 4.297 150.141,4.121 150.844,3.906 150.977 C 3.691 151.109,3.516 151.812,3.516 152.539 C 3.516 153.266,3.363 153.954,3.177 154.070 C 2.868 154.261,2.685 155.158,2.077 159.475 C 1.964 160.282,1.713 161.040,1.521 161.158 C 1.329 161.277,1.172 162.295,1.172 163.421 C 1.172 164.547,0.952 165.688,0.684 165.957 C -0.001 166.641,-0.258 226.714,0.404 231.385 C 0.652 233.137,0.944 235.361,1.051 236.328 C 1.159 237.295,1.406 238.253,1.600 238.457 C 1.794 238.661,1.953 239.574,1.953 240.485 C 1.953 241.396,2.129 242.250,2.344 242.383 C 2.559 242.516,2.734 243.394,2.734 244.336 C 2.734 245.277,2.910 246.156,3.125 246.289 C 3.340 246.422,3.516 247.125,3.516 247.852 C 3.516 248.578,3.691 249.281,3.906 249.414 C 4.121 249.547,4.297 250.250,4.297 250.977 C 4.297 251.703,4.473 252.406,4.687 252.539 C 4.902 252.672,5.078 253.199,5.078 253.711 C 5.078 254.223,5.254 254.750,5.469 254.883 C 5.684 255.016,5.859 255.719,5.859 256.445 C 5.859 257.172,6.035 257.875,6.250 258.008 C 6.465 258.141,6.641 258.668,6.641 259.180 C 6.641 259.691,6.816 260.219,7.031 260.352 C 7.246 260.484,7.422 261.012,7.422 261.523 C 7.422 262.035,7.598 262.563,7.813 262.695 C 8.027 262.828,8.203 263.355,8.203 263.867 C 8.203 264.379,8.379 264.906,8.594 265.039 C 8.809 265.172,8.984 265.699,8.984 266.211 C 8.984 266.723,9.160 267.250,9.375 267.383 C 9.590 267.516,9.766 267.968,9.766 268.388 C 9.766 268.808,9.921 269.456,10.111 269.830 C 10.494 270.583,11.456 272.913,12.448 275.488 C 13.504 278.233,14.410 280.288,16.795 285.352 C 19.257 290.578,23.849 299.646,24.213 300.000 C 24.408 300.190,24.586 300.492,26.254 303.471 C 26.689 304.248,27.376 305.349,27.780 305.920 C 28.185 306.490,28.516 307.149,28.516 307.385 C 28.516 307.620,28.662 307.813,28.840 307.813 C 29.019 307.813,29.410 308.296,29.710 308.887 C 30.009 309.478,31.138 311.259,32.217 312.845 C 33.296 314.431,34.355 316.013,34.570 316.361 C 34.785 316.708,35.057 317.080,35.175 317.188 C 35.293 317.295,35.812 317.998,36.328 318.750 C 36.845 319.502,37.372 320.205,37.500 320.313 C 37.628 320.420,38.158 321.123,38.678 321.875 C 39.198 322.627,40.112 323.770,40.708 324.414 C 41.305 325.059,41.794 325.726,41.795 325.897 C 41.796 326.068,42.224 326.635,42.747 327.157 C 43.269 327.680,44.190 328.770,44.793 329.581 C 45.396 330.391,46.157 331.318,46.483 331.641 C 46.809 331.963,48.217 333.539,49.612 335.143 C 52.446 338.402,61.583 347.635,63.680 349.360 C 64.428 349.974,65.830 351.206,66.797 352.098 C 67.764 352.990,69.521 354.506,70.703 355.468 C 71.885 356.429,72.939 357.306,73.047 357.417 C 73.154 357.527,74.033 358.226,75.000 358.970 C 75.967 359.714,76.816 360.461,76.888 360.630 C 76.960 360.799,77.223 360.938,77.474 360.939 C 77.725 360.940,78.465 361.424,79.120 362.014 C 79.775 362.603,80.584 363.262,80.919 363.477 C 81.253 363.691,84.191 365.673,87.447 367.880 C 90.703 370.087,93.957 372.224,94.677 372.628 C 95.397 373.033,96.406 373.600,96.919 373.889 C 97.432 374.178,97.939 374.511,98.047 374.630 C 98.154 374.748,98.857 375.146,99.609 375.512 C 100.361 375.879,101.855 376.699,102.930 377.333 C 104.880 378.486,114.733 383.413,116.211 383.975 C 116.641 384.138,118.116 384.823,119.488 385.495 C 120.861 386.168,122.218 386.719,122.504 386.719 C 122.789 386.719,123.649 387.070,124.414 387.500 C 125.179 387.930,126.066 388.281,126.384 388.281 C 126.703 388.281,127.269 388.437,127.642 388.626 C 128.015 388.816,128.848 389.188,129.492 389.453 C 130.137 389.718,130.969 390.090,131.342 390.280 C 131.715 390.470,132.364 390.625,132.784 390.625 C 133.204 390.625,133.656 390.801,133.789 391.016 C 133.922 391.230,134.449 391.406,134.961 391.406 C 135.473 391.406,136.000 391.582,136.133 391.797 C 136.266 392.012,136.793 392.188,137.305 392.188 C 137.816 392.188,138.344 392.363,138.477 392.578 C 138.609 392.793,139.137 392.969,139.648 392.969 C 140.160 392.969,140.688 393.145,140.820 393.359 C 140.953 393.574,141.656 393.750,142.383 393.750 C 143.109 393.750,143.813 393.926,143.945 394.141 C 144.078 394.355,144.605 394.531,145.117 394.531 C 145.629 394.531,146.156 394.707,146.289 394.922 C 146.422 395.137,147.125 395.313,147.852 395.313 C 148.578 395.312,149.281 395.488,149.414 395.703 C 149.547 395.918,150.250 396.094,150.977 396.094 C 151.703 396.094,152.406 396.270,152.539 396.484 C 152.672 396.699,153.375 396.875,154.102 396.875 C 154.828 396.875,155.531 397.051,155.664 397.266 C 155.797 397.480,156.676 397.656,157.617 397.656 C 158.559 397.656,159.438 397.832,159.570 398.047 C 159.703 398.262,160.582 398.438,161.523 398.438 C 162.465 398.437,163.344 398.613,163.477 398.828 C 163.609 399.043,164.639 399.219,165.765 399.219 C 166.891 399.219,167.991 399.398,168.210 399.616 C 168.793 400.199,231.065 399.875,234.180 399.273 C 235.469 399.024,237.450 398.712,238.581 398.580 C 239.713 398.448,240.734 398.186,240.851 397.998 C 240.967 397.810,241.656 397.656,242.383 397.656 C 243.109 397.656,243.813 397.480,243.945 397.266 C 244.078 397.051,244.957 396.875,245.898 396.875 C 246.840 396.875,247.719 396.699,247.852 396.484 C 247.984 396.270,248.687 396.094,249.414 396.094 C 250.141 396.094,250.844 395.918,250.977 395.703 C 251.109 395.488,251.637 395.312,252.148 395.312 C 252.660 395.312,253.188 395.137,253.320 394.922 C 253.453 394.707,254.156 394.531,254.883 394.531 C 255.609 394.531,256.313 394.355,256.445 394.141 C 256.578 393.926,257.105 393.750,257.617 393.750 C 258.129 393.750,258.656 393.574,258.789 393.359 C 258.922 393.145,259.537 392.969,260.156 392.969 C 260.775 392.969,261.391 392.793,261.523 392.578 C 261.656 392.363,262.196 392.188,262.724 392.188 C 263.251 392.188,263.988 392.032,264.361 391.842 C 264.734 391.653,265.566 391.281,266.211 391.016 C 266.855 390.751,267.688 390.379,268.061 390.189 C 268.434 389.999,269.083 389.844,269.503 389.844 C 269.923 389.844,270.375 389.668,270.508 389.453 C 270.641 389.238,271.085 389.062,271.496 389.063 C 271.906 389.063,272.868 388.711,273.633 388.281 C 274.398 387.852,275.265 387.500,275.561 387.500 C 275.856 387.500,276.862 387.123,277.795 386.663 C 278.729 386.203,279.844 385.697,280.273 385.539 C 283.712 384.275,298.881 376.631,301.129 375.031 C 301.756 374.584,302.386 374.219,302.529 374.219 C 302.672 374.219,303.555 373.691,304.492 373.047 C 305.429 372.402,306.300 371.875,306.427 371.875 C 306.697 371.875,318.459 364.061,318.750 363.689 C 318.857 363.551,319.561 363.016,320.313 362.500 C 321.064 361.984,321.768 361.456,321.875 361.328 C 321.982 361.200,322.686 360.670,323.438 360.150 C 324.189 359.631,325.040 358.977,325.327 358.698 C 325.614 358.419,326.493 357.713,327.280 357.127 C 328.067 356.542,328.975 355.795,329.297 355.466 C 329.619 355.137,330.850 354.090,332.031 353.139 C 334.820 350.895,350.895 334.820,353.139 332.031 C 354.090 330.850,355.137 329.619,355.466 329.297 C 355.795 328.975,356.542 328.067,357.127 327.280 C 357.713 326.493,358.419 325.614,358.698 325.327 C 358.977 325.040,359.631 324.189,360.150 323.438 C 360.670 322.686,361.200 321.982,361.328 321.875 C 361.456 321.768,361.984 321.064,362.500 320.313 C 363.016 319.561,363.551 318.857,363.689 318.750 C 364.142 318.396,371.875 306.667,371.875 306.333 C 371.875 306.154,372.183 305.666,372.559 305.249 C 372.935 304.833,373.500 303.965,373.814 303.320 C 374.129 302.676,374.720 301.653,375.129 301.048 C 376.657 298.785,384.436 283.259,385.538 280.273 C 385.697 279.844,386.203 278.729,386.663 277.795 C 387.123 276.862,387.500 275.856,387.500 275.561 C 387.500 275.265,387.852 274.398,388.281 273.633 C 388.711 272.868,389.063 271.981,389.063 271.663 C 389.063 271.344,389.238 270.734,389.453 270.307 C 389.668 269.880,390.020 269.182,390.234 268.755 C 390.449 268.329,390.625 267.636,390.625 267.216 C 390.625 266.796,390.801 266.344,391.016 266.211 C 391.230 266.078,391.406 265.551,391.406 265.039 C 391.406 264.527,391.582 264.000,391.797 263.867 C 392.012 263.734,392.187 263.207,392.187 262.695 C 392.187 262.184,392.363 261.656,392.578 261.523 C 392.793 261.391,392.969 260.775,392.969 260.156 C 392.969 259.537,393.145 258.922,393.359 258.789 C 393.574 258.656,393.750 258.129,393.750 257.617 C 393.750 257.105,393.926 256.578,394.141 256.445 C 394.355 256.313,394.531 255.609,394.531 254.883 C 394.531 254.156,394.707 253.453,394.922 253.320 C 395.137 253.188,395.312 252.660,395.313 252.148 C 395.313 251.637,395.488 251.109,395.703 250.977 C 395.918 250.844,396.094 250.141,396.094 249.414 C 396.094 248.687,396.246 247.999,396.433 247.884 C 396.619 247.768,396.881 246.923,397.015 246.005 C 397.508 242.635,397.717 241.585,398.045 240.820 C 398.229 240.391,398.493 239.160,398.630 238.086 C 398.767 237.012,399.070 235.166,399.303 233.984 C 399.877 231.068,400.175 168.768,399.616 168.210 C 399.398 167.991,399.219 166.891,399.219 165.765 C 399.219 164.639,399.043 163.609,398.828 163.477 C 398.613 163.344,398.438 162.465,398.438 161.523 C 398.437 160.582,398.262 159.703,398.047 159.570 C 397.832 159.438,397.656 158.559,397.656 157.617 C 397.656 156.676,397.480 155.797,397.266 155.664 C 397.051 155.531,396.875 154.828,396.875 154.102 C 396.875 153.375,396.699 152.672,396.484 152.539 C 396.270 152.406,396.094 151.703,396.094 150.977 C 396.094 150.250,395.918 149.547,395.703 149.414 C 395.488 149.281,395.312 148.578,395.313 147.852 C 395.313 147.125,395.137 146.422,394.922 146.289 C 394.707 146.156,394.531 145.541,394.531 144.922 C 394.531 144.303,394.355 143.687,394.141 143.555 C 393.926 143.422,393.750 142.807,393.750 142.188 C 393.750 141.568,393.574 140.953,393.359 140.820 C 393.145 140.688,392.969 140.160,392.969 139.648 C 392.969 139.137,392.793 138.609,392.578 138.477 C 392.363 138.344,392.188 137.816,392.188 137.305 C 392.188 136.793,392.012 136.266,391.797 136.133 C 391.582 136.000,391.406 135.473,391.406 134.961 C 391.406 134.449,391.230 133.922,391.016 133.789 C 390.801 133.656,390.625 133.204,390.625 132.784 C 390.625 132.364,390.470 131.715,390.280 131.342 C 390.090 130.969,389.718 130.137,389.453 129.492 C 389.188 128.848,388.816 128.015,388.626 127.642 C 388.437 127.269,388.281 126.714,388.281 126.409 C 388.281 126.105,387.905 125.091,387.445 124.158 C 386.984 123.225,386.479 122.109,386.322 121.680 C 386.165 121.250,385.663 120.063,385.206 119.043 C 384.749 118.022,384.043 116.440,383.636 115.527 C 382.222 112.347,378.481 104.869,377.334 102.930 C 376.699 101.855,375.882 100.361,375.518 99.609 C 375.154 98.857,374.362 97.507,373.757 96.609 C 373.151 95.711,372.656 94.872,372.656 94.745 C 372.656 94.618,370.679 91.592,368.262 88.020 C 365.845 84.449,363.691 81.253,363.477 80.918 C 363.262 80.584,362.603 79.775,362.014 79.120 C 361.424 78.465,360.940 77.725,360.939 77.474 C 360.938 77.223,360.799 76.960,360.630 76.888 C 360.461 76.816,359.714 75.967,358.970 75.000 C 358.226 74.033,357.527 73.154,357.417 73.047 C 357.306 72.939,356.430 71.885,355.470 70.703 C 354.511 69.521,353.453 68.291,353.121 67.969 C 352.789 67.646,351.555 66.250,350.379 64.866 C 347.981 62.042,338.797 52.747,336.710 51.032 C 335.963 50.417,334.381 49.011,333.194 47.907 C 332.008 46.802,330.378 45.403,329.572 44.798 C 328.766 44.192,327.716 43.309,327.237 42.836 C 326.759 42.363,325.752 41.548,325.000 41.026 C 324.248 40.504,323.545 39.972,323.438 39.844 C 323.330 39.716,322.627 39.188,321.875 38.672 C 321.123 38.155,320.420 37.628,320.313 37.500 C 320.205 37.372,319.502 36.845,318.750 36.328 C 317.998 35.812,317.295 35.293,317.188 35.175 C 317.080 35.057,316.708 34.785,316.361 34.570 C 316.013 34.355,314.431 33.296,312.845 32.217 C 311.259 31.138,309.478 30.009,308.887 29.710 C 308.296 29.410,307.813 29.019,307.813 28.840 C 307.813 28.662,307.620 28.516,307.385 28.516 C 307.149 28.516,306.490 28.185,305.920 27.780 C 305.349 27.376,304.224 26.672,303.418 26.218 C 302.612 25.763,301.294 25.011,300.488 24.546 C 295.783 21.833,282.765 15.334,279.395 14.016 C 278.911 13.827,278.076 13.496,277.539 13.281 C 277.002 13.066,276.123 12.715,275.586 12.500 C 275.049 12.285,274.214 11.957,273.730 11.771 C 272.265 11.207,270.546 10.475,269.830 10.111 C 269.456 9.921,268.808 9.766,268.388 9.766 C 267.968 9.766,267.516 9.590,267.383 9.375 C 267.250 9.160,266.723 8.984,266.211 8.984 C 265.699 8.984,265.172 8.809,265.039 8.594 C 264.906 8.379,264.379 8.203,263.867 8.203 C 263.355 8.203,262.828 8.027,262.695 7.813 C 262.563 7.598,262.035 7.422,261.523 7.422 C 261.012 7.422,260.484 7.246,260.352 7.031 C 260.219 6.816,259.691 6.641,259.180 6.641 C 258.668 6.641,258.141 6.465,258.008 6.250 C 257.875 6.035,257.172 5.859,256.445 5.859 C 255.719 5.859,255.016 5.684,254.883 5.469 C 254.750 5.254,254.223 5.078,253.711 5.078 C 253.199 5.078,252.672 4.902,252.539 4.688 C 252.406 4.473,251.703 4.297,250.977 4.297 C 250.250 4.297,249.547 4.121,249.414 3.906 C 249.281 3.691,248.578 3.516,247.852 3.516 C 247.125 3.516,246.422 3.340,246.289 3.125 C 246.156 2.910,245.277 2.734,244.336 2.734 C 243.394 2.734,242.516 2.559,242.383 2.344 C 242.250 2.129,241.371 1.953,240.430 1.953 C 239.488 1.953,238.609 1.777,238.477 1.563 C 238.344 1.348,237.490 1.172,236.579 1.172 C 235.667 1.172,234.702 0.952,234.434 0.684 C 233.963 0.213,174.275 -0.153,168.359 0.279 M213.046 45.506 C 216.462 45.822,219.889 46.179,220.663 46.300 C 230.154 47.785,234.014 48.605,243.555 51.161 C 275.933 59.836,309.952 84.812,328.963 113.867 C 343.354 135.861,350.732 156.403,354.357 184.570 C 355.029 189.789,355.029 210.211,354.357 215.430 C 348.851 258.213,330.767 292.567,300.174 318.359 C 280.613 334.851,257.068 346.371,231.974 351.727 C 231.405 351.849,230.202 352.564,229.300 353.318 C 228.398 354.071,227.194 354.714,226.623 354.746 C 224.844 354.847,223.262 354.631,222.761 354.219 C 222.268 353.812,221.398 353.844,209.766 354.684 C 203.102 355.166,189.156 354.962,184.375 354.313 C 182.979 354.124,180.254 353.759,178.320 353.502 C 156.237 350.573,133.890 342.065,113.867 328.963 C 103.070 321.898,88.957 309.181,80.859 299.219 C 79.898 298.037,79.012 296.982,78.889 296.875 C 71.463 290.371,55.459 259.597,51.161 243.555 C 49.651 237.918,48.790 234.381,48.118 231.055 C 47.415 227.578,47.102 225.788,46.300 220.663 C 44.588 209.722,44.588 190.278,46.300 179.337 C 47.102 174.212,47.415 172.422,48.118 168.945 C 48.552 166.797,49.343 163.369,49.877 161.328 C 50.411 159.287,50.985 157.090,51.154 156.445 C 63.622 108.810,108.810 63.622,156.445 51.154 C 157.090 50.985,159.301 50.406,161.360 49.867 C 169.773 47.664,177.501 46.365,188.281 45.341 C 193.834 44.814,206.474 44.898,213.046 45.506 M192.383 56.667 C 180.743 57.362,172.631 58.765,158.789 62.477 C 155.572 63.339,146.711 66.593,142.578 68.428 C 139.214 69.923,129.182 75.028,128.109 75.793 C 127.514 76.216,126.911 76.563,126.768 76.563 C 126.113 76.563,110.460 87.441,109.375 88.650 C 109.268 88.769,108.125 89.738,106.836 90.802 C 103.760 93.342,93.645 103.377,91.406 106.110 C 90.439 107.290,89.364 108.563,89.016 108.939 C 86.898 111.230,76.563 126.038,76.563 126.783 C 76.563 126.918,76.216 127.514,75.793 128.109 C 73.192 131.761,66.935 145.521,64.063 153.906 C 62.688 157.919,62.738 157.746,60.945 164.648 C 55.035 187.403,54.974 211.679,60.769 234.570 C 62.680 242.121,64.393 247.518,66.783 253.516 C 70.841 263.700,79.946 280.145,81.097 279.369 C 82.563 278.380,87.456 262.334,91.422 245.508 C 92.047 242.853,93.769 234.008,94.540 229.492 C 95.971 221.107,97.244 213.437,97.686 210.547 C 97.932 208.936,98.390 206.123,98.702 204.297 C 99.015 202.471,99.426 200.010,99.616 198.828 C 99.806 197.646,100.136 195.713,100.349 194.531 C 100.562 193.350,101.011 190.801,101.347 188.867 C 102.189 184.015,102.775 181.236,104.314 174.805 C 104.777 172.871,105.311 170.762,105.501 170.117 C 105.691 169.473,106.314 167.363,106.884 165.430 C 113.118 144.287,124.779 130.432,140.870 125.050 C 153.428 120.849,174.333 118.783,188.257 120.366 L 192.166 120.811 194.814 119.421 C 204.031 114.583,214.489 113.744,224.548 117.035 C 226.251 117.593,226.989 117.894,230.469 119.456 C 237.001 122.388,242.884 128.710,245.667 135.788 C 245.930 136.457,246.529 137.188,246.998 137.411 C 249.560 138.632,255.167 140.479,263.867 142.969 C 270.058 144.741,274.475 146.088,279.886 147.853 C 296.159 153.163,306.240 161.062,311.747 172.819 C 317.384 184.853,315.760 195.631,306.156 209.930 C 304.804 211.943,297.122 222.063,296.495 222.656 C 296.382 222.764,295.150 224.170,293.757 225.781 C 292.365 227.393,291.134 228.799,291.023 228.906 C 290.911 229.014,289.678 230.420,288.284 232.031 C 286.889 233.643,285.483 235.225,285.158 235.547 C 284.834 235.869,283.075 237.803,281.249 239.844 C 279.423 241.885,277.842 243.643,277.734 243.750 C 277.445 244.040,274.038 247.807,270.663 251.571 C 239.947 285.821,228.116 307.638,228.061 330.128 C 228.038 339.905,228.476 340.810,232.737 339.800 C 278.377 328.972,315.969 296.617,333.214 253.320 C 338.408 240.279,341.084 229.412,342.770 214.514 C 343.826 205.179,343.461 188.411,341.997 179.017 C 336.267 142.236,318.493 111.411,289.258 87.551 C 280.079 80.061,265.330 71.490,253.516 66.783 C 242.228 62.286,228.961 58.907,216.797 57.433 C 213.323 57.012,200.272 56.209,198.492 56.307 C 197.925 56.338,195.176 56.500,192.383 56.667 M215.234 67.383 C 222.291 68.293,224.733 68.688,228.410 69.516 C 280.612 81.270,319.313 120.523,330.873 173.438 C 333.274 184.428,333.729 194.448,331.921 196.534 C 327.388 201.765,321.517 197.438,321.477 188.835 C 321.467 186.619,320.050 177.826,318.953 173.170 C 310.775 138.465,290.659 111.434,259.766 93.634 C 245.719 85.541,228.409 80.243,210.221 78.472 C 203.444 77.812,201.304 76.133,201.679 71.773 C 202.078 67.134,205.277 66.098,215.234 67.383 M166.992 131.685 C 159.315 132.498,156.351 133.002,148.438 134.837 C 140.985 136.566,134.469 140.290,130.032 145.359 C 127.775 147.937,125.033 151.583,125.013 152.034 C 125.006 152.185,124.505 153.152,123.900 154.182 C 120.356 160.218,115.981 173.689,113.650 185.742 C 112.726 190.518,109.057 212.190,107.797 220.313 C 107.501 222.217,106.485 228.126,105.478 233.789 C 101.741 254.818,96.132 274.986,90.546 287.476 C 88.962 291.018,89.007 291.173,92.887 295.508 C 115.465 320.736,145.054 336.706,179.017 341.997 C 190.743 343.824,216.628 343.818,217.331 341.988 C 217.433 341.721,217.328 340.734,217.097 339.794 C 216.255 336.364,216.511 322.178,217.501 317.383 C 220.821 301.298,228.171 286.373,241.546 268.555 C 243.481 265.977,245.168 263.779,245.296 263.672 C 245.424 263.564,246.132 262.686,246.870 261.719 C 249.388 258.420,261.440 244.359,263.275 242.578 C 263.816 242.053,271.990 232.944,274.835 229.695 C 275.678 228.733,276.675 227.601,277.051 227.180 C 278.694 225.341,278.374 225.376,271.875 227.734 C 265.153 230.173,260.653 231.560,253.516 233.393 C 247.520 234.934,245.915 235.258,239.031 236.322 C 230.900 237.578,220.650 236.293,212.305 232.971 C 199.931 228.047,194.467 221.907,198.155 217.072 C 200.396 214.133,203.513 214.308,208.008 217.624 C 221.910 227.878,239.843 227.434,270.117 216.086 C 271.836 215.441,274.648 214.392,276.367 213.754 C 280.200 212.330,287.145 209.553,289.258 208.599 C 290.117 208.211,291.517 207.605,292.369 207.252 C 294.441 206.394,295.132 205.727,297.056 202.734 C 303.437 192.810,304.684 187.629,302.385 180.596 C 298.151 167.639,289.718 162.309,260.156 153.906 C 253.901 152.128,249.251 150.637,245.313 149.145 C 237.969 146.364,233.031 144.455,231.836 143.935 C 231.191 143.655,229.697 143.077,228.516 142.650 C 227.334 142.223,224.873 141.319,223.047 140.639 C 205.327 134.047,190.652 131.160,175.586 131.302 C 172.578 131.331,168.711 131.503,166.992 131.685 M187.891 138.676 C 219.103 149.049,212.261 194.638,179.492 194.638 C 151.940 194.638,140.375 159.942,162.308 143.084 C 168.921 138.001,180.076 136.079,187.891 138.676 M176.563 149.206 C 159.088 152.393,157.350 176.854,174.205 182.387 C 181.503 184.783,189.881 181.813,193.944 175.390 C 201.826 162.929,190.973 146.578,176.563 149.206 M186.064 153.062 C 199.766 159.808,194.802 180.626,179.492 180.626 C 163.089 180.626,159.256 157.786,174.732 152.265 C 177.986 151.104,182.771 151.441,186.064 153.062 M178.516 163.160 C 175.376 164.358,176.200 169.141,179.547 169.141 C 181.940 169.141,183.471 165.520,181.738 163.958 C 180.936 163.235,179.348 162.842,178.516 163.160 " stroke="none" fill="#040404" fill-rule="evenodd"></path><path id="path2" d="M190.625 45.935 C 160.369 48.540,136.616 56.654,113.477 72.289 C 15.637 138.397,26.058 286.375,132.227 338.540 C 157.816 351.113,190.359 356.844,216.797 353.433 C 221.053 352.884,221.390 352.893,223.204 353.593 C 225.568 354.506,226.984 354.260,229.102 352.569 C 230.380 351.548,231.767 351.050,236.719 349.833 C 316.015 330.350,366.541 252.212,351.720 171.981 C 340.123 109.201,290.604 59.734,227.866 48.259 C 217.332 46.332,199.175 45.199,190.625 45.935 M208.270 46.489 C 250.494 49.278,291.876 69.473,316.016 99.069 C 316.982 100.255,318.042 101.520,318.371 101.882 C 326.713 111.058,338.506 131.313,343.716 145.412 C 376.777 234.883,324.263 330.604,231.166 350.562 C 230.583 350.687,229.691 351.204,229.183 351.712 C 227.263 353.632,225.178 354.032,222.987 352.899 C 221.897 352.335,221.264 352.338,215.682 352.939 C 176.025 357.203,128.827 342.866,101.882 318.371 C 101.520 318.042,100.253 316.982,99.066 316.016 C 85.829 305.237,70.107 284.586,61.544 266.733 C 22.908 186.180,60.474 89.932,143.359 57.112 C 159.747 50.623,172.714 47.855,193.750 46.356 C 197.740 46.071,202.620 46.116,208.270 46.489 M189.648 55.495 C 147.316 58.829,109.360 79.544,84.127 113.086 C 70.300 131.466,60.720 153.992,57.048 176.758 C 56.806 178.262,56.521 180.020,56.416 180.664 C 54.845 190.297,54.845 209.703,56.416 219.336 C 56.521 219.980,56.806 221.738,57.048 223.242 C 59.909 240.982,66.304 258.507,75.678 274.298 C 79.154 280.153,80.487 281.867,81.318 281.548 C 83.135 280.851,88.132 265.224,92.593 246.289 C 94.084 239.963,96.076 228.728,100.042 204.297 C 100.763 199.850,101.644 194.731,102.764 188.477 C 108.358 157.240,117.510 139.349,132.511 130.322 C 144.373 123.184,166.253 119.893,189.697 121.722 C 192.708 121.957,192.979 121.910,194.977 120.814 C 212.670 111.104,237.954 118.664,244.093 135.501 C 244.725 137.237,245.262 138.046,246.049 138.453 C 247.730 139.323,255.868 142.061,261.914 143.791 C 282.390 149.650,289.836 152.540,297.125 157.458 C 309.647 165.909,316.148 180.961,312.714 193.557 C 310.720 200.875,302.141 214.684,294.271 223.242 C 293.876 223.672,291.633 226.221,289.286 228.906 C 286.938 231.592,283.493 235.459,281.630 237.500 C 279.766 239.541,276.343 243.320,274.022 245.898 C 271.701 248.477,269.165 251.289,268.388 252.148 C 239.324 284.261,226.749 307.816,226.786 330.078 C 226.806 342.267,227.024 342.533,235.284 340.466 C 290.831 326.566,333.482 280.435,342.762 224.219 C 355.095 149.514,309.046 78.584,235.969 59.724 C 230.289 58.259,227.820 57.769,219.428 56.445 C 212.008 55.274,198.094 54.830,189.648 55.495 M218.164 56.807 C 306.595 69.078,362.838 154.511,338.663 239.844 C 324.666 289.252,284.903 327.425,234.115 340.212 C 228.123 341.721,228.037 341.647,227.347 334.406 C 226.151 321.853,230.310 306.544,238.886 291.933 C 247.359 277.497,256.335 266.177,279.883 240.227 C 306.827 210.535,314.072 199.283,314.213 186.914 C 314.401 170.474,302.827 157.031,281.980 149.474 C 277.578 147.878,273.779 146.699,257.422 141.853 C 249.041 139.370,245.719 137.985,245.235 136.771 C 237.911 118.416,214.965 110.373,196.193 119.580 L 192.191 121.543 188.020 121.123 C 167.138 119.021,142.531 123.150,130.952 130.698 C 113.379 142.153,107.328 157.177,98.246 211.914 C 92.515 246.451,88.246 264.648,82.734 278.027 C 81.254 281.621,80.920 281.591,78.385 277.637 C 54.053 239.688,49.029 190.965,65.102 148.828 C 85.034 96.576,131.279 61.819,188.477 56.103 C 192.636 55.687,213.695 56.186,218.164 56.807 M204.609 68.253 C 201.371 70.262,201.829 75.616,205.354 76.978 C 205.828 77.162,208.817 77.585,211.995 77.919 C 271.350 84.153,316.704 129.935,322.295 189.258 C 322.911 195.793,324.106 197.734,327.512 197.734 C 332.643 197.734,333.370 193.928,331.060 179.173 C 321.824 120.183,273.665 74.449,213.980 67.989 C 208.562 67.402,205.858 67.479,204.609 68.253 M213.736 68.547 C 277.820 75.652,326.706 126.035,331.850 190.277 C 332.217 194.863,330.728 197.266,327.521 197.266 C 324.599 197.266,323.530 195.620,323.008 190.324 C 316.998 129.286,271.316 82.910,211.719 77.343 C 204.552 76.673,202.995 75.806,202.995 72.485 C 202.995 68.357,205.091 67.589,213.736 68.547 M214.844 126.104 C 214.844 126.735,215.948 127.236,221.588 129.166 C 227.446 131.171,228.987 131.289,227.201 129.598 C 224.992 127.505,214.844 124.636,214.844 126.104 M222.318 127.914 L 223.633 128.485 222.441 128.500 C 221.786 128.509,221.083 128.357,220.879 128.163 C 220.675 127.969,220.156 127.726,219.727 127.622 C 219.113 127.475,219.166 127.425,219.975 127.389 C 220.541 127.364,221.596 127.601,222.318 127.914 M165.625 130.476 C 159.678 131.176,157.125 131.611,149.414 133.234 C 129.537 137.418,119.195 152.049,112.298 185.742 C 111.562 189.342,111.189 191.417,110.161 197.656 C 109.754 200.127,109.152 203.730,108.824 205.664 C 108.496 207.598,107.856 211.553,107.401 214.453 C 104.620 232.174,101.708 247.094,98.785 258.594 C 96.616 267.125,92.772 278.870,90.028 285.352 C 89.027 287.715,88.116 290.045,88.003 290.529 C 87.705 291.814,90.130 294.795,97.461 302.153 C 126.844 331.646,167.704 347.236,208.594 344.554 C 219.399 343.846,219.187 343.967,218.359 338.997 C 215.419 321.327,221.578 300.294,236.070 278.516 C 241.026 271.068,256.728 251.141,259.771 248.438 C 259.892 248.330,262.428 245.518,265.408 242.188 C 268.387 238.857,271.545 235.342,272.424 234.375 C 283.085 222.656,283.134 222.252,273.475 225.753 C 240.336 237.765,222.491 238.409,205.664 228.202 C 199.336 224.364,197.576 222.253,198.402 219.496 C 199.579 215.568,202.361 215.416,207.679 218.989 C 218.446 226.223,229.387 228.081,243.963 225.149 C 245.672 224.806,247.510 224.435,248.047 224.326 C 255.504 222.814,265.957 219.252,284.027 212.065 C 295.366 207.555,295.570 207.435,297.947 203.897 C 304.111 194.723,306.031 187.430,303.961 181.055 C 299.252 166.556,291.066 161.341,258.305 151.967 C 251.535 150.030,241.746 146.574,232.813 142.969 C 216.933 136.559,204.924 132.991,193.164 131.187 C 187.414 130.304,170.734 129.874,165.625 130.476 M192.109 131.629 C 199.006 132.613,202.856 133.464,210.774 135.757 C 216.574 137.437,221.284 139.139,242.496 147.221 C 247.070 148.963,255.068 151.627,260.269 153.140 C 290.779 162.015,298.643 167.028,303.147 180.471 C 305.366 187.096,304.354 192.109,298.991 201.051 C 295.416 207.012,295.627 206.859,285.156 211.076 C 241.841 228.518,224.903 230.087,207.564 218.264 C 202.943 215.113,201.224 214.890,199.047 217.163 C 196.186 220.149,197.425 223.360,202.836 226.979 C 220.836 239.019,241.202 238.725,274.698 225.943 C 282.092 223.121,282.728 222.087,264.831 241.992 C 233.593 276.736,221.278 297.380,217.731 320.948 C 217.041 325.535,217.175 336.538,217.969 340.413 C 218.522 343.109,218.296 343.239,212.156 343.778 C 170.531 347.434,128.229 332.028,98.404 302.349 C 87.627 291.625,87.854 292.125,90.634 285.291 C 98.700 265.464,101.795 252.237,109.767 203.516 C 116.208 164.148,122.930 147.645,135.956 139.219 C 146.963 132.099,171.829 128.738,192.109 131.629 M174.805 138.510 C 171.410 139.324,170.200 139.711,168.029 140.678 C 140.826 152.794,149.680 193.920,179.492 193.920 C 208.710 193.920,218.096 154.252,191.990 141.104 C 187.682 138.934,178.694 137.578,174.805 138.510 M187.653 140.015 C 208.205 146.287,213.548 173.271,196.979 187.114 C 179.362 201.832,152.314 189.316,152.227 166.406 C 152.156 147.631,169.723 134.544,187.653 140.015 M174.707 148.235 C 161.145 152.051,156.517 168.709,166.198 178.859 C 176.566 189.729,194.931 184.168,197.695 169.321 C 200.107 156.369,187.359 144.676,174.707 148.235 M182.643 148.470 C 198.604 151.385,202.709 172.493,189.023 181.275 C 180.054 187.030,167.713 183.326,163.177 173.517 C 157.206 160.606,168.628 145.910,182.643 148.470 M175.127 152.884 C 160.292 157.726,163.873 179.857,179.492 179.857 C 197.408 179.857,198.012 153.070,180.110 152.465 C 178.035 152.394,176.137 152.554,175.127 152.884 M184.987 153.953 C 191.667 157.071,194.602 164.922,191.615 171.684 C 187.172 181.743,171.812 181.743,167.369 171.684 C 162.422 160.484,174.006 148.828,184.987 153.953 M177.091 162.471 C 175.679 163.332,174.813 165.448,175.184 167.134 C 175.879 170.301,180.082 171.578,182.425 169.333 C 186.280 165.640,181.654 159.689,177.091 162.471 M180.775 162.529 C 184.640 163.877,183.591 169.922,179.492 169.922 C 175.558 169.922,174.279 164.238,177.863 162.679 C 179.389 162.015,179.311 162.019,180.775 162.529 " stroke="none" fill="#848484" fill-rule="evenodd"></path><path id="path3" d="M188.281 45.341 C 177.501 46.365,169.773 47.664,161.360 49.867 C 159.301 50.406,157.090 50.985,156.445 51.154 C 108.810 63.622,63.622 108.810,51.154 156.445 C 50.985 157.090,50.411 159.287,49.877 161.328 C 49.343 163.369,48.552 166.797,48.118 168.945 C 47.415 172.422,47.102 174.212,46.300 179.337 C 44.588 190.278,44.588 209.722,46.300 220.663 C 47.785 230.154,48.605 234.014,51.161 243.555 C 55.459 259.597,71.463 290.371,78.889 296.875 C 79.012 296.982,79.898 298.037,80.859 299.219 C 104.180 327.908,141.319 348.594,178.320 353.502 C 180.254 353.759,182.979 354.124,184.375 354.313 C 189.156 354.962,203.102 355.166,209.766 354.684 C 221.398 353.844,222.268 353.812,222.761 354.219 C 223.262 354.631,224.844 354.847,226.623 354.746 C 227.194 354.714,228.398 354.071,229.300 353.318 C 230.202 352.564,231.405 351.849,231.974 351.727 C 262.111 345.294,288.462 330.851,310.411 308.733 C 335.317 283.636,349.438 253.654,354.357 215.430 C 355.029 210.211,355.029 189.789,354.357 184.570 C 350.732 156.403,343.354 135.861,328.963 113.867 C 309.952 84.812,275.933 59.836,243.555 51.161 C 237.918 49.651,234.381 48.790,231.055 48.118 C 227.578 47.415,225.788 47.102,220.663 46.300 C 212.948 45.093,196.137 44.595,188.281 45.341 M215.157 46.294 C 278.473 52.643,331.565 97.082,348.626 158.008 C 372.248 242.362,321.844 328.843,236.719 350.015 C 232.054 351.176,230.004 351.867,229.297 352.519 C 227.228 354.428,225.156 354.802,222.954 353.663 C 222.017 353.179,221.170 353.090,219.360 353.286 C 144.659 361.402,77.045 319.010,53.698 249.422 C 21.876 154.572,85.996 56.142,186.133 46.120 C 191.742 45.558,208.846 45.661,215.157 46.294 M191.406 56.088 C 169.861 57.920,152.510 62.581,135.537 71.099 C 61.443 108.281,33.831 200.309,75.225 272.109 C 78.318 277.475,80.401 280.469,81.040 280.469 C 82.092 280.469,86.109 268.836,89.447 256.125 C 92.473 244.598,94.222 235.419,99.429 203.711 C 106.884 158.322,113.960 141.772,130.664 130.662 C 141.777 123.271,165.153 119.021,185.352 120.719 C 187.930 120.936,190.588 121.136,191.259 121.165 C 192.007 121.197,193.897 120.515,196.142 119.403 C 213.806 110.656,238.657 118.569,244.585 134.828 C 245.697 137.877,248.746 139.371,260.386 142.570 C 292.982 151.529,304.496 158.407,311.204 172.925 C 319.729 191.377,314.363 202.443,276.765 243.945 C 236.925 287.922,224.113 312.231,227.780 336.886 C 228.535 341.964,229.476 341.955,245.346 336.707 C 358.359 299.340,379.329 147.287,280.664 80.618 C 254.896 63.207,220.115 53.648,191.406 56.088 M206.500 56.640 C 217.932 57.279,224.746 58.281,234.570 60.769 C 246.276 63.732,252.454 65.982,263.281 71.225 C 271.991 75.442,282.558 82.084,289.258 87.551 C 318.493 111.411,336.267 142.236,341.997 179.017 C 343.461 188.411,343.826 205.179,342.770 214.514 C 341.733 223.674,340.991 227.849,339.074 235.315 C 325.694 287.431,285.018 327.397,232.737 339.800 C 228.476 340.810,228.038 339.905,228.061 330.128 C 228.116 307.638,239.947 285.821,270.663 251.571 C 274.038 247.807,277.445 244.040,277.734 243.750 C 277.842 243.643,279.423 241.885,281.249 239.844 C 283.075 237.803,284.834 235.869,285.158 235.547 C 285.483 235.225,286.889 233.643,288.284 232.031 C 289.678 230.420,290.911 229.014,291.023 228.906 C 291.134 228.799,292.365 227.393,293.757 225.781 C 295.150 224.170,296.382 222.764,296.495 222.656 C 297.122 222.063,304.804 211.943,306.156 209.930 C 315.760 195.631,317.384 184.853,311.747 172.819 C 306.240 161.062,296.159 153.163,279.886 147.853 C 274.475 146.088,270.058 144.741,263.867 142.969 C 255.167 140.479,249.560 138.632,246.998 137.411 C 246.529 137.188,245.930 136.457,245.667 135.788 C 242.884 128.710,237.001 122.388,230.469 119.456 C 226.989 117.894,226.251 117.593,224.548 117.035 C 214.489 113.744,204.031 114.583,194.814 119.421 L 192.166 120.811 188.257 120.366 C 174.333 118.783,153.428 120.849,140.870 125.050 C 124.779 130.432,113.118 144.287,106.884 165.430 C 106.314 167.363,105.691 169.473,105.501 170.117 C 105.311 170.762,104.777 172.871,104.314 174.805 C 102.775 181.236,102.189 184.015,101.347 188.867 C 101.011 190.801,100.562 193.350,100.349 194.531 C 100.136 195.713,99.806 197.646,99.616 198.828 C 99.426 200.010,99.015 202.471,98.702 204.297 C 98.390 206.123,97.932 208.936,97.686 210.547 C 97.244 213.437,95.971 221.107,94.540 229.492 C 93.769 234.008,92.047 242.853,91.422 245.508 C 87.456 262.334,82.563 278.380,81.097 279.369 C 79.946 280.145,70.841 263.700,66.783 253.516 C 62.284 242.223,58.896 228.916,57.435 216.797 C 55.391 199.836,56.645 181.206,60.945 164.648 C 62.738 157.746,62.688 157.919,64.063 153.906 C 66.935 145.521,73.192 131.761,75.793 128.109 C 76.216 127.514,76.563 126.918,76.563 126.783 C 76.563 126.038,86.898 111.230,89.016 108.939 C 89.364 108.563,90.439 107.290,91.406 106.110 C 93.645 103.377,103.760 93.342,106.836 90.802 C 108.125 89.738,109.268 88.769,109.375 88.650 C 110.460 87.441,126.113 76.563,126.768 76.563 C 126.911 76.563,127.514 76.216,128.109 75.793 C 129.182 75.028,139.214 69.923,142.578 68.428 C 146.711 66.593,155.572 63.339,158.789 62.477 C 174.433 58.282,180.926 57.273,198.492 56.307 C 199.059 56.276,202.662 56.426,206.500 56.640 M204.492 67.524 C 201.723 69.234,200.805 72.257,202.224 74.992 C 203.446 77.347,204.822 77.946,210.221 78.472 C 226.586 80.066,240.715 84.015,254.265 90.782 C 287.534 107.398,310.280 136.368,318.953 173.170 C 320.050 177.826,321.467 186.619,321.477 188.835 C 321.506 195.040,323.574 198.438,327.323 198.438 C 333.290 198.437,334.254 194.659,332.009 180.078 C 328.422 156.783,318.870 134.842,304.543 116.992 C 285.091 92.755,258.797 76.358,228.410 69.516 C 217.929 67.156,206.613 66.213,204.492 67.524 M213.281 67.758 C 273.650 74.198,321.964 119.738,331.200 178.906 C 333.551 193.969,332.985 197.391,328.057 197.931 C 324.176 198.356,322.817 196.251,322.052 188.628 C 316.075 129.058,268.995 82.471,210.156 77.906 C 203.819 77.414,201.018 74.917,202.333 70.930 C 203.487 67.435,205.306 66.908,213.281 67.758 M166.602 131.095 C 128.862 134.812,119.238 146.903,110.198 201.953 C 109.334 207.217,107.903 215.918,107.019 221.289 C 101.933 252.188,96.593 272.713,89.556 288.415 L 88.533 290.697 89.286 292.113 C 90.300 294.020,103.531 307.305,108.388 311.293 C 136.939 334.735,174.148 346.502,210.880 343.705 C 217.955 343.166,218.147 343.083,217.806 340.683 C 214.095 314.551,223.786 290.267,250.958 257.617 C 254.987 252.776,260.616 246.400,274.529 230.921 C 280.715 224.039,280.703 224.009,272.837 226.790 C 238.943 238.775,221.143 239.064,203.843 227.910 C 198.082 224.196,196.650 222.036,197.856 218.880 C 199.470 214.653,202.727 214.556,208.398 218.565 C 224.186 229.726,241.867 228.104,283.008 211.723 C 295.681 206.676,294.916 207.128,297.476 203.188 C 303.533 193.868,305.168 188.115,303.494 182.023 C 299.944 169.111,291.241 162.559,268.750 155.867 C 264.990 154.748,259.277 153.045,256.055 152.081 C 250.473 150.412,243.573 147.907,227.930 141.869 C 213.979 136.485,204.155 133.689,192.578 131.807 C 189.022 131.229,170.415 130.719,166.602 131.095 M185.352 131.631 C 197.708 132.723,209.064 135.437,223.047 140.639 C 224.873 141.319,227.334 142.223,228.516 142.650 C 229.697 143.077,231.191 143.655,231.836 143.935 C 233.031 144.455,237.969 146.364,245.313 149.145 C 249.251 150.637,253.901 152.128,260.156 153.906 C 289.718 162.309,298.151 167.639,302.385 180.596 C 304.684 187.629,303.437 192.810,297.056 202.734 C 295.132 205.727,294.441 206.394,292.369 207.252 C 291.517 207.605,290.117 208.211,289.258 208.599 C 287.145 209.553,280.200 212.330,276.367 213.754 C 274.648 214.392,271.836 215.441,270.117 216.086 C 239.843 227.434,221.910 227.878,208.008 217.624 C 203.513 214.308,200.396 214.133,198.155 217.072 C 194.467 221.907,199.931 228.047,212.305 232.971 C 217.013 234.845,218.064 235.119,225.169 236.325 C 231.940 237.474,241.462 236.490,253.516 233.393 C 260.653 231.560,265.153 230.173,271.875 227.734 C 277.591 225.660,277.734 225.618,277.734 226.053 C 277.734 226.252,277.427 226.759,277.051 227.180 C 276.675 227.601,275.678 228.733,274.835 229.695 C 271.990 232.944,263.816 242.053,263.275 242.578 C 261.440 244.359,249.388 258.420,246.870 261.719 C 246.132 262.686,245.424 263.564,245.296 263.672 C 245.168 263.779,243.481 265.977,241.546 268.555 C 228.171 286.373,220.821 301.298,217.501 317.383 C 216.511 322.178,216.255 336.364,217.097 339.794 C 217.328 340.734,217.433 341.721,217.331 341.988 C 216.628 343.818,190.743 343.824,179.017 341.997 C 145.054 336.706,115.465 320.736,92.887 295.508 C 89.007 291.173,88.962 291.018,90.546 287.476 C 96.132 274.986,101.741 254.818,105.478 233.789 C 106.485 228.126,107.501 222.217,107.797 220.313 C 109.057 212.190,112.726 190.518,113.650 185.742 C 115.981 173.689,120.356 160.218,123.900 154.182 C 124.505 153.152,125.006 152.185,125.013 152.034 C 125.033 151.583,127.775 147.937,130.032 145.359 C 133.649 141.228,138.707 137.931,144.336 136.035 C 146.531 135.295,147.508 135.038,151.953 134.032 C 162.644 131.611,175.043 130.719,185.352 131.631 M174.219 137.872 C 153.844 141.736,144.280 164.990,155.896 182.422 C 166.793 198.773,192.192 198.773,203.088 182.422 C 217.272 161.137,199.133 133.147,174.219 137.872 M186.523 138.860 C 203.963 143.329,212.670 163.157,204.276 179.290 C 194.015 199.013,164.969 199.013,154.708 179.290 C 143.448 157.647,162.978 132.828,186.523 138.860 M173.786 149.365 C 161.174 153.817,157.646 169.423,167.134 178.793 C 176.780 188.318,193.228 183.697,196.667 170.494 C 200.184 156.990,186.911 144.732,173.786 149.365 M185.545 150.099 C 200.593 155.680,200.078 177.364,184.779 182.387 C 176.928 184.964,168.031 181.357,164.349 174.104 C 157.195 160.009,170.780 144.623,185.545 150.099 M174.732 152.265 C 159.256 157.786,163.089 180.626,179.492 180.626 C 192.240 180.626,198.792 165.755,190.268 156.167 C 186.727 152.184,179.822 150.450,174.732 152.265 M183.500 152.675 C 190.460 154.841,194.706 161.671,193.357 168.529 C 190.341 183.861,168.644 183.861,165.627 168.529 C 163.644 158.448,173.619 149.600,183.500 152.675 M176.923 163.642 C 175.653 164.912,175.472 166.237,176.338 167.912 C 178.129 171.376,183.203 169.822,183.203 165.810 C 183.203 164.240,181.252 162.500,179.492 162.500 C 178.435 162.500,177.768 162.796,176.923 163.642 M181.738 163.958 C 182.714 164.838,182.626 167.115,181.573 168.237 C 179.732 170.196,176.563 168.786,176.563 166.008 C 176.563 163.275,179.632 162.060,181.738 163.958 " stroke="none" fill="#565656" fill-rule="evenodd"></path><path id="path4" d="M189.746 45.979 C 190.229 46.072,191.021 46.072,191.504 45.979 C 191.987 45.886,191.592 45.810,190.625 45.810 C 189.658 45.810,189.263 45.886,189.746 45.979 M208.496 45.979 C 208.979 46.072,209.771 46.072,210.254 45.979 C 210.737 45.886,210.342 45.810,209.375 45.810 C 208.408 45.810,208.013 45.886,208.496 45.979 M190.527 56.135 C 191.011 56.228,191.802 56.228,192.285 56.135 C 192.769 56.042,192.373 55.966,191.406 55.966 C 190.439 55.966,190.044 56.042,190.527 56.135 M207.715 56.135 C 208.198 56.228,208.989 56.228,209.473 56.135 C 209.956 56.042,209.561 55.966,208.594 55.966 C 207.627 55.966,207.231 56.042,207.715 56.135 M207.329 67.464 C 207.815 67.557,208.518 67.554,208.891 67.456 C 209.265 67.358,208.867 67.282,208.008 67.286 C 207.148 67.290,206.843 67.370,207.329 67.464 M308.984 90.820 C 310.801 92.646,312.375 94.141,312.483 94.141 C 312.590 94.141,311.192 92.646,309.375 90.820 C 307.558 88.994,305.984 87.500,305.877 87.500 C 305.769 87.500,307.168 88.994,308.984 90.820 M90.625 90.820 C 89.024 92.432,87.803 93.750,87.910 93.750 C 88.018 93.750,89.415 92.432,91.016 90.820 C 92.616 89.209,93.838 87.891,93.730 87.891 C 93.623 87.891,92.226 89.209,90.625 90.820 M98.040 97.949 L 93.945 102.148 98.145 98.054 C 100.454 95.802,102.344 93.912,102.344 93.855 C 102.344 93.573,101.843 94.049,98.040 97.949 M301.758 98.047 C 304.114 100.410,306.129 102.344,306.237 102.344 C 306.344 102.344,304.504 100.410,302.148 98.047 C 299.792 95.684,297.777 93.750,297.670 93.750 C 297.562 93.750,299.402 95.684,301.758 98.047 M314.063 96.216 C 314.063 96.283,314.634 96.854,315.332 97.486 L 316.602 98.633 315.454 97.363 C 314.385 96.180,314.063 95.914,314.063 96.216 M287.500 100.195 C 288.229 100.947,288.913 101.563,289.020 101.563 C 289.128 101.563,288.619 100.947,287.891 100.195 C 287.162 99.443,286.478 98.828,286.370 98.828 C 286.263 98.828,286.771 99.443,287.500 100.195 M293.555 105.859 C 294.613 106.934,295.566 107.813,295.674 107.813 C 295.781 107.813,295.003 106.934,293.945 105.859 C 292.887 104.785,291.934 103.906,291.826 103.906 C 291.719 103.906,292.497 104.785,293.555 105.859 M298.242 110.938 C 299.081 111.797,299.856 112.500,299.963 112.500 C 300.071 112.500,299.472 111.797,298.633 110.938 C 297.794 110.078,297.019 109.375,296.912 109.375 C 296.804 109.375,297.403 110.078,298.242 110.938 M284.749 111.426 C 285.707 112.446,286.542 113.281,286.605 113.281 C 286.898 113.281,286.588 112.931,284.863 111.312 L 283.008 109.570 284.749 111.426 M288.867 115.625 C 289.925 116.699,290.879 117.578,290.986 117.578 C 291.094 117.578,290.316 116.699,289.258 115.625 C 288.200 114.551,287.246 113.672,287.139 113.672 C 287.031 113.672,287.809 114.551,288.867 115.625 M208.301 115.894 C 208.677 115.993,209.292 115.993,209.668 115.894 C 210.044 115.796,209.736 115.716,208.984 115.716 C 208.232 115.716,207.925 115.796,208.301 115.894 M173.358 120.603 C 175.141 120.676,177.954 120.676,179.608 120.603 C 181.263 120.529,179.805 120.470,176.367 120.471 C 172.930 120.471,171.576 120.531,173.358 120.603 M165.723 120.972 C 166.099 121.071,166.714 121.071,167.090 120.972 C 167.466 120.874,167.158 120.794,166.406 120.794 C 165.654 120.794,165.347 120.874,165.723 120.972 M186.035 120.972 C 186.411 121.071,187.026 121.071,187.402 120.972 C 187.778 120.874,187.471 120.794,186.719 120.794 C 185.967 120.794,185.659 120.874,186.035 120.972 M238.477 126.172 C 239.752 127.461,240.884 128.516,240.991 128.516 C 241.099 128.516,240.143 127.461,238.867 126.172 C 237.592 124.883,236.460 123.828,236.353 123.828 C 236.245 123.828,237.201 124.883,238.477 126.172 M219.727 127.622 C 220.156 127.726,220.675 127.969,220.879 128.163 C 221.083 128.357,221.786 128.509,222.441 128.500 L 223.633 128.485 222.318 127.914 C 221.596 127.601,220.541 127.364,219.975 127.389 C 219.166 127.425,219.113 127.475,219.727 127.622 M173.340 130.759 C 174.897 130.833,177.446 130.833,179.004 130.759 C 180.562 130.685,179.287 130.624,176.172 130.624 C 173.057 130.624,171.782 130.685,173.340 130.759 M185.844 131.136 C 186.330 131.229,187.033 131.226,187.407 131.128 C 187.780 131.030,187.383 130.954,186.523 130.958 C 185.664 130.962,185.358 131.042,185.844 131.136 M122.841 137.207 L 120.117 140.039 122.949 137.315 C 124.507 135.817,125.781 134.543,125.781 134.483 C 125.781 134.197,125.371 134.577,122.841 137.207 M178.019 138.173 C 178.712 138.259,179.943 138.260,180.753 138.176 C 181.563 138.091,180.996 138.021,179.492 138.019 C 177.988 138.017,177.325 138.086,178.019 138.173 M178.619 148.327 C 179.212 148.417,180.091 148.415,180.572 148.322 C 181.052 148.229,180.566 148.156,179.492 148.159 C 178.418 148.162,178.025 148.237,178.619 148.327 M178.425 152.236 C 179.127 152.323,180.182 152.321,180.769 152.232 C 181.356 152.143,180.781 152.072,179.492 152.074 C 178.203 152.076,177.723 152.149,178.425 152.236 M169.311 156.348 L 168.164 157.617 169.434 156.470 C 170.132 155.839,170.703 155.268,170.703 155.200 C 170.703 154.899,170.381 155.164,169.311 156.348 M188.281 155.200 C 188.281 155.268,188.853 155.839,189.551 156.470 L 190.820 157.617 189.673 156.348 C 188.604 155.164,188.281 154.899,188.281 155.200 M151.270 166.211 C 151.275 167.070,151.355 167.376,151.448 166.890 C 151.542 166.404,151.538 165.701,151.440 165.327 C 151.342 164.954,151.266 165.352,151.270 166.211 M165.333 166.211 C 165.337 167.070,165.417 167.376,165.511 166.890 C 165.604 166.404,165.601 165.701,165.503 165.327 C 165.405 164.954,165.329 165.352,165.333 166.211 M193.458 166.211 C 193.462 167.070,193.542 167.376,193.636 166.890 C 193.729 166.404,193.726 165.701,193.628 165.327 C 193.530 164.954,193.454 165.352,193.458 166.211 M207.520 166.211 C 207.525 167.070,207.605 167.376,207.698 166.890 C 207.792 166.404,207.788 165.701,207.690 165.327 C 207.592 164.954,207.516 165.352,207.520 166.211 M343.450 186.328 C 343.450 187.080,343.530 187.388,343.629 187.012 C 343.727 186.636,343.727 186.021,343.629 185.645 C 343.530 185.269,343.450 185.576,343.450 186.328 M197.827 187.207 L 196.680 188.477 197.949 187.329 C 199.133 186.260,199.398 185.938,199.097 185.938 C 199.029 185.938,198.458 186.509,197.827 187.207 M45.810 190.625 C 45.810 191.592,45.886 191.987,45.979 191.504 C 46.072 191.021,46.072 190.229,45.979 189.746 C 45.886 189.263,45.810 189.658,45.810 190.625 M354.005 190.820 C 354.009 191.680,354.089 191.985,354.183 191.499 C 354.276 191.013,354.272 190.310,354.175 189.937 C 354.077 189.563,354.000 189.961,354.005 190.820 M55.966 191.406 C 55.966 192.373,56.042 192.769,56.135 192.285 C 56.228 191.802,56.228 191.011,56.135 190.527 C 56.042 190.044,55.966 190.439,55.966 191.406 M343.849 191.211 C 343.853 192.070,343.933 192.376,344.026 191.890 C 344.120 191.404,344.116 190.701,344.018 190.327 C 343.921 189.954,343.844 190.352,343.849 191.211 M332.528 192.188 C 332.528 193.154,332.604 193.550,332.698 193.066 C 332.791 192.583,332.791 191.792,332.698 191.309 C 332.604 190.825,332.528 191.221,332.528 192.188 M55.966 208.594 C 55.966 209.561,56.042 209.956,56.135 209.473 C 56.228 208.989,56.228 208.198,56.135 207.715 C 56.042 207.231,55.966 207.627,55.966 208.594 M343.849 208.789 C 343.853 209.648,343.933 209.954,344.026 209.468 C 344.120 208.982,344.116 208.279,344.018 207.906 C 343.921 207.532,343.844 207.930,343.849 208.789 M45.810 209.375 C 45.810 210.342,45.886 210.737,45.979 210.254 C 46.072 209.771,46.072 208.979,45.979 208.496 C 45.886 208.013,45.810 208.408,45.810 209.375 M354.005 209.180 C 354.009 210.039,354.089 210.345,354.183 209.859 C 354.276 209.373,354.272 208.670,354.175 208.296 C 354.077 207.923,354.000 208.320,354.005 209.180 M343.450 213.672 C 343.450 214.424,343.530 214.731,343.629 214.355 C 343.727 213.979,343.727 213.364,343.629 212.988 C 343.530 212.612,343.450 212.920,343.450 213.672 M278.451 224.944 L 279.364 225.200 278.511 226.370 L 277.658 227.539 278.673 226.443 C 279.969 225.043,279.954 224.600,278.613 224.648 C 277.592 224.685,277.584 224.700,278.451 224.944 M226.079 225.667 C 226.565 225.760,227.268 225.757,227.641 225.659 C 228.015 225.561,227.617 225.485,226.758 225.489 C 225.898 225.493,225.593 225.573,226.079 225.667 M234.869 225.671 C 235.462 225.761,236.341 225.758,236.822 225.666 C 237.302 225.573,236.816 225.499,235.742 225.502 C 234.668 225.505,234.275 225.581,234.869 225.671 M289.233 229.785 L 288.086 231.055 289.355 229.907 C 290.054 229.276,290.625 228.705,290.625 228.638 C 290.625 228.336,290.303 228.602,289.233 229.785 M275.171 230.176 L 274.023 231.445 275.293 230.298 C 275.991 229.667,276.563 229.096,276.563 229.028 C 276.563 228.727,276.240 228.992,275.171 230.176 M271.854 233.887 L 270.508 235.352 271.973 234.005 C 272.778 233.265,273.438 232.606,273.438 232.541 C 273.438 232.242,273.107 232.523,271.854 233.887 M282.791 237.012 L 281.445 238.477 282.910 237.130 C 284.274 235.877,284.555 235.547,284.256 235.547 C 284.191 235.547,283.532 236.206,282.791 237.012 M265.405 241.113 L 264.258 242.383 265.527 241.236 C 266.226 240.604,266.797 240.033,266.797 239.966 C 266.797 239.664,266.475 239.930,265.405 241.113 M279.077 241.113 L 277.930 242.383 279.199 241.236 C 279.897 240.604,280.469 240.033,280.469 239.966 C 280.469 239.664,280.146 239.930,279.077 241.113 M261.698 245.215 L 260.352 246.680 261.816 245.334 C 263.180 244.081,263.461 243.750,263.163 243.750 C 263.097 243.750,262.438 244.409,261.698 245.215 M275.171 245.410 L 274.023 246.680 275.293 245.532 C 275.991 244.901,276.563 244.330,276.563 244.263 C 276.563 243.961,276.240 244.227,275.171 245.410 M271.655 249.316 L 270.508 250.586 271.777 249.439 C 272.476 248.808,273.047 248.236,273.047 248.169 C 273.047 247.867,272.725 248.133,271.655 249.316 M97.852 301.953 C 100.208 304.316,102.223 306.250,102.330 306.250 C 102.438 306.250,100.598 304.316,98.242 301.953 C 95.886 299.590,93.871 297.656,93.763 297.656 C 93.656 297.656,95.496 299.590,97.852 301.953 M301.750 302.051 L 297.852 306.055 301.855 302.156 C 304.058 300.011,305.859 298.210,305.859 298.152 C 305.859 297.869,305.372 298.332,301.750 302.051 M83.594 301.685 C 83.594 301.752,84.165 302.323,84.863 302.954 L 86.133 304.102 84.986 302.832 C 83.916 301.649,83.594 301.383,83.594 301.685 M315.014 302.832 L 313.867 304.102 315.137 302.954 C 316.320 301.885,316.586 301.563,316.284 301.563 C 316.217 301.563,315.646 302.134,315.014 302.832 M90.625 309.180 C 92.442 311.006,94.016 312.500,94.123 312.500 C 94.231 312.500,92.832 311.006,91.016 309.180 C 89.199 307.354,87.625 305.859,87.517 305.859 C 87.410 305.859,88.808 307.354,90.625 309.180 M308.976 309.277 L 305.664 312.695 309.082 309.384 C 312.257 306.308,312.678 305.859,312.394 305.859 C 312.335 305.859,310.797 307.397,308.976 309.277 M96.094 314.185 C 96.094 314.252,96.665 314.823,97.363 315.454 L 98.633 316.602 97.486 315.332 C 96.416 314.149,96.094 313.883,96.094 314.185 M216.922 330.078 C 216.922 331.475,216.993 332.046,217.079 331.348 C 217.166 330.649,217.166 329.507,217.079 328.809 C 216.993 328.110,216.922 328.682,216.922 330.078 M227.065 330.273 C 227.068 331.348,227.144 331.741,227.233 331.147 C 227.323 330.553,227.321 329.674,227.228 329.194 C 227.135 328.713,227.062 329.199,227.065 330.273 M217.278 336.328 C 217.278 337.080,217.359 337.388,217.457 337.012 C 217.555 336.636,217.555 336.021,217.457 335.645 C 217.359 335.269,217.278 335.576,217.278 336.328 M218.000 341.875 C 217.983 342.240,217.661 342.718,217.285 342.937 C 216.909 343.156,216.800 343.341,217.042 343.347 C 217.687 343.365,218.466 342.294,218.232 341.712 C 218.102 341.389,218.019 341.447,218.000 341.875 M185.645 343.629 C 186.021 343.727,186.636 343.727,187.012 343.629 C 187.388 343.530,187.080 343.450,186.328 343.450 C 185.576 343.450,185.269 343.530,185.645 343.629 M190.532 344.026 C 191.018 344.120,191.721 344.116,192.094 344.018 C 192.468 343.921,192.070 343.844,191.211 343.849 C 190.352 343.853,190.046 343.933,190.532 344.026 M208.110 344.026 C 208.596 344.120,209.299 344.116,209.673 344.018 C 210.046 343.921,209.648 343.844,208.789 343.849 C 207.930 343.853,207.624 343.933,208.110 344.026 M190.141 354.183 C 190.627 354.276,191.330 354.272,191.704 354.175 C 192.077 354.077,191.680 354.000,190.820 354.005 C 189.961 354.009,189.655 354.089,190.141 354.183 M208.501 354.183 C 208.987 354.276,209.690 354.272,210.063 354.175 C 210.437 354.077,210.039 354.000,209.180 354.005 C 208.320 354.009,208.015 354.089,208.501 354.183 " stroke="none" fill="#7c7c7c" fill-rule="evenodd"></path></g></svg>