<svg id="svg" version="1.1" xmlns="http://www.w3.org/2000/svg" xmlns:xlink="http://www.w3.org/1999/xlink" width="400" height="400" viewBox="0, 0, 400,400"><g id="svgg"><path id="path0" d="M183.000 0.193 C 85.335 9.274,9.343 84.771,0.336 181.667 C -0.168 187.081,-0.168 212.919,0.336 218.333 C 3.246 249.644,13.136 279.092,29.722 305.833 C 62.869 359.278,119.825 394.271,182.583 399.749 C 187.442 400.173,213.522 400.108,218.387 399.659 C 312.743 390.967,387.318 318.225,399.156 223.333 C 400.118 215.620,400.432 189.931,399.665 181.667 C 396.759 150.351,386.345 119.492,369.942 93.587 C 336.140 40.208,280.799 6.165,218.344 0.334 C 214.458 -0.029,186.583 -0.140,183.000 0.193 M153.706 120.458 C 153.848 120.802,155.404 124.233,157.165 128.083 C 158.926 131.933,161.477 137.521,162.834 140.500 C 170.782 157.950,177.987 173.751,178.831 175.583 C 179.494 177.024,184.519 188.048,187.833 195.333 C 190.124 200.370,192.794 206.224,200.374 222.833 C 202.027 226.454,203.926 230.617,204.595 232.083 C 205.818 234.766,206.162 235.198,206.622 234.633 C 206.719 234.514,211.653 222.304,217.587 207.500 C 237.250 158.442,244.567 140.190,248.674 129.958 L 252.739 119.833 284.703 119.833 L 316.667 119.833 316.667 121.471 L 316.667 123.108 306.832 132.512 C 297.807 141.142,296.952 142.006,296.457 143.000 L 295.917 144.083 295.917 212.333 L 295.917 280.583 296.390 281.608 C 296.879 282.666,297.366 283.159,313.541 298.986 L 316.167 301.554 316.167 303.194 L 316.167 304.833 270.750 304.833 L 225.333 304.833 225.333 303.263 L 225.333 301.693 233.792 293.482 C 245.213 282.395,245.265 282.343,245.705 281.396 L 246.083 280.583 246.126 226.075 C 246.164 178.692,246.138 171.525,245.928 171.242 C 245.374 170.496,245.988 169.052,235.257 196.333 C 232.204 204.094,218.186 239.696,216.193 244.750 C 215.361 246.858,209.988 260.508,204.252 275.083 C 198.516 289.658,193.571 302.221,193.262 303.000 L 192.701 304.417 189.460 304.462 L 186.218 304.507 185.543 303.045 C 185.172 302.241,183.203 297.946,181.167 293.500 C 179.131 289.054,176.844 284.067,176.085 282.417 C 175.327 280.767,173.039 275.779,171.001 271.333 C 168.963 266.887,166.901 262.387,166.418 261.333 C 161.038 249.599,158.061 243.104,157.367 241.583 C 156.907 240.575,156.270 239.188,155.952 238.500 C 155.634 237.813,154.982 236.387,154.502 235.333 C 154.023 234.279,153.001 232.048,152.231 230.375 C 148.810 222.940,147.875 220.903,145.327 215.333 C 143.839 212.079,141.993 208.048,141.226 206.375 C 140.459 204.703,139.204 201.965,138.437 200.292 C 137.670 198.619,136.800 196.725,136.504 196.083 C 136.207 195.442,135.228 193.304,134.328 191.333 C 133.428 189.362,131.763 185.725,130.627 183.250 C 129.492 180.775,127.781 177.043,126.825 174.957 C 125.142 171.284,124.751 170.683,124.321 171.112 C 124.026 171.407,124.120 264.620,124.417 265.750 C 124.783 267.146,126.009 269.606,126.784 270.500 C 127.141 270.912,130.276 274.700,133.750 278.917 C 137.224 283.133,141.955 288.871,144.262 291.667 C 146.569 294.462,149.290 297.762,150.309 299.000 L 152.161 301.250 152.164 302.875 L 152.167 304.500 117.750 304.500 L 83.333 304.500 83.333 302.840 L 83.333 301.180 88.529 294.881 C 91.387 291.417,94.368 287.802,95.154 286.848 C 95.940 285.893,99.161 281.993,102.312 278.181 C 109.512 269.469,109.278 269.764,109.785 268.764 C 110.273 267.802,110.773 266.412,111.012 265.356 C 111.304 264.066,111.213 155.843,110.919 154.448 C 110.575 152.816,109.681 151.080,108.540 149.828 C 108.000 149.235,105.505 146.275,102.995 143.250 C 96.803 135.784,92.474 130.569,89.132 126.550 L 86.333 123.183 86.333 121.508 L 86.333 119.833 119.891 119.833 L 153.449 119.833 153.706 120.458 " stroke="none" fill="#040404" fill-rule="evenodd"></path><path id="path1" d="" stroke="none" fill="#080404" fill-rule="evenodd"></path><path id="path2" d="" stroke="none" fill="#080404" fill-rule="evenodd"></path><path id="path3" d="" stroke="none" fill="#080404" fill-rule="evenodd"></path><path id="path4" d="" stroke="none" fill="#080404" fill-rule="evenodd"></path></g></svg>