<svg id="svg" version="1.1" xmlns="http://www.w3.org/2000/svg" xmlns:xlink="http://www.w3.org/1999/xlink" width="400" height="400" viewBox="0, 0, 400,400"><g id="svgg"><path id="path0" d="M186.328 8.041 C 185.576 8.124,182.764 8.386,180.078 8.622 C 134.735 12.614,87.060 36.914,58.008 70.843 C 5.509 132.154,-3.194 214.877,35.455 285.217 C 81.005 368.116,184.179 402.820,271.875 364.742 C 355.953 328.236,401.054 236.289,378.122 148.141 C 360.629 80.900,308.808 29.742,241.344 13.110 C 224.652 8.995,199.018 6.633,186.328 8.041 M283.125 122.426 C 286.027 123.942,287.500 126.801,287.500 130.918 C 287.500 133.274,262.340 253.821,256.541 279.247 C 254.633 287.613,250.935 290.206,244.421 287.745 C 242.246 286.923,237.649 283.683,218.737 269.642 C 206.068 260.235,195.364 252.485,194.950 252.418 C 194.421 252.333,192.184 254.250,187.430 258.863 C 171.942 273.893,170.517 275.191,168.109 276.465 C 164.857 278.186,164.448 278.142,164.473 276.074 C 164.569 268.134,167.872 232.348,168.571 231.672 C 168.992 231.265,188.232 213.692,211.328 192.621 C 251.239 156.209,255.078 152.582,255.078 151.292 C 255.078 150.080,253.224 148.828,251.430 148.828 C 249.053 148.828,252.118 146.971,193.192 184.108 L 140.623 217.239 116.112 209.765 C 102.631 205.655,91.162 201.980,90.625 201.599 C 87.453 199.349,88.884 195.637,93.908 193.086 C 95.989 192.029,97.767 191.338,187.695 156.634 C 221.211 143.700,254.785 130.743,262.305 127.841 C 279.551 121.184,280.350 120.976,283.125 122.426 " stroke="none" fill="#040404" fill-rule="evenodd"></path><path id="path1" d="" stroke="none" fill="#080404" fill-rule="evenodd"></path><path id="path2" d="" stroke="none" fill="#080404" fill-rule="evenodd"></path><path id="path3" d="" stroke="none" fill="#080404" fill-rule="evenodd"></path><path id="path4" d="" stroke="none" fill="#080404" fill-rule="evenodd"></path></g></svg>