<svg id="svg" version="1.1" xmlns="http://www.w3.org/2000/svg" xmlns:xlink="http://www.w3.org/1999/xlink" width="400" height="292.71442986881937" viewBox="0, 0, 400,292.71442986881937"><g id="svgg"><path id="path0" d="M193.167 27.768 C 192.754 27.802,191.442 27.908,190.250 28.004 C 186.816 28.279,180.699 29.094,177.750 29.669 C 172.693 30.655,168.200 31.818,163.167 33.445 C 161.012 34.142,159.025 34.804,158.750 34.917 C 157.341 35.498,153.840 36.899,153.301 37.098 C 148.548 38.854,137.803 44.808,132.273 48.750 C 131.244 49.483,129.991 50.362,129.488 50.703 C 128.985 51.044,128.426 51.459,128.245 51.625 C 128.065 51.791,127.617 52.148,127.250 52.419 C 121.960 56.325,114.324 63.633,109.318 69.583 C 107.106 72.212,104.312 75.790,103.072 77.583 C 102.628 78.225,102.224 78.787,102.174 78.833 C 102.124 78.879,101.639 79.592,101.095 80.417 C 100.174 81.814,99.847 82.326,98.915 83.833 C 98.716 84.154,98.242 84.909,97.860 85.512 C 97.479 86.114,97.167 86.689,97.167 86.789 C 97.167 86.890,97.110 86.997,97.042 87.028 C 96.973 87.058,96.786 87.346,96.627 87.667 C 96.467 87.987,96.101 88.662,95.814 89.167 C 95.184 90.271,91.852 96.809,91.858 96.928 C 91.860 96.975,91.359 98.154,90.743 99.548 C 88.516 104.595,84.716 116.043,84.249 119.114 C 84.210 119.372,84.104 119.883,84.014 120.250 C 79.643 138.100,80.423 162.278,85.940 179.999 C 86.268 181.052,86.568 182.086,86.606 182.295 C 86.676 182.684,86.779 182.979,88.010 186.333 C 89.833 191.300,90.132 192.050,91.185 194.308 C 91.541 195.074,91.833 195.744,91.833 195.799 C 91.833 196.021,95.029 202.363,95.899 203.866 C 96.413 204.755,96.833 205.514,96.833 205.553 C 96.833 205.592,97.291 206.365,97.851 207.270 C 98.411 208.176,98.992 209.135,99.143 209.403 C 99.294 209.670,99.997 210.758,100.706 211.820 C 102.411 214.372,102.276 214.177,103.417 215.733 C 103.967 216.484,104.623 217.394,104.876 217.757 C 105.599 218.794,109.811 223.949,110.917 225.149 C 113.516 227.972,114.220 228.712,116.083 230.585 C 121.659 236.189,127.737 241.147,134.447 245.565 C 137.640 247.667,140.479 249.408,142.083 250.247 C 142.633 250.535,143.924 251.235,144.951 251.802 C 145.978 252.369,146.852 252.833,146.893 252.833 C 146.933 252.833,147.893 253.272,149.025 253.809 C 150.157 254.345,151.346 254.899,151.667 255.040 C 153.093 255.664,156.317 257.003,157.000 257.255 C 157.412 257.407,157.900 257.597,158.083 257.677 C 161.057 258.981,172.765 262.350,176.277 262.912 C 176.537 262.954,176.938 263.026,177.167 263.073 C 190.997 265.910,209.003 265.910,222.833 263.073 C 223.063 263.026,223.457 262.955,223.710 262.914 C 227.411 262.316,241.262 258.294,241.935 257.621 C 242.001 257.554,242.153 257.500,242.271 257.500 C 242.662 257.500,247.799 255.313,251.140 253.724 C 252.364 253.143,253.392 252.667,253.426 252.667 C 253.460 252.667,254.260 252.240,255.202 251.718 C 256.145 251.197,257.367 250.535,257.917 250.247 C 260.574 248.858,267.213 244.590,270.220 242.339 C 274.624 239.042,275.576 238.270,278.974 235.237 C 281.492 232.989,285.098 229.472,287.000 227.407 C 287.596 226.761,288.470 225.818,288.943 225.312 C 289.416 224.806,290.166 223.942,290.610 223.391 C 291.054 222.841,291.695 222.059,292.036 221.653 C 293.124 220.360,295.013 217.969,295.303 217.519 C 295.457 217.280,296.033 216.473,296.583 215.726 C 297.133 214.980,297.676 214.230,297.790 214.059 C 297.904 213.889,298.522 212.985,299.165 212.049 C 299.808 211.114,300.333 210.302,300.333 210.244 C 300.333 210.187,300.588 209.752,300.899 209.278 C 301.812 207.888,302.834 206.174,303.552 204.833 C 303.920 204.146,304.385 203.321,304.586 203.000 C 305.005 202.331,308.167 195.986,308.167 195.814 C 308.167 195.751,308.459 195.074,308.815 194.308 C 309.868 192.050,310.167 191.300,311.990 186.333 C 313.123 183.245,313.329 182.670,313.331 182.583 C 313.332 182.537,313.339 182.481,313.346 182.458 C 313.353 182.435,313.382 182.304,313.410 182.167 C 313.437 182.029,313.729 181.054,314.058 180.000 C 319.571 162.326,320.353 138.087,315.986 120.250 C 315.896 119.883,315.790 119.372,315.751 119.114 C 315.285 116.051,311.485 104.605,309.256 99.548 C 308.641 98.154,308.140 96.975,308.142 96.928 C 308.148 96.809,304.816 90.271,304.186 89.167 C 303.899 88.662,303.533 87.987,303.373 87.667 C 303.214 87.346,303.027 87.058,302.958 87.028 C 302.890 86.997,302.833 86.866,302.833 86.736 C 302.833 86.606,302.758 86.500,302.667 86.500 C 302.575 86.500,302.517 86.444,302.537 86.375 C 302.572 86.260,301.717 84.799,300.631 83.117 C 300.382 82.732,300.054 82.192,299.901 81.917 C 299.748 81.642,299.258 80.912,298.812 80.294 C 298.365 79.677,298.000 79.134,298.000 79.087 C 298.000 79.041,297.756 78.680,297.458 78.285 C 297.160 77.890,296.767 77.356,296.583 77.100 C 296.400 76.843,296.063 76.387,295.833 76.086 C 295.604 75.784,295.304 75.374,295.167 75.173 C 290.864 68.895,279.655 57.517,272.750 52.419 C 271.986 51.855,271.901 51.788,271.333 51.308 C 271.104 51.114,270.542 50.705,270.083 50.399 C 269.625 50.092,268.483 49.296,267.546 48.629 C 264.663 46.578,260.799 44.193,256.833 42.019 C 254.372 40.669,247.173 37.167,246.861 37.167 C 246.798 37.167,245.996 36.841,245.080 36.443 C 244.164 36.046,243.002 35.586,242.499 35.421 C 241.995 35.257,241.508 35.068,241.417 35.002 C 241.325 34.935,239.375 34.273,237.083 33.530 C 228.082 30.612,220.858 29.109,210.833 28.069 C 208.406 27.818,195.274 27.594,193.167 27.768 M205.683 34.664 C 210.694 34.873,216.410 35.557,221.019 36.500 C 221.901 36.681,222.913 36.872,223.269 36.927 C 226.895 37.478,237.524 40.787,242.667 42.965 C 245.590 44.203,250.611 46.553,252.000 47.333 C 255.225 49.146,258.557 51.087,259.667 51.801 C 262.126 53.383,263.910 54.564,264.112 54.743 C 264.220 54.839,265.185 55.554,266.256 56.333 C 268.748 58.146,270.218 59.320,273.530 62.147 C 275.615 63.927,281.724 69.959,283.339 71.833 C 283.932 72.521,284.460 73.121,284.513 73.167 C 284.675 73.305,287.216 76.363,287.837 77.166 C 288.156 77.578,288.510 78.028,288.625 78.166 C 288.843 78.428,292.061 82.885,292.656 83.750 C 297.520 90.815,302.050 99.677,305.222 108.333 C 307.988 115.879,310.536 126.522,311.088 132.833 C 311.140 133.429,311.259 134.554,311.352 135.333 C 311.704 138.290,311.745 139.444,311.745 146.417 C 311.745 153.395,311.704 154.553,311.351 157.500 C 311.258 158.279,311.141 159.442,311.092 160.083 C 310.856 163.178,309.085 172.040,307.811 176.500 C 305.799 183.546,302.276 192.483,299.500 197.583 C 299.200 198.133,298.638 199.183,298.249 199.917 C 292.282 211.182,280.037 226.055,271.417 232.506 C 270.958 232.849,270.418 233.288,270.217 233.480 C 270.015 233.673,268.703 234.693,267.300 235.747 C 265.898 236.802,264.675 237.723,264.583 237.796 C 264.363 237.970,260.954 240.216,259.167 241.365 C 254.370 244.448,245.725 248.821,240.917 250.599 C 240.092 250.903,238.592 251.459,237.583 251.834 C 234.246 253.074,226.154 255.424,224.167 255.732 C 223.846 255.781,222.646 256.014,221.500 256.249 C 207.849 259.050,191.853 259.019,178.083 256.166 C 177.167 255.976,176.154 255.781,175.833 255.731 C 173.120 255.315,164.975 252.833,159.333 250.703 C 153.963 248.676,145.780 244.545,140.833 241.364 C 139.183 240.303,135.659 237.979,135.417 237.792 C 135.325 237.721,134.068 236.776,132.623 235.691 C 131.179 234.606,129.755 233.501,129.459 233.234 C 129.163 232.968,128.657 232.556,128.335 232.318 C 124.886 229.774,116.917 221.591,112.282 215.833 C 108.702 211.387,104.111 204.422,101.626 199.667 C 101.170 198.796,100.587 197.708,100.328 197.250 C 97.387 192.031,92.719 179.565,91.343 173.250 C 91.163 172.425,90.790 170.737,90.514 169.500 C 89.873 166.625,89.030 161.696,88.911 160.129 C 88.860 159.462,88.742 158.279,88.649 157.500 C 88.296 154.553,88.255 153.395,88.255 146.417 C 88.255 139.444,88.296 138.290,88.648 135.333 C 88.741 134.554,88.860 133.429,88.912 132.833 C 89.312 128.262,91.084 119.855,92.846 114.167 C 94.889 107.570,97.820 100.245,100.080 96.083 C 100.378 95.533,101.055 94.258,101.584 93.250 C 102.586 91.341,105.040 87.205,106.281 85.333 C 107.472 83.539,107.640 83.293,108.448 82.167 C 110.771 78.931,114.451 74.231,115.574 73.067 C 115.671 72.967,116.162 72.404,116.665 71.817 C 118.883 69.230,125.450 62.923,128.761 60.200 C 130.463 58.800,131.550 57.930,131.980 57.619 C 133.978 56.180,135.930 54.744,136.000 54.662 C 136.084 54.563,137.745 53.467,140.333 51.801 C 141.852 50.823,144.262 49.403,146.417 48.215 C 147.150 47.811,147.862 47.415,148.000 47.336 C 151.513 45.321,162.458 40.728,166.067 39.753 C 166.534 39.627,167.554 39.328,168.333 39.088 C 170.169 38.523,175.894 37.048,176.731 36.924 C 177.087 36.871,178.099 36.680,178.981 36.499 C 186.939 34.864,195.828 34.253,205.683 34.664 M128.833 79.615 C 128.833 79.678,129.155 80.146,129.548 80.656 C 129.941 81.166,130.372 81.743,130.506 81.939 C 130.870 82.468,134.209 86.887,134.410 87.105 C 134.505 87.208,134.696 87.461,134.833 87.667 C 135.140 88.127,136.895 90.507,137.598 91.417 C 137.882 91.783,138.724 92.908,139.470 93.917 C 140.217 94.925,140.925 95.862,141.043 96.000 C 141.162 96.138,141.745 96.911,142.338 97.719 C 143.317 99.053,145.639 102.175,145.957 102.583 C 146.028 102.675,146.211 102.946,146.365 103.185 C 146.518 103.424,146.747 103.724,146.873 103.852 C 147.072 104.052,149.249 106.957,151.667 110.250 C 152.071 110.800,152.535 111.394,152.698 111.569 C 152.860 111.745,153.201 112.192,153.455 112.562 C 153.879 113.179,156.299 116.435,156.672 116.889 C 156.935 117.209,158.385 119.161,158.843 119.811 C 159.205 120.327,161.893 123.916,162.291 124.417 C 162.688 124.917,164.128 126.835,165.482 128.667 C 166.329 129.813,167.110 130.863,167.219 131.002 C 167.476 131.330,171.761 137.076,172.374 137.914 C 172.442 138.007,172.815 138.496,173.203 139.000 C 173.916 139.926,176.542 143.453,177.001 144.101 C 177.288 144.505,179.169 147.001,179.375 147.250 C 179.450 147.342,180.166 148.296,180.965 149.372 C 181.763 150.447,182.679 151.675,183.000 152.101 C 183.321 152.527,183.654 152.972,183.739 153.089 C 183.851 153.242,183.427 153.810,182.239 155.100 C 181.329 156.089,180.471 157.022,180.333 157.173 C 179.187 158.430,176.840 160.963,175.167 162.750 C 173.726 164.289,169.590 168.748,168.917 169.488 C 168.550 169.891,168.063 170.422,167.833 170.668 C 166.536 172.063,164.222 174.577,163.987 174.848 C 163.837 175.022,162.747 176.187,161.565 177.438 C 160.383 178.690,159.302 179.845,159.161 180.007 C 158.446 180.830,156.106 183.373,153.405 186.264 C 149.875 190.042,146.077 194.140,143.930 196.489 C 143.296 197.182,142.318 198.237,141.757 198.833 C 141.196 199.429,139.872 200.854,138.815 202.000 C 137.758 203.146,136.673 204.313,136.405 204.593 C 136.136 204.873,135.279 205.809,134.500 206.674 C 133.095 208.232,132.123 209.282,129.902 211.641 C 129.269 212.314,128.690 212.970,128.617 213.099 C 128.503 213.299,129.433 213.333,134.900 213.333 C 140.495 213.333,141.335 213.301,141.460 213.078 C 141.539 212.937,141.939 212.468,142.349 212.036 C 142.760 211.604,143.726 210.575,144.497 209.750 C 145.268 208.925,146.465 207.645,147.158 206.905 C 147.850 206.166,149.092 204.818,149.917 203.910 C 150.742 203.003,151.835 201.808,152.346 201.255 C 152.858 200.702,153.831 199.650,154.508 198.917 C 156.229 197.055,157.319 195.886,158.000 195.171 C 158.654 194.484,159.708 193.338,161.917 190.914 C 162.742 190.008,163.607 189.076,163.840 188.842 C 164.073 188.608,165.268 187.329,166.496 186.000 C 172.832 179.139,178.726 172.773,181.000 170.335 C 181.229 170.090,182.129 169.112,183.000 168.163 C 183.871 167.215,185.033 165.948,185.583 165.349 C 187.612 163.138,189.570 161.162,189.689 161.206 C 189.805 161.248,190.927 162.702,193.313 165.905 C 193.898 166.690,194.525 167.501,194.707 167.708 C 194.889 167.914,195.159 168.271,195.307 168.500 C 195.742 169.176,199.771 174.541,200.137 174.932 C 200.258 175.061,200.300 175.167,200.231 175.167 C 200.161 175.167,200.297 175.373,200.531 175.625 C 200.766 175.877,201.728 177.129,202.669 178.407 C 203.610 179.685,204.518 180.878,204.686 181.059 C 204.855 181.241,205.201 181.695,205.455 182.069 C 205.864 182.672,211.698 190.508,214.400 194.083 C 214.954 194.817,215.466 195.442,215.537 195.472 C 215.608 195.503,215.667 195.601,215.667 195.689 C 215.667 195.778,216.067 196.353,216.556 196.967 C 217.046 197.581,217.739 198.504,218.098 199.018 C 218.787 200.005,219.310 200.703,220.007 201.561 C 220.241 201.848,220.578 202.300,220.757 202.565 C 220.937 202.830,221.233 203.250,221.417 203.498 C 222.121 204.450,224.245 207.260,224.410 207.457 C 224.505 207.571,224.903 208.096,225.293 208.624 C 225.684 209.152,226.515 210.258,227.141 211.083 C 227.766 211.908,228.368 212.752,228.478 212.958 L 228.678 213.333 250.089 213.333 C 261.865 213.333,271.500 213.284,271.500 213.223 C 271.500 213.142,267.826 208.189,266.453 206.418 C 266.381 206.326,265.797 205.537,265.155 204.667 C 264.513 203.796,263.533 202.483,262.977 201.750 C 261.567 199.890,254.138 189.931,253.833 189.494 C 253.696 189.297,253.469 189.001,253.329 188.835 C 253.189 188.670,252.177 187.325,251.079 185.846 C 249.981 184.367,248.408 182.267,247.583 181.179 C 246.758 180.092,245.183 177.984,244.083 176.496 C 242.983 175.008,241.878 173.556,241.628 173.270 C 241.377 172.984,241.171 172.703,241.169 172.645 C 241.166 172.518,238.842 169.406,238.349 168.869 C 238.157 168.660,238.000 168.452,238.000 168.407 C 238.000 168.331,233.117 161.782,232.538 161.083 C 232.386 160.900,231.882 160.225,231.417 159.583 C 230.952 158.942,229.674 157.224,228.577 155.765 C 225.904 152.211,225.636 151.853,224.176 149.886 C 221.434 146.190,220.743 145.270,220.580 145.097 C 220.486 144.998,220.036 144.403,219.580 143.774 C 217.415 140.795,215.712 138.530,215.383 138.196 C 215.264 138.075,215.167 137.918,215.167 137.847 C 215.167 137.776,214.979 137.501,214.749 137.234 C 214.520 136.968,214.111 136.443,213.841 136.067 L 213.349 135.385 214.027 134.651 C 214.399 134.247,215.427 133.132,216.310 132.172 C 217.973 130.366,219.515 128.704,221.264 126.834 C 222.666 125.335,226.604 121.080,228.442 119.078 C 229.281 118.164,230.219 117.153,230.526 116.832 C 230.832 116.510,231.908 115.350,232.917 114.254 C 233.925 113.158,235.169 111.809,235.681 111.256 C 236.193 110.703,237.063 109.763,237.614 109.167 C 238.988 107.682,243.212 103.134,244.332 101.933 C 245.668 100.501,245.936 100.210,247.500 98.490 C 248.279 97.632,249.107 96.740,249.339 96.507 C 249.571 96.274,250.619 95.146,251.669 94.000 C 252.718 92.854,253.966 91.504,254.441 91.000 C 254.917 90.496,255.511 89.858,255.762 89.583 C 257.222 87.981,259.417 85.601,260.513 84.431 C 261.207 83.690,262.509 82.296,263.405 81.333 L 265.034 79.583 258.660 79.540 L 252.287 79.496 251.439 80.373 C 250.972 80.855,250.298 81.587,249.941 82.000 C 249.584 82.412,248.688 83.387,247.951 84.167 C 245.868 86.368,244.545 87.787,242.917 89.564 C 242.092 90.465,241.192 91.444,240.917 91.740 C 240.642 92.037,239.592 93.172,238.583 94.263 C 237.575 95.354,236.188 96.846,235.500 97.578 C 233.789 99.399,233.936 99.240,232.167 101.176 C 229.817 103.746,228.419 105.261,227.012 106.760 C 226.318 107.499,224.800 109.116,223.640 110.352 C 222.479 111.588,221.273 112.907,220.960 113.282 C 220.411 113.939,220.004 114.378,217.067 117.488 C 216.324 118.274,214.716 120.004,213.494 121.333 C 207.625 127.714,207.618 127.720,207.377 127.388 C 207.255 127.221,206.781 126.596,206.322 126.000 C 205.303 124.676,202.677 121.166,202.333 120.670 C 202.061 120.277,199.760 117.194,199.523 116.906 C 199.159 116.461,195.359 111.381,194.874 110.690 C 194.576 110.265,194.238 109.804,194.122 109.667 C 193.737 109.207,192.407 107.422,192.136 107.000 C 191.989 106.771,191.729 106.433,191.559 106.250 C 191.389 106.067,191.045 105.617,190.795 105.250 C 190.544 104.883,190.143 104.358,189.903 104.083 C 189.664 103.808,189.206 103.208,188.887 102.750 C 188.129 101.660,186.950 100.071,183.985 96.140 C 179.467 90.153,176.086 85.633,175.583 84.910 C 175.308 84.515,174.933 84.014,174.750 83.797 C 174.567 83.580,174.157 83.030,173.839 82.576 C 173.522 82.122,173.184 81.659,173.089 81.547 C 172.906 81.332,172.883 81.303,172.026 80.208 L 171.472 79.500 150.153 79.500 C 138.427 79.500,128.833 79.552,128.833 79.615 M169.827 93.028 C 175.237 100.227,176.071 101.340,176.667 102.161 C 177.484 103.287,180.222 106.947,181.417 108.510 C 181.967 109.229,182.942 110.533,183.583 111.408 C 184.225 112.282,185.350 113.785,186.083 114.748 C 186.817 115.710,187.925 117.192,188.546 118.040 C 189.679 119.588,190.493 120.677,191.767 122.351 C 192.143 122.846,193.438 124.581,194.644 126.209 C 195.850 127.836,196.946 129.299,197.078 129.459 C 197.210 129.619,197.954 130.612,198.732 131.667 C 200.769 134.427,201.044 134.795,203.172 137.619 C 204.229 139.021,205.204 140.326,205.339 140.518 C 205.473 140.710,206.033 141.450,206.583 142.163 C 207.668 143.569,212.342 149.822,212.969 150.706 C 213.329 151.214,214.816 153.206,216.421 155.333 C 216.802 155.837,217.956 157.375,218.986 158.750 C 220.016 160.125,220.956 161.371,221.075 161.519 C 221.194 161.667,221.357 161.902,221.438 162.041 C 221.518 162.180,221.846 162.611,222.167 162.999 C 222.487 163.386,222.975 164.021,223.250 164.410 C 223.525 164.798,224.081 165.558,224.486 166.100 C 224.891 166.641,225.752 167.796,226.399 168.667 C 227.046 169.537,227.746 170.437,227.955 170.665 C 228.163 170.893,228.333 171.127,228.333 171.185 C 228.333 171.272,229.104 172.312,231.593 175.583 C 232.418 176.668,236.291 181.865,236.500 182.168 C 236.637 182.368,236.862 182.668,237.000 182.835 C 237.137 183.003,237.400 183.347,237.583 183.600 C 237.857 183.977,239.159 185.719,241.496 188.833 C 243.080 190.944,243.477 191.479,243.880 192.044 C 244.135 192.401,244.848 193.358,245.464 194.171 C 246.079 194.983,246.733 195.855,246.917 196.108 C 247.100 196.362,248.225 197.861,249.417 199.440 C 250.608 201.019,251.696 202.475,251.833 202.675 C 251.971 202.875,252.215 203.210,252.375 203.421 C 252.535 203.631,252.667 203.847,252.667 203.901 C 252.667 203.956,248.357 204.000,243.089 204.000 L 233.512 204.000 233.314 203.625 C 233.205 203.419,232.621 202.602,232.016 201.810 C 231.412 201.018,230.779 200.179,230.611 199.947 C 230.442 199.714,229.730 198.771,229.027 197.850 C 228.325 196.929,227.116 195.306,226.342 194.242 C 225.095 192.530,224.792 192.130,224.197 191.411 C 224.118 191.316,222.803 189.553,221.274 187.494 C 219.745 185.435,218.327 183.530,218.122 183.262 C 217.917 182.994,215.783 180.144,213.379 176.929 C 210.976 173.714,208.838 170.868,208.629 170.605 C 208.421 170.342,208.061 169.854,207.829 169.522 C 207.598 169.189,206.735 168.025,205.913 166.935 C 205.090 165.846,204.201 164.646,203.936 164.269 C 203.672 163.892,203.402 163.546,203.337 163.500 C 203.271 163.454,202.844 162.891,202.388 162.249 C 201.932 161.606,201.151 160.543,200.654 159.886 C 200.157 159.229,199.272 158.048,198.687 157.263 C 198.102 156.477,197.502 155.688,197.353 155.508 C 197.205 155.329,196.558 154.461,195.917 153.580 C 194.496 151.630,192.277 148.690,191.925 148.292 C 191.783 148.131,191.723 147.999,191.792 147.997 C 191.860 147.996,191.835 147.940,191.735 147.872 C 191.566 147.759,190.064 145.776,185.968 140.259 C 185.080 139.062,184.206 137.896,184.026 137.667 C 183.278 136.712,179.940 132.244,179.384 131.454 C 179.054 130.984,178.717 130.521,178.635 130.425 C 178.554 130.329,178.040 129.650,177.494 128.917 C 176.948 128.183,176.433 127.500,176.350 127.398 C 176.145 127.150,172.380 122.137,171.748 121.271 C 170.881 120.084,167.306 115.305,167.072 115.021 C 166.949 114.872,166.129 113.775,165.250 112.583 C 163.677 110.450,159.483 104.844,157.785 102.605 C 157.307 101.975,156.579 100.991,156.167 100.417 C 155.388 99.334,152.132 94.998,151.739 94.522 C 151.615 94.372,150.791 93.275,149.906 92.083 C 149.021 90.892,148.113 89.672,147.889 89.374 L 147.481 88.831 157.109 88.874 L 166.737 88.917 169.827 93.028 " stroke="none" fill="#e4e4e4" fill-rule="evenodd"></path><path id="path1" d="M81.375 138.083 C 81.377 138.450,81.411 138.580,81.451 138.373 C 81.491 138.166,81.490 137.866,81.448 137.706 C 81.406 137.547,81.374 137.717,81.375 138.083 M318.542 138.083 C 318.544 138.450,318.578 138.580,318.618 138.373 C 318.658 138.166,318.656 137.866,318.615 137.706 C 318.573 137.547,318.540 137.717,318.542 138.083 M81.375 154.750 C 81.377 155.117,81.411 155.247,81.451 155.040 C 81.491 154.832,81.490 154.532,81.448 154.373 C 81.406 154.214,81.374 154.383,81.375 154.750 M318.542 154.750 C 318.544 155.117,318.578 155.247,318.618 155.040 C 318.658 154.832,318.656 154.532,318.615 154.373 C 318.573 154.214,318.540 154.383,318.542 154.750 " stroke="none" fill="#e8e4e4" fill-rule="evenodd"></path><path id="path2" d="M81.375 138.083 C 81.377 138.450,81.411 138.580,81.451 138.373 C 81.491 138.166,81.490 137.866,81.448 137.706 C 81.406 137.547,81.374 137.717,81.375 138.083 M318.542 138.083 C 318.544 138.450,318.578 138.580,318.618 138.373 C 318.658 138.166,318.656 137.866,318.615 137.706 C 318.573 137.547,318.540 137.717,318.542 138.083 M81.375 154.750 C 81.377 155.117,81.411 155.247,81.451 155.040 C 81.491 154.832,81.490 154.532,81.448 154.373 C 81.406 154.214,81.374 154.383,81.375 154.750 M318.542 154.750 C 318.544 155.117,318.578 155.247,318.618 155.040 C 318.658 154.832,318.656 154.532,318.615 154.373 C 318.573 154.214,318.540 154.383,318.542 154.750 " stroke="none" fill="#e8e4e4" fill-rule="evenodd"></path><path id="path3" d="M81.375 138.083 C 81.377 138.450,81.411 138.580,81.451 138.373 C 81.491 138.166,81.490 137.866,81.448 137.706 C 81.406 137.547,81.374 137.717,81.375 138.083 M318.542 138.083 C 318.544 138.450,318.578 138.580,318.618 138.373 C 318.658 138.166,318.656 137.866,318.615 137.706 C 318.573 137.547,318.540 137.717,318.542 138.083 M81.375 154.750 C 81.377 155.117,81.411 155.247,81.451 155.040 C 81.491 154.832,81.490 154.532,81.448 154.373 C 81.406 154.214,81.374 154.383,81.375 154.750 M318.542 154.750 C 318.544 155.117,318.578 155.247,318.618 155.040 C 318.658 154.832,318.656 154.532,318.615 154.373 C 318.573 154.214,318.540 154.383,318.542 154.750 " stroke="none" fill="#e8e4e4" fill-rule="evenodd"></path><path id="path4" d="M81.375 138.083 C 81.377 138.450,81.411 138.580,81.451 138.373 C 81.491 138.166,81.490 137.866,81.448 137.706 C 81.406 137.547,81.374 137.717,81.375 138.083 M318.542 138.083 C 318.544 138.450,318.578 138.580,318.618 138.373 C 318.658 138.166,318.656 137.866,318.615 137.706 C 318.573 137.547,318.540 137.717,318.542 138.083 M81.375 154.750 C 81.377 155.117,81.411 155.247,81.451 155.040 C 81.491 154.832,81.490 154.532,81.448 154.373 C 81.406 154.214,81.374 154.383,81.375 154.750 M318.542 154.750 C 318.544 155.117,318.578 155.247,318.618 155.040 C 318.658 154.832,318.656 154.532,318.615 154.373 C 318.573 154.214,318.540 154.383,318.542 154.750 " stroke="none" fill="#e8e4e4" fill-rule="evenodd"></path></g></svg>